<?xml version="1.0" encoding="utf-8" standalone="no"?>
<!DOCTYPE svg PUBLIC "-//W3C//DTD SVG 1.1//EN"
  "http://www.w3.org/Graphics/SVG/1.1/DTD/svg11.dtd">
<!-- Created with matplotlib (https://matplotlib.org/) -->
<svg height="277.314375pt" version="1.1" viewBox="0 0 294.668437 277.314375" width="294.668437pt" xmlns="http://www.w3.org/2000/svg" xmlns:xlink="http://www.w3.org/1999/xlink">
 <defs>
  <style type="text/css">
*{stroke-linecap:butt;stroke-linejoin:round;}
  </style>
 </defs>
 <g id="figure_1">
  <g id="patch_1">
   <path d="M 0 277.314375 
L 294.668437 277.314375 
L 294.668437 0 
L 0 0 
z
" style="fill:none;"/>
  </g>
  <g id="axes_1">
   <g id="patch_2">
    <path d="M 58.523438 239.758125 
L 287.468437 239.758125 
L 287.468437 22.318125 
L 58.523438 22.318125 
z
" style="fill:#ffffff;"/>
   </g>
   <g id="matplotlib.axis_1">
    <g id="xtick_1">
     <g id="line2d_1">
      <defs>
       <path d="M 0 0 
L 0 3.5 
" id="mdbcd59f1e6" style="stroke:#000000;stroke-width:0.8;"/>
      </defs>
      <g>
       <use style="stroke:#000000;stroke-width:0.8;" x="61.308477" xlink:href="#mdbcd59f1e6" y="239.758125"/>
      </g>
     </g>
     <g id="text_1">
      <!-- 150.8 -->
      <defs>
       <path d="M 12.40625 8.296875 
L 28.515625 8.296875 
L 28.515625 63.921875 
L 10.984375 60.40625 
L 10.984375 69.390625 
L 28.421875 72.90625 
L 38.28125 72.90625 
L 38.28125 8.296875 
L 54.390625 8.296875 
L 54.390625 0 
L 12.40625 0 
z
" id="DejaVuSans-49"/>
       <path d="M 10.796875 72.90625 
L 49.515625 72.90625 
L 49.515625 64.59375 
L 19.828125 64.59375 
L 19.828125 46.734375 
Q 21.96875 47.46875 24.109375 47.828125 
Q 26.265625 48.1875 28.421875 48.1875 
Q 40.625 48.1875 47.75 41.5 
Q 54.890625 34.8125 54.890625 23.390625 
Q 54.890625 11.625 47.5625 5.09375 
Q 40.234375 -1.421875 26.90625 -1.421875 
Q 22.3125 -1.421875 17.546875 -0.640625 
Q 12.796875 0.140625 7.71875 1.703125 
L 7.71875 11.625 
Q 12.109375 9.234375 16.796875 8.0625 
Q 21.484375 6.890625 26.703125 6.890625 
Q 35.15625 6.890625 40.078125 11.328125 
Q 45.015625 15.765625 45.015625 23.390625 
Q 45.015625 31 40.078125 35.4375 
Q 35.15625 39.890625 26.703125 39.890625 
Q 22.75 39.890625 18.8125 39.015625 
Q 14.890625 38.140625 10.796875 36.28125 
z
" id="DejaVuSans-53"/>
       <path d="M 31.78125 66.40625 
Q 24.171875 66.40625 20.328125 58.90625 
Q 16.5 51.421875 16.5 36.375 
Q 16.5 21.390625 20.328125 13.890625 
Q 24.171875 6.390625 31.78125 6.390625 
Q 39.453125 6.390625 43.28125 13.890625 
Q 47.125 21.390625 47.125 36.375 
Q 47.125 51.421875 43.28125 58.90625 
Q 39.453125 66.40625 31.78125 66.40625 
z
M 31.78125 74.21875 
Q 44.046875 74.21875 50.515625 64.515625 
Q 56.984375 54.828125 56.984375 36.375 
Q 56.984375 17.96875 50.515625 8.265625 
Q 44.046875 -1.421875 31.78125 -1.421875 
Q 19.53125 -1.421875 13.0625 8.265625 
Q 6.59375 17.96875 6.59375 36.375 
Q 6.59375 54.828125 13.0625 64.515625 
Q 19.53125 74.21875 31.78125 74.21875 
z
" id="DejaVuSans-48"/>
       <path d="M 10.6875 12.40625 
L 21 12.40625 
L 21 0 
L 10.6875 0 
z
" id="DejaVuSans-46"/>
       <path d="M 31.78125 34.625 
Q 24.75 34.625 20.71875 30.859375 
Q 16.703125 27.09375 16.703125 20.515625 
Q 16.703125 13.921875 20.71875 10.15625 
Q 24.75 6.390625 31.78125 6.390625 
Q 38.8125 6.390625 42.859375 10.171875 
Q 46.921875 13.96875 46.921875 20.515625 
Q 46.921875 27.09375 42.890625 30.859375 
Q 38.875 34.625 31.78125 34.625 
z
M 21.921875 38.8125 
Q 15.578125 40.375 12.03125 44.71875 
Q 8.5 49.078125 8.5 55.328125 
Q 8.5 64.0625 14.71875 69.140625 
Q 20.953125 74.21875 31.78125 74.21875 
Q 42.671875 74.21875 48.875 69.140625 
Q 55.078125 64.0625 55.078125 55.328125 
Q 55.078125 49.078125 51.53125 44.71875 
Q 48 40.375 41.703125 38.8125 
Q 48.828125 37.15625 52.796875 32.3125 
Q 56.78125 27.484375 56.78125 20.515625 
Q 56.78125 9.90625 50.3125 4.234375 
Q 43.84375 -1.421875 31.78125 -1.421875 
Q 19.734375 -1.421875 13.25 4.234375 
Q 6.78125 9.90625 6.78125 20.515625 
Q 6.78125 27.484375 10.78125 32.3125 
Q 14.796875 37.15625 21.921875 38.8125 
z
M 18.3125 54.390625 
Q 18.3125 48.734375 21.84375 45.5625 
Q 25.390625 42.390625 31.78125 42.390625 
Q 38.140625 42.390625 41.71875 45.5625 
Q 45.3125 48.734375 45.3125 54.390625 
Q 45.3125 60.0625 41.71875 63.234375 
Q 38.140625 66.40625 31.78125 66.40625 
Q 25.390625 66.40625 21.84375 63.234375 
Q 18.3125 60.0625 18.3125 54.390625 
z
" id="DejaVuSans-56"/>
      </defs>
      <g transform="translate(46.994414 254.356562)scale(0.1 -0.1)">
       <use xlink:href="#DejaVuSans-49"/>
       <use x="63.623047" xlink:href="#DejaVuSans-53"/>
       <use x="127.246094" xlink:href="#DejaVuSans-48"/>
       <use x="190.869141" xlink:href="#DejaVuSans-46"/>
       <use x="222.65625" xlink:href="#DejaVuSans-56"/>
      </g>
     </g>
    </g>
    <g id="xtick_2">
     <g id="line2d_2">
      <g>
       <use style="stroke:#000000;stroke-width:0.8;" x="108.254054" xlink:href="#mdbcd59f1e6" y="239.758125"/>
      </g>
     </g>
     <g id="text_2">
      <!-- 150.9 -->
      <defs>
       <path d="M 10.984375 1.515625 
L 10.984375 10.5 
Q 14.703125 8.734375 18.5 7.8125 
Q 22.3125 6.890625 25.984375 6.890625 
Q 35.75 6.890625 40.890625 13.453125 
Q 46.046875 20.015625 46.78125 33.40625 
Q 43.953125 29.203125 39.59375 26.953125 
Q 35.25 24.703125 29.984375 24.703125 
Q 19.046875 24.703125 12.671875 31.3125 
Q 6.296875 37.9375 6.296875 49.421875 
Q 6.296875 60.640625 12.9375 67.421875 
Q 19.578125 74.21875 30.609375 74.21875 
Q 43.265625 74.21875 49.921875 64.515625 
Q 56.59375 54.828125 56.59375 36.375 
Q 56.59375 19.140625 48.40625 8.859375 
Q 40.234375 -1.421875 26.421875 -1.421875 
Q 22.703125 -1.421875 18.890625 -0.6875 
Q 15.09375 0.046875 10.984375 1.515625 
z
M 30.609375 32.421875 
Q 37.25 32.421875 41.125 36.953125 
Q 45.015625 41.5 45.015625 49.421875 
Q 45.015625 57.28125 41.125 61.84375 
Q 37.25 66.40625 30.609375 66.40625 
Q 23.96875 66.40625 20.09375 61.84375 
Q 16.21875 57.28125 16.21875 49.421875 
Q 16.21875 41.5 20.09375 36.953125 
Q 23.96875 32.421875 30.609375 32.421875 
z
" id="DejaVuSans-57"/>
      </defs>
      <g transform="translate(93.939992 254.356562)scale(0.1 -0.1)">
       <use xlink:href="#DejaVuSans-49"/>
       <use x="63.623047" xlink:href="#DejaVuSans-53"/>
       <use x="127.246094" xlink:href="#DejaVuSans-48"/>
       <use x="190.869141" xlink:href="#DejaVuSans-46"/>
       <use x="222.65625" xlink:href="#DejaVuSans-57"/>
      </g>
     </g>
    </g>
    <g id="xtick_3">
     <g id="line2d_3">
      <g>
       <use style="stroke:#000000;stroke-width:0.8;" x="155.199631" xlink:href="#mdbcd59f1e6" y="239.758125"/>
      </g>
     </g>
     <g id="text_3">
      <!-- 151.0 -->
      <g transform="translate(140.885569 254.356562)scale(0.1 -0.1)">
       <use xlink:href="#DejaVuSans-49"/>
       <use x="63.623047" xlink:href="#DejaVuSans-53"/>
       <use x="127.246094" xlink:href="#DejaVuSans-49"/>
       <use x="190.869141" xlink:href="#DejaVuSans-46"/>
       <use x="222.65625" xlink:href="#DejaVuSans-48"/>
      </g>
     </g>
    </g>
    <g id="xtick_4">
     <g id="line2d_4">
      <g>
       <use style="stroke:#000000;stroke-width:0.8;" x="202.145208" xlink:href="#mdbcd59f1e6" y="239.758125"/>
      </g>
     </g>
     <g id="text_4">
      <!-- 151.1 -->
      <g transform="translate(187.831146 254.356562)scale(0.1 -0.1)">
       <use xlink:href="#DejaVuSans-49"/>
       <use x="63.623047" xlink:href="#DejaVuSans-53"/>
       <use x="127.246094" xlink:href="#DejaVuSans-49"/>
       <use x="190.869141" xlink:href="#DejaVuSans-46"/>
       <use x="222.65625" xlink:href="#DejaVuSans-49"/>
      </g>
     </g>
    </g>
    <g id="xtick_5">
     <g id="line2d_5">
      <g>
       <use style="stroke:#000000;stroke-width:0.8;" x="249.090785" xlink:href="#mdbcd59f1e6" y="239.758125"/>
      </g>
     </g>
     <g id="text_5">
      <!-- 151.2 -->
      <defs>
       <path d="M 19.1875 8.296875 
L 53.609375 8.296875 
L 53.609375 0 
L 7.328125 0 
L 7.328125 8.296875 
Q 12.9375 14.109375 22.625 23.890625 
Q 32.328125 33.6875 34.8125 36.53125 
Q 39.546875 41.84375 41.421875 45.53125 
Q 43.3125 49.21875 43.3125 52.78125 
Q 43.3125 58.59375 39.234375 62.25 
Q 35.15625 65.921875 28.609375 65.921875 
Q 23.96875 65.921875 18.8125 64.3125 
Q 13.671875 62.703125 7.8125 59.421875 
L 7.8125 69.390625 
Q 13.765625 71.78125 18.9375 73 
Q 24.125 74.21875 28.421875 74.21875 
Q 39.75 74.21875 46.484375 68.546875 
Q 53.21875 62.890625 53.21875 53.421875 
Q 53.21875 48.921875 51.53125 44.890625 
Q 49.859375 40.875 45.40625 35.40625 
Q 44.1875 33.984375 37.640625 27.21875 
Q 31.109375 20.453125 19.1875 8.296875 
z
" id="DejaVuSans-50"/>
      </defs>
      <g transform="translate(234.776723 254.356562)scale(0.1 -0.1)">
       <use xlink:href="#DejaVuSans-49"/>
       <use x="63.623047" xlink:href="#DejaVuSans-53"/>
       <use x="127.246094" xlink:href="#DejaVuSans-49"/>
       <use x="190.869141" xlink:href="#DejaVuSans-46"/>
       <use x="222.65625" xlink:href="#DejaVuSans-50"/>
      </g>
     </g>
    </g>
    <g id="text_6">
     <!-- Longitude -->
     <defs>
      <path d="M 9.8125 72.90625 
L 19.671875 72.90625 
L 19.671875 8.296875 
L 55.171875 8.296875 
L 55.171875 0 
L 9.8125 0 
z
" id="DejaVuSans-76"/>
      <path d="M 30.609375 48.390625 
Q 23.390625 48.390625 19.1875 42.75 
Q 14.984375 37.109375 14.984375 27.296875 
Q 14.984375 17.484375 19.15625 11.84375 
Q 23.34375 6.203125 30.609375 6.203125 
Q 37.796875 6.203125 41.984375 11.859375 
Q 46.1875 17.53125 46.1875 27.296875 
Q 46.1875 37.015625 41.984375 42.703125 
Q 37.796875 48.390625 30.609375 48.390625 
z
M 30.609375 56 
Q 42.328125 56 49.015625 48.375 
Q 55.71875 40.765625 55.71875 27.296875 
Q 55.71875 13.875 49.015625 6.21875 
Q 42.328125 -1.421875 30.609375 -1.421875 
Q 18.84375 -1.421875 12.171875 6.21875 
Q 5.515625 13.875 5.515625 27.296875 
Q 5.515625 40.765625 12.171875 48.375 
Q 18.84375 56 30.609375 56 
z
" id="DejaVuSans-111"/>
      <path d="M 54.890625 33.015625 
L 54.890625 0 
L 45.90625 0 
L 45.90625 32.71875 
Q 45.90625 40.484375 42.875 44.328125 
Q 39.84375 48.1875 33.796875 48.1875 
Q 26.515625 48.1875 22.3125 43.546875 
Q 18.109375 38.921875 18.109375 30.90625 
L 18.109375 0 
L 9.078125 0 
L 9.078125 54.6875 
L 18.109375 54.6875 
L 18.109375 46.1875 
Q 21.34375 51.125 25.703125 53.5625 
Q 30.078125 56 35.796875 56 
Q 45.21875 56 50.046875 50.171875 
Q 54.890625 44.34375 54.890625 33.015625 
z
" id="DejaVuSans-110"/>
      <path d="M 45.40625 27.984375 
Q 45.40625 37.75 41.375 43.109375 
Q 37.359375 48.484375 30.078125 48.484375 
Q 22.859375 48.484375 18.828125 43.109375 
Q 14.796875 37.75 14.796875 27.984375 
Q 14.796875 18.265625 18.828125 12.890625 
Q 22.859375 7.515625 30.078125 7.515625 
Q 37.359375 7.515625 41.375 12.890625 
Q 45.40625 18.265625 45.40625 27.984375 
z
M 54.390625 6.78125 
Q 54.390625 -7.171875 48.1875 -13.984375 
Q 42 -20.796875 29.203125 -20.796875 
Q 24.46875 -20.796875 20.265625 -20.09375 
Q 16.0625 -19.390625 12.109375 -17.921875 
L 12.109375 -9.1875 
Q 16.0625 -11.328125 19.921875 -12.34375 
Q 23.78125 -13.375 27.78125 -13.375 
Q 36.625 -13.375 41.015625 -8.765625 
Q 45.40625 -4.15625 45.40625 5.171875 
L 45.40625 9.625 
Q 42.625 4.78125 38.28125 2.390625 
Q 33.9375 0 27.875 0 
Q 17.828125 0 11.671875 7.65625 
Q 5.515625 15.328125 5.515625 27.984375 
Q 5.515625 40.671875 11.671875 48.328125 
Q 17.828125 56 27.875 56 
Q 33.9375 56 38.28125 53.609375 
Q 42.625 51.21875 45.40625 46.390625 
L 45.40625 54.6875 
L 54.390625 54.6875 
z
" id="DejaVuSans-103"/>
      <path d="M 9.421875 54.6875 
L 18.40625 54.6875 
L 18.40625 0 
L 9.421875 0 
z
M 9.421875 75.984375 
L 18.40625 75.984375 
L 18.40625 64.59375 
L 9.421875 64.59375 
z
" id="DejaVuSans-105"/>
      <path d="M 18.3125 70.21875 
L 18.3125 54.6875 
L 36.8125 54.6875 
L 36.8125 47.703125 
L 18.3125 47.703125 
L 18.3125 18.015625 
Q 18.3125 11.328125 20.140625 9.421875 
Q 21.96875 7.515625 27.59375 7.515625 
L 36.8125 7.515625 
L 36.8125 0 
L 27.59375 0 
Q 17.1875 0 13.234375 3.875 
Q 9.28125 7.765625 9.28125 18.015625 
L 9.28125 47.703125 
L 2.6875 47.703125 
L 2.6875 54.6875 
L 9.28125 54.6875 
L 9.28125 70.21875 
z
" id="DejaVuSans-116"/>
      <path d="M 8.5 21.578125 
L 8.5 54.6875 
L 17.484375 54.6875 
L 17.484375 21.921875 
Q 17.484375 14.15625 20.5 10.265625 
Q 23.53125 6.390625 29.59375 6.390625 
Q 36.859375 6.390625 41.078125 11.03125 
Q 45.3125 15.671875 45.3125 23.6875 
L 45.3125 54.6875 
L 54.296875 54.6875 
L 54.296875 0 
L 45.3125 0 
L 45.3125 8.40625 
Q 42.046875 3.421875 37.71875 1 
Q 33.40625 -1.421875 27.6875 -1.421875 
Q 18.265625 -1.421875 13.375 4.4375 
Q 8.5 10.296875 8.5 21.578125 
z
M 31.109375 56 
z
" id="DejaVuSans-117"/>
      <path d="M 45.40625 46.390625 
L 45.40625 75.984375 
L 54.390625 75.984375 
L 54.390625 0 
L 45.40625 0 
L 45.40625 8.203125 
Q 42.578125 3.328125 38.25 0.953125 
Q 33.9375 -1.421875 27.875 -1.421875 
Q 17.96875 -1.421875 11.734375 6.484375 
Q 5.515625 14.40625 5.515625 27.296875 
Q 5.515625 40.1875 11.734375 48.09375 
Q 17.96875 56 27.875 56 
Q 33.9375 56 38.25 53.625 
Q 42.578125 51.265625 45.40625 46.390625 
z
M 14.796875 27.296875 
Q 14.796875 17.390625 18.875 11.75 
Q 22.953125 6.109375 30.078125 6.109375 
Q 37.203125 6.109375 41.296875 11.75 
Q 45.40625 17.390625 45.40625 27.296875 
Q 45.40625 37.203125 41.296875 42.84375 
Q 37.203125 48.484375 30.078125 48.484375 
Q 22.953125 48.484375 18.875 42.84375 
Q 14.796875 37.203125 14.796875 27.296875 
z
" id="DejaVuSans-100"/>
      <path d="M 56.203125 29.59375 
L 56.203125 25.203125 
L 14.890625 25.203125 
Q 15.484375 15.921875 20.484375 11.0625 
Q 25.484375 6.203125 34.421875 6.203125 
Q 39.59375 6.203125 44.453125 7.46875 
Q 49.3125 8.734375 54.109375 11.28125 
L 54.109375 2.78125 
Q 49.265625 0.734375 44.1875 -0.34375 
Q 39.109375 -1.421875 33.890625 -1.421875 
Q 20.796875 -1.421875 13.15625 6.1875 
Q 5.515625 13.8125 5.515625 26.8125 
Q 5.515625 40.234375 12.765625 48.109375 
Q 20.015625 56 32.328125 56 
Q 43.359375 56 49.78125 48.890625 
Q 56.203125 41.796875 56.203125 29.59375 
z
M 47.21875 32.234375 
Q 47.125 39.59375 43.09375 43.984375 
Q 39.0625 48.390625 32.421875 48.390625 
Q 24.90625 48.390625 20.390625 44.140625 
Q 15.875 39.890625 15.1875 32.171875 
z
" id="DejaVuSans-101"/>
     </defs>
     <g transform="translate(148.126406 268.034687)scale(0.1 -0.1)">
      <use xlink:href="#DejaVuSans-76"/>
      <use x="53.962891" xlink:href="#DejaVuSans-111"/>
      <use x="115.144531" xlink:href="#DejaVuSans-110"/>
      <use x="178.523438" xlink:href="#DejaVuSans-103"/>
      <use x="242" xlink:href="#DejaVuSans-105"/>
      <use x="269.783203" xlink:href="#DejaVuSans-116"/>
      <use x="308.992188" xlink:href="#DejaVuSans-117"/>
      <use x="372.371094" xlink:href="#DejaVuSans-100"/>
      <use x="435.847656" xlink:href="#DejaVuSans-101"/>
     </g>
    </g>
   </g>
   <g id="matplotlib.axis_2">
    <g id="ytick_1">
     <g id="line2d_6">
      <defs>
       <path d="M 0 0 
L -3.5 0 
" id="m77cd874a0c" style="stroke:#000000;stroke-width:0.8;"/>
      </defs>
      <g>
       <use style="stroke:#000000;stroke-width:0.8;" x="58.523438" xlink:href="#m77cd874a0c" y="202.442067"/>
      </g>
     </g>
     <g id="text_7">
      <!-- −34.1 -->
      <defs>
       <path d="M 10.59375 35.5 
L 73.1875 35.5 
L 73.1875 27.203125 
L 10.59375 27.203125 
z
" id="DejaVuSans-8722"/>
       <path d="M 40.578125 39.3125 
Q 47.65625 37.796875 51.625 33 
Q 55.609375 28.21875 55.609375 21.1875 
Q 55.609375 10.40625 48.1875 4.484375 
Q 40.765625 -1.421875 27.09375 -1.421875 
Q 22.515625 -1.421875 17.65625 -0.515625 
Q 12.796875 0.390625 7.625 2.203125 
L 7.625 11.71875 
Q 11.71875 9.328125 16.59375 8.109375 
Q 21.484375 6.890625 26.8125 6.890625 
Q 36.078125 6.890625 40.9375 10.546875 
Q 45.796875 14.203125 45.796875 21.1875 
Q 45.796875 27.640625 41.28125 31.265625 
Q 36.765625 34.90625 28.71875 34.90625 
L 20.21875 34.90625 
L 20.21875 43.015625 
L 29.109375 43.015625 
Q 36.375 43.015625 40.234375 45.921875 
Q 44.09375 48.828125 44.09375 54.296875 
Q 44.09375 59.90625 40.109375 62.90625 
Q 36.140625 65.921875 28.71875 65.921875 
Q 24.65625 65.921875 20.015625 65.03125 
Q 15.375 64.15625 9.8125 62.3125 
L 9.8125 71.09375 
Q 15.4375 72.65625 20.34375 73.4375 
Q 25.25 74.21875 29.59375 74.21875 
Q 40.828125 74.21875 47.359375 69.109375 
Q 53.90625 64.015625 53.90625 55.328125 
Q 53.90625 49.265625 50.4375 45.09375 
Q 46.96875 40.921875 40.578125 39.3125 
z
" id="DejaVuSans-51"/>
       <path d="M 37.796875 64.3125 
L 12.890625 25.390625 
L 37.796875 25.390625 
z
M 35.203125 72.90625 
L 47.609375 72.90625 
L 47.609375 25.390625 
L 58.015625 25.390625 
L 58.015625 17.1875 
L 47.609375 17.1875 
L 47.609375 0 
L 37.796875 0 
L 37.796875 17.1875 
L 4.890625 17.1875 
L 4.890625 26.703125 
z
" id="DejaVuSans-52"/>
      </defs>
      <g transform="translate(20.878125 206.241286)scale(0.1 -0.1)">
       <use xlink:href="#DejaVuSans-8722"/>
       <use x="83.789062" xlink:href="#DejaVuSans-51"/>
       <use x="147.412109" xlink:href="#DejaVuSans-52"/>
       <use x="211.035156" xlink:href="#DejaVuSans-46"/>
       <use x="242.822266" xlink:href="#DejaVuSans-49"/>
      </g>
     </g>
    </g>
    <g id="ytick_2">
     <g id="line2d_7">
      <g>
       <use style="stroke:#000000;stroke-width:0.8;" x="58.523438" xlink:href="#m77cd874a0c" y="155.49649"/>
      </g>
     </g>
     <g id="text_8">
      <!-- −34.0 -->
      <g transform="translate(20.878125 159.295709)scale(0.1 -0.1)">
       <use xlink:href="#DejaVuSans-8722"/>
       <use x="83.789062" xlink:href="#DejaVuSans-51"/>
       <use x="147.412109" xlink:href="#DejaVuSans-52"/>
       <use x="211.035156" xlink:href="#DejaVuSans-46"/>
       <use x="242.822266" xlink:href="#DejaVuSans-48"/>
      </g>
     </g>
    </g>
    <g id="ytick_3">
     <g id="line2d_8">
      <g>
       <use style="stroke:#000000;stroke-width:0.8;" x="58.523438" xlink:href="#m77cd874a0c" y="108.550913"/>
      </g>
     </g>
     <g id="text_9">
      <!-- −33.9 -->
      <g transform="translate(20.878125 112.350132)scale(0.1 -0.1)">
       <use xlink:href="#DejaVuSans-8722"/>
       <use x="83.789062" xlink:href="#DejaVuSans-51"/>
       <use x="147.412109" xlink:href="#DejaVuSans-51"/>
       <use x="211.035156" xlink:href="#DejaVuSans-46"/>
       <use x="242.822266" xlink:href="#DejaVuSans-57"/>
      </g>
     </g>
    </g>
    <g id="ytick_4">
     <g id="line2d_9">
      <g>
       <use style="stroke:#000000;stroke-width:0.8;" x="58.523438" xlink:href="#m77cd874a0c" y="61.605336"/>
      </g>
     </g>
     <g id="text_10">
      <!-- −33.8 -->
      <g transform="translate(20.878125 65.404555)scale(0.1 -0.1)">
       <use xlink:href="#DejaVuSans-8722"/>
       <use x="83.789062" xlink:href="#DejaVuSans-51"/>
       <use x="147.412109" xlink:href="#DejaVuSans-51"/>
       <use x="211.035156" xlink:href="#DejaVuSans-46"/>
       <use x="242.822266" xlink:href="#DejaVuSans-56"/>
      </g>
     </g>
    </g>
    <g id="text_11">
     <!-- Latiude -->
     <defs>
      <path d="M 34.28125 27.484375 
Q 23.390625 27.484375 19.1875 25 
Q 14.984375 22.515625 14.984375 16.5 
Q 14.984375 11.71875 18.140625 8.90625 
Q 21.296875 6.109375 26.703125 6.109375 
Q 34.1875 6.109375 38.703125 11.40625 
Q 43.21875 16.703125 43.21875 25.484375 
L 43.21875 27.484375 
z
M 52.203125 31.203125 
L 52.203125 0 
L 43.21875 0 
L 43.21875 8.296875 
Q 40.140625 3.328125 35.546875 0.953125 
Q 30.953125 -1.421875 24.3125 -1.421875 
Q 15.921875 -1.421875 10.953125 3.296875 
Q 6 8.015625 6 15.921875 
Q 6 25.140625 12.171875 29.828125 
Q 18.359375 34.515625 30.609375 34.515625 
L 43.21875 34.515625 
L 43.21875 35.40625 
Q 43.21875 41.609375 39.140625 45 
Q 35.0625 48.390625 27.6875 48.390625 
Q 23 48.390625 18.546875 47.265625 
Q 14.109375 46.140625 10.015625 43.890625 
L 10.015625 52.203125 
Q 14.9375 54.109375 19.578125 55.046875 
Q 24.21875 56 28.609375 56 
Q 40.484375 56 46.34375 49.84375 
Q 52.203125 43.703125 52.203125 31.203125 
z
" id="DejaVuSans-97"/>
     </defs>
     <g transform="translate(14.798438 149.656875)rotate(-90)scale(0.1 -0.1)">
      <use xlink:href="#DejaVuSans-76"/>
      <use x="55.712891" xlink:href="#DejaVuSans-97"/>
      <use x="116.992188" xlink:href="#DejaVuSans-116"/>
      <use x="156.201172" xlink:href="#DejaVuSans-105"/>
      <use x="183.984375" xlink:href="#DejaVuSans-117"/>
      <use x="247.363281" xlink:href="#DejaVuSans-100"/>
      <use x="310.839844" xlink:href="#DejaVuSans-101"/>
     </g>
    </g>
   </g>
   <g id="LineCollection_1">
    <path clip-path="url(#p9fd942dd89)" d="M 155.987584 65.452377 
L 156.05192 65.461742 
" style="fill:none;stroke:#1f77b4;stroke-width:4;"/>
    <path clip-path="url(#p9fd942dd89)" d="M 239.093562 97.184934 
L 239.114535 97.173916 
L 239.47466 96.969772 
L 239.599869 96.892647 
L 239.815543 96.759292 
L 239.976128 96.659384 
L 240.015123 96.635657 
L 240.169805 96.541494 
L 240.257672 96.488018 
L 240.338181 96.439028 
" style="fill:none;stroke:#ff7f0e;stroke-width:4;"/>
    <path clip-path="url(#p9fd942dd89)" d="M 236.673184 111.123332 
L 236.634701 111.137183 
L 236.615498 111.167245 
L 236.574496 111.23772 
L 236.544276 111.313153 
" style="fill:none;stroke:#2ca02c;stroke-width:4;"/>
    <path clip-path="url(#p9fd942dd89)" d="M 223.663667 80.453836 
L 223.323807 80.159975 
L 223.220672 80.087297 
L 223.116869 80.02662 
L 223.000277 79.969445 
L 222.880812 79.924194 
L 222.69288 79.871426 
L 222.569283 79.844472 
L 222.42377 79.829401 
L 222.29675 79.821492 
L 222.102876 79.826804 
L 221.731261 79.885513 
L 221.394903 79.956539 
L 221.057207 80.054794 
L 220.73954 80.164539 
L 220.474089 80.249259 
L 220.43533 80.261654 
L 220.062456 80.356407 
L 219.857052 80.397605 
L 219.557643 80.457653 
L 219.369868 80.470677 
L 219.216799 80.457377 
L 219.194921 80.455449 
L 219.06436 80.419956 
L 218.932697 80.355187 
L 218.67067 80.199718 
L 218.333446 79.965943 
L 217.393666 79.317073 
L 216.856863 79.128747 
L 216.623521 79.044146 
L 216.401985 78.963795 
L 216.154123 78.866877 
" style="fill:none;stroke:#d62728;stroke-width:4;"/>
    <path clip-path="url(#p9fd942dd89)" d="M 202.487826 68.841731 
L 202.625942 68.862429 
L 202.885648 68.89442 
L 203.094239 68.920036 
L 203.205164 68.933651 
L 203.293464 68.944984 
L 203.382354 68.952775 
L 203.456607 68.955096 
L 203.47093 68.955529 
L 203.558167 68.96273 
L 203.593463 68.966035 
L 203.671887 68.970167 
L 203.728668 68.979375 
" style="fill:none;stroke:#9467bd;stroke-width:4;"/>
    <path clip-path="url(#p9fd942dd89)" d="M 223.983538 80.752891 
L 223.663667 80.453836 
" style="fill:none;stroke:#8c564b;stroke-width:4;"/>
    <path clip-path="url(#p9fd942dd89)" d="M 230.581436 88.551967 
L 232.150097 90.00014 
L 232.277786 90.099694 
" style="fill:none;stroke:#e377c2;stroke-width:4;"/>
    <path clip-path="url(#p9fd942dd89)" d="M 225.499549 82.381835 
L 225.11487 81.983344 
L 224.0729 80.849139 
L 223.983538 80.752891 
" style="fill:none;stroke:#7f7f7f;stroke-width:4;"/>
    <path clip-path="url(#p9fd942dd89)" d="M 234.008448 111.153355 
L 233.979605 111.153749 
L 233.934511 111.147256 
L 233.880209 111.126519 
" style="fill:none;stroke:#bcbd22;stroke-width:4;"/>
    <path clip-path="url(#p9fd942dd89)" d="M 168.58657 65.880064 
L 168.382229 65.875618 
L 168.276812 65.876877 
L 168.248323 65.878136 
L 168.22007 65.879081 
L 168.183239 65.87971 
L 168.154042 65.880222 
" style="fill:none;stroke:#17becf;stroke-width:4;"/>
    <path clip-path="url(#p9fd942dd89)" d="M 214.715276 76.252626 
L 214.680255 75.767803 
L 214.659478 75.578572 
L 214.644132 75.414918 
L 214.630989 75.288253 
L 214.624221 75.223405 
L 214.566142 74.821806 
L 214.547372 74.699311 
L 214.51845 74.46054 
L 214.465014 74.118869 
L 214.420864 73.90111 
L 214.383758 73.717939 
L 214.360423 73.61933 
L 214.33949 73.545195 
L 214.308758 73.486644 
L 214.265355 73.423567 
L 214.204797 73.35746 
L 214.136132 73.299656 
L 214.061998 73.243347 
L 213.937261 73.161461 
L 213.774866 73.073003 
L 213.66154 73.003788 
L 213.437367 72.876139 
L 213.239794 72.777333 
L 213.219844 72.767141 
L 213.17168 72.742508 
L 213.08944 72.690646 
L 213.008971 72.63359 
L 212.662775 72.432357 
L 212.507306 72.339965 
L 212.371197 72.253869 
L 212.298479 72.200314 
L 212.131245 72.077938 
L 212.019217 71.990031 
L 211.882675 71.880443 
L 211.741726 71.777506 
L 211.735508 71.77298 
L 211.363028 71.499503 
L 210.945374 71.178294 
L 210.862229 71.11746 
L 210.789 71.072405 
L 210.688856 71.020818 
L 210.579307 70.967303 
L 210.469916 70.919966 
L 210.299061 70.850868 
L 210.160788 70.796094 
L 209.99737 70.732269 
L 209.894117 70.691661 
L 209.549771 70.536231 
L 209.435894 70.473902 
L 208.873317 70.165049 
L 208.37177 69.863515 
L 208.120525 69.711233 
L 207.796798 69.516808 
L 207.696221 69.47195 
L 207.5814 69.430987 
L 207.484089 69.405331 
L 207.380718 69.393881 
L 207.147692 69.392936 
L 206.557884 69.402223 
" style="fill:none;stroke:#1f77b4;stroke-width:4;"/>
    <path clip-path="url(#p9fd942dd89)" d="M 179.667655 121.150839 
L 179.827374 121.376507 
L 179.947941 121.607921 
L 179.956283 121.623897 
L 180.205954 122.079719 
L 180.218192 122.101991 
L 180.270251 122.203827 
L 180.480101 122.563362 
L 180.379406 122.93781 
L 180.255416 123.56976 
L 180.134299 124.489708 
L 179.794085 126.727268 
" style="fill:none;stroke:#ff7f0e;stroke-width:4;"/>
    <path clip-path="url(#p9fd942dd89)" d="M 179.794085 126.727268 
L 179.800381 126.819857 
" style="fill:none;stroke:#2ca02c;stroke-width:4;"/>
    <path clip-path="url(#p9fd942dd89)" d="M 77.008642 45.83166 
L 77.099185 45.361357 
L 77.109967 45.305088 
L 77.1503 45.095592 
L 77.256936 44.541002 
L 77.338193 44.143614 
L 77.376362 43.957019 
L 77.410123 43.783725 
L 77.557447 43.027942 
L 77.686002 42.396464 
" style="fill:none;stroke:#d62728;stroke-width:4;"/>
    <path clip-path="url(#p9fd942dd89)" d="M 230.210057 88.235834 
L 230.002608 88.011307 
L 229.968807 87.974751 
L 229.844974 87.841633 
L 229.497953 87.468837 
" style="fill:none;stroke:#9467bd;stroke-width:4;"/>
    <path clip-path="url(#p9fd942dd89)" d="M 236.544276 111.313153 
L 236.540341 111.352817 
L 236.525152 111.404679 
L 236.535816 111.442533 
" style="fill:none;stroke:#8c564b;stroke-width:4;"/>
    <path clip-path="url(#p9fd942dd89)" d="M 235.026809 91.621765 
L 234.38203 91.20722 
L 234.364795 91.196124 
L 234.28893 91.14918 
L 234.267327 91.136155 
L 234.162225 91.071268 
L 234.101312 91.033571 
L 233.833737 90.866061 
L 233.699084 90.793068 
L 233.550776 90.727945 
L 233.358594 90.651332 
" style="fill:none;stroke:#e377c2;stroke-width:4;"/>
    <path clip-path="url(#p9fd942dd89)" d="M 237.87208 93.772993 
L 237.83576 93.666396 
L 237.804911 93.570265 
L 237.763987 93.480746 
L 237.724756 93.398112 
L 237.646923 93.291947 
L 237.535564 93.148401 
L 237.491218 93.091581 
L 237.436089 93.038617 
L 237.374429 92.98215 
L 237.278692 92.905852 
L 237.229309 92.870752 
L 237.149036 92.817001 
L 237.063412 92.768877 
L 236.99034 92.736453 
L 236.911012 92.707177 
L 236.792649 92.673691 
L 236.716626 92.660391 
L 236.679323 92.653859 
L 236.554664 92.636112 
L 236.417296 92.603885 
L 236.356973 92.582755 
L 236.290237 92.545137 
L 236.169985 92.456483 
L 236.08444 92.390966 
L 235.992638 92.326197 
" style="fill:none;stroke:#7f7f7f;stroke-width:4;"/>
    <path clip-path="url(#p9fd942dd89)" d="M 200.31531 67.901597 
L 200.286625 67.874131 
L 200.119233 67.651532 
L 200.04317 67.552765 
L 199.948929 67.421259 
L 199.892226 67.340397 
L 199.808688 67.222663 
L 199.658688 67.035203 
" style="fill:none;stroke:#bcbd22;stroke-width:4;"/>
    <path clip-path="url(#p9fd942dd89)" d="M 196.773595 65.215376 
L 196.872165 65.231627 
" style="fill:none;stroke:#17becf;stroke-width:4;"/>
    <path clip-path="url(#p9fd942dd89)" d="M 192.73781 64.521096 
L 192.885488 64.553362 
L 192.914803 64.559344 
L 193.176162 64.618092 
L 193.554466 64.691361 
L 193.914867 64.759199 
" style="fill:none;stroke:#1f77b4;stroke-width:4;"/>
    <path clip-path="url(#p9fd942dd89)" d="M 226.545376 83.758628 
L 227.032835 84.55742 
L 227.346371 85.077146 
L 227.414366 85.177526 
L 227.493695 85.276883 
L 227.573023 85.362625 
L 227.770714 85.568619 
" style="fill:none;stroke:#ff7f0e;stroke-width:4;"/>
    <path clip-path="url(#p9fd942dd89)" d="M 235.711172 92.046148 
L 236.025022 92.27886 
" style="fill:none;stroke:#2ca02c;stroke-width:4;"/>
    <path clip-path="url(#p9fd942dd89)" d="M 235.073831 91.582455 
L 235.170827 91.645926 
L 235.328264 91.761967 
L 235.546259 91.924204 
L 235.711172 92.046148 
" style="fill:none;stroke:#d62728;stroke-width:4;"/>
    <path clip-path="url(#p9fd942dd89)" d="M 167.861007 65.850395 
L 167.891857 65.848427 
L 168.059525 65.837646 
" style="fill:none;stroke:#9467bd;stroke-width:4;"/>
    <path clip-path="url(#p9fd942dd89)" d="M 237.908832 93.897534 
L 237.87208 93.772993 
" style="fill:none;stroke:#8c564b;stroke-width:4;"/>
    <path clip-path="url(#p9fd942dd89)" d="M 216.15672 78.835634 
L 216.414301 78.926059 
L 216.658424 79.001609 
L 216.89334 79.079521 
L 217.432229 79.27796 
L 217.646092 79.417178 
L 217.699529 79.461328 
" style="fill:none;stroke:#e377c2;stroke-width:4;"/>
    <path clip-path="url(#p9fd942dd89)" d="M 216.154123 78.866877 
L 215.915784 78.771927 
L 215.721713 78.706804 
L 215.634476 78.675521 
L 215.568054 78.641524 
L 215.512139 78.605519 
" style="fill:none;stroke:#7f7f7f;stroke-width:4;"/>
    <path clip-path="url(#p9fd942dd89)" d="M 214.922686 77.473636 
L 214.87645 77.367983 
L 214.844735 77.288261 
L 214.800506 77.150263 
L 214.779376 77.043823 
L 214.769027 76.95206 
L 214.745889 76.66666 
L 214.717912 76.28261 
L 214.715276 76.252626 
" style="fill:none;stroke:#bcbd22;stroke-width:4;"/>
    <path clip-path="url(#p9fd942dd89)" d="M 229.497953 87.468837 
L 228.395188 86.298549 
L 228.176759 86.070677 
L 227.728492 85.594668 
" style="fill:none;stroke:#17becf;stroke-width:4;"/>
    <path clip-path="url(#p9fd942dd89)" d="M 235.992638 92.326197 
L 235.919212 92.272406 
L 235.789281 92.177142 
L 235.678119 92.095649 
L 235.537996 91.992908 
L 235.221785 91.758976 
L 235.026809 91.621765 
" style="fill:none;stroke:#1f77b4;stroke-width:4;"/>
    <path clip-path="url(#p9fd942dd89)" d="M 195.995974 65.076512 
L 196.501298 65.17941 
" style="fill:none;stroke:#ff7f0e;stroke-width:4;"/>
    <path clip-path="url(#p9fd942dd89)" d="M 196.872165 65.231627 
L 196.997139 65.257755 
" style="fill:none;stroke:#2ca02c;stroke-width:4;"/>
    <path clip-path="url(#p9fd942dd89)" d="M 199.185316 66.378069 
L 199.322409 66.633171 
L 199.37856 66.702032 
L 199.503455 66.824488 
L 199.626382 66.940962 
L 199.712597 67.043781 
L 199.921699 67.311554 
L 199.998706 67.420984 
L 200.085589 67.538166 
L 200.144337 67.605532 
L 200.319442 67.83002 
L 200.404712 67.920996 
L 200.450318 67.970852 
" style="fill:none;stroke:#d62728;stroke-width:4;"/>
    <path clip-path="url(#p9fd942dd89)" d="M 199.15482 66.41919 
L 199.084345 66.252939 
L 199.051331 66.199699 
L 199.006788 66.125762 
L 198.973262 66.09499 
L 198.934818 66.064534 
L 198.823223 65.989574 
L 198.794341 65.946329 
" style="fill:none;stroke:#9467bd;stroke-width:4;"/>
    <path clip-path="url(#p9fd942dd89)" d="M 196.997139 65.257755 
L 197.553892 65.390755 
L 197.715225 65.437621 
L 197.848462 65.486492 
L 197.952462 65.530091 
L 198.067362 65.57975 
L 198.230976 65.649162 
" style="fill:none;stroke:#8c564b;stroke-width:4;"/>
    <path clip-path="url(#p9fd942dd89)" d="M 198.794341 65.946329 
L 198.840301 65.953451 
L 198.974403 66.044702 
L 199.01029 66.069689 
L 199.044445 66.099043 
L 199.062979 66.123991 
L 199.082614 66.155116 
L 199.106223 66.214376 
L 199.185316 66.378069 
" style="fill:none;stroke:#e377c2;stroke-width:4;"/>
    <path clip-path="url(#p9fd942dd89)" d="M 198.794341 65.946329 
L 198.611642 65.842368 
L 198.43154 65.739863 
L 198.230976 65.649162 
" style="fill:none;stroke:#7f7f7f;stroke-width:4;"/>
    <path clip-path="url(#p9fd942dd89)" d="M 232.228835 90.149117 
L 232.118972 90.088755 
L 231.986089 90.014463 
L 231.914867 89.970746 
L 231.798472 89.89433 
L 231.523066 89.693569 
L 231.295941 89.50367 
L 231.014987 89.230074 
L 230.839843 89.033484 
L 230.684453 88.8354 
L 230.480899 88.561214 
" style="fill:none;stroke:#bcbd22;stroke-width:4;"/>
    <path clip-path="url(#p9fd942dd89)" d="M 223.53649 79.893737 
L 223.579263 79.962677 
L 223.606374 80.022803 
L 223.683814 80.204833 
L 223.717812 80.279085 
L 223.746104 80.334489 
L 223.777623 80.386352 
" style="fill:none;stroke:#17becf;stroke-width:4;"/>
    <path clip-path="url(#p9fd942dd89)" d="M 223.777623 80.386352 
L 223.778646 80.387768 
L 223.839322 80.47111 
L 224.034495 80.72574 
" style="fill:none;stroke:#1f77b4;stroke-width:4;"/>
    <path clip-path="url(#p9fd942dd89)" d="M 230.480899 88.561214 
L 230.309493 88.351954 
L 230.210057 88.235834 
" style="fill:none;stroke:#ff7f0e;stroke-width:4;"/>
    <path clip-path="url(#p9fd942dd89)" d="M 196.501298 65.17941 
L 196.600576 65.192041 
L 196.696667 65.204004 
L 196.773595 65.215376 
" style="fill:none;stroke:#2ca02c;stroke-width:4;"/>
    <path clip-path="url(#p9fd942dd89)" d="M 194.985877 64.93568 
L 195.504225 64.962635 
L 195.742131 65.005801 
L 195.995974 65.076512 
" style="fill:none;stroke:#d62728;stroke-width:4;"/>
    <path clip-path="url(#p9fd942dd89)" d="M 195.995974 65.076512 
L 195.910625 65.074505 
L 195.732569 65.041412 
L 195.535115 65.007532 
L 195.446342 64.99923 
L 195.371775 64.995728 
L 195.104436 64.983057 
L 195.023062 64.979201 
L 194.983162 64.977273 
L 194.679463 64.94902 
L 194.486927 64.921948 
L 194.405553 64.906208 
L 194.179609 64.852142 
L 193.90621 64.792646 
" style="fill:none;stroke:#9467bd;stroke-width:4;"/>
    <path clip-path="url(#p9fd942dd89)" d="M 212.395948 72.225498 
L 212.630824 72.374671 
L 212.878764 72.52471 
L 213.274854 72.754785 
L 213.773174 73.024446 
L 213.955991 73.14092 
L 214.081909 73.2208 
L 214.155964 73.278604 
L 214.227462 73.341523 
L 214.289791 73.41007 
L 214.335515 73.473147 
L 214.371402 73.538152 
L 214.397451 73.614608 
L 214.499051 74.123945 
L 214.543752 74.419262 
L 214.575113 74.63769 
L 214.598054 74.81492 
L 214.635947 75.059712 
L 214.669434 75.294745 
L 214.728418 75.769652 
L 214.76521 76.213001 
L 214.768397 76.251288 
L 214.787246 76.67024 
L 214.800782 76.849437 
L 214.815853 76.970633 
L 214.827539 77.038393 
L 214.846584 77.140347 
L 214.902618 77.332529 
L 214.961091 77.468638 
" style="fill:none;stroke:#8c564b;stroke-width:4;"/>
    <path clip-path="url(#p9fd942dd89)" d="M 186.521875 65.630747 
L 186.542062 65.62394 
L 186.612025 65.599189 
L 186.705716 65.571605 
L 186.819278 65.539693 
" style="fill:none;stroke:#e377c2;stroke-width:4;"/>
    <path clip-path="url(#p9fd942dd89)" d="M 186.521875 65.630747 
L 186.503657 65.673835 
L 186.368649 65.759065 
L 186.202005 65.860586 
L 186.123739 65.936924 
" style="fill:none;stroke:#7f7f7f;stroke-width:4;"/>
    <path clip-path="url(#p9fd942dd89)" d="M 185.811659 66.161176 
L 185.962407 66.021801 
L 186.105678 65.892538 
L 186.169187 65.838315 
L 186.283104 65.755327 
L 186.346653 65.71885 
L 186.40127 65.686623 
L 186.474381 65.652861 
L 186.521875 65.630747 
" style="fill:none;stroke:#bcbd22;stroke-width:4;"/>
    <path clip-path="url(#p9fd942dd89)" d="M 210.888711 71.094598 
L 211.080854 71.229763 
" style="fill:none;stroke:#17becf;stroke-width:4;"/>
    <path clip-path="url(#p9fd942dd89)" d="M 211.080854 71.229763 
L 211.399504 71.466725 
L 212.395948 72.225498 
" style="fill:none;stroke:#1f77b4;stroke-width:4;"/>
    <path clip-path="url(#p9fd942dd89)" d="M 188.29413 64.931116 
L 188.606052 64.851748 
L 188.773523 64.815429 
" style="fill:none;stroke:#ff7f0e;stroke-width:4;"/>
    <path clip-path="url(#p9fd942dd89)" d="M 217.699529 79.461328 
L 217.78531 79.514174 
L 217.96797 79.633166 
L 218.24129 79.818344 
L 218.617588 80.086431 
L 218.908655 80.287585 
L 219.04563 80.355738 
L 219.2216 80.399258 
L 219.337917 80.410591 
L 219.539031 80.406262 
L 219.941968 80.317726 
L 220.191522 80.261496 
L 220.415105 80.201961 
L 220.718685 80.116887 
" style="fill:none;stroke:#2ca02c;stroke-width:4;"/>
    <path clip-path="url(#p9fd942dd89)" d="M 214.961091 77.468638 
L 215.192662 77.98195 
L 215.2762 78.170591 
L 215.342622 78.323384 
L 215.380397 78.395315 
L 215.404873 78.432028 
L 215.413136 78.444462 
L 215.454689 78.493649 
L 215.484948 78.522256 
L 215.501121 78.537445 
L 215.544641 78.574354 
" style="fill:none;stroke:#d62728;stroke-width:4;"/>
    <path clip-path="url(#p9fd942dd89)" d="M 222.249177 79.757549 
L 222.301078 79.750703 
L 222.721487 79.677946 
" style="fill:none;stroke:#9467bd;stroke-width:4;"/>
    <path clip-path="url(#p9fd942dd89)" d="M 188.773523 64.815429 
L 188.858321 64.791229 
L 189.717513 64.588777 
L 190.805011 64.32915 
L 191.047678 64.299323 
L 191.239545 64.305658 
L 191.578343 64.340207 
L 191.678841 64.346188 
L 191.752149 64.350556 
L 191.981044 64.367319 
L 192.15607 64.391322 
L 192.350023 64.436298 
L 192.553301 64.482494 
L 192.73781 64.521096 
" style="fill:none;stroke:#8c564b;stroke-width:4;"/>
    <path clip-path="url(#p9fd942dd89)" d="M 222.721487 79.677946 
L 222.793024 79.666416 
L 222.863341 79.65709 
L 222.937711 79.649221 
L 223.012081 79.647292 
L 223.083894 79.651582 
L 223.110297 79.655123 
" style="fill:none;stroke:#e377c2;stroke-width:4;"/>
    <path clip-path="url(#p9fd942dd89)" d="M 223.110297 79.655123 
L 223.2069 79.670351 
L 223.300079 79.703916 
L 223.386805 79.750545 
L 223.464835 79.820941 
L 223.53649 79.893737 
" style="fill:none;stroke:#7f7f7f;stroke-width:4;"/>
    <path clip-path="url(#p9fd942dd89)" d="M 220.718685 80.116887 
L 220.872304 80.073052 
L 221.056538 80.016035 
L 221.158295 79.986326 
L 221.260682 79.95768 
L 221.363305 79.930293 
L 221.466519 79.904165 
L 221.570125 79.879611 
L 221.669837 79.857497 
L 221.769902 79.836641 
L 221.870439 79.817046 
L 221.943 79.80406 
L 221.980972 79.797646 
L 222.072616 79.782339 
L 222.163671 79.768803 
L 222.249177 79.757549 
" style="fill:none;stroke:#bcbd22;stroke-width:4;"/>
    <path clip-path="url(#p9fd942dd89)" d="M 166.362979 65.94865 
L 166.171151 65.942945 
" style="fill:none;stroke:#17becf;stroke-width:4;"/>
    <path clip-path="url(#p9fd942dd89)" d="M 186.123739 65.936924 
L 185.836017 66.196512 
L 185.111596 66.84916 
L 184.657308 67.181189 
L 184.363329 67.324657 
L 184.063015 67.446089 
L 183.561075 67.654995 
L 183.064407 67.84029 
L 182.602722 68.019763 
L 182.121873 68.21045 
L 181.892191 68.302488 
L 181.815184 68.328852 
L 181.739201 68.347031 
L 181.673212 68.356318 
L 181.602777 68.362063 
" style="fill:none;stroke:#1f77b4;stroke-width:4;"/>
    <path clip-path="url(#p9fd942dd89)" d="M 181.591798 68.315158 
L 181.68057 68.30898 
L 181.748566 68.300481 
L 181.814004 68.288676 
L 181.869054 68.27152 
L 181.938781 68.249169 
L 182.178575 68.154731 
L 182.579309 67.999183 
L 182.956079 67.850482 
L 183.05697 67.810464 
L 183.558123 67.616393 
L 184.104843 67.390095 
L 184.313749 67.303841 
L 184.536663 67.196063 
L 184.559879 67.182566 
L 184.625277 67.14306 
L 184.934524 66.922743 
L 185.115255 66.779551 
L 185.13973 66.762906 
L 185.491435 66.437802 
L 185.811659 66.161176 
" style="fill:none;stroke:#ff7f0e;stroke-width:4;"/>
    <path clip-path="url(#p9fd942dd89)" d="M 168.606874 65.828989 
L 168.730746 65.855943 
L 168.982227 65.935468 
" style="fill:none;stroke:#2ca02c;stroke-width:4;"/>
    <path clip-path="url(#p9fd942dd89)" d="M 169.716761 66.217445 
L 169.625392 66.18632 
L 169.317798 66.085074 
L 169.191054 66.039901 
L 168.975774 65.968994 
" style="fill:none;stroke:#d62728;stroke-width:4;"/>
    <path clip-path="url(#p9fd942dd89)" d="M 166.167924 65.911662 
L 166.362113 65.915794 
" style="fill:none;stroke:#9467bd;stroke-width:4;"/>
    <path clip-path="url(#p9fd942dd89)" d="M 166.362113 65.915794 
L 166.464815 65.91481 
L 166.609581 65.910481 
L 166.931498 65.896788 
" style="fill:none;stroke:#8c564b;stroke-width:4;"/>
    <path clip-path="url(#p9fd942dd89)" d="M 173.821172 67.250798 
L 174.244767 67.302425 
L 174.801442 67.375968 
" style="fill:none;stroke:#e377c2;stroke-width:4;"/>
    <path clip-path="url(#p9fd942dd89)" d="M 156.000097 65.41043 
L 156.979187 65.550474 
" style="fill:none;stroke:#7f7f7f;stroke-width:4;"/>
    <path clip-path="url(#p9fd942dd89)" d="M 168.975774 65.968994 
L 168.884405 65.937672 
L 168.761241 65.904028 
L 168.71237 65.892577 
L 168.661058 65.885258 
L 168.58657 65.880064 
" style="fill:none;stroke:#bcbd22;stroke-width:4;"/>
    <path clip-path="url(#p9fd942dd89)" d="M 230.361592 114.342933 
L 230.423803 114.260732 
" style="fill:none;stroke:#17becf;stroke-width:4;"/>
    <path clip-path="url(#p9fd942dd89)" d="M 232.277786 90.099694 
L 232.327641 90.136092 
L 232.418106 90.182367 
L 232.591006 90.261223 
L 233.318654 90.568856 
" style="fill:none;stroke:#1f77b4;stroke-width:4;"/>
    <path clip-path="url(#p9fd942dd89)" d="M 237.914577 93.765241 
L 237.950621 93.88931 
" style="fill:none;stroke:#ff7f0e;stroke-width:4;"/>
    <path clip-path="url(#p9fd942dd89)" d="M 236.025022 92.27886 
L 236.280439 92.472065 
L 236.371296 92.527036 
L 236.439174 92.556863 
L 236.532038 92.582991 
L 236.68436 92.601603 
L 236.786865 92.615257 
L 236.878549 92.636112 
L 236.960553 92.661256 
L 237.091428 92.719612 
L 237.225846 92.79709 
L 237.35802 92.891214 
L 237.46505 92.97794 
L 237.528009 93.040741 
L 237.599822 93.12853 
L 237.701776 93.272824 
L 237.757219 93.34806 
L 237.798772 93.428608 
L 237.834029 93.507031 
L 237.914577 93.765241 
" style="fill:none;stroke:#2ca02c;stroke-width:4;"/>
    <path clip-path="url(#p9fd942dd89)" d="M 224.034495 80.72574 
L 224.11949 80.818801 
L 225.162758 81.953006 
L 225.54488 82.352008 
" style="fill:none;stroke:#d62728;stroke-width:4;"/>
    <path clip-path="url(#p9fd942dd89)" d="M 237.950621 93.88931 
L 237.964197 93.918546 
" style="fill:none;stroke:#9467bd;stroke-width:4;"/>
    <path clip-path="url(#p9fd942dd89)" d="M 237.964197 93.918546 
L 237.985091 93.964782 
L 237.995165 94.013811 
L 237.992449 94.050484 
L 237.983517 94.074094 
L 237.980251 94.08283 
L 237.954635 94.122533 
L 237.916584 94.146339 
" style="fill:none;stroke:#8c564b;stroke-width:4;"/>
    <path clip-path="url(#p9fd942dd89)" d="M 239.369518 93.593599 
L 238.990584 93.728961 
L 238.70786 93.823832 
L 238.487503 93.906466 
L 238.240075 93.999488 
L 238.151067 94.017234 
L 238.085274 94.024514 
L 238.038685 94.025576 
L 237.995165 94.013811 
" style="fill:none;stroke:#e377c2;stroke-width:4;"/>
    <path clip-path="url(#p9fd942dd89)" d="M 231.345797 113.112165 
L 231.3831 113.067818 
L 231.571347 112.829794 
L 231.893382 112.424457 
L 232.22128 112.023448 
L 232.436009 111.754534 
L 232.475595 111.707866 
L 232.684658 111.459965 
L 232.75407 111.388782 
L 232.857165 111.328263 
L 232.998705 111.289189 
L 233.075082 111.273882 
L 233.147721 111.256883 
L 233.634984 111.189832 
" style="fill:none;stroke:#7f7f7f;stroke-width:4;"/>
    <path clip-path="url(#p9fd942dd89)" d="M 180.390345 68.170864 
L 180.49104 68.187273 
L 180.714387 68.220523 
L 180.732291 68.223238 
L 180.960163 68.257905 
L 181.098869 68.278839 
L 181.167337 68.288007 
L 181.253827 68.296152 
L 181.347832 68.304455 
L 181.43019 68.308233 
L 181.591798 68.315158 
" style="fill:none;stroke:#bcbd22;stroke-width:4;"/>
    <path clip-path="url(#p9fd942dd89)" d="M 105.446087 148.397809 
L 105.532183 148.409811 
L 105.608521 148.42496 
L 105.69808 148.443533 
L 105.753051 148.456203 
L 105.778471 148.462106 
L 105.867243 148.476862 
L 105.895692 148.481977 
L 105.980962 148.490792 
L 106.07969 148.496694 
L 106.211982 148.496694 
L 106.325702 148.508538 
L 106.526265 148.529039 
L 106.988895 148.581767 
L 107.249427 148.618244 
L 107.839785 148.690057 
L 108.832293 148.824828 
L 109.269032 148.882632 
L 109.432843 148.904274 
L 109.921325 148.972624 
L 110.364596 149.035583 
L 110.453407 149.047073 
L 110.493622 149.040974 
L 110.518687 149.026611 
L 110.534978 148.988639 
L 110.524787 148.933786 
L 110.518687 148.887354 
L 110.535962 148.837617 
L 110.569566 148.776035 
L 110.591956 148.716066 
L 110.599078 148.651927 
L 110.635712 148.4165 
L 110.642756 148.389506 
" style="fill:none;stroke:#17becf;stroke-width:4;"/>
    <path clip-path="url(#p9fd942dd89)" d="M 174.748202 33.86372 
L 174.713536 33.978029 
" style="fill:none;stroke:#1f77b4;stroke-width:4;"/>
    <path clip-path="url(#p9fd942dd89)" d="M 181.442035 32.762607 
L 181.955622 32.667107 
L 182.412035 32.613788 
L 182.481801 32.601669 
L 182.986692 32.530171 
L 183.339853 32.472209 
L 183.731575 32.407912 
L 184.102915 32.351879 
L 184.127587 32.348062 
L 184.618588 32.271882 
L 184.760442 32.249846 
L 184.827848 32.235169 
L 184.86822 32.201761 
" style="fill:none;stroke:#ff7f0e;stroke-width:4;"/>
    <path clip-path="url(#p9fd942dd89)" d="M 100.932168 147.81477 
L 100.822187 147.80875 
L 100.765838 147.798952 
L 100.724443 147.791751 
L 100.688517 147.792184 
L 100.656251 147.79301 
" style="fill:none;stroke:#2ca02c;stroke-width:4;"/>
    <path clip-path="url(#p9fd942dd89)" d="M 99.507644 147.620345 
L 99.598108 147.633999 
L 99.781043 147.668036 
L 100.427985 147.749372 
" style="fill:none;stroke:#d62728;stroke-width:4;"/>
    <path clip-path="url(#p9fd942dd89)" d="M 235.690868 111.271797 
L 235.920038 111.325076 
L 236.23987 111.404522 
L 236.380898 111.43793 
L 236.422451 111.446311 
L 236.446414 111.441077 
L 236.466443 111.435451 
L 236.490722 111.428604 
" style="fill:none;stroke:#9467bd;stroke-width:4;"/>
    <path clip-path="url(#p9fd942dd89)" d="M 168.982227 65.935468 
L 169.135532 65.982373 
L 169.333814 66.043876 
L 169.734941 66.177939 
" style="fill:none;stroke:#8c564b;stroke-width:4;"/>
    <path clip-path="url(#p9fd942dd89)" d="M 169.734941 66.177939 
L 169.819738 66.20812 
L 170.397544 66.481558 
L 170.801425 66.642221 
L 170.84046 66.658197 
" style="fill:none;stroke:#e377c2;stroke-width:4;"/>
    <path clip-path="url(#p9fd942dd89)" d="M 177.671267 33.377952 
L 178.602744 33.217446 
L 179.073402 33.137921 
L 179.222969 33.114272 
L 179.574594 33.053478 
L 180.148229 32.969073 
L 180.417693 32.927717 
L 180.810399 32.860351 
L 181.353656 32.776183 
" style="fill:none;stroke:#7f7f7f;stroke-width:4;"/>
    <path clip-path="url(#p9fd942dd89)" d="M 235.201205 111.188179 
L 235.235203 111.192665 
L 235.358799 111.205414 
L 235.586199 111.246692 
" style="fill:none;stroke:#bcbd22;stroke-width:4;"/>
    <path clip-path="url(#p9fd942dd89)" d="M 228.648991 115.579958 
L 228.651588 115.554381 
L 228.656664 115.529315 
L 228.720882 115.361058 
L 228.738511 115.321315 
L 228.767472 115.282713 
L 228.805247 115.258671 
L 228.848059 115.250289 
L 228.884536 115.25446 
L 228.917314 115.262842 
L 229.13767 115.384038 
L 229.198111 115.410165 
L 229.263588 115.427951 
L 229.316434 115.426928 
L 229.360545 115.416461 
L 229.414689 115.392419 
L 229.496536 115.333907 
L 229.590974 115.251352 
L 229.741131 115.100998 
L 229.843282 114.985547 
L 230.086697 114.675435 
L 230.207972 114.527717 
L 230.31028 114.404003 
L 230.361592 114.342933 
" style="fill:none;stroke:#17becf;stroke-width:4;"/>
    <path clip-path="url(#p9fd942dd89)" d="M 235.104091 111.176099 
L 235.162721 111.182946 
L 235.201205 111.188179 
" style="fill:none;stroke:#1f77b4;stroke-width:4;"/>
    <path clip-path="url(#p9fd942dd89)" d="M 236.490722 111.428604 
L 236.484701 111.405781 
L 236.491509 111.380047 
L 236.519407 111.343058 
L 236.544276 111.313153 
" style="fill:none;stroke:#ff7f0e;stroke-width:4;"/>
    <path clip-path="url(#p9fd942dd89)" d="M 174.748202 33.86372 
L 175.378421 33.756729 
L 175.846796 33.675984 
L 176.633193 33.539442 
L 177.180857 33.459523 
L 177.570572 33.394912 
L 177.597054 33.390623 
" style="fill:none;stroke:#2ca02c;stroke-width:4;"/>
    <path clip-path="url(#p9fd942dd89)" d="M 215.544641 78.574354 
L 215.602328 78.611539 
L 215.681144 78.649197 
L 215.761614 78.680912 
L 215.87612 78.724118 
L 216.004596 78.773029 
L 216.15672 78.835634 
" style="fill:none;stroke:#d62728;stroke-width:4;"/>
    <path clip-path="url(#p9fd942dd89)" d="M 215.512139 78.605519 
L 215.470822 78.567311 
L 215.428522 78.526427 
L 215.393933 78.487392 
L 215.366743 78.44155 
L 215.348918 78.408379 
L 215.32216 78.353014 
L 215.284778 78.269397 
L 215.200925 78.081661 
L 215.075204 77.818375 
L 215.036366 77.730626 
L 214.922686 77.473636 
" style="fill:none;stroke:#9467bd;stroke-width:4;"/>
    <path clip-path="url(#p9fd942dd89)" d="M 165.718161 65.902572 
L 165.600743 65.88758 
L 165.029312 65.798178 
L 164.685674 65.742814 
L 164.405035 65.687882 
L 164.258891 65.66022 
L 164.134823 65.641489 
L 164.097441 65.632754 
L 163.943231 65.607374 
" style="fill:none;stroke:#8c564b;stroke-width:4;"/>
    <path clip-path="url(#p9fd942dd89)" d="M 165.781671 65.877113 
L 165.923722 65.894427 
L 166.050466 65.904225 
L 166.167924 65.911662 
" style="fill:none;stroke:#e377c2;stroke-width:4;"/>
    <path clip-path="url(#p9fd942dd89)" d="M 237.995165 94.013811 
L 237.973601 94.0024 
L 237.949047 93.986266 
L 237.933425 93.968756 
" style="fill:none;stroke:#7f7f7f;stroke-width:4;"/>
    <path clip-path="url(#p9fd942dd89)" d="M 237.964197 93.918546 
L 238.016098 93.958564 
L 238.055644 93.971274 
L 238.101408 93.97761 
L 238.150043 93.974383 
L 238.245662 93.956558 
L 238.328886 93.927321 
L 238.492461 93.868691 
L 239.155891 93.628424 
L 239.349804 93.55126 
" style="fill:none;stroke:#bcbd22;stroke-width:4;"/>
    <path clip-path="url(#p9fd942dd89)" d="M 166.171151 65.942945 
L 166.018121 65.935508 
L 165.915734 65.925395 
L 165.822516 65.915794 
L 165.718161 65.902572 
" style="fill:none;stroke:#17becf;stroke-width:4;"/>
    <path clip-path="url(#p9fd942dd89)" d="M 157.700499 65.683554 
L 156.970805 65.580891 
L 156.05192 65.461742 
" style="fill:none;stroke:#1f77b4;stroke-width:4;"/>
    <path clip-path="url(#p9fd942dd89)" d="M 157.706599 65.647825 
L 157.89764 65.677651 
L 157.995068 65.687961 
L 158.17155 65.706652 
L 158.469543 65.74305 
L 158.622375 65.763512 
L 159.064347 65.822693 
" style="fill:none;stroke:#ff7f0e;stroke-width:4;"/>
    <path clip-path="url(#p9fd942dd89)" d="M 276.80521 102.418631 
L 276.77924 102.517988 
L 276.735365 102.734763 
L 276.713408 102.78938 
L 276.561284 102.93997 
L 276.346043 103.114248 
L 276.115613 103.26893 
L 276.084409 103.302417 
L 276.055881 103.327797 
" style="fill:none;stroke:#2ca02c;stroke-width:4;"/>
    <path clip-path="url(#p9fd942dd89)" d="M 277.035168 102.009358 
L 277.038316 102.030528 
" style="fill:none;stroke:#d62728;stroke-width:4;"/>
    <path clip-path="url(#p9fd942dd89)" d="M 277.022497 101.87502 
L 277.016595 101.923262 
L 277.015414 101.948839 
L 277.019192 101.972173 
L 277.035679 101.99535 
" style="fill:none;stroke:#9467bd;stroke-width:4;"/>
    <path clip-path="url(#p9fd942dd89)" d="M 275.905566 103.354358 
L 275.978717 103.300292 
L 276.240272 103.134395 
L 276.392672 103.02646 
L 276.579896 102.877129 
L 276.653046 102.797604 
L 276.693261 102.732048 
L 276.706876 102.597591 
L 276.71754 102.534711 
L 276.730919 102.474349 
L 276.746304 102.437872 
" style="fill:none;stroke:#8c564b;stroke-width:4;"/>
    <path clip-path="url(#p9fd942dd89)" d="M 276.963945 101.048172 
L 276.915231 100.956331 
L 276.876314 100.904901 
L 276.831535 100.856659 
L 276.80462 100.827698 
L 276.7151 100.74656 
L 276.675948 100.71693 
L 276.576945 100.677462 
L 276.54519 100.664438 
L 276.521069 100.644488 
L 276.469206 100.585739 
L 276.435995 100.51853 
L 276.427181 100.477214 
L 276.435208 100.418701 
L 276.445479 100.346574 
L 276.444259 100.28696 
L 276.429149 100.237852 
L 276.415022 100.210504 
L 276.35651 100.13334 
L 276.311494 100.08372 
L 276.157284 99.913574 
L 275.943106 99.676258 
L 275.87208 99.596339 
L 275.7983 99.52673 
L 275.70638 99.454603 
L 275.652983 99.417379 
L 275.595572 99.389047 
L 275.452105 99.320225 
L 275.323629 99.266631 
L 275.189251 99.227321 
L 275.148013 99.217327 
L 275.107444 99.199777 
L 275.064475 99.173492 
L 275.023905 99.142051 
" style="fill:none;stroke:#e377c2;stroke-width:4;"/>
    <path clip-path="url(#p9fd942dd89)" d="M 227.728492 85.594668 
L 227.535247 85.393986 
L 227.458438 85.304113 
L 227.391662 85.221479 
L 227.336297 85.135697 
L 227.244377 84.992427 
L 227.049834 84.674169 
L 226.835144 84.326321 
L 226.752038 84.201859 
L 226.62734 84.02825 
L 226.500163 83.826427 
L 226.304243 83.502543 
L 226.252105 83.416447 
L 226.132483 83.205219 
L 226.060749 83.091224 
L 225.995272 82.987696 
" style="fill:none;stroke:#7f7f7f;stroke-width:4;"/>
    <path clip-path="url(#p9fd942dd89)" d="M 228.445358 86.287649 
L 229.543558 87.44566 
L 229.786462 87.70993 
L 230.006385 87.949135 
L 230.037825 87.98872 
" style="fill:none;stroke:#bcbd22;stroke-width:4;"/>
    <path clip-path="url(#p9fd942dd89)" d="M 159.058641 65.855983 
L 158.615332 65.8005 
L 158.591604 65.79747 
L 158.460492 65.774175 
L 157.700499 65.683554 
" style="fill:none;stroke:#17becf;stroke-width:4;"/>
    <path clip-path="url(#p9fd942dd89)" d="M 203.430321 69.023131 
L 203.375153 69.014789 
L 203.305387 69.004244 
L 202.923856 68.954388 
L 202.363679 68.86235 
L 202.175235 68.826149 
L 201.955862 68.785579 
L 201.866185 68.770115 
L 201.812119 68.758822 
L 201.765451 68.744184 
L 201.690058 68.712036 
L 201.590543 68.662455 
L 201.432123 68.577343 
L 201.271302 68.491246 
L 201.028241 68.359938 
L 200.734853 68.200927 
L 200.670635 68.16323 
L 200.599963 68.121481 
L 200.423364 67.996468 
L 200.31531 67.901597 
" style="fill:none;stroke:#1f77b4;stroke-width:4;"/>
    <path clip-path="url(#p9fd942dd89)" d="M 206.557884 69.402223 
L 206.339968 69.405646 
L 206.235338 69.406472 
L 206.143654 69.412965 
L 206.004948 69.422763 
L 205.891779 69.428823 
L 205.785142 69.426541 
L 205.629162 69.40663 
L 205.52768 69.38845 
L 205.438475 69.377 
L 205.341282 69.373616 
L 205.250385 69.380108 
L 205.168814 69.39455 
L 205.098575 69.412139 
L 204.918985 69.47675 
L 204.759502 69.530108 
L 204.683951 69.54451 
L 204.620009 69.546005 
L 204.559332 69.537624 
L 204.49535 69.514408 
L 204.425623 69.47675 
L 204.323354 69.397658 
L 204.171741 69.272567 
L 204.075689 69.208978 
L 203.986563 69.15444 
L 203.940288 69.134569 
L 203.887206 69.111825 
L 203.794066 69.080857 
L 203.67232 69.057168 
L 203.610344 69.045797 
L 203.547543 69.038832 
L 203.430321 69.023131 
" style="fill:none;stroke:#ff7f0e;stroke-width:4;"/>
    <path clip-path="url(#p9fd942dd89)" d="M 200.450318 67.970852 
L 200.541687 68.038414 
L 200.654698 68.107394 
L 200.83901 68.211315 
L 201.012423 68.304573 
L 201.298532 68.459255 
L 201.515032 68.575375 
L 201.728738 68.683704 
L 201.790241 68.708691 
L 201.851784 68.725926 
L 201.908683 68.736668 
L 202.134705 68.778497 
L 202.275694 68.804192 
L 202.487826 68.841731 
" style="fill:none;stroke:#2ca02c;stroke-width:4;"/>
    <path clip-path="url(#p9fd942dd89)" d="M 206.800001 69.352052 
L 207.213208 69.353312 
L 207.371117 69.356696 
L 207.463588 69.363621 
L 207.553934 69.382155 
L 207.723136 69.438581 
L 207.805219 69.474389 
L 208.150824 69.681682 
L 208.80662 70.065613 
L 208.908102 70.128178 
L 209.458481 70.441635 
L 209.590419 70.511441 
L 209.922134 70.666123 
L 210.015116 70.697878 
L 210.305396 70.812621 
L 210.377524 70.842133 
L 210.448234 70.871133 
L 210.597368 70.936492 
L 210.734776 71.004095 
L 210.832363 71.055878 
L 210.888711 71.094598 
" style="fill:none;stroke:#d62728;stroke-width:4;"/>
    <path clip-path="url(#p9fd942dd89)" d="M 159.064347 65.822693 
L 159.552515 65.869204 
L 159.67859 65.878333 
L 159.850743 65.87546 
L 160.014201 65.872785 
L 160.401791 65.843194 
L 160.937257 65.799831 
L 161.038149 65.791961 
L 161.230488 65.774726 
L 161.385407 65.75336 
L 161.547447 65.734157 
L 162.112425 65.687607 
L 162.811505 65.639561 
L 163.408946 65.58821 
L 163.674869 65.564247 
L 163.727518 65.559485 
" style="fill:none;stroke:#9467bd;stroke-width:4;"/>
    <path clip-path="url(#p9fd942dd89)" d="M 206.568902 69.354374 
L 206.800001 69.352052 
" style="fill:none;stroke:#8c564b;stroke-width:4;"/>
    <path clip-path="url(#p9fd942dd89)" d="M 276.746304 102.437872 
L 276.75984 102.406314 
L 276.884696 102.175255 
" style="fill:none;stroke:#e377c2;stroke-width:4;"/>
    <path clip-path="url(#p9fd942dd89)" d="M 274.152869 98.318864 
L 274.086329 98.248507 
L 273.964071 98.087922 
L 273.936841 97.946029 
L 273.929207 97.887949 
L 273.921377 97.828177 
L 273.919803 97.780722 
L 273.923895 97.729096 
L 273.949708 97.638278 
L 273.979653 97.525542 
L 274.009952 97.413081 
" style="fill:none;stroke:#7f7f7f;stroke-width:4;"/>
    <path clip-path="url(#p9fd942dd89)" d="M 233.733632 111.17299 
L 233.775618 111.165553 
L 233.811937 111.158471 
L 233.838341 111.148909 
L 233.858134 111.138717 
L 233.880209 111.126519 
" style="fill:none;stroke:#bcbd22;stroke-width:4;"/>
    <path clip-path="url(#p9fd942dd89)" d="M 156.979187 65.550474 
L 157.672325 65.640781 
L 157.706599 65.647825 
" style="fill:none;stroke:#17becf;stroke-width:4;"/>
    <path clip-path="url(#p9fd942dd89)" d="M 163.727518 65.559485 
L 163.895422 65.566253 
L 163.967549 65.575776 
L 164.057619 65.593798 
" style="fill:none;stroke:#1f77b4;stroke-width:4;"/>
    <path clip-path="url(#p9fd942dd89)" d="M 174.794123 67.407723 
L 174.285494 67.342403 
L 173.802087 67.28456 
L 173.373573 67.223096 
L 172.80651 67.148411 
L 172.300399 67.084508 
L 171.838477 67.021667 
L 171.764776 67.01179 
L 171.668606 66.995028 
L 171.60065 66.981334 
L 171.520849 66.959889 
L 171.385448 66.915503 
L 171.117164 66.811345 
L 170.886223 66.719936 
L 170.829245 66.694399 
" style="fill:none;stroke:#ff7f0e;stroke-width:4;"/>
    <path clip-path="url(#p9fd942dd89)" d="M 174.801442 67.375968 
L 175.331241 67.445538 
L 176.223094 67.576768 
L 176.453642 67.608562 
L 176.750493 67.65043 
L 177.276672 67.724682 
L 178.303454 67.871613 
L 178.931744 67.95645 
" style="fill:none;stroke:#2ca02c;stroke-width:4;"/>
    <path clip-path="url(#p9fd942dd89)" d="M 163.943231 65.607374 
L 163.763208 65.590689 
L 163.670658 65.593286 
L 163.259654 65.630157 
L 163.067512 65.647903 
L 162.840348 65.665807 
L 162.357965 65.70433 
L 162.121829 65.728687 
L 161.989497 65.750841 
L 161.827811 65.754265 
L 161.763121 65.759892 
L 161.718813 65.763787 
L 161.512584 65.779606 
L 161.020992 65.819978 
L 160.934778 65.830209 
L 160.414777 65.870266 
L 160.347647 65.875342 
L 160.054258 65.898204 
L 159.756305 65.918863 
L 159.667415 65.919099 
L 159.552121 65.910914 
L 159.242049 65.875303 
L 159.058641 65.855983 
" style="fill:none;stroke:#d62728;stroke-width:4;"/>
    <path clip-path="url(#p9fd942dd89)" d="M 166.966282 65.926693 
L 166.701894 65.940151 
L 166.484607 65.948296 
L 166.362979 65.94865 
" style="fill:none;stroke:#9467bd;stroke-width:4;"/>
    <path clip-path="url(#p9fd942dd89)" d="M 167.832519 65.885849 
L 167.759565 65.889941 
L 167.668393 65.893325 
L 167.557624 65.899031 
L 167.419783 65.905012 
L 166.966282 65.926693 
" style="fill:none;stroke:#8c564b;stroke-width:4;"/>
    <path clip-path="url(#p9fd942dd89)" d="M 166.931498 65.896788 
L 167.861007 65.850395 
" style="fill:none;stroke:#e377c2;stroke-width:4;"/>
    <path clip-path="url(#p9fd942dd89)" d="M 170.84046 66.658197 
L 170.910108 66.686686 
L 171.274404 66.825196 
L 171.445495 66.887879 
L 171.57283 66.928449 
L 171.680214 66.954813 
L 171.816717 66.975432 
L 172.79679 67.10796 
L 173.821172 67.250798 
" style="fill:none;stroke:#7f7f7f;stroke-width:4;"/>
    <path clip-path="url(#p9fd942dd89)" d="M 193.914867 64.759199 
L 194.307297 64.842737 
L 194.470164 64.881733 
L 194.613986 64.903021 
L 194.985877 64.93568 
" style="fill:none;stroke:#bcbd22;stroke-width:4;"/>
    <path clip-path="url(#p9fd942dd89)" d="M 179.759457 68.079102 
L 180.296576 68.15721 
L 180.390345 68.170864 
" style="fill:none;stroke:#17becf;stroke-width:4;"/>
    <path clip-path="url(#p9fd942dd89)" d="M 193.90621 64.792646 
L 193.548013 64.722171 
L 193.169866 64.652601 
L 192.018622 64.403323 
L 191.676323 64.37995 
L 191.051337 64.336036 
L 190.811857 64.365902 
L 190.24204 64.505199 
L 188.784698 64.860012 
" style="fill:none;stroke:#1f77b4;stroke-width:4;"/>
    <path clip-path="url(#p9fd942dd89)" d="M 179.296631 68.048212 
L 179.010561 68.005951 
L 178.798822 67.982105 
L 178.304516 67.914897 
L 177.852825 67.84395 
L 177.768027 67.83006 
L 177.743001 67.825889 
L 177.306617 67.763363 
L 177.244327 67.754706 
L 177.175977 67.745262 
L 176.745338 67.682421 
L 176.732668 67.681319 
L 176.446323 67.643819 
L 175.747793 67.545958 
L 175.260058 67.474224 
L 174.885925 67.421102 
L 174.794123 67.407723 
" style="fill:none;stroke:#ff7f0e;stroke-width:4;"/>
    <path clip-path="url(#p9fd942dd89)" d="M 186.877908 65.567158 
L 186.4442 65.750999 
L 186.123739 65.936924 
" style="fill:none;stroke:#2ca02c;stroke-width:4;"/>
    <path clip-path="url(#p9fd942dd89)" d="M 170.829245 66.694399 
L 170.632695 66.617746 
L 170.383063 66.519412 
L 170.185333 66.432922 
L 169.948686 66.31995 
L 169.854051 66.269898 
L 169.716761 66.217445 
" style="fill:none;stroke:#d62728;stroke-width:4;"/>
    <path clip-path="url(#p9fd942dd89)" d="M 181.602777 68.362063 
L 181.514477 68.361984 
L 181.382932 68.35313 
L 181.263192 68.34467 
L 181.178827 68.336918 
L 181.120629 68.330111 
L 180.971338 68.308193 
L 180.853369 68.287338 
L 180.736659 68.265185 
L 180.431701 68.218477 
L 180.382987 68.211394 
L 180.217365 68.185384 
L 179.790543 68.119631 
L 179.750879 68.113532 
" style="fill:none;stroke:#9467bd;stroke-width:4;"/>
    <path clip-path="url(#p9fd942dd89)" d="M 186.819278 65.539693 
L 186.903643 65.514273 
L 186.958653 65.495976 
L 187.012522 65.47512 
L 187.065841 65.453006 
L 187.678195 65.189366 
L 187.949745 65.076669 
L 188.106866 65.006667 
L 188.185722 64.97562 
L 188.29413 64.931116 
" style="fill:none;stroke:#8c564b;stroke-width:4;"/>
    <path clip-path="url(#p9fd942dd89)" d="M 199.658688 67.035203 
L 199.590929 66.942732 
L 199.526553 66.888706 
L 199.413227 66.782738 
L 199.28058 66.64777 
L 199.23588 66.572298 
L 199.15482 66.41919 
" style="fill:none;stroke:#e377c2;stroke-width:4;"/>
    <path clip-path="url(#p9fd942dd89)" d="M 203.884609 69.025296 
L 203.940761 69.049535 
L 203.987114 69.077551 
L 204.055582 69.129296 
L 204.15309 69.207601 
L 204.407483 69.407299 
L 204.465681 69.444759 
L 204.532653 69.47616 
L 204.591795 69.494339 
L 204.663529 69.497487 
L 204.729085 69.490798 
L 204.789683 69.476121 
L 204.892896 69.441611 
L 205.000438 69.401475 
L 205.128245 69.362755 
L 205.208871 69.345599 
L 205.2882 69.336195 
L 205.391374 69.335329 
L 205.471686 69.340562 
L 205.55066 69.35221 
L 205.714943 69.380108 
L 205.8252 69.391402 
L 205.921763 69.39329 
L 206.075186 69.381368 
L 206.225737 69.369405 
L 206.396198 69.358781 
L 206.568902 69.354374 
" style="fill:none;stroke:#7f7f7f;stroke-width:4;"/>
    <path clip-path="url(#p9fd942dd89)" d="M 178.931744 67.95645 
L 179.710113 68.071783 
L 179.759457 68.079102 
" style="fill:none;stroke:#bcbd22;stroke-width:4;"/>
    <path clip-path="url(#p9fd942dd89)" d="M 179.582818 68.087837 
L 179.296631 68.048212 
" style="fill:none;stroke:#17becf;stroke-width:4;"/>
    <path clip-path="url(#p9fd942dd89)" d="M 277.035168 102.009358 
L 276.998297 101.995074 
" style="fill:none;stroke:#1f77b4;stroke-width:4;"/>
    <path clip-path="url(#p9fd942dd89)" d="M 203.728668 68.979375 
L 203.789777 68.993698 
L 203.813151 68.99905 
L 203.845024 69.009202 
L 203.884609 69.025296 
" style="fill:none;stroke:#ff7f0e;stroke-width:4;"/>
    <path clip-path="url(#p9fd942dd89)" d="M 75.29978 229.874489 
L 75.068799 229.69057 
L 74.042883 228.974333 
L 72.682616 228.809696 
L 72.118386 228.737136 
L 70.914612 228.616255 
L 68.930028 228.381378 
" style="fill:none;stroke:#2ca02c;stroke-width:4;"/>
    <path clip-path="url(#p9fd942dd89)" d="M 230.423803 114.260732 
L 230.502856 114.1635 
L 230.509348 114.155591 
L 230.712706 113.902693 
L 231.188951 113.305016 
L 231.345797 113.112165 
" style="fill:none;stroke:#d62728;stroke-width:4;"/>
    <path clip-path="url(#p9fd942dd89)" d="M 168.154042 65.880222 
L 168.093837 65.881245 
L 168.063184 65.881756 
" style="fill:none;stroke:#9467bd;stroke-width:4;"/>
    <path clip-path="url(#p9fd942dd89)" d="M 168.063184 65.881756 
L 167.890087 65.884826 
L 167.832519 65.885849 
" style="fill:none;stroke:#8c564b;stroke-width:4;"/>
    <path clip-path="url(#p9fd942dd89)" d="M 168.059525 65.837646 
L 168.116817 65.834773 
L 168.178124 65.829579 
L 168.249779 65.828202 
L 168.407924 65.82167 
L 168.606874 65.828989 
" style="fill:none;stroke:#e377c2;stroke-width:4;"/>
    <path clip-path="url(#p9fd942dd89)" d="M 272.487212 95.93331 
L 272.303962 95.889042 
L 272.211727 95.879481 
L 272.112449 95.866181 
L 272.039967 95.856343 
L 271.967919 95.847372 
L 271.94966 95.84568 
L 271.918299 95.842059 
L 271.893352 95.841666 
" style="fill:none;stroke:#7f7f7f;stroke-width:4;"/>
    <path clip-path="url(#p9fd942dd89)" d="M 233.358594 90.651332 
L 233.185339 90.58495 
L 232.802745 90.410396 
L 232.483032 90.265079 
L 232.32166 90.196415 
L 232.228835 90.149117 
" style="fill:none;stroke:#bcbd22;stroke-width:4;"/>
    <path clip-path="url(#p9fd942dd89)" d="M 179.750879 68.113532 
L 179.582818 68.087837 
" style="fill:none;stroke:#17becf;stroke-width:4;"/>
    <path clip-path="url(#p9fd942dd89)" d="M 164.057619 65.593798 
L 164.197782 65.622523 
L 165.019868 65.757649 
L 165.201308 65.787593 
L 165.521729 65.842879 
L 165.683298 65.866646 
L 165.781671 65.877113 
" style="fill:none;stroke:#1f77b4;stroke-width:4;"/>
    <path clip-path="url(#p9fd942dd89)" d="M 233.318654 90.568856 
L 233.546762 90.67081 
L 233.736977 90.750768 
L 233.755353 90.76029 
L 233.819847 90.793659 
L 234.083251 90.963254 
L 234.138537 90.997567 
L 234.288104 91.090353 
L 234.3077 91.102512 
L 234.359956 91.134975 
L 234.395488 91.156932 
L 235.073831 91.582455 
" style="fill:none;stroke:#ff7f0e;stroke-width:4;"/>
    <path clip-path="url(#p9fd942dd89)" d="M 237.933425 93.968756 
L 237.908832 93.897534 
" style="fill:none;stroke:#2ca02c;stroke-width:4;"/>
    <path clip-path="url(#p9fd942dd89)" d="M 227.770714 85.568619 
L 228.445358 86.287649 
" style="fill:none;stroke:#d62728;stroke-width:4;"/>
    <path clip-path="url(#p9fd942dd89)" d="M 230.037825 87.98872 
L 230.361395 88.325944 
L 230.544645 88.516238 
L 230.581436 88.551967 
" style="fill:none;stroke:#9467bd;stroke-width:4;"/>
    <path clip-path="url(#p9fd942dd89)" d="M 225.54488 82.352008 
L 225.710698 82.531716 
L 225.820246 82.661372 
L 225.927237 82.793153 
L 226.015419 82.916592 
" style="fill:none;stroke:#8c564b;stroke-width:4;"/>
    <path clip-path="url(#p9fd942dd89)" d="M 277.028045 101.72203 
L 277.05618 101.510133 
" style="fill:none;stroke:#e377c2;stroke-width:4;"/>
    <path clip-path="url(#p9fd942dd89)" d="M 274.376215 98.528281 
L 274.35115 98.505065 
" style="fill:none;stroke:#7f7f7f;stroke-width:4;"/>
    <path clip-path="url(#p9fd942dd89)" d="M 277.01207 101.834883 
L 277.025606 101.843068 
" style="fill:none;stroke:#bcbd22;stroke-width:4;"/>
    <path clip-path="url(#p9fd942dd89)" d="M 277.035679 101.99535 
L 277.035168 102.009358 
" style="fill:none;stroke:#17becf;stroke-width:4;"/>
    <path clip-path="url(#p9fd942dd89)" d="M 277.025606 101.843068 
L 277.022497 101.87502 
" style="fill:none;stroke:#1f77b4;stroke-width:4;"/>
    <path clip-path="url(#p9fd942dd89)" d="M 274.268162 98.427074 
L 274.152869 98.318864 
" style="fill:none;stroke:#ff7f0e;stroke-width:4;"/>
    <path clip-path="url(#p9fd942dd89)" d="M 272.553397 95.952434 
L 272.487212 95.93331 
" style="fill:none;stroke:#2ca02c;stroke-width:4;"/>
    <path clip-path="url(#p9fd942dd89)" d="M 276.985076 101.92401 
L 276.989365 101.899888 
L 276.996841 101.858611 
L 277.01207 101.834883 
" style="fill:none;stroke:#d62728;stroke-width:4;"/>
    <path clip-path="url(#p9fd942dd89)" d="M 273.844685 96.078824 
L 273.840474 96.018502 
L 273.834847 95.958455 
L 273.818439 95.932563 
" style="fill:none;stroke:#9467bd;stroke-width:4;"/>
    <path clip-path="url(#p9fd942dd89)" d="M 271.893352 95.841666 
L 271.820201 95.832812 
L 271.76645 95.82447 
L 271.719821 95.78516 
" style="fill:none;stroke:#8c564b;stroke-width:4;"/>
    <path clip-path="url(#p9fd942dd89)" d="M 273.860464 96.87431 
L 273.859598 96.825202 
L 273.861959 96.729347 
" style="fill:none;stroke:#e377c2;stroke-width:4;"/>
    <path clip-path="url(#p9fd942dd89)" d="M 273.852555 96.471963 
L 273.850745 96.314802 
L 273.847597 96.202263 
L 273.841301 96.088819 
L 273.844685 96.078824 
" style="fill:none;stroke:#7f7f7f;stroke-width:4;"/>
    <path clip-path="url(#p9fd942dd89)" d="M 272.985295 95.913754 
L 272.899278 95.932248 
L 272.854223 95.942164 
L 272.842143 95.94484 
L 272.792523 95.949129 
" style="fill:none;stroke:#bcbd22;stroke-width:4;"/>
    <path clip-path="url(#p9fd942dd89)" d="M 275.023905 99.142051 
L 274.895863 99.024003 
L 274.809058 98.940386 
L 274.7243 98.861412 
L 274.700611 98.838629 
" style="fill:none;stroke:#17becf;stroke-width:4;"/>
    <path clip-path="url(#p9fd942dd89)" d="M 274.594289 98.735888 
L 274.506383 98.640544 
L 274.457354 98.594545 
L 274.404075 98.553464 
L 274.376215 98.528281 
" style="fill:none;stroke:#1f77b4;stroke-width:4;"/>
    <path clip-path="url(#p9fd942dd89)" d="M 277.05618 101.510133 
L 277.061846 101.453234 
L 277.060705 101.403497 
L 277.059761 101.362219 
L 277.034932 101.243699 
L 276.986532 101.09307 
L 276.963945 101.048172 
" style="fill:none;stroke:#ff7f0e;stroke-width:4;"/>
    <path clip-path="url(#p9fd942dd89)" d="M 273.911736 96.989132 
L 273.878958 96.909528 
L 273.860464 96.87431 
" style="fill:none;stroke:#2ca02c;stroke-width:4;"/>
    <path clip-path="url(#p9fd942dd89)" d="M 273.818439 95.932563 
L 273.799472 95.911944 
L 273.772164 95.88979 
L 273.755913 95.883534 
L 273.734979 95.874326 
L 273.706293 95.870194 
L 273.665212 95.869525 
L 273.523161 95.871532 
L 273.376821 95.873696 
L 273.339557 95.872909 
L 273.285846 95.8735 
L 273.243191 95.876057 
" style="fill:none;stroke:#d62728;stroke-width:4;"/>
    <path clip-path="url(#p9fd942dd89)" d="M 274.009952 97.413081 
L 274.035529 97.311324 
L 274.02577 97.263121 
" style="fill:none;stroke:#9467bd;stroke-width:4;"/>
    <path clip-path="url(#p9fd942dd89)" d="M 274.02577 97.263121 
L 274.022072 97.249585 
L 273.998737 97.196621 
L 273.911736 96.989132 
" style="fill:none;stroke:#8c564b;stroke-width:4;"/>
    <path clip-path="url(#p9fd942dd89)" d="M 272.792523 95.949129 
L 272.704499 95.962154 
L 272.626784 95.963649 
L 272.553397 95.952434 
" style="fill:none;stroke:#e377c2;stroke-width:4;"/>
    <path clip-path="url(#p9fd942dd89)" d="M 274.35115 98.505065 
L 274.312942 98.468824 
L 274.268162 98.427074 
" style="fill:none;stroke:#7f7f7f;stroke-width:4;"/>
    <path clip-path="url(#p9fd942dd89)" d="M 277.01207 101.834883 
L 277.028045 101.72203 
" style="fill:none;stroke:#bcbd22;stroke-width:4;"/>
    <path clip-path="url(#p9fd942dd89)" d="M 273.243191 95.876057 
L 273.224028 95.876097 
L 273.199159 95.878615 
L 273.149854 95.883652 
L 272.985295 95.913754 
" style="fill:none;stroke:#17becf;stroke-width:4;"/>
    <path clip-path="url(#p9fd942dd89)" d="M 276.884696 102.175255 
L 276.936361 102.086208 
" style="fill:none;stroke:#1f77b4;stroke-width:4;"/>
    <path clip-path="url(#p9fd942dd89)" d="M 276.918851 102.178993 
L 276.90256 102.211653 
" style="fill:none;stroke:#ff7f0e;stroke-width:4;"/>
    <path clip-path="url(#p9fd942dd89)" d="M 277.038316 102.030528 
L 276.98303 102.075072 
L 276.918851 102.178993 
" style="fill:none;stroke:#2ca02c;stroke-width:4;"/>
    <path clip-path="url(#p9fd942dd89)" d="M 276.936361 102.086208 
L 276.936991 102.072396 
L 276.980039 102.012073 
L 276.998297 101.995074 
" style="fill:none;stroke:#d62728;stroke-width:4;"/>
    <path clip-path="url(#p9fd942dd89)" d="M 276.90256 102.211653 
L 276.867776 102.282325 
L 276.80521 102.418631 
" style="fill:none;stroke:#9467bd;stroke-width:4;"/>
    <path clip-path="url(#p9fd942dd89)" d="M 273.861959 96.729347 
L 273.852555 96.471963 
" style="fill:none;stroke:#8c564b;stroke-width:4;"/>
    <path clip-path="url(#p9fd942dd89)" d="M 274.700611 98.838629 
L 274.668817 98.809864 
L 274.594289 98.735888 
" style="fill:none;stroke:#e377c2;stroke-width:4;"/>
    <path clip-path="url(#p9fd942dd89)" d="M 276.998297 101.995074 
L 276.982164 101.954151 
L 276.985076 101.92401 
" style="fill:none;stroke:#7f7f7f;stroke-width:4;"/>
    <path clip-path="url(#p9fd942dd89)" d="M 188.784698 64.860012 
L 188.394471 64.955001 
L 188.310381 64.986835 
L 186.877908 65.567158 
" style="fill:none;stroke:#bcbd22;stroke-width:4;"/>
    <path clip-path="url(#p9fd942dd89)" d="M 226.015419 82.916592 
L 226.10608 83.046248 
L 226.373458 83.479838 
L 226.441257 83.58978 
L 226.545376 83.758628 
" style="fill:none;stroke:#17becf;stroke-width:4;"/>
    <path clip-path="url(#p9fd942dd89)" d="M 225.995272 82.987696 
L 225.92224 82.882083 
L 225.829061 82.760769 
L 225.73714 82.643626 
L 225.614016 82.505864 
L 225.501084 82.383527 
L 225.499549 82.381835 
" style="fill:none;stroke:#1f77b4;stroke-width:4;"/>
    <path clip-path="url(#p9fd942dd89)" d="M 233.95391 111.021496 
L 233.944309 111.082959 
L 233.948794 111.102201 
L 233.957373 111.115383 
L 233.982595 111.139898 
L 234.008448 111.153355 
" style="fill:none;stroke:#ff7f0e;stroke-width:4;"/>
    <path clip-path="url(#p9fd942dd89)" d="M 234.008448 111.153355 
L 234.237894 111.150561 
L 234.720474 111.139071 
L 235.080599 111.174014 
L 235.104091 111.176099 
" style="fill:none;stroke:#2ca02c;stroke-width:4;"/>
    <path clip-path="url(#p9fd942dd89)" d="M 233.634984 111.189832 
L 233.733632 111.17299 
" style="fill:none;stroke:#d62728;stroke-width:4;"/>
    <path clip-path="url(#p9fd942dd89)" d="M 100.58314 147.786478 
L 100.541075 147.779238 
L 100.470325 147.766488 
L 100.427985 147.749372 
" style="fill:none;stroke:#9467bd;stroke-width:4;"/>
    <path clip-path="url(#p9fd942dd89)" d="M 100.427985 147.749372 
L 100.518016 147.748388 
L 100.554218 147.741698 
L 100.584871 147.741226 
" style="fill:none;stroke:#8c564b;stroke-width:4;"/>
    <path clip-path="url(#p9fd942dd89)" d="M 100.667072 147.750198 
L 100.716691 147.767866 
L 100.76997 147.781441 
L 100.827853 147.793521 
L 100.878889 147.799227 
L 100.932168 147.81477 
L 101.077839 147.829762 
L 101.588515 147.891383 
L 102.045636 147.951234 
L 102.576773 148.020764 
L 102.848953 148.056375 
L 103.081271 148.086792 
L 103.301116 148.115596 
L 103.641409 148.163602 
L 103.687487 148.167734 
L 103.70665 148.174187 
L 103.723727 148.182726 
L 103.743992 148.187605 
L 103.757135 148.189651 
L 103.775551 148.190792 
L 103.796917 148.187133 
L 103.818992 148.186503 
L 103.84331 148.187211 
L 104.040962 148.214638 
L 104.225392 148.238248 
L 104.778762 148.309076 
L 104.827948 148.31553 
L 104.894291 148.325957 
L 105.06188 148.346498 
L 105.106109 148.351967 
L 105.331816 148.381479 
" style="fill:none;stroke:#e377c2;stroke-width:4;"/>
   </g>
   <g id="patch_3">
    <path d="M 58.523438 239.758125 
L 58.523438 22.318125 
" style="fill:none;stroke:#000000;stroke-linecap:square;stroke-linejoin:miter;stroke-width:0.8;"/>
   </g>
   <g id="patch_4">
    <path d="M 287.468437 239.758125 
L 287.468437 22.318125 
" style="fill:none;stroke:#000000;stroke-linecap:square;stroke-linejoin:miter;stroke-width:0.8;"/>
   </g>
   <g id="patch_5">
    <path d="M 58.523437 239.758125 
L 287.468437 239.758125 
" style="fill:none;stroke:#000000;stroke-linecap:square;stroke-linejoin:miter;stroke-width:0.8;"/>
   </g>
   <g id="patch_6">
    <path d="M 58.523437 22.318125 
L 287.468437 22.318125 
" style="fill:none;stroke:#000000;stroke-linecap:square;stroke-linejoin:miter;stroke-width:0.8;"/>
   </g>
   <g id="text_12">
    <!-- Victoria Road -->
    <defs>
     <path d="M 28.609375 0 
L 0.78125 72.90625 
L 11.078125 72.90625 
L 34.1875 11.53125 
L 57.328125 72.90625 
L 67.578125 72.90625 
L 39.796875 0 
z
" id="DejaVuSans-86"/>
     <path d="M 48.78125 52.59375 
L 48.78125 44.1875 
Q 44.96875 46.296875 41.140625 47.34375 
Q 37.3125 48.390625 33.40625 48.390625 
Q 24.65625 48.390625 19.8125 42.84375 
Q 14.984375 37.3125 14.984375 27.296875 
Q 14.984375 17.28125 19.8125 11.734375 
Q 24.65625 6.203125 33.40625 6.203125 
Q 37.3125 6.203125 41.140625 7.25 
Q 44.96875 8.296875 48.78125 10.40625 
L 48.78125 2.09375 
Q 45.015625 0.34375 40.984375 -0.53125 
Q 36.96875 -1.421875 32.421875 -1.421875 
Q 20.0625 -1.421875 12.78125 6.34375 
Q 5.515625 14.109375 5.515625 27.296875 
Q 5.515625 40.671875 12.859375 48.328125 
Q 20.21875 56 33.015625 56 
Q 37.15625 56 41.109375 55.140625 
Q 45.0625 54.296875 48.78125 52.59375 
z
" id="DejaVuSans-99"/>
     <path d="M 41.109375 46.296875 
Q 39.59375 47.171875 37.8125 47.578125 
Q 36.03125 48 33.890625 48 
Q 26.265625 48 22.1875 43.046875 
Q 18.109375 38.09375 18.109375 28.8125 
L 18.109375 0 
L 9.078125 0 
L 9.078125 54.6875 
L 18.109375 54.6875 
L 18.109375 46.1875 
Q 20.953125 51.171875 25.484375 53.578125 
Q 30.03125 56 36.53125 56 
Q 37.453125 56 38.578125 55.875 
Q 39.703125 55.765625 41.0625 55.515625 
z
" id="DejaVuSans-114"/>
     <path id="DejaVuSans-32"/>
     <path d="M 44.390625 34.1875 
Q 47.5625 33.109375 50.5625 29.59375 
Q 53.5625 26.078125 56.59375 19.921875 
L 66.609375 0 
L 56 0 
L 46.6875 18.703125 
Q 43.0625 26.03125 39.671875 28.421875 
Q 36.28125 30.8125 30.421875 30.8125 
L 19.671875 30.8125 
L 19.671875 0 
L 9.8125 0 
L 9.8125 72.90625 
L 32.078125 72.90625 
Q 44.578125 72.90625 50.734375 67.671875 
Q 56.890625 62.453125 56.890625 51.90625 
Q 56.890625 45.015625 53.6875 40.46875 
Q 50.484375 35.9375 44.390625 34.1875 
z
M 19.671875 64.796875 
L 19.671875 38.921875 
L 32.078125 38.921875 
Q 39.203125 38.921875 42.84375 42.21875 
Q 46.484375 45.515625 46.484375 51.90625 
Q 46.484375 58.296875 42.84375 61.546875 
Q 39.203125 64.796875 32.078125 64.796875 
z
" id="DejaVuSans-82"/>
    </defs>
    <g transform="translate(133.26375 16.318125)scale(0.12 -0.12)">
     <use xlink:href="#DejaVuSans-86"/>
     <use x="66.158203" xlink:href="#DejaVuSans-105"/>
     <use x="93.941406" xlink:href="#DejaVuSans-99"/>
     <use x="148.921875" xlink:href="#DejaVuSans-116"/>
     <use x="188.130859" xlink:href="#DejaVuSans-111"/>
     <use x="249.3125" xlink:href="#DejaVuSans-114"/>
     <use x="290.425781" xlink:href="#DejaVuSans-105"/>
     <use x="318.208984" xlink:href="#DejaVuSans-97"/>
     <use x="379.488281" xlink:href="#DejaVuSans-32"/>
     <use x="411.275391" xlink:href="#DejaVuSans-82"/>
     <use x="476.257812" xlink:href="#DejaVuSans-111"/>
     <use x="537.439453" xlink:href="#DejaVuSans-97"/>
     <use x="598.71875" xlink:href="#DejaVuSans-100"/>
    </g>
   </g>
  </g>
 </g>
 <defs>
  <clipPath id="p9fd942dd89">
   <rect height="217.44" width="228.945" x="58.523438" y="22.318125"/>
  </clipPath>
 </defs>
</svg>
