<?xml version="1.0" encoding="utf-8" standalone="no"?>
<!DOCTYPE svg PUBLIC "-//W3C//DTD SVG 1.1//EN"
  "http://www.w3.org/Graphics/SVG/1.1/DTD/svg11.dtd">
<!-- Created with matplotlib (https://matplotlib.org/) -->
<svg height="331.674375pt" version="1.1" viewBox="0 0 351.904687 331.674375" width="351.904687pt" xmlns="http://www.w3.org/2000/svg" xmlns:xlink="http://www.w3.org/1999/xlink">
 <defs>
  <style type="text/css">
*{stroke-linecap:butt;stroke-linejoin:round;}
  </style>
 </defs>
 <g id="figure_1">
  <g id="patch_1">
   <path d="M 0 331.674375 
L 351.904687 331.674375 
L 351.904687 0 
L 0 0 
z
" style="fill:none;"/>
  </g>
  <g id="axes_1">
   <g id="patch_2">
    <path d="M 58.523438 294.118125 
L 344.704687 294.118125 
L 344.704687 22.318125 
L 58.523438 22.318125 
z
" style="fill:#ffffff;"/>
   </g>
   <g id="matplotlib.axis_1">
    <g id="xtick_1">
     <g id="line2d_1">
      <defs>
       <path d="M 0 0 
L 0 3.5 
" id="ma0258118e2" style="stroke:#000000;stroke-width:0.8;"/>
      </defs>
      <g>
       <use style="stroke:#000000;stroke-width:0.8;" x="62.004737" xlink:href="#ma0258118e2" y="294.118125"/>
      </g>
     </g>
     <g id="text_1">
      <!-- 150.8 -->
      <defs>
       <path d="M 12.40625 8.296875 
L 28.515625 8.296875 
L 28.515625 63.921875 
L 10.984375 60.40625 
L 10.984375 69.390625 
L 28.421875 72.90625 
L 38.28125 72.90625 
L 38.28125 8.296875 
L 54.390625 8.296875 
L 54.390625 0 
L 12.40625 0 
z
" id="DejaVuSans-49"/>
       <path d="M 10.796875 72.90625 
L 49.515625 72.90625 
L 49.515625 64.59375 
L 19.828125 64.59375 
L 19.828125 46.734375 
Q 21.96875 47.46875 24.109375 47.828125 
Q 26.265625 48.1875 28.421875 48.1875 
Q 40.625 48.1875 47.75 41.5 
Q 54.890625 34.8125 54.890625 23.390625 
Q 54.890625 11.625 47.5625 5.09375 
Q 40.234375 -1.421875 26.90625 -1.421875 
Q 22.3125 -1.421875 17.546875 -0.640625 
Q 12.796875 0.140625 7.71875 1.703125 
L 7.71875 11.625 
Q 12.109375 9.234375 16.796875 8.0625 
Q 21.484375 6.890625 26.703125 6.890625 
Q 35.15625 6.890625 40.078125 11.328125 
Q 45.015625 15.765625 45.015625 23.390625 
Q 45.015625 31 40.078125 35.4375 
Q 35.15625 39.890625 26.703125 39.890625 
Q 22.75 39.890625 18.8125 39.015625 
Q 14.890625 38.140625 10.796875 36.28125 
z
" id="DejaVuSans-53"/>
       <path d="M 31.78125 66.40625 
Q 24.171875 66.40625 20.328125 58.90625 
Q 16.5 51.421875 16.5 36.375 
Q 16.5 21.390625 20.328125 13.890625 
Q 24.171875 6.390625 31.78125 6.390625 
Q 39.453125 6.390625 43.28125 13.890625 
Q 47.125 21.390625 47.125 36.375 
Q 47.125 51.421875 43.28125 58.90625 
Q 39.453125 66.40625 31.78125 66.40625 
z
M 31.78125 74.21875 
Q 44.046875 74.21875 50.515625 64.515625 
Q 56.984375 54.828125 56.984375 36.375 
Q 56.984375 17.96875 50.515625 8.265625 
Q 44.046875 -1.421875 31.78125 -1.421875 
Q 19.53125 -1.421875 13.0625 8.265625 
Q 6.59375 17.96875 6.59375 36.375 
Q 6.59375 54.828125 13.0625 64.515625 
Q 19.53125 74.21875 31.78125 74.21875 
z
" id="DejaVuSans-48"/>
       <path d="M 10.6875 12.40625 
L 21 12.40625 
L 21 0 
L 10.6875 0 
z
" id="DejaVuSans-46"/>
       <path d="M 31.78125 34.625 
Q 24.75 34.625 20.71875 30.859375 
Q 16.703125 27.09375 16.703125 20.515625 
Q 16.703125 13.921875 20.71875 10.15625 
Q 24.75 6.390625 31.78125 6.390625 
Q 38.8125 6.390625 42.859375 10.171875 
Q 46.921875 13.96875 46.921875 20.515625 
Q 46.921875 27.09375 42.890625 30.859375 
Q 38.875 34.625 31.78125 34.625 
z
M 21.921875 38.8125 
Q 15.578125 40.375 12.03125 44.71875 
Q 8.5 49.078125 8.5 55.328125 
Q 8.5 64.0625 14.71875 69.140625 
Q 20.953125 74.21875 31.78125 74.21875 
Q 42.671875 74.21875 48.875 69.140625 
Q 55.078125 64.0625 55.078125 55.328125 
Q 55.078125 49.078125 51.53125 44.71875 
Q 48 40.375 41.703125 38.8125 
Q 48.828125 37.15625 52.796875 32.3125 
Q 56.78125 27.484375 56.78125 20.515625 
Q 56.78125 9.90625 50.3125 4.234375 
Q 43.84375 -1.421875 31.78125 -1.421875 
Q 19.734375 -1.421875 13.25 4.234375 
Q 6.78125 9.90625 6.78125 20.515625 
Q 6.78125 27.484375 10.78125 32.3125 
Q 14.796875 37.15625 21.921875 38.8125 
z
M 18.3125 54.390625 
Q 18.3125 48.734375 21.84375 45.5625 
Q 25.390625 42.390625 31.78125 42.390625 
Q 38.140625 42.390625 41.71875 45.5625 
Q 45.3125 48.734375 45.3125 54.390625 
Q 45.3125 60.0625 41.71875 63.234375 
Q 38.140625 66.40625 31.78125 66.40625 
Q 25.390625 66.40625 21.84375 63.234375 
Q 18.3125 60.0625 18.3125 54.390625 
z
" id="DejaVuSans-56"/>
      </defs>
      <g transform="translate(47.690674 308.716563)scale(0.1 -0.1)">
       <use xlink:href="#DejaVuSans-49"/>
       <use x="63.623047" xlink:href="#DejaVuSans-53"/>
       <use x="127.246094" xlink:href="#DejaVuSans-48"/>
       <use x="190.869141" xlink:href="#DejaVuSans-46"/>
       <use x="222.65625" xlink:href="#DejaVuSans-56"/>
      </g>
     </g>
    </g>
    <g id="xtick_2">
     <g id="line2d_2">
      <g>
       <use style="stroke:#000000;stroke-width:0.8;" x="120.686708" xlink:href="#ma0258118e2" y="294.118125"/>
      </g>
     </g>
     <g id="text_2">
      <!-- 150.9 -->
      <defs>
       <path d="M 10.984375 1.515625 
L 10.984375 10.5 
Q 14.703125 8.734375 18.5 7.8125 
Q 22.3125 6.890625 25.984375 6.890625 
Q 35.75 6.890625 40.890625 13.453125 
Q 46.046875 20.015625 46.78125 33.40625 
Q 43.953125 29.203125 39.59375 26.953125 
Q 35.25 24.703125 29.984375 24.703125 
Q 19.046875 24.703125 12.671875 31.3125 
Q 6.296875 37.9375 6.296875 49.421875 
Q 6.296875 60.640625 12.9375 67.421875 
Q 19.578125 74.21875 30.609375 74.21875 
Q 43.265625 74.21875 49.921875 64.515625 
Q 56.59375 54.828125 56.59375 36.375 
Q 56.59375 19.140625 48.40625 8.859375 
Q 40.234375 -1.421875 26.421875 -1.421875 
Q 22.703125 -1.421875 18.890625 -0.6875 
Q 15.09375 0.046875 10.984375 1.515625 
z
M 30.609375 32.421875 
Q 37.25 32.421875 41.125 36.953125 
Q 45.015625 41.5 45.015625 49.421875 
Q 45.015625 57.28125 41.125 61.84375 
Q 37.25 66.40625 30.609375 66.40625 
Q 23.96875 66.40625 20.09375 61.84375 
Q 16.21875 57.28125 16.21875 49.421875 
Q 16.21875 41.5 20.09375 36.953125 
Q 23.96875 32.421875 30.609375 32.421875 
z
" id="DejaVuSans-57"/>
      </defs>
      <g transform="translate(106.372646 308.716563)scale(0.1 -0.1)">
       <use xlink:href="#DejaVuSans-49"/>
       <use x="63.623047" xlink:href="#DejaVuSans-53"/>
       <use x="127.246094" xlink:href="#DejaVuSans-48"/>
       <use x="190.869141" xlink:href="#DejaVuSans-46"/>
       <use x="222.65625" xlink:href="#DejaVuSans-57"/>
      </g>
     </g>
    </g>
    <g id="xtick_3">
     <g id="line2d_3">
      <g>
       <use style="stroke:#000000;stroke-width:0.8;" x="179.36868" xlink:href="#ma0258118e2" y="294.118125"/>
      </g>
     </g>
     <g id="text_3">
      <!-- 151.0 -->
      <g transform="translate(165.054617 308.716563)scale(0.1 -0.1)">
       <use xlink:href="#DejaVuSans-49"/>
       <use x="63.623047" xlink:href="#DejaVuSans-53"/>
       <use x="127.246094" xlink:href="#DejaVuSans-49"/>
       <use x="190.869141" xlink:href="#DejaVuSans-46"/>
       <use x="222.65625" xlink:href="#DejaVuSans-48"/>
      </g>
     </g>
    </g>
    <g id="xtick_4">
     <g id="line2d_4">
      <g>
       <use style="stroke:#000000;stroke-width:0.8;" x="238.050651" xlink:href="#ma0258118e2" y="294.118125"/>
      </g>
     </g>
     <g id="text_4">
      <!-- 151.1 -->
      <g transform="translate(223.736588 308.716563)scale(0.1 -0.1)">
       <use xlink:href="#DejaVuSans-49"/>
       <use x="63.623047" xlink:href="#DejaVuSans-53"/>
       <use x="127.246094" xlink:href="#DejaVuSans-49"/>
       <use x="190.869141" xlink:href="#DejaVuSans-46"/>
       <use x="222.65625" xlink:href="#DejaVuSans-49"/>
      </g>
     </g>
    </g>
    <g id="xtick_5">
     <g id="line2d_5">
      <g>
       <use style="stroke:#000000;stroke-width:0.8;" x="296.732622" xlink:href="#ma0258118e2" y="294.118125"/>
      </g>
     </g>
     <g id="text_5">
      <!-- 151.2 -->
      <defs>
       <path d="M 19.1875 8.296875 
L 53.609375 8.296875 
L 53.609375 0 
L 7.328125 0 
L 7.328125 8.296875 
Q 12.9375 14.109375 22.625 23.890625 
Q 32.328125 33.6875 34.8125 36.53125 
Q 39.546875 41.84375 41.421875 45.53125 
Q 43.3125 49.21875 43.3125 52.78125 
Q 43.3125 58.59375 39.234375 62.25 
Q 35.15625 65.921875 28.609375 65.921875 
Q 23.96875 65.921875 18.8125 64.3125 
Q 13.671875 62.703125 7.8125 59.421875 
L 7.8125 69.390625 
Q 13.765625 71.78125 18.9375 73 
Q 24.125 74.21875 28.421875 74.21875 
Q 39.75 74.21875 46.484375 68.546875 
Q 53.21875 62.890625 53.21875 53.421875 
Q 53.21875 48.921875 51.53125 44.890625 
Q 49.859375 40.875 45.40625 35.40625 
Q 44.1875 33.984375 37.640625 27.21875 
Q 31.109375 20.453125 19.1875 8.296875 
z
" id="DejaVuSans-50"/>
      </defs>
      <g transform="translate(282.41856 308.716563)scale(0.1 -0.1)">
       <use xlink:href="#DejaVuSans-49"/>
       <use x="63.623047" xlink:href="#DejaVuSans-53"/>
       <use x="127.246094" xlink:href="#DejaVuSans-49"/>
       <use x="190.869141" xlink:href="#DejaVuSans-46"/>
       <use x="222.65625" xlink:href="#DejaVuSans-50"/>
      </g>
     </g>
    </g>
    <g id="text_6">
     <!-- Longitude -->
     <defs>
      <path d="M 9.8125 72.90625 
L 19.671875 72.90625 
L 19.671875 8.296875 
L 55.171875 8.296875 
L 55.171875 0 
L 9.8125 0 
z
" id="DejaVuSans-76"/>
      <path d="M 30.609375 48.390625 
Q 23.390625 48.390625 19.1875 42.75 
Q 14.984375 37.109375 14.984375 27.296875 
Q 14.984375 17.484375 19.15625 11.84375 
Q 23.34375 6.203125 30.609375 6.203125 
Q 37.796875 6.203125 41.984375 11.859375 
Q 46.1875 17.53125 46.1875 27.296875 
Q 46.1875 37.015625 41.984375 42.703125 
Q 37.796875 48.390625 30.609375 48.390625 
z
M 30.609375 56 
Q 42.328125 56 49.015625 48.375 
Q 55.71875 40.765625 55.71875 27.296875 
Q 55.71875 13.875 49.015625 6.21875 
Q 42.328125 -1.421875 30.609375 -1.421875 
Q 18.84375 -1.421875 12.171875 6.21875 
Q 5.515625 13.875 5.515625 27.296875 
Q 5.515625 40.765625 12.171875 48.375 
Q 18.84375 56 30.609375 56 
z
" id="DejaVuSans-111"/>
      <path d="M 54.890625 33.015625 
L 54.890625 0 
L 45.90625 0 
L 45.90625 32.71875 
Q 45.90625 40.484375 42.875 44.328125 
Q 39.84375 48.1875 33.796875 48.1875 
Q 26.515625 48.1875 22.3125 43.546875 
Q 18.109375 38.921875 18.109375 30.90625 
L 18.109375 0 
L 9.078125 0 
L 9.078125 54.6875 
L 18.109375 54.6875 
L 18.109375 46.1875 
Q 21.34375 51.125 25.703125 53.5625 
Q 30.078125 56 35.796875 56 
Q 45.21875 56 50.046875 50.171875 
Q 54.890625 44.34375 54.890625 33.015625 
z
" id="DejaVuSans-110"/>
      <path d="M 45.40625 27.984375 
Q 45.40625 37.75 41.375 43.109375 
Q 37.359375 48.484375 30.078125 48.484375 
Q 22.859375 48.484375 18.828125 43.109375 
Q 14.796875 37.75 14.796875 27.984375 
Q 14.796875 18.265625 18.828125 12.890625 
Q 22.859375 7.515625 30.078125 7.515625 
Q 37.359375 7.515625 41.375 12.890625 
Q 45.40625 18.265625 45.40625 27.984375 
z
M 54.390625 6.78125 
Q 54.390625 -7.171875 48.1875 -13.984375 
Q 42 -20.796875 29.203125 -20.796875 
Q 24.46875 -20.796875 20.265625 -20.09375 
Q 16.0625 -19.390625 12.109375 -17.921875 
L 12.109375 -9.1875 
Q 16.0625 -11.328125 19.921875 -12.34375 
Q 23.78125 -13.375 27.78125 -13.375 
Q 36.625 -13.375 41.015625 -8.765625 
Q 45.40625 -4.15625 45.40625 5.171875 
L 45.40625 9.625 
Q 42.625 4.78125 38.28125 2.390625 
Q 33.9375 0 27.875 0 
Q 17.828125 0 11.671875 7.65625 
Q 5.515625 15.328125 5.515625 27.984375 
Q 5.515625 40.671875 11.671875 48.328125 
Q 17.828125 56 27.875 56 
Q 33.9375 56 38.28125 53.609375 
Q 42.625 51.21875 45.40625 46.390625 
L 45.40625 54.6875 
L 54.390625 54.6875 
z
" id="DejaVuSans-103"/>
      <path d="M 9.421875 54.6875 
L 18.40625 54.6875 
L 18.40625 0 
L 9.421875 0 
z
M 9.421875 75.984375 
L 18.40625 75.984375 
L 18.40625 64.59375 
L 9.421875 64.59375 
z
" id="DejaVuSans-105"/>
      <path d="M 18.3125 70.21875 
L 18.3125 54.6875 
L 36.8125 54.6875 
L 36.8125 47.703125 
L 18.3125 47.703125 
L 18.3125 18.015625 
Q 18.3125 11.328125 20.140625 9.421875 
Q 21.96875 7.515625 27.59375 7.515625 
L 36.8125 7.515625 
L 36.8125 0 
L 27.59375 0 
Q 17.1875 0 13.234375 3.875 
Q 9.28125 7.765625 9.28125 18.015625 
L 9.28125 47.703125 
L 2.6875 47.703125 
L 2.6875 54.6875 
L 9.28125 54.6875 
L 9.28125 70.21875 
z
" id="DejaVuSans-116"/>
      <path d="M 8.5 21.578125 
L 8.5 54.6875 
L 17.484375 54.6875 
L 17.484375 21.921875 
Q 17.484375 14.15625 20.5 10.265625 
Q 23.53125 6.390625 29.59375 6.390625 
Q 36.859375 6.390625 41.078125 11.03125 
Q 45.3125 15.671875 45.3125 23.6875 
L 45.3125 54.6875 
L 54.296875 54.6875 
L 54.296875 0 
L 45.3125 0 
L 45.3125 8.40625 
Q 42.046875 3.421875 37.71875 1 
Q 33.40625 -1.421875 27.6875 -1.421875 
Q 18.265625 -1.421875 13.375 4.4375 
Q 8.5 10.296875 8.5 21.578125 
z
M 31.109375 56 
z
" id="DejaVuSans-117"/>
      <path d="M 45.40625 46.390625 
L 45.40625 75.984375 
L 54.390625 75.984375 
L 54.390625 0 
L 45.40625 0 
L 45.40625 8.203125 
Q 42.578125 3.328125 38.25 0.953125 
Q 33.9375 -1.421875 27.875 -1.421875 
Q 17.96875 -1.421875 11.734375 6.484375 
Q 5.515625 14.40625 5.515625 27.296875 
Q 5.515625 40.1875 11.734375 48.09375 
Q 17.96875 56 27.875 56 
Q 33.9375 56 38.25 53.625 
Q 42.578125 51.265625 45.40625 46.390625 
z
M 14.796875 27.296875 
Q 14.796875 17.390625 18.875 11.75 
Q 22.953125 6.109375 30.078125 6.109375 
Q 37.203125 6.109375 41.296875 11.75 
Q 45.40625 17.390625 45.40625 27.296875 
Q 45.40625 37.203125 41.296875 42.84375 
Q 37.203125 48.484375 30.078125 48.484375 
Q 22.953125 48.484375 18.875 42.84375 
Q 14.796875 37.203125 14.796875 27.296875 
z
" id="DejaVuSans-100"/>
      <path d="M 56.203125 29.59375 
L 56.203125 25.203125 
L 14.890625 25.203125 
Q 15.484375 15.921875 20.484375 11.0625 
Q 25.484375 6.203125 34.421875 6.203125 
Q 39.59375 6.203125 44.453125 7.46875 
Q 49.3125 8.734375 54.109375 11.28125 
L 54.109375 2.78125 
Q 49.265625 0.734375 44.1875 -0.34375 
Q 39.109375 -1.421875 33.890625 -1.421875 
Q 20.796875 -1.421875 13.15625 6.1875 
Q 5.515625 13.8125 5.515625 26.8125 
Q 5.515625 40.234375 12.765625 48.109375 
Q 20.015625 56 32.328125 56 
Q 43.359375 56 49.78125 48.890625 
Q 56.203125 41.796875 56.203125 29.59375 
z
M 47.21875 32.234375 
Q 47.125 39.59375 43.09375 43.984375 
Q 39.0625 48.390625 32.421875 48.390625 
Q 24.90625 48.390625 20.390625 44.140625 
Q 15.875 39.890625 15.1875 32.171875 
z
" id="DejaVuSans-101"/>
     </defs>
     <g transform="translate(176.744531 322.394687)scale(0.1 -0.1)">
      <use xlink:href="#DejaVuSans-76"/>
      <use x="53.962891" xlink:href="#DejaVuSans-111"/>
      <use x="115.144531" xlink:href="#DejaVuSans-110"/>
      <use x="178.523438" xlink:href="#DejaVuSans-103"/>
      <use x="242" xlink:href="#DejaVuSans-105"/>
      <use x="269.783203" xlink:href="#DejaVuSans-116"/>
      <use x="308.992188" xlink:href="#DejaVuSans-117"/>
      <use x="372.371094" xlink:href="#DejaVuSans-100"/>
      <use x="435.847656" xlink:href="#DejaVuSans-101"/>
     </g>
    </g>
   </g>
   <g id="matplotlib.axis_2">
    <g id="ytick_1">
     <g id="line2d_6">
      <defs>
       <path d="M 0 0 
L -3.5 0 
" id="m0209c6f1ea" style="stroke:#000000;stroke-width:0.8;"/>
      </defs>
      <g>
       <use style="stroke:#000000;stroke-width:0.8;" x="58.523438" xlink:href="#m0209c6f1ea" y="247.473053"/>
      </g>
     </g>
     <g id="text_7">
      <!-- −34.1 -->
      <defs>
       <path d="M 10.59375 35.5 
L 73.1875 35.5 
L 73.1875 27.203125 
L 10.59375 27.203125 
z
" id="DejaVuSans-8722"/>
       <path d="M 40.578125 39.3125 
Q 47.65625 37.796875 51.625 33 
Q 55.609375 28.21875 55.609375 21.1875 
Q 55.609375 10.40625 48.1875 4.484375 
Q 40.765625 -1.421875 27.09375 -1.421875 
Q 22.515625 -1.421875 17.65625 -0.515625 
Q 12.796875 0.390625 7.625 2.203125 
L 7.625 11.71875 
Q 11.71875 9.328125 16.59375 8.109375 
Q 21.484375 6.890625 26.8125 6.890625 
Q 36.078125 6.890625 40.9375 10.546875 
Q 45.796875 14.203125 45.796875 21.1875 
Q 45.796875 27.640625 41.28125 31.265625 
Q 36.765625 34.90625 28.71875 34.90625 
L 20.21875 34.90625 
L 20.21875 43.015625 
L 29.109375 43.015625 
Q 36.375 43.015625 40.234375 45.921875 
Q 44.09375 48.828125 44.09375 54.296875 
Q 44.09375 59.90625 40.109375 62.90625 
Q 36.140625 65.921875 28.71875 65.921875 
Q 24.65625 65.921875 20.015625 65.03125 
Q 15.375 64.15625 9.8125 62.3125 
L 9.8125 71.09375 
Q 15.4375 72.65625 20.34375 73.4375 
Q 25.25 74.21875 29.59375 74.21875 
Q 40.828125 74.21875 47.359375 69.109375 
Q 53.90625 64.015625 53.90625 55.328125 
Q 53.90625 49.265625 50.4375 45.09375 
Q 46.96875 40.921875 40.578125 39.3125 
z
" id="DejaVuSans-51"/>
       <path d="M 37.796875 64.3125 
L 12.890625 25.390625 
L 37.796875 25.390625 
z
M 35.203125 72.90625 
L 47.609375 72.90625 
L 47.609375 25.390625 
L 58.015625 25.390625 
L 58.015625 17.1875 
L 47.609375 17.1875 
L 47.609375 0 
L 37.796875 0 
L 37.796875 17.1875 
L 4.890625 17.1875 
L 4.890625 26.703125 
z
" id="DejaVuSans-52"/>
      </defs>
      <g transform="translate(20.878125 251.272272)scale(0.1 -0.1)">
       <use xlink:href="#DejaVuSans-8722"/>
       <use x="83.789062" xlink:href="#DejaVuSans-51"/>
       <use x="147.412109" xlink:href="#DejaVuSans-52"/>
       <use x="211.035156" xlink:href="#DejaVuSans-46"/>
       <use x="242.822266" xlink:href="#DejaVuSans-49"/>
      </g>
     </g>
    </g>
    <g id="ytick_2">
     <g id="line2d_7">
      <g>
       <use style="stroke:#000000;stroke-width:0.8;" x="58.523438" xlink:href="#m0209c6f1ea" y="188.791082"/>
      </g>
     </g>
     <g id="text_8">
      <!-- −34.0 -->
      <g transform="translate(20.878125 192.5903)scale(0.1 -0.1)">
       <use xlink:href="#DejaVuSans-8722"/>
       <use x="83.789062" xlink:href="#DejaVuSans-51"/>
       <use x="147.412109" xlink:href="#DejaVuSans-52"/>
       <use x="211.035156" xlink:href="#DejaVuSans-46"/>
       <use x="242.822266" xlink:href="#DejaVuSans-48"/>
      </g>
     </g>
    </g>
    <g id="ytick_3">
     <g id="line2d_8">
      <g>
       <use style="stroke:#000000;stroke-width:0.8;" x="58.523438" xlink:href="#m0209c6f1ea" y="130.10911"/>
      </g>
     </g>
     <g id="text_9">
      <!-- −33.9 -->
      <g transform="translate(20.878125 133.908329)scale(0.1 -0.1)">
       <use xlink:href="#DejaVuSans-8722"/>
       <use x="83.789062" xlink:href="#DejaVuSans-51"/>
       <use x="147.412109" xlink:href="#DejaVuSans-51"/>
       <use x="211.035156" xlink:href="#DejaVuSans-46"/>
       <use x="242.822266" xlink:href="#DejaVuSans-57"/>
      </g>
     </g>
    </g>
    <g id="ytick_4">
     <g id="line2d_9">
      <g>
       <use style="stroke:#000000;stroke-width:0.8;" x="58.523438" xlink:href="#m0209c6f1ea" y="71.427139"/>
      </g>
     </g>
     <g id="text_10">
      <!-- −33.8 -->
      <g transform="translate(20.878125 75.226358)scale(0.1 -0.1)">
       <use xlink:href="#DejaVuSans-8722"/>
       <use x="83.789062" xlink:href="#DejaVuSans-51"/>
       <use x="147.412109" xlink:href="#DejaVuSans-51"/>
       <use x="211.035156" xlink:href="#DejaVuSans-46"/>
       <use x="242.822266" xlink:href="#DejaVuSans-56"/>
      </g>
     </g>
    </g>
    <g id="text_11">
     <!-- Latiude -->
     <defs>
      <path d="M 34.28125 27.484375 
Q 23.390625 27.484375 19.1875 25 
Q 14.984375 22.515625 14.984375 16.5 
Q 14.984375 11.71875 18.140625 8.90625 
Q 21.296875 6.109375 26.703125 6.109375 
Q 34.1875 6.109375 38.703125 11.40625 
Q 43.21875 16.703125 43.21875 25.484375 
L 43.21875 27.484375 
z
M 52.203125 31.203125 
L 52.203125 0 
L 43.21875 0 
L 43.21875 8.296875 
Q 40.140625 3.328125 35.546875 0.953125 
Q 30.953125 -1.421875 24.3125 -1.421875 
Q 15.921875 -1.421875 10.953125 3.296875 
Q 6 8.015625 6 15.921875 
Q 6 25.140625 12.171875 29.828125 
Q 18.359375 34.515625 30.609375 34.515625 
L 43.21875 34.515625 
L 43.21875 35.40625 
Q 43.21875 41.609375 39.140625 45 
Q 35.0625 48.390625 27.6875 48.390625 
Q 23 48.390625 18.546875 47.265625 
Q 14.109375 46.140625 10.015625 43.890625 
L 10.015625 52.203125 
Q 14.9375 54.109375 19.578125 55.046875 
Q 24.21875 56 28.609375 56 
Q 40.484375 56 46.34375 49.84375 
Q 52.203125 43.703125 52.203125 31.203125 
z
" id="DejaVuSans-97"/>
     </defs>
     <g transform="translate(14.798437 176.836875)rotate(-90)scale(0.1 -0.1)">
      <use xlink:href="#DejaVuSans-76"/>
      <use x="55.712891" xlink:href="#DejaVuSans-97"/>
      <use x="116.992188" xlink:href="#DejaVuSans-116"/>
      <use x="156.201172" xlink:href="#DejaVuSans-105"/>
      <use x="183.984375" xlink:href="#DejaVuSans-117"/>
      <use x="247.363281" xlink:href="#DejaVuSans-100"/>
      <use x="310.839844" xlink:href="#DejaVuSans-101"/>
     </g>
    </g>
   </g>
   <g id="LineCollection_1">
    <path clip-path="url(#pa3242ae7df)" d="M 180.35362 76.235939 
L 180.434041 76.247646 
" style="fill:none;stroke:#ff0000;stroke-width:4;"/>
    <path clip-path="url(#pa3242ae7df)" d="M 180.369262 76.183506 
L 181.593124 76.358562 
" style="fill:none;stroke:#ff0000;stroke-width:4;"/>
    <path clip-path="url(#pa3242ae7df)" d="M 182.494765 76.524911 
L 181.582647 76.396583 
L 180.434041 76.247646 
" style="fill:none;stroke:#ff0000;stroke-width:4;"/>
    <path clip-path="url(#pa3242ae7df)" d="M 181.593124 76.358562 
L 182.459547 76.471445 
L 182.502389 76.48025 
" style="fill:none;stroke:#ff0000;stroke-width:4;"/>
    <path clip-path="url(#pa3242ae7df)" d="M 182.502389 76.48025 
L 182.74119 76.517533 
L 182.862976 76.53042 
L 183.083578 76.553784 
L 183.456069 76.599281 
L 183.64711 76.624858 
L 184.199575 76.698835 
" style="fill:none;stroke:#ff0000;stroke-width:4;"/>
    <path clip-path="url(#pa3242ae7df)" d="M 184.192442 76.740447 
L 183.638306 76.671094 
L 183.608646 76.667306 
L 183.444756 76.638188 
L 182.494765 76.524911 
" style="fill:none;stroke:#ff0000;stroke-width:4;"/>
    <path clip-path="url(#pa3242ae7df)" d="M 184.199575 76.698835 
L 184.809784 76.756974 
L 184.967378 76.768385 
L 185.18257 76.764794 
L 185.386891 76.76145 
L 185.87138 76.724461 
L 186.540712 76.670258 
L 186.666827 76.66042 
L 186.907251 76.638877 
L 187.100899 76.612168 
L 187.30345 76.588165 
L 188.009672 76.529977 
L 188.883522 76.46992 
L 189.630323 76.405732 
L 189.962726 76.375777 
L 190.028538 76.369825 
" style="fill:none;stroke:#ff0000;stroke-width:4;"/>
    <path clip-path="url(#pa3242ae7df)" d="M 190.298179 76.429686 
L 190.07315 76.40883 
L 189.957463 76.412077 
L 189.443709 76.458165 
L 189.20353 76.480348 
L 188.919576 76.502728 
L 188.316596 76.550882 
L 188.021427 76.581328 
L 187.856012 76.60902 
L 187.653905 76.613299 
L 187.573042 76.620333 
L 187.517657 76.625203 
L 187.25987 76.644976 
L 186.645381 76.695441 
L 186.537613 76.70823 
L 185.887612 76.758302 
L 185.803699 76.764647 
L 185.436963 76.793224 
L 185.064522 76.819047 
L 184.953409 76.819342 
L 184.809292 76.809112 
L 184.421702 76.764598 
L 184.192442 76.740447 
" style="fill:none;stroke:#ff0000;stroke-width:4;"/>
    <path clip-path="url(#pa3242ae7df)" d="M 192.516842 76.798684 
L 192.370069 76.779944 
L 191.65578 76.668192 
L 191.226233 76.598986 
L 190.875434 76.530322 
L 190.692755 76.495743 
L 190.537669 76.47233 
L 190.490942 76.461411 
L 190.298179 76.429686 
" style="fill:none;stroke:#ff0000;stroke-width:4;"/>
    <path clip-path="url(#pa3242ae7df)" d="M 190.028538 76.369825 
L 190.238418 76.378286 
L 190.328577 76.390189 
L 190.441165 76.412716 
" style="fill:none;stroke:#ff0000;stroke-width:4;"/>
    <path clip-path="url(#pa3242ae7df)" d="M 190.441165 76.412716 
L 190.616368 76.448623 
L 191.643976 76.617529 
L 191.870775 76.654961 
L 192.271302 76.724068 
L 192.473263 76.753777 
L 192.596229 76.76686 
" style="fill:none;stroke:#ff0000;stroke-width:4;"/>
    <path clip-path="url(#pa3242ae7df)" d="M 193.322864 76.856282 
L 193.083079 76.849149 
" style="fill:none;stroke:#ff0000;stroke-width:4;"/>
    <path clip-path="url(#pa3242ae7df)" d="M 193.079046 76.810046 
L 193.321782 76.815211 
" style="fill:none;stroke:#ff0000;stroke-width:4;"/>
    <path clip-path="url(#pa3242ae7df)" d="M 192.596229 76.76686 
L 192.773793 76.788502 
L 192.932223 76.80075 
L 193.079046 76.810046 
" style="fill:none;stroke:#ff0000;stroke-width:4;"/>
    <path clip-path="url(#pa3242ae7df)" d="M 193.083079 76.849149 
L 192.891792 76.839853 
L 192.763808 76.827212 
L 192.647285 76.815211 
L 192.516842 76.798684 
" style="fill:none;stroke:#ff0000;stroke-width:4;"/>
    <path clip-path="url(#pa3242ae7df)" d="M 193.321782 76.815211 
L 193.450159 76.813981 
L 193.631117 76.80857 
L 194.033513 76.791454 
" style="fill:none;stroke:#ff0000;stroke-width:4;"/>
    <path clip-path="url(#pa3242ae7df)" d="M 194.076994 76.828835 
L 193.746509 76.845657 
L 193.4749 76.855839 
L 193.322864 76.856282 
" style="fill:none;stroke:#ff0000;stroke-width:4;"/>
    <path clip-path="url(#pa3242ae7df)" d="M 195.159789 76.77778 
L 195.068597 76.782895 
L 194.954631 76.787125 
L 194.816171 76.794257 
L 194.64387 76.801734 
L 194.076994 76.828835 
" style="fill:none;stroke:#ff0000;stroke-width:4;"/>
    <path clip-path="url(#pa3242ae7df)" d="M 194.033513 76.791454 
L 195.1954 76.733462 
" style="fill:none;stroke:#ff0000;stroke-width:4;"/>
    <path clip-path="url(#pa3242ae7df)" d="M 196.102353 76.770549 
L 195.846926 76.764991 
L 195.715155 76.766565 
L 195.679544 76.768139 
L 195.644228 76.76932 
L 195.59819 76.770107 
L 195.561693 76.770746 
" style="fill:none;stroke:#ff0000;stroke-width:4;"/>
    <path clip-path="url(#pa3242ae7df)" d="M 195.1954 76.733462 
L 195.233962 76.731003 
L 195.443547 76.717526 
" style="fill:none;stroke:#ff0000;stroke-width:4;"/>
    <path clip-path="url(#pa3242ae7df)" d="M 195.561693 76.770746 
L 195.486437 76.772025 
L 195.448121 76.772664 
" style="fill:none;stroke:#ff0000;stroke-width:4;"/>
    <path clip-path="url(#pa3242ae7df)" d="M 195.448121 76.772664 
L 195.231749 76.776501 
L 195.159789 76.77778 
" style="fill:none;stroke:#ff0000;stroke-width:4;"/>
    <path clip-path="url(#pa3242ae7df)" d="M 195.443547 76.717526 
L 195.515162 76.713935 
L 195.591795 76.707443 
L 195.681364 76.705721 
L 195.879045 76.697556 
L 196.127733 76.706705 
" style="fill:none;stroke:#ff0000;stroke-width:4;"/>
    <path clip-path="url(#pa3242ae7df)" d="M 196.127733 76.706705 
L 196.282573 76.740398 
L 196.596925 76.839804 
" style="fill:none;stroke:#ff0000;stroke-width:4;"/>
    <path clip-path="url(#pa3242ae7df)" d="M 197.515092 77.192276 
L 197.400881 77.153369 
L 197.016389 77.026812 
L 196.857958 76.970345 
L 196.588858 76.881711 
" style="fill:none;stroke:#ff0000;stroke-width:4;"/>
    <path clip-path="url(#pa3242ae7df)" d="M 196.588858 76.881711 
L 196.474647 76.842558 
L 196.320692 76.800504 
L 196.259603 76.786191 
L 196.195463 76.777042 
L 196.102353 76.770549 
" style="fill:none;stroke:#ff0000;stroke-width:4;"/>
    <path clip-path="url(#pa3242ae7df)" d="M 196.596925 76.839804 
L 196.788556 76.898435 
L 197.036408 76.975313 
L 197.537816 77.142892 
" style="fill:none;stroke:#ff0000;stroke-width:4;"/>
    <path clip-path="url(#pa3242ae7df)" d="M 197.537816 77.142892 
L 197.643814 77.180618 
L 198.36607 77.522416 
L 198.870922 77.723246 
L 198.919716 77.743215 
" style="fill:none;stroke:#ff0000;stroke-width:4;"/>
    <path clip-path="url(#pa3242ae7df)" d="M 198.905697 77.788467 
L 198.66001 77.692652 
L 198.34797 77.569734 
L 198.100807 77.461622 
L 197.804998 77.320407 
L 197.686704 77.257841 
L 197.515092 77.192276 
" style="fill:none;stroke:#ff0000;stroke-width:4;"/>
    <path clip-path="url(#pa3242ae7df)" d="M 203.861794 78.680123 
L 203.226008 78.598473 
L 202.62175 78.526169 
L 202.086107 78.449339 
L 201.377278 78.355983 
L 200.744639 78.276104 
L 200.167237 78.197553 
L 200.07511 78.185207 
L 199.954898 78.164253 
L 199.869953 78.147136 
L 199.770202 78.12033 
L 199.600951 78.064847 
L 199.265596 77.93465 
L 198.97692 77.820389 
L 198.905697 77.788467 
" style="fill:none;stroke:#ff0000;stroke-width:4;"/>
    <path clip-path="url(#pa3242ae7df)" d="M 198.919716 77.743215 
L 199.006776 77.778827 
L 199.462146 77.951964 
L 199.67601 78.030318 
L 199.835178 78.081029 
L 199.969408 78.113984 
L 200.140037 78.139758 
L 201.365129 78.305419 
L 202.645605 78.483967 
" style="fill:none;stroke:#ff0000;stroke-width:4;"/>
    <path clip-path="url(#pa3242ae7df)" d="M 202.645605 78.483967 
L 203.175099 78.548499 
L 203.870943 78.640429 
" style="fill:none;stroke:#ff0000;stroke-width:4;"/>
    <path clip-path="url(#pa3242ae7df)" d="M 203.870943 78.640429 
L 204.533192 78.727391 
L 205.648008 78.891429 
L 205.936193 78.931172 
L 206.307257 78.983506 
L 206.964981 79.076321 
L 208.248458 79.259984 
L 209.033821 79.366031 
" style="fill:none;stroke:#ff0000;stroke-width:4;"/>
    <path clip-path="url(#pa3242ae7df)" d="M 209.489929 79.480734 
L 209.132342 79.427908 
L 208.867668 79.398101 
L 208.249786 79.31409 
L 207.685172 79.225406 
L 207.579175 79.208043 
L 207.547892 79.20283 
L 207.002412 79.124672 
L 206.924549 79.113851 
L 206.839112 79.102046 
L 206.300813 79.023495 
L 206.284975 79.022118 
L 205.927044 78.975243 
L 205.053882 78.852916 
L 204.444214 78.763248 
L 203.976547 78.696846 
L 203.861794 78.680123 
" style="fill:none;stroke:#ff0000;stroke-width:4;"/>
    <path clip-path="url(#pa3242ae7df)" d="M 209.033821 79.366031 
L 210.006782 79.510197 
L 210.068462 79.519346 
" style="fill:none;stroke:#ff0000;stroke-width:4;"/>
    <path clip-path="url(#pa3242ae7df)" d="M 209.847663 79.530265 
L 209.489929 79.480734 
" style="fill:none;stroke:#ff0000;stroke-width:4;"/>
    <path clip-path="url(#pa3242ae7df)" d="M 210.068462 79.519346 
L 210.73986 79.616981 
L 210.857072 79.634049 
" style="fill:none;stroke:#ff0000;stroke-width:4;"/>
    <path clip-path="url(#pa3242ae7df)" d="M 212.372611 79.873047 
L 212.262237 79.872949 
L 212.097806 79.861882 
L 211.948131 79.851306 
L 211.842674 79.841617 
L 211.769927 79.833107 
L 211.583313 79.80571 
L 211.435851 79.779642 
L 211.289964 79.751949 
L 210.908767 79.693565 
L 210.847874 79.684711 
L 210.640847 79.652199 
L 210.10732 79.570008 
L 210.05774 79.562384 
" style="fill:none;stroke:#ff0000;stroke-width:4;"/>
    <path clip-path="url(#pa3242ae7df)" d="M 210.05774 79.562384 
L 209.847663 79.530265 
" style="fill:none;stroke:#ff0000;stroke-width:4;"/>
    <path clip-path="url(#pa3242ae7df)" d="M 210.857072 79.634049 
L 210.982941 79.65456 
L 211.262124 79.696123 
L 211.284504 79.699516 
L 211.569344 79.74285 
L 211.742727 79.769017 
L 211.828312 79.780478 
L 211.936424 79.790659 
L 212.053931 79.801038 
L 212.156879 79.80576 
L 212.358888 79.814416 
" style="fill:none;stroke:#ff0000;stroke-width:4;"/>
    <path clip-path="url(#pa3242ae7df)" d="M 218.023814 76.841624 
L 217.664162 77.166108 
L 216.758635 77.981918 
L 216.190775 78.396955 
L 215.823302 78.57629 
L 215.447909 78.72808 
L 214.820484 78.989212 
L 214.19965 79.220832 
L 213.622543 79.445172 
L 213.021482 79.683531 
L 212.734379 79.798578 
L 212.638121 79.831533 
L 212.543142 79.854258 
L 212.460656 79.865866 
L 212.372611 79.873047 
" style="fill:none;stroke:#ff0000;stroke-width:4;"/>
    <path clip-path="url(#pa3242ae7df)" d="M 212.358888 79.814416 
L 212.469853 79.806694 
L 212.554848 79.79607 
L 212.636645 79.781314 
L 212.705458 79.759868 
L 212.792616 79.73193 
L 213.09236 79.613882 
L 213.593277 79.419448 
L 214.064239 79.233571 
L 214.190354 79.183548 
L 214.816795 78.94096 
L 215.500194 78.658087 
L 215.761326 78.55027 
L 216.039969 78.415548 
L 216.068989 78.398677 
L 216.150737 78.349293 
L 216.537295 78.073897 
L 216.763209 77.894907 
L 216.793804 77.874101 
L 217.233434 77.467721 
L 217.633715 77.121939 
" style="fill:none;stroke:#ff0000;stroke-width:4;"/>
    <path clip-path="url(#pa3242ae7df)" d="M 218.521485 76.458903 
L 218.498712 76.512762 
L 218.329952 76.6193 
L 218.121647 76.746202 
L 218.023814 76.841624 
" style="fill:none;stroke:#ff0000;stroke-width:4;"/>
    <path clip-path="url(#pa3242ae7df)" d="M 217.633715 77.121939 
L 217.822149 76.94772 
L 218.001238 76.786141 
L 218.080625 76.718362 
L 218.22302 76.614627 
L 218.302457 76.569031 
L 218.370728 76.528748 
L 218.462117 76.486545 
L 218.521485 76.458903 
" style="fill:none;stroke:#ff0000;stroke-width:4;"/>
    <path clip-path="url(#pa3242ae7df)" d="M 218.966526 76.379417 
L 218.424391 76.609217 
L 218.023814 76.841624 
" style="fill:none;stroke:#ff0000;stroke-width:4;"/>
    <path clip-path="url(#pa3242ae7df)" d="M 218.521485 76.458903 
L 218.546718 76.450393 
L 218.634172 76.419455 
L 218.751285 76.384975 
L 218.893238 76.345085 
" style="fill:none;stroke:#ff0000;stroke-width:4;"/>
    <path clip-path="url(#pa3242ae7df)" d="M 218.893238 76.345085 
L 218.998694 76.31331 
L 219.067457 76.290438 
L 219.134793 76.264369 
L 219.201441 76.236726 
L 219.966884 75.907176 
L 220.306321 75.766305 
L 220.502724 75.678802 
L 220.601294 75.639994 
L 220.736803 75.584364 
" style="fill:none;stroke:#ff0000;stroke-width:4;"/>
    <path clip-path="url(#pa3242ae7df)" d="M 221.350013 75.495483 
L 220.862229 75.61422 
L 220.757117 75.654012 
L 218.966526 76.379417 
" style="fill:none;stroke:#ff0000;stroke-width:4;"/>
    <path clip-path="url(#pa3242ae7df)" d="M 220.736803 75.584364 
L 221.126706 75.485154 
L 221.336044 75.439755 
" style="fill:none;stroke:#ff0000;stroke-width:4;"/>
    <path clip-path="url(#pa3242ae7df)" d="M 221.336044 75.439755 
L 221.442041 75.409505 
L 222.516032 75.15644 
L 223.875404 74.831906 
L 224.178738 74.794623 
L 224.418572 74.802542 
L 224.842069 74.845728 
L 224.967692 74.853204 
L 225.059327 74.858664 
L 225.345445 74.879617 
L 225.564228 74.909621 
L 225.806669 74.965841 
L 226.060767 75.023587 
L 226.291403 75.071839 
" style="fill:none;stroke:#ff0000;stroke-width:4;"/>
    <path clip-path="url(#pa3242ae7df)" d="M 227.751903 75.411276 
L 227.304157 75.323183 
L 226.831473 75.236221 
L 225.392419 74.924623 
L 224.964544 74.895406 
L 224.183312 74.840514 
L 223.883962 74.877847 
L 223.17169 75.051967 
L 221.350013 75.495483 
" style="fill:none;stroke:#ff0000;stroke-width:4;"/>
    <path clip-path="url(#pa3242ae7df)" d="M 226.291403 75.071839 
L 226.476001 75.112172 
L 226.512645 75.119648 
L 226.839343 75.193084 
L 227.312223 75.284669 
L 227.762724 75.369467 
" style="fill:none;stroke:#ff0000;stroke-width:4;"/>
    <path clip-path="url(#pa3242ae7df)" d="M 230.364108 75.766108 
L 230.257422 75.7636 
L 230.034852 75.722234 
L 229.788034 75.679884 
L 229.677069 75.669506 
L 229.58386 75.665128 
L 229.249686 75.64929 
L 229.147968 75.64447 
L 229.098093 75.64206 
L 228.71847 75.606744 
L 228.4778 75.572903 
L 228.376082 75.553229 
L 228.093652 75.485646 
L 227.751903 75.411276 
" style="fill:none;stroke:#ff0000;stroke-width:4;"/>
    <path clip-path="url(#pa3242ae7df)" d="M 227.762724 75.369467 
L 228.253262 75.47389 
L 228.456846 75.522634 
L 228.636623 75.549244 
L 229.101486 75.590069 
" style="fill:none;stroke:#ff0000;stroke-width:4;"/>
    <path clip-path="url(#pa3242ae7df)" d="M 230.364108 75.766108 
L 230.995763 75.894732 
" style="fill:none;stroke:#ff0000;stroke-width:4;"/>
    <path clip-path="url(#pa3242ae7df)" d="M 229.101486 75.590069 
L 229.749422 75.623762 
L 230.046805 75.67772 
L 230.364108 75.766108 
" style="fill:none;stroke:#ff0000;stroke-width:4;"/>
    <path clip-path="url(#pa3242ae7df)" d="M 231.336135 75.939688 
L 231.459347 75.960002 
" style="fill:none;stroke:#ff0000;stroke-width:4;"/>
    <path clip-path="url(#pa3242ae7df)" d="M 231.459347 75.960002 
L 231.615564 75.992662 
" style="fill:none;stroke:#ff0000;stroke-width:4;"/>
    <path clip-path="url(#pa3242ae7df)" d="M 230.995763 75.894732 
L 231.119861 75.91052 
L 231.239975 75.925473 
L 231.336135 75.939688 
" style="fill:none;stroke:#ff0000;stroke-width:4;"/>
    <path clip-path="url(#pa3242ae7df)" d="M 231.615564 75.992662 
L 232.311506 76.158913 
L 232.513172 76.217494 
L 232.679718 76.278584 
L 232.809718 76.333083 
L 232.953343 76.395157 
L 233.157861 76.481922 
" style="fill:none;stroke:#ff0000;stroke-width:4;"/>
    <path clip-path="url(#pa3242ae7df)" d="M 233.862067 76.85338 
L 233.633693 76.723428 
L 233.408566 76.595297 
L 233.157861 76.481922 
" style="fill:none;stroke:#ff0000;stroke-width:4;"/>
    <path clip-path="url(#pa3242ae7df)" d="M 234.312666 77.444456 
L 234.224572 77.236642 
L 234.183305 77.170092 
L 234.127625 77.077671 
L 234.085718 77.039207 
L 234.037663 77.001136 
L 233.89817 76.907436 
L 233.862067 76.85338 
" style="fill:none;stroke:#ff0000;stroke-width:4;"/>
    <path clip-path="url(#pa3242ae7df)" d="M 233.862067 76.85338 
L 233.919517 76.862282 
L 234.087145 76.976346 
L 234.132003 77.00758 
L 234.174697 77.044273 
L 234.197864 77.075457 
L 234.222408 77.114364 
L 234.25192 77.188439 
L 234.350785 77.393056 
" style="fill:none;stroke:#ff0000;stroke-width:4;"/>
    <path clip-path="url(#pa3242ae7df)" d="M 234.350785 77.393056 
L 234.522151 77.711933 
L 234.592341 77.798009 
L 234.748459 77.951078 
L 234.902118 78.096671 
L 235.009886 78.225195 
L 235.271264 78.559911 
L 235.367523 78.696699 
L 235.476127 78.843177 
L 235.549562 78.927384 
L 235.768443 79.207994 
L 235.875031 79.321714 
L 235.932038 79.384033 
" style="fill:none;stroke:#ff0000;stroke-width:4;"/>
    <path clip-path="url(#pa3242ae7df)" d="M 234.942501 78.214473 
L 234.857801 78.098884 
L 234.777332 78.031351 
L 234.635674 77.898891 
L 234.469866 77.730181 
L 234.41399 77.635841 
L 234.312666 77.444456 
" style="fill:none;stroke:#ff0000;stroke-width:4;"/>
    <path clip-path="url(#pa3242ae7df)" d="M 235.763278 79.297465 
L 235.727421 79.263132 
L 235.518181 78.984883 
L 235.423104 78.861425 
L 235.305301 78.697043 
L 235.234424 78.595965 
L 235.13 78.448798 
L 234.942501 78.214473 
" style="fill:none;stroke:#ff0000;stroke-width:4;"/>
    <path clip-path="url(#pa3242ae7df)" d="M 239.657042 80.699383 
L 239.588082 80.688955 
L 239.500874 80.675773 
L 239.023961 80.613454 
L 238.323739 80.498406 
L 238.088184 80.453154 
L 237.813969 80.402443 
L 237.701872 80.383113 
L 237.63429 80.368996 
L 237.575954 80.350699 
L 237.481713 80.310513 
L 237.35732 80.248538 
L 237.159294 80.142147 
L 236.958268 80.034527 
L 236.654442 79.870391 
L 236.287707 79.671628 
L 236.207434 79.624507 
L 236.119095 79.57232 
L 235.898345 79.416054 
L 235.763278 79.297465 
" style="fill:none;stroke:#ff0000;stroke-width:4;"/>
    <path clip-path="url(#pa3242ae7df)" d="M 235.932038 79.384033 
L 236.046249 79.468487 
L 236.187513 79.554711 
L 236.417904 79.684613 
L 236.634669 79.801185 
L 236.992306 79.994538 
L 237.262931 80.139688 
L 237.530063 80.275099 
L 237.606942 80.306332 
L 237.68387 80.327876 
L 237.754994 80.341304 
L 238.037522 80.393589 
L 238.213758 80.425708 
L 238.478923 80.472632 
" style="fill:none;stroke:#ff0000;stroke-width:4;"/>
    <path clip-path="url(#pa3242ae7df)" d="M 238.478923 80.472632 
L 238.651568 80.498505 
L 238.9762 80.538493 
L 239.236939 80.570514 
L 239.375596 80.587532 
L 239.485971 80.601698 
L 239.597084 80.611437 
L 239.689899 80.614339 
L 239.707803 80.61488 
L 239.81685 80.623881 
L 239.86097 80.628013 
L 239.958999 80.633178 
L 240.029975 80.644687 
" style="fill:none;stroke:#ff0000;stroke-width:4;"/>
    <path clip-path="url(#pa3242ae7df)" d="M 243.566496 81.173247 
L 243.2941 81.177526 
L 243.163313 81.178559 
L 243.048708 81.186675 
L 242.875325 81.198923 
L 242.733864 81.206497 
L 242.600569 81.203645 
L 242.405593 81.178756 
L 242.27874 81.156032 
L 242.167234 81.141718 
L 242.045743 81.137488 
L 241.932122 81.145604 
L 241.830158 81.163656 
L 241.74236 81.185642 
L 241.517872 81.266407 
L 241.318518 81.333104 
L 241.22408 81.351106 
L 241.144152 81.352975 
L 241.068306 81.342498 
L 240.988328 81.313478 
L 240.901169 81.266407 
L 240.773333 81.167541 
L 240.583817 81.011177 
L 240.463752 80.931691 
L 240.352345 80.863519 
L 240.294501 80.838679 
L 240.228148 80.81025 
L 240.111724 80.77154 
L 239.95954 80.741929 
L 239.882071 80.727714 
L 239.803569 80.719008 
L 239.657042 80.699383 
" style="fill:none;stroke:#ff0000;stroke-width:4;"/>
    <path clip-path="url(#pa3242ae7df)" d="M 240.224902 80.702088 
L 240.295091 80.732387 
L 240.353033 80.767408 
L 240.438618 80.832088 
L 240.560503 80.92997 
L 240.878494 81.179592 
L 240.951241 81.226418 
L 241.034957 81.265669 
L 241.108885 81.288393 
L 241.198552 81.292328 
L 241.280497 81.283966 
L 241.356244 81.26562 
L 241.485261 81.222483 
L 241.619688 81.172313 
L 241.779446 81.123913 
L 241.88023 81.102468 
L 241.97939 81.090712 
L 242.108358 81.08963 
L 242.208748 81.096172 
L 242.307465 81.110731 
L 242.51282 81.145604 
L 242.650641 81.159721 
L 242.771345 81.162082 
L 242.963123 81.147178 
L 243.151312 81.132225 
L 243.364388 81.118945 
L 243.580268 81.113436 
" style="fill:none;stroke:#ff0000;stroke-width:4;"/>
    <path clip-path="url(#pa3242ae7df)" d="M 240.029975 80.644687 
L 240.106362 80.662591 
L 240.135579 80.669281 
L 240.17542 80.681971 
L 240.224902 80.702088 
" style="fill:none;stroke:#ff0000;stroke-width:4;"/>
    <path clip-path="url(#pa3242ae7df)" d="M 253.763235 89.736251 
L 253.719459 89.130222 
L 253.693488 88.893684 
L 253.674306 88.689116 
L 253.657877 88.530785 
L 253.649417 88.449725 
L 253.576818 87.947726 
L 253.553356 87.794608 
L 253.517203 87.496143 
L 253.450408 87.069055 
L 253.395221 86.796856 
L 253.348838 86.567892 
L 253.31967 86.444631 
L 253.293503 86.351963 
L 253.255088 86.278773 
L 253.200835 86.199927 
L 253.125137 86.117293 
L 253.039306 86.045038 
L 252.946638 85.974652 
L 252.790717 85.872295 
L 252.587723 85.761723 
L 252.446066 85.675204 
L 252.165849 85.515642 
L 251.918883 85.392135 
L 251.893945 85.379395 
L 251.833741 85.348604 
L 251.730941 85.283776 
L 251.630354 85.212456 
L 251.19761 84.960915 
L 251.003273 84.845425 
L 250.833137 84.737804 
L 250.74224 84.670861 
L 250.533196 84.517891 
L 250.393162 84.408008 
L 250.222484 84.271023 
L 250.046298 84.142351 
L 250.038526 84.136694 
L 249.572925 83.794847 
L 249.050858 83.393336 
L 248.946927 83.317294 
L 248.85539 83.260975 
L 248.73021 83.196491 
L 248.593274 83.129597 
L 248.456536 83.070426 
L 248.242967 82.984054 
L 248.070125 82.915586 
L 247.865853 82.835805 
L 247.736787 82.785045 
L 247.306355 82.590758 
L 247.164009 82.512846 
L 246.460787 82.12678 
L 245.833854 81.749862 
L 245.519797 81.55951 
L 245.115138 81.316479 
L 244.989417 81.260406 
L 244.84589 81.209203 
L 244.724252 81.177133 
L 244.595038 81.16282 
L 244.303755 81.161639 
L 243.566496 81.173247 
" style="fill:none;stroke:#ff0000;stroke-width:4;"/>
    <path clip-path="url(#pa3242ae7df)" d="M 243.869142 81.110534 
L 244.385651 81.112108 
L 244.583037 81.116338 
L 244.698626 81.124995 
L 244.811558 81.148162 
L 245.023061 81.218696 
L 245.125664 81.263455 
L 245.557671 81.522571 
L 246.377415 82.002485 
L 246.504268 82.080692 
L 247.192242 82.472513 
L 247.357165 82.55977 
L 247.771808 82.753123 
L 247.888036 82.792816 
L 248.250886 82.936245 
L 248.341045 82.973135 
L 248.429434 83.009385 
L 248.615851 83.091084 
L 248.787611 83.175587 
L 248.909594 83.240317 
L 248.980029 83.288716 
" style="fill:none;stroke:#ff0000;stroke-width:4;"/>
    <path clip-path="url(#pa3242ae7df)" d="M 243.580268 81.113436 
L 243.869142 81.110534 
" style="fill:none;stroke:#ff0000;stroke-width:4;"/>
    <path clip-path="url(#pa3242ae7df)" d="M 254.022498 91.262513 
L 253.964704 91.130447 
L 253.925059 91.030795 
L 253.869773 90.858297 
L 253.84336 90.725247 
L 253.830424 90.610544 
L 253.801502 90.253793 
L 253.766531 89.773731 
L 253.763235 89.736251 
" style="fill:none;stroke:#ff0000;stroke-width:4;"/>
    <path clip-path="url(#pa3242ae7df)" d="M 250.864075 84.702341 
L 251.15767 84.888807 
L 251.467595 85.076356 
L 251.962708 85.363951 
L 252.585608 85.701027 
L 252.814129 85.846619 
L 252.971527 85.946468 
L 253.064096 86.018723 
L 253.153468 86.097373 
L 253.23138 86.183056 
L 253.288535 86.261902 
L 253.333393 86.343159 
L 253.365955 86.438728 
L 253.492954 87.0754 
L 253.548831 87.444546 
L 253.588032 87.717581 
L 253.616708 87.939118 
L 253.664075 88.245108 
L 253.705933 88.5389 
L 253.779664 89.132534 
L 253.825653 89.68672 
L 253.829637 89.734579 
L 253.853198 90.258269 
L 253.870118 90.482265 
L 253.888956 90.63376 
L 253.903565 90.71846 
L 253.927371 90.845902 
L 253.997413 91.08613 
L 254.070504 91.256267 
" style="fill:none;stroke:#ff0000;stroke-width:4;"/>
    <path clip-path="url(#pa3242ae7df)" d="M 248.980029 83.288716 
L 249.220208 83.457672 
" style="fill:none;stroke:#ff0000;stroke-width:4;"/>
    <path clip-path="url(#pa3242ae7df)" d="M 249.220208 83.457672 
L 249.618521 83.753874 
L 250.864075 84.702341 
" style="fill:none;stroke:#ff0000;stroke-width:4;"/>
    <path clip-path="url(#pa3242ae7df)" d="M 254.070504 91.256267 
L 254.359968 91.897907 
L 254.464391 92.133707 
L 254.547418 92.324699 
L 254.594637 92.414612 
L 254.625231 92.460504 
L 254.635561 92.476047 
L 254.687502 92.53753 
L 254.725326 92.573289 
L 254.745542 92.592275 
L 254.799942 92.638412 
" style="fill:none;stroke:#ff0000;stroke-width:4;"/>
    <path clip-path="url(#pa3242ae7df)" d="M 254.759314 92.677368 
L 254.707668 92.629607 
L 254.654793 92.578502 
L 254.611557 92.529709 
L 254.57757 92.472407 
L 254.555288 92.430942 
L 254.521841 92.361737 
L 254.475114 92.257215 
L 254.370297 92.022546 
L 254.213146 91.693438 
L 254.164598 91.583751 
L 254.022498 91.262513 
" style="fill:none;stroke:#ff0000;stroke-width:4;"/>
    <path clip-path="url(#pa3242ae7df)" d="M 255.561795 93.004065 
L 255.263871 92.885378 
L 255.021282 92.803974 
L 254.912236 92.764871 
L 254.829208 92.722373 
L 254.759314 92.677368 
" style="fill:none;stroke:#ff0000;stroke-width:4;"/>
    <path clip-path="url(#pa3242ae7df)" d="M 254.799942 92.638412 
L 254.87205 92.684893 
L 254.970571 92.731965 
L 255.071158 92.771609 
L 255.214291 92.825616 
L 255.374885 92.886755 
L 255.565041 92.965011 
" style="fill:none;stroke:#ff0000;stroke-width:4;"/>
    <path clip-path="url(#pa3242ae7df)" d="M 264.948724 94.987763 
L 264.523899 94.620437 
L 264.394981 94.52959 
L 264.265227 94.453744 
L 264.119486 94.382276 
L 263.970156 94.325711 
L 263.73524 94.259752 
L 263.580745 94.226059 
L 263.398853 94.20722 
L 263.240078 94.197334 
L 262.997735 94.203974 
L 262.533217 94.27736 
L 262.112769 94.366142 
L 261.690649 94.488961 
L 261.293565 94.626143 
L 260.961752 94.732042 
L 260.913303 94.747536 
L 260.44721 94.865977 
L 260.190456 94.917476 
L 259.816195 94.992534 
L 259.581476 95.008815 
L 259.39014 94.99219 
L 259.362792 94.98978 
L 259.199591 94.945414 
L 259.035012 94.864452 
L 258.707478 94.670116 
L 258.285949 94.377898 
L 257.111224 93.56681 
L 256.440219 93.331403 
L 256.148542 93.225651 
L 255.871621 93.125212 
L 255.561795 93.004065 
" style="fill:none;stroke:#ff0000;stroke-width:4;"/>
    <path clip-path="url(#pa3242ae7df)" d="M 255.565041 92.965011 
L 255.887017 93.078042 
L 256.192171 93.17248 
L 256.485815 93.26987 
L 257.159426 93.517918 
L 257.426756 93.691941 
L 257.493551 93.747128 
" style="fill:none;stroke:#ff0000;stroke-width:4;"/>
    <path clip-path="url(#pa3242ae7df)" d="M 265.348563 95.361582 
L 264.948724 94.987763 
" style="fill:none;stroke:#ff0000;stroke-width:4;"/>
    <path clip-path="url(#pa3242ae7df)" d="M 267.243577 97.397762 
L 266.762728 96.899649 
L 265.460266 95.481893 
L 265.348563 95.361582 
" style="fill:none;stroke:#ff0000;stroke-width:4;"/>
    <path clip-path="url(#pa3242ae7df)" d="M 264.789753 94.28764 
L 264.843219 94.373815 
L 264.877109 94.448973 
L 264.973908 94.67651 
L 265.016405 94.769325 
L 265.05177 94.83858 
L 265.091169 94.903408 
" style="fill:none;stroke:#ff0000;stroke-width:4;"/>
    <path clip-path="url(#pa3242ae7df)" d="M 265.091169 94.903408 
L 265.092448 94.905179 
L 265.168294 95.009356 
L 265.412259 95.327643 
" style="fill:none;stroke:#ff0000;stroke-width:4;"/>
    <path clip-path="url(#pa3242ae7df)" d="M 257.493551 93.747128 
L 257.600778 93.813186 
L 257.829103 93.961926 
L 258.170753 94.193399 
L 258.641125 94.528508 
L 259.004959 94.77995 
L 259.176178 94.865141 
L 259.396141 94.919541 
L 259.541536 94.933707 
L 259.792929 94.928297 
L 260.296601 94.817627 
L 260.608543 94.747339 
L 260.888021 94.67292 
L 261.267496 94.566578 
" style="fill:none;stroke:#ff0000;stroke-width:4;"/>
    <path clip-path="url(#pa3242ae7df)" d="M 263.180611 94.117405 
L 263.245489 94.108847 
L 263.770999 94.017901 
" style="fill:none;stroke:#ff0000;stroke-width:4;"/>
    <path clip-path="url(#pa3242ae7df)" d="M 263.770999 94.017901 
L 263.86042 94.003489 
L 263.948317 93.991832 
L 264.04128 93.981995 
L 264.134242 93.979584 
L 264.224008 93.984946 
L 264.257012 93.989373 
" style="fill:none;stroke:#ff0000;stroke-width:4;"/>
    <path clip-path="url(#pa3242ae7df)" d="M 264.257012 93.989373 
L 264.377766 94.008408 
L 264.49424 94.050364 
L 264.602647 94.10865 
L 264.700184 94.196645 
L 264.789753 94.28764 
" style="fill:none;stroke:#ff0000;stroke-width:4;"/>
    <path clip-path="url(#pa3242ae7df)" d="M 261.267496 94.566578 
L 261.459521 94.511784 
L 261.689813 94.440513 
L 261.81701 94.403377 
L 261.944993 94.367569 
L 262.073272 94.333335 
L 262.202289 94.300675 
L 262.331797 94.269982 
L 262.456436 94.24234 
L 262.581518 94.216271 
L 262.70719 94.191776 
L 262.79789 94.175544 
L 262.845355 94.167527 
L 262.959911 94.148393 
L 263.073729 94.131473 
L 263.180611 94.117405 
" style="fill:none;stroke:#ff0000;stroke-width:4;"/>
    <path clip-path="url(#pa3242ae7df)" d="M 265.412259 95.327643 
L 265.518503 95.44397 
L 266.822589 96.861726 
L 267.30024 97.360479 
" style="fill:none;stroke:#ff0000;stroke-width:4;"/>
    <path clip-path="url(#pa3242ae7df)" d="M 267.30024 97.360479 
L 267.507513 97.585114 
L 267.644448 97.747184 
L 267.778187 97.91191 
L 267.888414 98.066209 
" style="fill:none;stroke:#ff0000;stroke-width:4;"/>
    <path clip-path="url(#pa3242ae7df)" d="M 267.863231 98.155089 
L 267.77194 98.023072 
L 267.655466 97.87143 
L 267.540566 97.725001 
L 267.386661 97.552798 
L 267.245495 97.399877 
L 267.243577 97.397762 
" style="fill:none;stroke:#ff0000;stroke-width:4;"/>
    <path clip-path="url(#pa3242ae7df)" d="M 270.029756 101.413804 
L 269.7882 101.162952 
L 269.692188 101.050609 
L 269.608718 100.947317 
L 269.539512 100.840091 
L 269.424612 100.661002 
L 269.181433 100.26318 
L 268.913071 99.82837 
L 268.809189 99.672793 
L 268.653316 99.455781 
L 268.494345 99.203503 
L 268.249444 98.798647 
L 268.184272 98.691027 
L 268.034745 98.426993 
L 267.945077 98.284499 
L 267.863231 98.155089 
" style="fill:none;stroke:#ff0000;stroke-width:4;"/>
    <path clip-path="url(#pa3242ae7df)" d="M 267.888414 98.066209 
L 268.00174 98.228279 
L 268.335964 98.770267 
L 268.420712 98.907694 
L 268.55086 99.118754 
" style="fill:none;stroke:#ff0000;stroke-width:4;"/>
    <path clip-path="url(#pa3242ae7df)" d="M 268.55086 99.118754 
L 269.160185 100.117243 
L 269.552104 100.766901 
L 269.637098 100.892376 
L 269.736259 101.016572 
L 269.835419 101.12375 
L 270.082533 101.381242 
" style="fill:none;stroke:#ff0000;stroke-width:4;"/>
    <path clip-path="url(#pa3242ae7df)" d="M 272.241581 103.756515 
L 270.863125 102.293655 
L 270.59009 102.008815 
L 270.029756 101.413804 
" style="fill:none;stroke:#ff0000;stroke-width:4;"/>
    <path clip-path="url(#pa3242ae7df)" d="M 270.082533 101.381242 
L 270.925838 102.28003 
" style="fill:none;stroke:#ff0000;stroke-width:4;"/>
    <path clip-path="url(#pa3242ae7df)" d="M 273.131712 104.715262 
L 272.8724 104.434602 
L 272.830149 104.388908 
L 272.675358 104.22251 
L 272.241581 103.756515 
" style="fill:none;stroke:#ff0000;stroke-width:4;"/>
    <path clip-path="url(#pa3242ae7df)" d="M 270.925838 102.28003 
L 272.298589 103.727544 
L 272.602218 104.057882 
L 272.877122 104.356888 
L 272.916422 104.406369 
" style="fill:none;stroke:#ff0000;stroke-width:4;"/>
    <path clip-path="url(#pa3242ae7df)" d="M 275.655185 107.106865 
L 275.517856 107.031412 
L 275.351752 106.938548 
L 275.262724 106.883901 
L 275.11723 106.788381 
L 274.772973 106.537431 
L 274.489067 106.300056 
L 274.137875 105.958061 
L 273.918945 105.712324 
L 273.724707 105.464719 
L 273.470264 105.121986 
" style="fill:none;stroke:#ff0000;stroke-width:4;"/>
    <path clip-path="url(#pa3242ae7df)" d="M 273.470264 105.121986 
L 273.256007 104.860411 
L 273.131712 104.715262 
" style="fill:none;stroke:#ff0000;stroke-width:4;"/>
    <path clip-path="url(#pa3242ae7df)" d="M 272.916422 104.406369 
L 273.320884 104.827899 
L 273.549946 105.065766 
L 273.595936 105.110427 
" style="fill:none;stroke:#ff0000;stroke-width:4;"/>
    <path clip-path="url(#pa3242ae7df)" d="M 273.595936 105.110427 
L 275.556762 106.920644 
L 275.716373 107.045086 
" style="fill:none;stroke:#ff0000;stroke-width:4;"/>
    <path clip-path="url(#pa3242ae7df)" d="M 275.716373 107.045086 
L 275.778692 107.090584 
L 275.891773 107.148427 
L 276.107899 107.246997 
L 277.017458 107.631539 
" style="fill:none;stroke:#ff0000;stroke-width:4;"/>
    <path clip-path="url(#pa3242ae7df)" d="M 277.067383 107.734634 
L 276.850814 107.651656 
L 276.372572 107.433464 
L 275.972931 107.251818 
L 275.771216 107.165987 
L 275.655185 107.106865 
" style="fill:none;stroke:#ff0000;stroke-width:4;"/>
    <path clip-path="url(#pa3242ae7df)" d="M 279.152651 108.947675 
L 278.346679 108.429494 
L 278.325135 108.415623 
L 278.230303 108.356944 
L 278.2033 108.340663 
L 278.071922 108.259554 
L 277.995781 108.212433 
L 277.661312 108.003046 
L 277.492995 107.911804 
L 277.307611 107.8304 
L 277.067383 107.734634 
" style="fill:none;stroke:#ff0000;stroke-width:4;"/>
    <path clip-path="url(#pa3242ae7df)" d="M 277.017458 107.631539 
L 277.302594 107.758981 
L 277.540362 107.858929 
L 277.563332 107.870832 
L 277.643949 107.912542 
L 277.973204 108.124537 
L 278.042312 108.167427 
L 278.22927 108.283409 
L 278.253765 108.298608 
L 278.319085 108.339187 
L 278.363501 108.366633 
L 279.211429 108.898538 
" style="fill:none;stroke:#ff0000;stroke-width:4;"/>
    <path clip-path="url(#pa3242ae7df)" d="M 279.211429 108.898538 
L 279.332675 108.977876 
L 279.52947 109.122927 
L 279.801964 109.325724 
L 280.008106 109.478153 
" style="fill:none;stroke:#ff0000;stroke-width:4;"/>
    <path clip-path="url(#pa3242ae7df)" d="M 280.359938 109.828215 
L 280.268156 109.760977 
L 280.105741 109.641896 
L 279.966789 109.54003 
L 279.791635 109.411604 
L 279.396371 109.119189 
L 279.152651 108.947675 
" style="fill:none;stroke:#ff0000;stroke-width:4;"/>
    <path clip-path="url(#pa3242ae7df)" d="M 282.70924 111.63671 
L 282.663841 111.503463 
L 282.625279 111.3833 
L 282.574125 111.271401 
L 282.525086 111.168109 
L 282.427794 111.035403 
L 282.288596 110.85597 
L 282.233163 110.784945 
L 282.164252 110.718739 
L 282.087177 110.648157 
L 281.967506 110.552784 
L 281.905776 110.508909 
L 281.805436 110.44172 
L 281.698405 110.381565 
L 281.607066 110.341035 
L 281.507905 110.30444 
L 281.359952 110.262582 
L 281.264923 110.245957 
L 281.218294 110.237792 
L 281.062471 110.215609 
L 280.89076 110.175325 
L 280.815357 110.148912 
L 280.731937 110.101889 
L 280.581622 109.991072 
L 280.47469 109.909176 
L 280.359938 109.828215 
" style="fill:none;stroke:#ff0000;stroke-width:4;"/>
    <path clip-path="url(#pa3242ae7df)" d="M 280.008106 109.478153 
L 280.400419 109.769043 
" style="fill:none;stroke:#ff0000;stroke-width:4;"/>
    <path clip-path="url(#pa3242ae7df)" d="M 280.400419 109.769043 
L 280.719689 110.01055 
L 280.833261 110.079264 
L 280.918108 110.116547 
L 281.034189 110.149207 
L 281.22459 110.172472 
L 281.352721 110.18954 
L 281.467326 110.215609 
L 281.569831 110.247039 
L 281.733426 110.319983 
L 281.901448 110.416832 
L 282.066666 110.534486 
L 282.200454 110.642894 
L 282.279152 110.721395 
L 282.368918 110.831131 
L 282.496361 111.011498 
L 282.565665 111.105543 
L 282.617606 111.206228 
L 282.661677 111.304257 
L 282.762362 111.62702 
" style="fill:none;stroke:#ff0000;stroke-width:4;"/>
    <path clip-path="url(#pa3242ae7df)" d="M 282.755181 111.792386 
L 282.70924 111.63671 
" style="fill:none;stroke:#ff0000;stroke-width:4;"/>
    <path clip-path="url(#pa3242ae7df)" d="M 282.762362 111.62702 
L 282.807417 111.782106 
" style="fill:none;stroke:#ff0000;stroke-width:4;"/>
    <path clip-path="url(#pa3242ae7df)" d="M 282.807417 111.782106 
L 282.824386 111.818651 
" style="fill:none;stroke:#ff0000;stroke-width:4;"/>
    <path clip-path="url(#pa3242ae7df)" d="M 282.824386 111.818651 
L 282.850504 111.876446 
L 282.863096 111.937732 
L 282.859702 111.983574 
L 282.848537 112.013086 
L 282.844455 112.024006 
L 282.812434 112.073635 
L 282.764871 112.103393 
" style="fill:none;stroke:#ff0000;stroke-width:4;"/>
    <path clip-path="url(#pa3242ae7df)" d="M 284.581039 111.412468 
L 284.107371 111.58167 
L 283.753965 111.700259 
L 283.47852 111.803551 
L 283.169234 111.919828 
L 283.057974 111.942012 
L 282.975734 111.951111 
L 282.917497 111.952439 
L 282.863096 111.937732 
" style="fill:none;stroke:#ff0000;stroke-width:4;"/>
    <path clip-path="url(#pa3242ae7df)" d="M 282.863096 111.937732 
L 282.836142 111.923468 
L 282.805449 111.903302 
L 282.785922 111.881414 
" style="fill:none;stroke:#ff0000;stroke-width:4;"/>
    <path clip-path="url(#pa3242ae7df)" d="M 282.824386 111.818651 
L 282.889264 111.868674 
L 282.938696 111.884562 
L 282.9959 111.892481 
L 283.056695 111.888447 
L 283.176219 111.866166 
L 283.280248 111.82962 
L 283.484717 111.756332 
L 284.314004 111.455998 
L 284.556396 111.359543 
" style="fill:none;stroke:#ff0000;stroke-width:4;"/>
    <path clip-path="url(#pa3242ae7df)" d="M 282.785922 111.881414 
L 282.755181 111.792386 
" style="fill:none;stroke:#ff0000;stroke-width:4;"/>
   </g>
   <g id="LineCollection_2">
    <path clip-path="url(#pa3242ae7df)" d="M 284.236093 115.901636 
L 284.262309 115.887864 
L 284.712465 115.632683 
L 284.868977 115.536278 
L 285.13857 115.369584 
L 285.3393 115.244699 
L 285.388044 115.21504 
L 285.581397 115.097336 
L 285.691231 115.030491 
L 285.791867 114.969254 
" style="fill:none;stroke:#0000ff;stroke-width:4;"/>
   </g>
   <g id="LineCollection_3">
    <path clip-path="url(#pa3242ae7df)" d="M 281.210621 133.324633 
L 281.162517 133.341947 
L 281.138514 133.379526 
L 281.087261 133.467619 
L 281.049486 133.56191 
" style="fill:none;stroke:#008000;stroke-width:4;"/>
    <path clip-path="url(#pa3242ae7df)" d="M 281.049486 133.56191 
L 281.044567 133.61149 
L 281.025581 133.676318 
L 281.038911 133.723635 
" style="fill:none;stroke:#008000;stroke-width:4;"/>
    <path clip-path="url(#pa3242ae7df)" d="M 279.982725 133.510215 
L 280.269189 133.576813 
L 280.668978 133.676121 
L 280.845263 133.717881 
L 280.897204 133.728357 
L 280.927159 133.721816 
L 280.952195 133.714782 
L 280.982543 133.706223 
" style="fill:none;stroke:#008000;stroke-width:4;"/>
    <path clip-path="url(#pa3242ae7df)" d="M 280.982543 133.706223 
L 280.975017 133.677695 
L 280.983526 133.645527 
L 281.0184 133.599292 
L 281.049486 133.56191 
" style="fill:none;stroke:#008000;stroke-width:4;"/>
    <path clip-path="url(#pa3242ae7df)" d="M 279.370647 133.405693 
L 279.413144 133.4113 
L 279.567639 133.427237 
L 279.851889 133.478833 
" style="fill:none;stroke:#008000;stroke-width:4;"/>
    <path clip-path="url(#pa3242ae7df)" d="M 279.249254 133.390593 
L 279.322542 133.399151 
L 279.370647 133.405693 
" style="fill:none;stroke:#008000;stroke-width:4;"/>
    <path clip-path="url(#pa3242ae7df)" d="M 277.879701 133.362163 
L 278.166508 133.35867 
L 278.769733 133.344308 
L 279.21989 133.387986 
L 279.249254 133.390593 
" style="fill:none;stroke:#008000;stroke-width:4;"/>
    <path clip-path="url(#pa3242ae7df)" d="M 277.879701 133.362163 
L 277.843647 133.362655 
L 277.787279 133.354539 
L 277.719401 133.328617 
" style="fill:none;stroke:#008000;stroke-width:4;"/>
    <path clip-path="url(#pa3242ae7df)" d="M 274.551387 135.810675 
L 274.598016 135.755241 
L 274.833325 135.457711 
L 275.235868 134.951039 
L 275.645741 134.449778 
L 275.914152 134.113637 
L 275.963634 134.055301 
L 276.224963 133.745425 
L 276.311728 133.656447 
L 276.440597 133.580797 
L 276.617522 133.531955 
L 276.712993 133.512821 
L 276.803792 133.491573 
L 277.41287 133.407759 
" style="fill:none;stroke:#008000;stroke-width:4;"/>
    <path clip-path="url(#pa3242ae7df)" d="M 277.536181 133.386707 
L 277.588663 133.377411 
L 277.634062 133.368557 
L 277.667067 133.356605 
L 277.691808 133.343865 
L 277.719401 133.328617 
" style="fill:none;stroke:#008000;stroke-width:4;"/>
    <path clip-path="url(#pa3242ae7df)" d="M 277.811528 133.197338 
L 277.799526 133.274168 
L 277.805134 133.29822 
L 277.815856 133.314698 
L 277.847385 133.345341 
L 277.879701 133.362163 
" style="fill:none;stroke:#008000;stroke-width:4;"/>
    <path clip-path="url(#pa3242ae7df)" d="M 277.41287 133.407759 
L 277.536181 133.386707 
" style="fill:none;stroke:#008000;stroke-width:4;"/>
    <path clip-path="url(#pa3242ae7df)" d="M 273.398894 137.246384 
L 273.49771 137.124844 
L 273.505826 137.114957 
L 273.760023 136.798835 
L 274.355329 136.051738 
L 274.551387 135.810675 
" style="fill:none;stroke:#008000;stroke-width:4;"/>
    <path clip-path="url(#pa3242ae7df)" d="M 273.32113 137.349135 
L 273.398894 137.246384 
" style="fill:none;stroke:#008000;stroke-width:4;"/>
    <path clip-path="url(#pa3242ae7df)" d="M 271.180379 138.895416 
L 271.183625 138.863445 
L 271.189971 138.832113 
L 271.270243 138.621791 
L 271.292279 138.572112 
L 271.32848 138.52386 
L 271.375699 138.493807 
L 271.429214 138.48333 
L 271.47481 138.488544 
L 271.515783 138.499021 
L 271.791228 138.650516 
L 271.866779 138.683176 
L 271.948626 138.705408 
L 272.014683 138.704129 
L 272.069821 138.691045 
L 272.137502 138.660992 
L 272.239811 138.587852 
L 272.357859 138.484658 
L 272.545555 138.296716 
L 272.673243 138.152402 
L 272.977512 137.764762 
L 273.129105 137.580116 
L 273.256991 137.425473 
L 273.32113 137.349135 
" style="fill:none;stroke:#008000;stroke-width:4;"/>
   </g>
   <g id="LineCollection_4">
    <path clip-path="url(#pa3242ae7df)" d="M 209.95371 145.859017 
L 210.153358 146.141103 
L 210.304066 146.43037 
L 210.314494 146.45034 
L 210.626583 147.020118 
L 210.64188 147.047957 
L 210.706954 147.175253 
L 210.969267 147.624671 
L 210.843398 148.092731 
L 210.688411 148.882669 
L 210.537014 150.032604 
L 210.111747 152.829554 
" style="fill:none;stroke:#ffff00;stroke-width:4;"/>
    <path clip-path="url(#pa3242ae7df)" d="M 210.111747 152.829554 
L 210.119616 152.94529 
" style="fill:none;stroke:#ffff00;stroke-width:4;"/>
   </g>
   <g id="LineCollection_5">
    <path clip-path="url(#pa3242ae7df)" d="M 81.629943 51.710044 
L 81.743122 51.122165 
L 81.756599 51.051828 
L 81.807015 50.789959 
L 81.940311 50.096722 
L 82.041882 49.599986 
L 82.089593 49.366743 
L 82.131795 49.150124 
L 82.31595 48.205396 
L 82.476643 47.416049 
" style="fill:none;stroke:#800080;stroke-width:4;"/>
   </g>
   <g id="LineCollection_6">
    <path clip-path="url(#pa3242ae7df)" d="M 117.176749 179.91773 
L 117.28437 179.932732 
L 117.379792 179.951669 
L 117.491741 179.974885 
L 117.560454 179.990723 
L 117.592229 179.998101 
L 117.703194 180.016546 
L 117.738756 180.02294 
L 117.845344 180.033958 
L 117.968753 180.041336 
L 118.134118 180.041336 
L 118.276268 180.056141 
L 118.526972 180.081768 
L 119.10526 180.147678 
L 119.430925 180.193274 
L 120.168872 180.283039 
L 121.409507 180.451504 
L 121.95543 180.523759 
L 122.160194 180.550812 
L 122.770797 180.636249 
L 123.324885 180.714947 
L 123.435899 180.72931 
L 123.486168 180.721686 
L 123.5175 180.703733 
L 123.537863 180.656268 
L 123.525124 180.587702 
L 123.5175 180.529661 
L 123.539093 180.467489 
L 123.581098 180.390512 
L 123.609086 180.315552 
L 123.617988 180.235378 
L 123.663781 179.941094 
L 123.672586 179.907352 
" style="fill:none;stroke:#000000;stroke-width:4;"/>
    <path clip-path="url(#pa3242ae7df)" d="M 111.20298 179.108216 
L 111.265005 179.130301 
L 111.331603 179.14727 
L 111.403957 179.162371 
L 111.467752 179.169503 
L 111.534351 179.188931 
L 111.71644 179.207671 
L 112.354784 179.284698 
L 112.926186 179.359511 
L 113.590107 179.446424 
L 113.930331 179.490937 
L 114.220729 179.528959 
L 114.495535 179.564963 
L 114.920901 179.624971 
L 114.978499 179.630136 
L 115.002453 179.638202 
L 115.0238 179.648876 
L 115.049131 179.654975 
L 115.065559 179.657533 
L 115.088579 179.658959 
L 115.115287 179.654385 
L 115.142881 179.653598 
L 115.173278 179.654483 
L 115.420343 179.688766 
L 115.650881 179.718278 
L 116.342593 179.806814 
L 116.404076 179.814881 
L 116.487005 179.827915 
L 116.696491 179.853591 
L 116.751776 179.860428 
L 117.033911 179.897318 
" style="fill:none;stroke:#000000;stroke-width:4;"/>
    <path clip-path="url(#pa3242ae7df)" d="M 111.534351 179.188931 
L 111.396874 179.181406 
L 111.326439 179.169158 
L 111.274694 179.160157 
L 111.229787 179.160698 
L 111.189454 179.161731 
" style="fill:none;stroke:#000000;stroke-width:4;"/>
    <path clip-path="url(#pa3242ae7df)" d="M 109.753695 178.9459 
L 109.866775 178.962968 
L 110.095444 179.005514 
L 110.904122 179.107183 
" style="fill:none;stroke:#000000;stroke-width:4;"/>
    <path clip-path="url(#pa3242ae7df)" d="M 111.098065 179.153566 
L 111.045484 179.144516 
L 110.957047 179.128579 
L 110.904122 179.107183 
" style="fill:none;stroke:#000000;stroke-width:4;"/>
    <path clip-path="url(#pa3242ae7df)" d="M 110.904122 179.107183 
L 111.016661 179.105953 
L 111.061913 179.097592 
L 111.100229 179.097001 
" style="fill:none;stroke:#000000;stroke-width:4;"/>
   </g>
   <g id="LineCollection_7">
    <path clip-path="url(#pa3242ae7df)" d="M 203.804394 36.750118 
L 203.76106 36.893005 
" style="fill:none;stroke:#ffa500;stroke-width:4;"/>
    <path clip-path="url(#pa3242ae7df)" d="M 203.804394 36.750118 
L 204.592167 36.61638 
L 205.177636 36.515449 
L 206.160631 36.344771 
L 206.845211 36.244873 
L 207.332356 36.164108 
L 207.365459 36.158747 
" style="fill:none;stroke:#ffa500;stroke-width:4;"/>
    <path clip-path="url(#pa3242ae7df)" d="M 207.458225 36.142909 
L 208.622571 35.942277 
L 209.210893 35.84287 
L 209.397851 35.813309 
L 209.837383 35.737316 
L 210.554427 35.63181 
L 210.891257 35.580115 
L 211.38214 35.495908 
L 212.061211 35.390697 
" style="fill:none;stroke:#ffa500;stroke-width:4;"/>
    <path clip-path="url(#pa3242ae7df)" d="M 212.171684 35.373728 
L 212.813668 35.254352 
L 213.384184 35.187704 
L 213.471392 35.172554 
L 214.102506 35.083182 
L 214.543957 35.01073 
L 215.03361 34.930359 
L 215.497784 34.860318 
L 215.528624 34.855546 
L 216.142375 34.760321 
L 216.319693 34.732777 
L 216.40395 34.71443 
L 216.454416 34.67267 
" style="fill:none;stroke:#ffa500;stroke-width:4;"/>
   </g>
   <g id="LineCollection_8">
    <path clip-path="url(#pa3242ae7df)" d="M 331.375653 122.443757 
L 331.34319 122.567953 
L 331.288347 122.838923 
L 331.260901 122.907194 
L 331.070745 123.095431 
L 330.801694 123.313279 
L 330.513657 123.506632 
L 330.474652 123.548489 
L 330.438992 123.580215 
" style="fill:none;stroke:#000080;stroke-width:4;"/>
    <path clip-path="url(#pa3242ae7df)" d="M 331.6631 121.932167 
L 331.667035 121.958629 
" style="fill:none;stroke:#000080;stroke-width:4;"/>
    <path clip-path="url(#pa3242ae7df)" d="M 330.251099 123.613416 
L 330.342537 123.545833 
L 330.66948 123.338462 
L 330.85998 123.203543 
L 331.09401 123.01688 
L 331.185448 122.917474 
L 331.235717 122.835529 
L 331.252736 122.667458 
L 331.266065 122.588858 
L 331.282789 122.513405 
L 331.302021 122.467809 
" style="fill:none;stroke:#000080;stroke-width:4;"/>
    <path clip-path="url(#pa3242ae7df)" d="M 331.302021 122.467809 
L 331.318941 122.428362 
L 331.47501 122.139538 
" style="fill:none;stroke:#000080;stroke-width:4;"/>
    <path clip-path="url(#pa3242ae7df)" d="M 331.6631 121.932167 
L 331.617012 121.914312 
" style="fill:none;stroke:#000080;stroke-width:4;"/>
    <path clip-path="url(#pa3242ae7df)" d="M 331.66374 121.914656 
L 331.6631 121.932167 
" style="fill:none;stroke:#000080;stroke-width:4;"/>
    <path clip-path="url(#pa3242ae7df)" d="M 331.47501 122.139538 
L 331.539592 122.028228 
" style="fill:none;stroke:#000080;stroke-width:4;"/>
    <path clip-path="url(#pa3242ae7df)" d="M 331.517704 122.14421 
L 331.497341 122.185035 
" style="fill:none;stroke:#000080;stroke-width:4;"/>
    <path clip-path="url(#pa3242ae7df)" d="M 331.667035 121.958629 
L 331.597928 122.014308 
L 331.517704 122.14421 
" style="fill:none;stroke:#000080;stroke-width:4;"/>
    <path clip-path="url(#pa3242ae7df)" d="M 331.539592 122.028228 
L 331.540379 122.010964 
L 331.59419 121.935561 
L 331.617012 121.914312 
" style="fill:none;stroke:#000080;stroke-width:4;"/>
    <path clip-path="url(#pa3242ae7df)" d="M 331.497341 122.185035 
L 331.45386 122.273374 
L 331.375653 122.443757 
" style="fill:none;stroke:#000080;stroke-width:4;"/>
    <path clip-path="url(#pa3242ae7df)" d="M 331.617012 121.914312 
L 331.596846 121.863158 
L 331.600486 121.825481 
" style="fill:none;stroke:#000080;stroke-width:4;"/>
    <path clip-path="url(#pa3242ae7df)" d="M 331.647262 121.764243 
L 331.639884 121.824546 
L 331.638408 121.856518 
L 331.64313 121.885685 
L 331.66374 121.914656 
" style="fill:none;stroke:#000080;stroke-width:4;"/>
    <path clip-path="url(#pa3242ae7df)" d="M 331.654197 121.573006 
L 331.689366 121.308135 
" style="fill:none;stroke:#000080;stroke-width:4;"/>
    <path clip-path="url(#pa3242ae7df)" d="M 331.634228 121.714073 
L 331.651148 121.724304 
" style="fill:none;stroke:#000080;stroke-width:4;"/>
    <path clip-path="url(#pa3242ae7df)" d="M 331.651148 121.724304 
L 331.647262 121.764243 
" style="fill:none;stroke:#000080;stroke-width:4;"/>
    <path clip-path="url(#pa3242ae7df)" d="M 331.600486 121.825481 
L 331.605847 121.795329 
L 331.615192 121.743733 
L 331.634228 121.714073 
" style="fill:none;stroke:#000080;stroke-width:4;"/>
    <path clip-path="url(#pa3242ae7df)" d="M 331.634228 121.714073 
L 331.654197 121.573006 
" style="fill:none;stroke:#000080;stroke-width:4;"/>
    <path clip-path="url(#pa3242ae7df)" d="M 331.689366 121.308135 
L 331.696449 121.237012 
L 331.695022 121.17484 
L 331.693842 121.123243 
L 331.662805 120.975093 
L 331.602305 120.786806 
L 331.574072 120.730684 
" style="fill:none;stroke:#000080;stroke-width:4;"/>
    <path clip-path="url(#pa3242ae7df)" d="M 331.574072 120.730684 
L 331.513179 120.615882 
L 331.464534 120.551595 
L 331.408559 120.491293 
L 331.374915 120.455091 
L 331.263016 120.353668 
L 331.214075 120.316631 
L 331.090321 120.267297 
L 331.050628 120.251016 
L 331.020476 120.226078 
L 330.955648 120.152642 
L 330.914135 120.068632 
L 330.903117 120.016986 
L 330.913151 119.943845 
L 330.925989 119.853686 
L 330.924464 119.779168 
L 330.905576 119.717783 
L 330.887918 119.683598 
L 330.814778 119.587143 
L 330.758508 119.525119 
L 330.565746 119.312436 
L 330.298023 119.015791 
L 330.209241 118.915893 
L 330.117016 118.828882 
L 330.002116 118.738723 
L 329.93537 118.692192 
L 329.863606 118.656778 
L 329.684272 118.57075 
L 329.523677 118.503758 
L 329.355705 118.454621 
L 329.304157 118.442127 
L 329.253446 118.42019 
L 329.199734 118.387333 
L 329.149022 118.348033 
" style="fill:none;stroke:#000080;stroke-width:4;"/>
    <path clip-path="url(#pa3242ae7df)" d="M 329.149022 118.348033 
L 328.988969 118.200473 
L 328.880463 118.095951 
L 328.774515 117.997234 
L 328.744905 117.968755 
" style="fill:none;stroke:#000080;stroke-width:4;"/>
    <path clip-path="url(#pa3242ae7df)" d="M 328.744905 117.968755 
L 328.705162 117.932799 
L 328.612002 117.840328 
" style="fill:none;stroke:#000080;stroke-width:4;"/>
    <path clip-path="url(#pa3242ae7df)" d="M 328.33941 117.58082 
L 328.308078 117.551799 
" style="fill:none;stroke:#000080;stroke-width:4;"/>
    <path clip-path="url(#pa3242ae7df)" d="M 328.612002 117.840328 
L 328.502119 117.721149 
L 328.440833 117.66365 
L 328.374234 117.612299 
L 328.33941 117.58082 
" style="fill:none;stroke:#000080;stroke-width:4;"/>
    <path clip-path="url(#pa3242ae7df)" d="M 328.204343 117.454311 
L 328.060226 117.319048 
" style="fill:none;stroke:#000080;stroke-width:4;"/>
    <path clip-path="url(#pa3242ae7df)" d="M 328.308078 117.551799 
L 328.260318 117.506498 
L 328.204343 117.454311 
" style="fill:none;stroke:#000080;stroke-width:4;"/>
    <path clip-path="url(#pa3242ae7df)" d="M 328.060226 117.319048 
L 327.977052 117.231102 
L 327.824229 117.030372 
L 327.790192 116.853005 
L 327.780649 116.780405 
L 327.770861 116.70569 
L 327.768894 116.646371 
L 327.774009 116.581838 
L 327.806276 116.468316 
L 327.843707 116.327396 
L 327.881581 116.18682 
" style="fill:none;stroke:#000080;stroke-width:4;"/>
    <path clip-path="url(#pa3242ae7df)" d="M 327.758811 115.656883 
L 327.717838 115.557379 
L 327.69472 115.513357 
" style="fill:none;stroke:#000080;stroke-width:4;"/>
    <path clip-path="url(#pa3242ae7df)" d="M 327.881581 116.18682 
L 327.913552 116.059624 
L 327.901354 115.99937 
" style="fill:none;stroke:#000080;stroke-width:4;"/>
    <path clip-path="url(#pa3242ae7df)" d="M 327.901354 115.99937 
L 327.89673 115.98245 
L 327.867562 115.916245 
L 327.758811 115.656883 
" style="fill:none;stroke:#000080;stroke-width:4;"/>
    <path clip-path="url(#pa3242ae7df)" d="M 327.69472 115.513357 
L 327.693638 115.451972 
L 327.696589 115.332153 
" style="fill:none;stroke:#000080;stroke-width:4;"/>
    <path clip-path="url(#pa3242ae7df)" d="M 327.684834 115.010423 
L 327.682571 114.813972 
L 327.678636 114.673298 
L 327.670766 114.531493 
L 327.674997 114.518999 
" style="fill:none;stroke:#000080;stroke-width:4;"/>
    <path clip-path="url(#pa3242ae7df)" d="M 327.696589 115.332153 
L 327.684834 115.010423 
" style="fill:none;stroke:#000080;stroke-width:4;"/>
    <path clip-path="url(#pa3242ae7df)" d="M 327.674997 114.518999 
L 327.669734 114.443596 
L 327.6627 114.368537 
L 327.642189 114.336172 
" style="fill:none;stroke:#000080;stroke-width:4;"/>
    <path clip-path="url(#pa3242ae7df)" d="M 327.642189 114.336172 
L 327.618481 114.310399 
L 327.584346 114.282706 
L 327.564031 114.274886 
L 327.537864 114.263376 
L 327.502007 114.258211 
L 327.450656 114.257375 
L 327.273092 114.259884 
L 327.090167 114.262589 
L 327.043587 114.261605 
L 326.976448 114.262343 
L 326.923129 114.26554 
" style="fill:none;stroke:#000080;stroke-width:4;"/>
    <path clip-path="url(#pa3242ae7df)" d="M 326.60076 114.312661 
L 326.493238 114.335779 
L 326.436919 114.348174 
L 326.421819 114.351519 
L 326.359794 114.35688 
" style="fill:none;stroke:#000080;stroke-width:4;"/>
    <path clip-path="url(#pa3242ae7df)" d="M 326.359794 114.35688 
L 326.249764 114.373161 
L 326.15262 114.37503 
L 326.060887 114.361012 
" style="fill:none;stroke:#000080;stroke-width:4;"/>
    <path clip-path="url(#pa3242ae7df)" d="M 326.923129 114.26554 
L 326.899175 114.265589 
L 326.868089 114.268737 
L 326.806458 114.275033 
L 326.60076 114.312661 
" style="fill:none;stroke:#000080;stroke-width:4;"/>
    <path clip-path="url(#pa3242ae7df)" d="M 325.978155 114.337107 
L 325.749093 114.281772 
L 325.633799 114.26982 
L 325.509701 114.253194 
L 325.4191 114.240898 
L 325.329039 114.229683 
L 325.306216 114.227568 
L 325.267014 114.223043 
L 325.23583 114.222551 
" style="fill:none;stroke:#000080;stroke-width:4;"/>
    <path clip-path="url(#pa3242ae7df)" d="M 326.060887 114.361012 
L 325.978155 114.337107 
" style="fill:none;stroke:#000080;stroke-width:4;"/>
    <path clip-path="url(#pa3242ae7df)" d="M 325.23583 114.222551 
L 325.144392 114.211484 
L 325.077203 114.201057 
L 325.018917 114.151919 
" style="fill:none;stroke:#000080;stroke-width:4;"/>
   </g>
   <g id="LineCollection_9">
    <path clip-path="url(#pa3242ae7df)" d="M 79.493865 281.76358 
L 79.205139 281.533681 
L 77.922745 280.638386 
L 76.222411 280.432589 
L 75.517124 280.341888 
L 74.012405 280.190787 
L 71.531676 279.897192 
" style="fill:none;stroke:#00ffff;stroke-width:4;"/>
   </g>
   <g id="patch_3">
    <path d="M 58.523438 294.118125 
L 58.523438 22.318125 
" style="fill:none;stroke:#000000;stroke-linecap:square;stroke-linejoin:miter;stroke-width:0.8;"/>
   </g>
   <g id="patch_4">
    <path d="M 344.704687 294.118125 
L 344.704687 22.318125 
" style="fill:none;stroke:#000000;stroke-linecap:square;stroke-linejoin:miter;stroke-width:0.8;"/>
   </g>
   <g id="patch_5">
    <path d="M 58.523437 294.118125 
L 344.704687 294.118125 
" style="fill:none;stroke:#000000;stroke-linecap:square;stroke-linejoin:miter;stroke-width:0.8;"/>
   </g>
   <g id="patch_6">
    <path d="M 58.523437 22.318125 
L 344.704687 22.318125 
" style="fill:none;stroke:#000000;stroke-linecap:square;stroke-linejoin:miter;stroke-width:0.8;"/>
   </g>
   <g id="text_12">
    <!-- Victoria Road -->
    <defs>
     <path d="M 28.609375 0 
L 0.78125 72.90625 
L 11.078125 72.90625 
L 34.1875 11.53125 
L 57.328125 72.90625 
L 67.578125 72.90625 
L 39.796875 0 
z
" id="DejaVuSans-86"/>
     <path d="M 48.78125 52.59375 
L 48.78125 44.1875 
Q 44.96875 46.296875 41.140625 47.34375 
Q 37.3125 48.390625 33.40625 48.390625 
Q 24.65625 48.390625 19.8125 42.84375 
Q 14.984375 37.3125 14.984375 27.296875 
Q 14.984375 17.28125 19.8125 11.734375 
Q 24.65625 6.203125 33.40625 6.203125 
Q 37.3125 6.203125 41.140625 7.25 
Q 44.96875 8.296875 48.78125 10.40625 
L 48.78125 2.09375 
Q 45.015625 0.34375 40.984375 -0.53125 
Q 36.96875 -1.421875 32.421875 -1.421875 
Q 20.0625 -1.421875 12.78125 6.34375 
Q 5.515625 14.109375 5.515625 27.296875 
Q 5.515625 40.671875 12.859375 48.328125 
Q 20.21875 56 33.015625 56 
Q 37.15625 56 41.109375 55.140625 
Q 45.0625 54.296875 48.78125 52.59375 
z
" id="DejaVuSans-99"/>
     <path d="M 41.109375 46.296875 
Q 39.59375 47.171875 37.8125 47.578125 
Q 36.03125 48 33.890625 48 
Q 26.265625 48 22.1875 43.046875 
Q 18.109375 38.09375 18.109375 28.8125 
L 18.109375 0 
L 9.078125 0 
L 9.078125 54.6875 
L 18.109375 54.6875 
L 18.109375 46.1875 
Q 20.953125 51.171875 25.484375 53.578125 
Q 30.03125 56 36.53125 56 
Q 37.453125 56 38.578125 55.875 
Q 39.703125 55.765625 41.0625 55.515625 
z
" id="DejaVuSans-114"/>
     <path id="DejaVuSans-32"/>
     <path d="M 44.390625 34.1875 
Q 47.5625 33.109375 50.5625 29.59375 
Q 53.5625 26.078125 56.59375 19.921875 
L 66.609375 0 
L 56 0 
L 46.6875 18.703125 
Q 43.0625 26.03125 39.671875 28.421875 
Q 36.28125 30.8125 30.421875 30.8125 
L 19.671875 30.8125 
L 19.671875 0 
L 9.8125 0 
L 9.8125 72.90625 
L 32.078125 72.90625 
Q 44.578125 72.90625 50.734375 67.671875 
Q 56.890625 62.453125 56.890625 51.90625 
Q 56.890625 45.015625 53.6875 40.46875 
Q 50.484375 35.9375 44.390625 34.1875 
z
M 19.671875 64.796875 
L 19.671875 38.921875 
L 32.078125 38.921875 
Q 39.203125 38.921875 42.84375 42.21875 
Q 46.484375 45.515625 46.484375 51.90625 
Q 46.484375 58.296875 42.84375 61.546875 
Q 39.203125 64.796875 32.078125 64.796875 
z
" id="DejaVuSans-82"/>
    </defs>
    <g transform="translate(161.881875 16.318125)scale(0.12 -0.12)">
     <use xlink:href="#DejaVuSans-86"/>
     <use x="66.158203" xlink:href="#DejaVuSans-105"/>
     <use x="93.941406" xlink:href="#DejaVuSans-99"/>
     <use x="148.921875" xlink:href="#DejaVuSans-116"/>
     <use x="188.130859" xlink:href="#DejaVuSans-111"/>
     <use x="249.3125" xlink:href="#DejaVuSans-114"/>
     <use x="290.425781" xlink:href="#DejaVuSans-105"/>
     <use x="318.208984" xlink:href="#DejaVuSans-97"/>
     <use x="379.488281" xlink:href="#DejaVuSans-32"/>
     <use x="411.275391" xlink:href="#DejaVuSans-82"/>
     <use x="476.257812" xlink:href="#DejaVuSans-111"/>
     <use x="537.439453" xlink:href="#DejaVuSans-97"/>
     <use x="598.71875" xlink:href="#DejaVuSans-100"/>
    </g>
   </g>
  </g>
 </g>
 <defs>
  <clipPath id="pa3242ae7df">
   <rect height="271.8" width="286.18125" x="58.523438" y="22.318125"/>
  </clipPath>
 </defs>
</svg>
