<?xml version="1.0" encoding="utf-8" standalone="no"?>
<!DOCTYPE svg PUBLIC "-//W3C//DTD SVG 1.1//EN"
  "http://www.w3.org/Graphics/SVG/1.1/DTD/svg11.dtd">
<!-- Created with matplotlib (https://matplotlib.org/) -->
<svg height="1130.95625pt" version="1.1" viewBox="0 0 353.06298 1130.95625" width="353.06298pt" xmlns="http://www.w3.org/2000/svg" xmlns:xlink="http://www.w3.org/1999/xlink">
 <defs>
  <style type="text/css">
*{stroke-linecap:butt;stroke-linejoin:round;}
  </style>
 </defs>
 <g id="figure_1">
  <g id="patch_1">
   <path d="M 0 1130.95625 
L 353.06298 1130.95625 
L 353.06298 0 
L 0 0 
z
" style="fill:none;"/>
  </g>
  <g id="axes_1">
   <g id="patch_2">
    <path d="M 51.207813 1094.4 
L 345.86298 1094.4 
L 345.86298 7.2 
L 51.207813 7.2 
z
" style="fill:#ffffff;"/>
   </g>
   <g id="matplotlib.axis_1">
    <g id="xtick_1">
     <g id="line2d_1">
      <defs>
       <path d="M 0 0 
L 0 3.5 
" id="me2ee22d074" style="stroke:#000000;stroke-width:0.8;"/>
      </defs>
      <g>
       <use style="stroke:#000000;stroke-width:0.8;" x="74.556146" xlink:href="#me2ee22d074" y="1094.4"/>
      </g>
     </g>
     <g id="text_1">
      <!-- 0.020 -->
      <defs>
       <path d="M 31.78125 66.40625 
Q 24.171875 66.40625 20.328125 58.90625 
Q 16.5 51.421875 16.5 36.375 
Q 16.5 21.390625 20.328125 13.890625 
Q 24.171875 6.390625 31.78125 6.390625 
Q 39.453125 6.390625 43.28125 13.890625 
Q 47.125 21.390625 47.125 36.375 
Q 47.125 51.421875 43.28125 58.90625 
Q 39.453125 66.40625 31.78125 66.40625 
z
M 31.78125 74.21875 
Q 44.046875 74.21875 50.515625 64.515625 
Q 56.984375 54.828125 56.984375 36.375 
Q 56.984375 17.96875 50.515625 8.265625 
Q 44.046875 -1.421875 31.78125 -1.421875 
Q 19.53125 -1.421875 13.0625 8.265625 
Q 6.59375 17.96875 6.59375 36.375 
Q 6.59375 54.828125 13.0625 64.515625 
Q 19.53125 74.21875 31.78125 74.21875 
z
" id="DejaVuSans-48"/>
       <path d="M 10.6875 12.40625 
L 21 12.40625 
L 21 0 
L 10.6875 0 
z
" id="DejaVuSans-46"/>
       <path d="M 19.1875 8.296875 
L 53.609375 8.296875 
L 53.609375 0 
L 7.328125 0 
L 7.328125 8.296875 
Q 12.9375 14.109375 22.625 23.890625 
Q 32.328125 33.6875 34.8125 36.53125 
Q 39.546875 41.84375 41.421875 45.53125 
Q 43.3125 49.21875 43.3125 52.78125 
Q 43.3125 58.59375 39.234375 62.25 
Q 35.15625 65.921875 28.609375 65.921875 
Q 23.96875 65.921875 18.8125 64.3125 
Q 13.671875 62.703125 7.8125 59.421875 
L 7.8125 69.390625 
Q 13.765625 71.78125 18.9375 73 
Q 24.125 74.21875 28.421875 74.21875 
Q 39.75 74.21875 46.484375 68.546875 
Q 53.21875 62.890625 53.21875 53.421875 
Q 53.21875 48.921875 51.53125 44.890625 
Q 49.859375 40.875 45.40625 35.40625 
Q 44.1875 33.984375 37.640625 27.21875 
Q 31.109375 20.453125 19.1875 8.296875 
z
" id="DejaVuSans-50"/>
      </defs>
      <g transform="translate(60.242084 1108.998438)scale(0.1 -0.1)">
       <use xlink:href="#DejaVuSans-48"/>
       <use x="63.623047" xlink:href="#DejaVuSans-46"/>
       <use x="95.410156" xlink:href="#DejaVuSans-48"/>
       <use x="159.033203" xlink:href="#DejaVuSans-50"/>
       <use x="222.65625" xlink:href="#DejaVuSans-48"/>
      </g>
     </g>
    </g>
    <g id="xtick_2">
     <g id="line2d_2">
      <g>
       <use style="stroke:#000000;stroke-width:0.8;" x="122.470388" xlink:href="#me2ee22d074" y="1094.4"/>
      </g>
     </g>
     <g id="text_2">
      <!-- 0.025 -->
      <defs>
       <path d="M 10.796875 72.90625 
L 49.515625 72.90625 
L 49.515625 64.59375 
L 19.828125 64.59375 
L 19.828125 46.734375 
Q 21.96875 47.46875 24.109375 47.828125 
Q 26.265625 48.1875 28.421875 48.1875 
Q 40.625 48.1875 47.75 41.5 
Q 54.890625 34.8125 54.890625 23.390625 
Q 54.890625 11.625 47.5625 5.09375 
Q 40.234375 -1.421875 26.90625 -1.421875 
Q 22.3125 -1.421875 17.546875 -0.640625 
Q 12.796875 0.140625 7.71875 1.703125 
L 7.71875 11.625 
Q 12.109375 9.234375 16.796875 8.0625 
Q 21.484375 6.890625 26.703125 6.890625 
Q 35.15625 6.890625 40.078125 11.328125 
Q 45.015625 15.765625 45.015625 23.390625 
Q 45.015625 31 40.078125 35.4375 
Q 35.15625 39.890625 26.703125 39.890625 
Q 22.75 39.890625 18.8125 39.015625 
Q 14.890625 38.140625 10.796875 36.28125 
z
" id="DejaVuSans-53"/>
      </defs>
      <g transform="translate(108.156326 1108.998438)scale(0.1 -0.1)">
       <use xlink:href="#DejaVuSans-48"/>
       <use x="63.623047" xlink:href="#DejaVuSans-46"/>
       <use x="95.410156" xlink:href="#DejaVuSans-48"/>
       <use x="159.033203" xlink:href="#DejaVuSans-50"/>
       <use x="222.65625" xlink:href="#DejaVuSans-53"/>
      </g>
     </g>
    </g>
    <g id="xtick_3">
     <g id="line2d_3">
      <g>
       <use style="stroke:#000000;stroke-width:0.8;" x="170.38463" xlink:href="#me2ee22d074" y="1094.4"/>
      </g>
     </g>
     <g id="text_3">
      <!-- 0.030 -->
      <defs>
       <path d="M 40.578125 39.3125 
Q 47.65625 37.796875 51.625 33 
Q 55.609375 28.21875 55.609375 21.1875 
Q 55.609375 10.40625 48.1875 4.484375 
Q 40.765625 -1.421875 27.09375 -1.421875 
Q 22.515625 -1.421875 17.65625 -0.515625 
Q 12.796875 0.390625 7.625 2.203125 
L 7.625 11.71875 
Q 11.71875 9.328125 16.59375 8.109375 
Q 21.484375 6.890625 26.8125 6.890625 
Q 36.078125 6.890625 40.9375 10.546875 
Q 45.796875 14.203125 45.796875 21.1875 
Q 45.796875 27.640625 41.28125 31.265625 
Q 36.765625 34.90625 28.71875 34.90625 
L 20.21875 34.90625 
L 20.21875 43.015625 
L 29.109375 43.015625 
Q 36.375 43.015625 40.234375 45.921875 
Q 44.09375 48.828125 44.09375 54.296875 
Q 44.09375 59.90625 40.109375 62.90625 
Q 36.140625 65.921875 28.71875 65.921875 
Q 24.65625 65.921875 20.015625 65.03125 
Q 15.375 64.15625 9.8125 62.3125 
L 9.8125 71.09375 
Q 15.4375 72.65625 20.34375 73.4375 
Q 25.25 74.21875 29.59375 74.21875 
Q 40.828125 74.21875 47.359375 69.109375 
Q 53.90625 64.015625 53.90625 55.328125 
Q 53.90625 49.265625 50.4375 45.09375 
Q 46.96875 40.921875 40.578125 39.3125 
z
" id="DejaVuSans-51"/>
      </defs>
      <g transform="translate(156.070568 1108.998438)scale(0.1 -0.1)">
       <use xlink:href="#DejaVuSans-48"/>
       <use x="63.623047" xlink:href="#DejaVuSans-46"/>
       <use x="95.410156" xlink:href="#DejaVuSans-48"/>
       <use x="159.033203" xlink:href="#DejaVuSans-51"/>
       <use x="222.65625" xlink:href="#DejaVuSans-48"/>
      </g>
     </g>
    </g>
    <g id="xtick_4">
     <g id="line2d_4">
      <g>
       <use style="stroke:#000000;stroke-width:0.8;" x="218.298873" xlink:href="#me2ee22d074" y="1094.4"/>
      </g>
     </g>
     <g id="text_4">
      <!-- 0.035 -->
      <g transform="translate(203.98481 1108.998438)scale(0.1 -0.1)">
       <use xlink:href="#DejaVuSans-48"/>
       <use x="63.623047" xlink:href="#DejaVuSans-46"/>
       <use x="95.410156" xlink:href="#DejaVuSans-48"/>
       <use x="159.033203" xlink:href="#DejaVuSans-51"/>
       <use x="222.65625" xlink:href="#DejaVuSans-53"/>
      </g>
     </g>
    </g>
    <g id="xtick_5">
     <g id="line2d_5">
      <g>
       <use style="stroke:#000000;stroke-width:0.8;" x="266.213115" xlink:href="#me2ee22d074" y="1094.4"/>
      </g>
     </g>
     <g id="text_5">
      <!-- 0.040 -->
      <defs>
       <path d="M 37.796875 64.3125 
L 12.890625 25.390625 
L 37.796875 25.390625 
z
M 35.203125 72.90625 
L 47.609375 72.90625 
L 47.609375 25.390625 
L 58.015625 25.390625 
L 58.015625 17.1875 
L 47.609375 17.1875 
L 47.609375 0 
L 37.796875 0 
L 37.796875 17.1875 
L 4.890625 17.1875 
L 4.890625 26.703125 
z
" id="DejaVuSans-52"/>
      </defs>
      <g transform="translate(251.899052 1108.998438)scale(0.1 -0.1)">
       <use xlink:href="#DejaVuSans-48"/>
       <use x="63.623047" xlink:href="#DejaVuSans-46"/>
       <use x="95.410156" xlink:href="#DejaVuSans-48"/>
       <use x="159.033203" xlink:href="#DejaVuSans-52"/>
       <use x="222.65625" xlink:href="#DejaVuSans-48"/>
      </g>
     </g>
    </g>
    <g id="xtick_6">
     <g id="line2d_6">
      <g>
       <use style="stroke:#000000;stroke-width:0.8;" x="314.127357" xlink:href="#me2ee22d074" y="1094.4"/>
      </g>
     </g>
     <g id="text_6">
      <!-- 0.045 -->
      <g transform="translate(299.813294 1108.998438)scale(0.1 -0.1)">
       <use xlink:href="#DejaVuSans-48"/>
       <use x="63.623047" xlink:href="#DejaVuSans-46"/>
       <use x="95.410156" xlink:href="#DejaVuSans-48"/>
       <use x="159.033203" xlink:href="#DejaVuSans-52"/>
       <use x="222.65625" xlink:href="#DejaVuSans-53"/>
      </g>
     </g>
    </g>
    <g id="text_7">
     <!-- +1.512e2 -->
     <defs>
      <path d="M 46 62.703125 
L 46 35.5 
L 73.1875 35.5 
L 73.1875 27.203125 
L 46 27.203125 
L 46 0 
L 37.796875 0 
L 37.796875 27.203125 
L 10.59375 27.203125 
L 10.59375 35.5 
L 37.796875 35.5 
L 37.796875 62.703125 
z
" id="DejaVuSans-43"/>
      <path d="M 12.40625 8.296875 
L 28.515625 8.296875 
L 28.515625 63.921875 
L 10.984375 60.40625 
L 10.984375 69.390625 
L 28.421875 72.90625 
L 38.28125 72.90625 
L 38.28125 8.296875 
L 54.390625 8.296875 
L 54.390625 0 
L 12.40625 0 
z
" id="DejaVuSans-49"/>
      <path d="M 56.203125 29.59375 
L 56.203125 25.203125 
L 14.890625 25.203125 
Q 15.484375 15.921875 20.484375 11.0625 
Q 25.484375 6.203125 34.421875 6.203125 
Q 39.59375 6.203125 44.453125 7.46875 
Q 49.3125 8.734375 54.109375 11.28125 
L 54.109375 2.78125 
Q 49.265625 0.734375 44.1875 -0.34375 
Q 39.109375 -1.421875 33.890625 -1.421875 
Q 20.796875 -1.421875 13.15625 6.1875 
Q 5.515625 13.8125 5.515625 26.8125 
Q 5.515625 40.234375 12.765625 48.109375 
Q 20.015625 56 32.328125 56 
Q 43.359375 56 49.78125 48.890625 
Q 56.203125 41.796875 56.203125 29.59375 
z
M 47.21875 32.234375 
Q 47.125 39.59375 43.09375 43.984375 
Q 39.0625 48.390625 32.421875 48.390625 
Q 24.90625 48.390625 20.390625 44.140625 
Q 15.875 39.890625 15.1875 32.171875 
z
" id="DejaVuSans-101"/>
     </defs>
     <g transform="translate(296.339542 1121.676563)scale(0.1 -0.1)">
      <use xlink:href="#DejaVuSans-43"/>
      <use x="83.789062" xlink:href="#DejaVuSans-49"/>
      <use x="147.412109" xlink:href="#DejaVuSans-46"/>
      <use x="179.199219" xlink:href="#DejaVuSans-53"/>
      <use x="242.822266" xlink:href="#DejaVuSans-49"/>
      <use x="306.445312" xlink:href="#DejaVuSans-50"/>
      <use x="370.068359" xlink:href="#DejaVuSans-101"/>
      <use x="431.591797" xlink:href="#DejaVuSans-50"/>
     </g>
    </g>
   </g>
   <g id="matplotlib.axis_2">
    <g id="ytick_1">
     <g id="line2d_7">
      <defs>
       <path d="M 0 0 
L -3.5 0 
" id="mbc8d073889" style="stroke:#000000;stroke-width:0.8;"/>
      </defs>
      <g>
       <use style="stroke:#000000;stroke-width:0.8;" x="51.207813" xlink:href="#mbc8d073889" y="950.938856"/>
      </g>
     </g>
     <g id="text_8">
      <!-- −33.98 -->
      <defs>
       <path d="M 10.59375 35.5 
L 73.1875 35.5 
L 73.1875 27.203125 
L 10.59375 27.203125 
z
" id="DejaVuSans-8722"/>
       <path d="M 10.984375 1.515625 
L 10.984375 10.5 
Q 14.703125 8.734375 18.5 7.8125 
Q 22.3125 6.890625 25.984375 6.890625 
Q 35.75 6.890625 40.890625 13.453125 
Q 46.046875 20.015625 46.78125 33.40625 
Q 43.953125 29.203125 39.59375 26.953125 
Q 35.25 24.703125 29.984375 24.703125 
Q 19.046875 24.703125 12.671875 31.3125 
Q 6.296875 37.9375 6.296875 49.421875 
Q 6.296875 60.640625 12.9375 67.421875 
Q 19.578125 74.21875 30.609375 74.21875 
Q 43.265625 74.21875 49.921875 64.515625 
Q 56.59375 54.828125 56.59375 36.375 
Q 56.59375 19.140625 48.40625 8.859375 
Q 40.234375 -1.421875 26.421875 -1.421875 
Q 22.703125 -1.421875 18.890625 -0.6875 
Q 15.09375 0.046875 10.984375 1.515625 
z
M 30.609375 32.421875 
Q 37.25 32.421875 41.125 36.953125 
Q 45.015625 41.5 45.015625 49.421875 
Q 45.015625 57.28125 41.125 61.84375 
Q 37.25 66.40625 30.609375 66.40625 
Q 23.96875 66.40625 20.09375 61.84375 
Q 16.21875 57.28125 16.21875 49.421875 
Q 16.21875 41.5 20.09375 36.953125 
Q 23.96875 32.421875 30.609375 32.421875 
z
" id="DejaVuSans-57"/>
       <path d="M 31.78125 34.625 
Q 24.75 34.625 20.71875 30.859375 
Q 16.703125 27.09375 16.703125 20.515625 
Q 16.703125 13.921875 20.71875 10.15625 
Q 24.75 6.390625 31.78125 6.390625 
Q 38.8125 6.390625 42.859375 10.171875 
Q 46.921875 13.96875 46.921875 20.515625 
Q 46.921875 27.09375 42.890625 30.859375 
Q 38.875 34.625 31.78125 34.625 
z
M 21.921875 38.8125 
Q 15.578125 40.375 12.03125 44.71875 
Q 8.5 49.078125 8.5 55.328125 
Q 8.5 64.0625 14.71875 69.140625 
Q 20.953125 74.21875 31.78125 74.21875 
Q 42.671875 74.21875 48.875 69.140625 
Q 55.078125 64.0625 55.078125 55.328125 
Q 55.078125 49.078125 51.53125 44.71875 
Q 48 40.375 41.703125 38.8125 
Q 48.828125 37.15625 52.796875 32.3125 
Q 56.78125 27.484375 56.78125 20.515625 
Q 56.78125 9.90625 50.3125 4.234375 
Q 43.84375 -1.421875 31.78125 -1.421875 
Q 19.734375 -1.421875 13.25 4.234375 
Q 6.78125 9.90625 6.78125 20.515625 
Q 6.78125 27.484375 10.78125 32.3125 
Q 14.796875 37.15625 21.921875 38.8125 
z
M 18.3125 54.390625 
Q 18.3125 48.734375 21.84375 45.5625 
Q 25.390625 42.390625 31.78125 42.390625 
Q 38.140625 42.390625 41.71875 45.5625 
Q 45.3125 48.734375 45.3125 54.390625 
Q 45.3125 60.0625 41.71875 63.234375 
Q 38.140625 66.40625 31.78125 66.40625 
Q 25.390625 66.40625 21.84375 63.234375 
Q 18.3125 60.0625 18.3125 54.390625 
z
" id="DejaVuSans-56"/>
      </defs>
      <g transform="translate(7.2 954.738075)scale(0.1 -0.1)">
       <use xlink:href="#DejaVuSans-8722"/>
       <use x="83.789062" xlink:href="#DejaVuSans-51"/>
       <use x="147.412109" xlink:href="#DejaVuSans-51"/>
       <use x="211.035156" xlink:href="#DejaVuSans-46"/>
       <use x="242.822266" xlink:href="#DejaVuSans-57"/>
       <use x="306.445312" xlink:href="#DejaVuSans-56"/>
      </g>
     </g>
    </g>
    <g id="ytick_2">
     <g id="line2d_8">
      <g>
       <use style="stroke:#000000;stroke-width:0.8;" x="51.207813" xlink:href="#mbc8d073889" y="759.281888"/>
      </g>
     </g>
     <g id="text_9">
      <!-- −33.96 -->
      <defs>
       <path d="M 33.015625 40.375 
Q 26.375 40.375 22.484375 35.828125 
Q 18.609375 31.296875 18.609375 23.390625 
Q 18.609375 15.53125 22.484375 10.953125 
Q 26.375 6.390625 33.015625 6.390625 
Q 39.65625 6.390625 43.53125 10.953125 
Q 47.40625 15.53125 47.40625 23.390625 
Q 47.40625 31.296875 43.53125 35.828125 
Q 39.65625 40.375 33.015625 40.375 
z
M 52.59375 71.296875 
L 52.59375 62.3125 
Q 48.875 64.0625 45.09375 64.984375 
Q 41.3125 65.921875 37.59375 65.921875 
Q 27.828125 65.921875 22.671875 59.328125 
Q 17.53125 52.734375 16.796875 39.40625 
Q 19.671875 43.65625 24.015625 45.921875 
Q 28.375 48.1875 33.59375 48.1875 
Q 44.578125 48.1875 50.953125 41.515625 
Q 57.328125 34.859375 57.328125 23.390625 
Q 57.328125 12.15625 50.6875 5.359375 
Q 44.046875 -1.421875 33.015625 -1.421875 
Q 20.359375 -1.421875 13.671875 8.265625 
Q 6.984375 17.96875 6.984375 36.375 
Q 6.984375 53.65625 15.1875 63.9375 
Q 23.390625 74.21875 37.203125 74.21875 
Q 40.921875 74.21875 44.703125 73.484375 
Q 48.484375 72.75 52.59375 71.296875 
z
" id="DejaVuSans-54"/>
      </defs>
      <g transform="translate(7.2 763.081106)scale(0.1 -0.1)">
       <use xlink:href="#DejaVuSans-8722"/>
       <use x="83.789062" xlink:href="#DejaVuSans-51"/>
       <use x="147.412109" xlink:href="#DejaVuSans-51"/>
       <use x="211.035156" xlink:href="#DejaVuSans-46"/>
       <use x="242.822266" xlink:href="#DejaVuSans-57"/>
       <use x="306.445312" xlink:href="#DejaVuSans-54"/>
      </g>
     </g>
    </g>
    <g id="ytick_3">
     <g id="line2d_9">
      <g>
       <use style="stroke:#000000;stroke-width:0.8;" x="51.207813" xlink:href="#mbc8d073889" y="567.624919"/>
      </g>
     </g>
     <g id="text_10">
      <!-- −33.94 -->
      <g transform="translate(7.2 571.424138)scale(0.1 -0.1)">
       <use xlink:href="#DejaVuSans-8722"/>
       <use x="83.789062" xlink:href="#DejaVuSans-51"/>
       <use x="147.412109" xlink:href="#DejaVuSans-51"/>
       <use x="211.035156" xlink:href="#DejaVuSans-46"/>
       <use x="242.822266" xlink:href="#DejaVuSans-57"/>
       <use x="306.445312" xlink:href="#DejaVuSans-52"/>
      </g>
     </g>
    </g>
    <g id="ytick_4">
     <g id="line2d_10">
      <g>
       <use style="stroke:#000000;stroke-width:0.8;" x="51.207813" xlink:href="#mbc8d073889" y="375.967951"/>
      </g>
     </g>
     <g id="text_11">
      <!-- −33.92 -->
      <g transform="translate(7.2 379.76717)scale(0.1 -0.1)">
       <use xlink:href="#DejaVuSans-8722"/>
       <use x="83.789062" xlink:href="#DejaVuSans-51"/>
       <use x="147.412109" xlink:href="#DejaVuSans-51"/>
       <use x="211.035156" xlink:href="#DejaVuSans-46"/>
       <use x="242.822266" xlink:href="#DejaVuSans-57"/>
       <use x="306.445312" xlink:href="#DejaVuSans-50"/>
      </g>
     </g>
    </g>
    <g id="ytick_5">
     <g id="line2d_11">
      <g>
       <use style="stroke:#000000;stroke-width:0.8;" x="51.207813" xlink:href="#mbc8d073889" y="184.310983"/>
      </g>
     </g>
     <g id="text_12">
      <!-- −33.90 -->
      <g transform="translate(7.2 188.110201)scale(0.1 -0.1)">
       <use xlink:href="#DejaVuSans-8722"/>
       <use x="83.789062" xlink:href="#DejaVuSans-51"/>
       <use x="147.412109" xlink:href="#DejaVuSans-51"/>
       <use x="211.035156" xlink:href="#DejaVuSans-46"/>
       <use x="242.822266" xlink:href="#DejaVuSans-57"/>
       <use x="306.445312" xlink:href="#DejaVuSans-48"/>
      </g>
     </g>
    </g>
   </g>
   <g id="LineCollection_1">
    <path clip-path="url(#p81f06d2e02)" d="M 288.792593 697.814286 
L 289.323525 700.516335 
L 289.729957 702.581426 
L 290.260888 704.110767 
" style="fill:none;stroke:#ff0000;stroke-width:1.5;"/>
    <path clip-path="url(#p81f06d2e02)" d="M 290.260888 704.110767 
L 291.015117 705.176647 
L 293.403105 708.554208 
L 295.980654 710.889987 
L 298.172655 712.665917 
L 302.527742 715.903718 
L 305.765542 719.253969 
L 306.326193 719.77205 
L 306.601699 720.025869 
L 308.334256 722.157628 
L 310.755979 726.174557 
L 313.434735 730.715188 
L 313.59538 730.985072 
L 315.654849 733.501576 
" style="fill:none;stroke:#ff0000;stroke-width:1.5;"/>
    <path clip-path="url(#p81f06d2e02)" d="M 326.503207 781.524797 
L 326.835742 776.476527 
L 327.531335 769.78004 
L 327.602019 761.473889 
L 327.665474 758.558985 
L 327.406835 756.249713 
L 327.381935 756.029629 
L 327.303219 755.665768 
L 326.646984 752.64002 
L 323.409184 745.828671 
L 319.723184 741.810136 
L 315.072511 738.758684 
L 311.629888 735.463051 
L 309.733474 732.808392 
L 309.461181 732.428467 
L 308.740688 731.418813 
L 307.098092 728.529613 
L 302.969516 722.347189 
L 299.624083 718.807376 
L 295.493097 715.792069 
L 292.750886 713.688423 
L 291.268133 712.550253 
L 288.604638 709.518881 
L 287.925913 708.538947 
L 286.382115 705.812801 
L 285.817447 703.935664 
L 285.573267 703.1228 
L 285.075267 701.467353 
L 284.714619 700.267335 
" style="fill:none;stroke:#ff0000;stroke-width:1.5;"/>
    <path clip-path="url(#p81f06d2e02)" d="M 284.714619 700.267335 
L 283.273633 693.438315 
L 283.080056 692.554768 
" style="fill:none;stroke:#ff0000;stroke-width:1.5;"/>
    <path clip-path="url(#p81f06d2e02)" d="M 283.080056 692.554768 
L 280.584436 680.678282 
L 278.23179 670.821104 
L 272.975485 648.804704 
L 268.111154 627.476669 
L 267.952115 626.780273 
" style="fill:none;stroke:#ff0000;stroke-width:1.5;"/>
    <path clip-path="url(#p81f06d2e02)" d="M 287.347591 691.851946 
L 288.792593 697.814286 
" style="fill:none;stroke:#ff0000;stroke-width:1.5;"/>
    <path clip-path="url(#p81f06d2e02)" d="M 271.468635 623.444479 
L 272.214831 626.721637 
L 272.398769 627.630888 
L 273.438946 632.075936 
L 277.111291 648.056099 
L 279.455905 658.268302 
L 280.154711 661.321361 
L 282.194902 670.266075 
L 285.953996 686.70488 
L 287.347591 691.851946 
" style="fill:none;stroke:#ff0000;stroke-width:1.5;"/>
    <path clip-path="url(#p81f06d2e02)" d="M 315.654849 733.501576 
L 317.323951 735.235739 
L 318.495856 736.114467 
L 321.622008 738.347433 
L 324.748963 740.69285 
L 327.160245 743.48727 
L 328.55866 746.119438 
L 329.021318 747.246363 
L 330.055872 749.759654 
L 331.239022 753.099464 
L 332.329802 757.260973 
L 332.370766 757.873031 
L 332.428598 758.728466 
L 332.469563 760.651387 
" style="fill:none;stroke:#ff0000;stroke-width:1.5;"/>
    <path clip-path="url(#p81f06d2e02)" d="M 328.296005 790.040589 
L 327.623706 794.467965 
L 327.506435 795.059942 
" style="fill:none;stroke:#ff0000;stroke-width:1.5;"/>
    <path clip-path="url(#p81f06d2e02)" d="M 332.469563 760.651387 
L 330.495236 774.328703 
L 329.455059 781.981028 
" style="fill:none;stroke:#ff0000;stroke-width:1.5;"/>
    <path clip-path="url(#p81f06d2e02)" d="M 322.932068 792.571551 
L 324.62848 786.990743 
L 325.56504 784.09833 
L 326.503207 781.524797 
" style="fill:none;stroke:#ff0000;stroke-width:1.5;"/>
    <path clip-path="url(#p81f06d2e02)" d="M 329.455059 781.981028 
L 329.308069 783.011566 
L 328.885573 785.973057 
L 328.688782 787.326491 
L 328.296005 790.040589 
" style="fill:none;stroke:#ff0000;stroke-width:1.5;"/>
    <path clip-path="url(#p81f06d2e02)" d="M 269.511175 614.984913 
L 270.359381 618.61308 
L 270.8373 620.681385 
L 271.468635 623.444479 
" style="fill:none;stroke:#ff0000;stroke-width:1.5;"/>
    <path clip-path="url(#p81f06d2e02)" d="M 267.952115 626.780273 
L 266.285423 619.476547 
L 264.390615 611.16879 
L 263.712693 608.332603 
L 263.344816 606.791214 
L 262.940794 605.102031 
L 262.774526 604.405635 
L 262.577736 603.583936 
L 262.284559 602.355805 
L 261.376111 598.554944 
L 258.893343 588.163621 
L 257.618625 582.830206 
" style="fill:none;stroke:#ff0000;stroke-width:1.5;"/>
    <path clip-path="url(#p81f06d2e02)" d="M 262.093391 583.388448 
L 263.054049 587.533892 
L 263.550442 589.672881 
L 266.301488 601.499567 
L 266.638842 602.948585 
L 266.830813 603.765465 
L 266.978606 604.383145 
L 267.372187 606.020118 
L 268.924018 612.502144 
L 269.511175 614.984913 
" style="fill:none;stroke:#ff0000;stroke-width:1.5;"/>
    <path clip-path="url(#p81f06d2e02)" d="M 300.377508 826.558414 
L 302.656258 824.061187 
L 308.57683 819.057095 
L 312.689342 814.787953 
L 315.442798 811.595134 
L 317.047641 808.888265 
L 317.503873 808.119579 
L 317.890225 807.067354 
L 320.994689 798.61582 
L 321.972214 795.363561 
L 322.060569 795.069581 
L 322.932068 792.571551 
" style="fill:none;stroke:#ff0000;stroke-width:1.5;"/>
    <path clip-path="url(#p81f06d2e02)" d="M 327.506435 795.059942 
L 327.267074 795.923409 
L 327.000403 796.884066 
L 325.375479 802.74279 
L 322.477443 808.868988 
L 322.065389 809.740487 
L 321.43566 810.631264 
L 319.415549 813.483516 
L 304.681991 828.682944 
" style="fill:none;stroke:#ff0000;stroke-width:1.5;"/>
    <path clip-path="url(#p81f06d2e02)" d="M 257.618625 582.830206 
L 255.89892 575.377081 
L 254.324599 568.016326 
L 253.943067 566.662892 
L 252.707706 560.796939 
L 250.686792 553.353453 
L 250.503657 552.592798 
L 248.653829 544.888263 
L 247.348589 539.471314 
L 246.926896 537.692973 
" style="fill:none;stroke:#ff0000;stroke-width:1.5;"/>
    <path clip-path="url(#p81f06d2e02)" d="M 251.756688 538.754837 
L 254.060337 548.807199 
L 255.151117 553.254656 
L 256.979257 560.949552 
L 258.057989 565.91268 
L 258.802578 568.650874 
L 259.127884 569.99226 
L 260.080509 574.986713 
L 260.282119 575.665439 
L 262.093391 583.388448 
" style="fill:none;stroke:#ff0000;stroke-width:1.5;"/>
    <path clip-path="url(#p81f06d2e02)" d="M 304.681991 828.682944 
L 302.489187 830.609078 
L 294.069782 841.336149 
L 286.937143 851.089711 
L 285.464028 854.347592 
L 284.527468 856.956467 
L 284.888116 860.896286 
L 285.826283 863.322025 
L 288.680945 868.701224 
L 290.214301 871.620144 
L 292.036016 875.421005 
L 292.516344 877.131071 
" style="fill:none;stroke:#ff0000;stroke-width:1.5;"/>
    <path clip-path="url(#p81f06d2e02)" d="M 288.999825 883.767316 
L 287.943584 878.506995 
L 286.121066 873.447481 
L 284.615019 870.641012 
L 281.157939 864.197541 
L 280.30411 861.849714 
L 280.03503 859.259313 
L 280.039046 855.92111 
L 280.877613 853.313841 
L 281.177216 852.382903 
L 282.237473 850.125841 
L 287.355623 842.751431 
L 298.461013 828.154422 
L 300.377508 826.558414 
" style="fill:none;stroke:#ff0000;stroke-width:1.5;"/>
    <path clip-path="url(#p81f06d2e02)" d="M 246.926896 537.692973 
L 246.631309 536.416649 
L 245.60559 531.898508 
L 244.22324 525.731345 
L 242.104332 516.560121 
" style="fill:none;stroke:#ff0000;stroke-width:1.5;"/>
    <path clip-path="url(#p81f06d2e02)" d="M 247.630521 520.120015 
L 250.176744 531.378018 
L 251.756688 538.754837 
" style="fill:none;stroke:#ff0000;stroke-width:1.5;"/>
    <path clip-path="url(#p81f06d2e02)" d="M 309.798535 937.787416 
L 308.493294 935.516698 
L 307.788063 934.597809 
L 296.567008 919.284323 
L 293.19507 913.826408 
L 290.974152 908.575726 
L 289.664895 903.292112 
L 289.267299 901.682449 
L 288.999825 883.767316 
" style="fill:none;stroke:#ff0000;stroke-width:1.5;"/>
    <path clip-path="url(#p81f06d2e02)" d="M 293.950101 886.477398 
L 293.849698 898.466335 
L 293.654514 902.760377 
L 293.478608 905.699377 
L 294.534046 911.762923 
L 296.307567 915.673023 
L 297.465014 918.226475 
L 301.868294 924.308496 
L 303.672338 926.8001 
L 306.270771 930.553571 
L 308.969607 934.450819 
L 311.075663 937.494239 
" style="fill:none;stroke:#ff0000;stroke-width:1.5;"/>
    <path clip-path="url(#p81f06d2e02)" d="M 293.883434 883.283775 
L 293.974198 883.562494 
L 293.950101 886.477398 
" style="fill:none;stroke:#ff0000;stroke-width:1.5;"/>
    <path clip-path="url(#p81f06d2e02)" d="M 292.516344 877.131071 
L 292.886631 878.445147 
L 293.684234 882.145605 
L 293.883434 883.283775 
" style="fill:none;stroke:#ff0000;stroke-width:1.5;"/>
    <path clip-path="url(#p81f06d2e02)" d="M 242.104332 516.560121 
L 241.525207 513.607466 
L 239.802289 505.898112 
L 238.476165 500.715704 
L 237.549243 496.872272 
L 235.468087 488.240815 
L 234.398994 484.507425 
L 234.167665 483.70179 
" style="fill:none;stroke:#ff0000;stroke-width:1.5;"/>
    <path clip-path="url(#p81f06d2e02)" d="M 156.929542 418.08553 
L 159.785007 420.442193 
L 166.283098 424.753102 
L 168.443773 426.173204 
L 177.055953 432.128314 
L 178.525855 433.15323 
L 182.751622 436.283398 
L 183.421511 436.850475 
L 186.204686 439.325211 
L 194.218463 445.888363 
L 200.894066 451.355916 
L 201.649098 451.958335 
L 206.119849 455.598551 
L 207.511838 456.483705 
L 211.296634 458.260439 
L 213.196262 459.096596 
L 217.949748 461.102249 
L 221.285541 463.037219 
L 222.635763 463.911931 
L 224.341813 465.037249 
L 225.032586 465.47822 
L 226.360318 466.500725 
L 230.591707 470.237328 
L 233.600588 473.838989 
L 235.239971 476.094445 
L 236.536376 478.463959 
L 238.007884 481.393321 
L 238.824764 483.664038 
L 238.845648 483.722674 
L 239.366138 485.256834 
L 240.451295 489.521156 
L 241.249701 492.699517 
L 242.0963 496.801588 
L 242.71398 499.63135 
L 242.984667 500.804058 
L 243.217602 501.761503 
L 243.411983 502.748666 
L 245.057791 509.504592 
L 245.228075 510.311834 
L 246.99035 517.360134 
L 247.630521 520.120015 
" style="fill:none;stroke:#ff0000;stroke-width:1.5;"/>
    <path clip-path="url(#p81f06d2e02)" d="M 241.525207 513.607466 
L 241.892281 512.661267 
L 241.816778 511.699003 
L 240.202295 504.825806 
L 239.974179 503.123772 
" style="fill:none;stroke:#ff0000;stroke-width:1.5;"/>
    <path clip-path="url(#p81f06d2e02)" d="M 311.222653 946.744179 
L 311.376872 945.738541 
L 311.160002 943.191514 
L 310.388102 939.36254 
" style="fill:none;stroke:#ff0000;stroke-width:1.5;"/>
    <path clip-path="url(#p81f06d2e02)" d="M 311.578482 939.067756 
L 311.736717 939.685437 
L 312.321465 943.667023 
L 312.867658 946.332124 
" style="fill:none;stroke:#ff0000;stroke-width:1.5;"/>
    <path clip-path="url(#p81f06d2e02)" d="M 234.167665 483.70179 
L 233.459221 481.838308 
L 232.539528 480.11298 
L 230.279253 476.720158 
L 229.549121 475.830184 
L 225.679986 471.116056 
L 221.42209 468.033279 
L 217.013991 465.238055 
L 211.10386 462.551267 
L 210.858074 462.393835 
L 206.01302 460.109463 
L 205.389717 459.827531 
L 199.68441 455.703774 
L 199.081991 455.053965 
L 191.008775 448.314906 
L 189.995909 447.459471 
L 182.133942 440.8168 
L 177.59813 437.027987 
L 174.771581 435.030367 
L 165.110389 428.385286 
L 157.652445 423.251874 
L 156.859661 422.325756 
L 156.211459 421.120918 
L 155.546388 420.26468 
L 154.782521 419.606839 
" style="fill:none;stroke:#ff0000;stroke-width:1.5;"/>
    <path clip-path="url(#p81f06d2e02)" d="M 152.339914 417.945769 
L 150.354341 416.253374 
L 148.225795 412.895893 
" style="fill:none;stroke:#ff0000;stroke-width:1.5;"/>
    <path clip-path="url(#p81f06d2e02)" d="M 143.530141 402.710196 
L 149.332639 412.480626 
" style="fill:none;stroke:#ff0000;stroke-width:1.5;"/>
    <path clip-path="url(#p81f06d2e02)" d="M 149.332639 412.480626 
L 150.400125 413.826028 
L 151.053951 414.691101 
L 152.04513 415.328059 
L 154.260425 415.765013 
" style="fill:none;stroke:#ff0000;stroke-width:1.5;"/>
    <path clip-path="url(#p81f06d2e02)" d="M 249.684367 962.799041 
L 255.65233 962.010274 
L 259.107001 962.049632 
L 265.646056 962.53719 
L 269.835678 962.934786 
L 276.497627 963.617528 
L 293.34206 962.400642 
L 295.448919 962.125939 
L 297.69072 961.835171 
L 300.185537 960.888972 
L 304.216121 958.570061 
L 305.388026 957.198956 
L 305.614536 956.933089 
L 308.030637 954.255939 
L 309.613793 951.495255 
L 310.806583 950.058285 
L 311.203376 948.283961 
" style="fill:none;stroke:#ff0000;stroke-width:1.5;"/>
    <path clip-path="url(#p81f06d2e02)" d="M 312.488536 948.774732 
L 311.761617 950.683998 
L 310.82586 952.741057 
L 309.386481 954.957155 
L 307.459544 957.642336 
L 305.203285 960.003015 
L 303.485186 961.362875 
L 300.606427 963.280173 
L 297.290714 964.815136 
L 296.18387 965.165342 
L 292.972576 966.179012 
L 290.145224 966.605525 
L 284.310597 967.032037 
L 278.143435 967.367786 
L 275.854243 967.394292 
L 269.40274 966.836854 
L 263.696629 966.285038 
L 260.706222 966.004713 
L 259.224271 965.922784 
L 255.805746 965.922784 
L 252.721361 966.307528 
L 248.387962 967.283447 
L 246.244154 967.841688 
L 242.897919 968.911584 
L 238.251262 970.761412 
L 236.279344 971.808014 
L 234.5749 972.232117 
L 232.133096 972.7012 
L 229.855953 972.891564 
" style="fill:none;stroke:#ff0000;stroke-width:1.5;"/>
    <path clip-path="url(#p81f06d2e02)" d="M 148.225795 412.895893 
L 146.045842 409.105474 
" style="fill:none;stroke:#ff0000;stroke-width:1.5;"/>
    <path clip-path="url(#p81f06d2e02)" d="M 146.045842 409.105474 
L 142.367875 402.918231 
" style="fill:none;stroke:#ff0000;stroke-width:1.5;"/>
    <path clip-path="url(#p81f06d2e02)" d="M 140.342141 396.02897 
L 139.624861 391.644967 
L 139.454577 390.60961 
L 139.101961 388.575844 
" style="fill:none;stroke:#ff0000;stroke-width:1.5;"/>
    <path clip-path="url(#p81f06d2e02)" d="M 141.11886 394.241794 
L 142.007227 399.534244 
L 142.297994 400.685266 
L 142.889168 401.825845 
L 143.530141 402.710196 
" style="fill:none;stroke:#ff0000;stroke-width:1.5;"/>
    <path clip-path="url(#p81f06d2e02)" d="M 140.17507 388.444115 
L 141.11886 394.241794 
" style="fill:none;stroke:#ff0000;stroke-width:1.5;"/>
    <path clip-path="url(#p81f06d2e02)" d="M 142.367875 402.918231 
L 141.409627 401.364794 
L 140.940544 399.835453 
L 140.342141 396.02897 
" style="fill:none;stroke:#ff0000;stroke-width:1.5;"/>
    <path clip-path="url(#p81f06d2e02)" d="M 230.499336 969.785493 
L 231.798955 969.397535 
L 232.827886 968.925239 
L 235.088964 967.77743 
L 235.756444 967.478631 
L 238.66171 966.179012 
L 241.181427 965.305104 
L 242.645706 964.771762 
L 245.102771 964.058498 
L 249.684367 962.799041 
" style="fill:none;stroke:#ff0000;stroke-width:1.5;"/>
    <path clip-path="url(#p81f06d2e02)" d="M 223.257459 992.385034 
L 225.107286 988.638792 
L 226.623775 984.804196 
L 227.836645 981.246712 
L 228.597299 978.356708 
L 229.448718 974.512473 
L 229.855953 972.891564 
" style="fill:none;stroke:#ff0000;stroke-width:1.5;"/>
    <path clip-path="url(#p81f06d2e02)" d="M 229.855953 972.891564 
L 230.007763 972.222478 
L 230.179653 971.432104 
L 230.499336 969.785493 
" style="fill:none;stroke:#ff0000;stroke-width:1.5;"/>
    <path clip-path="url(#p81f06d2e02)" d="M 139.101961 388.575844 
L 137.387879 378.247173 
" style="fill:none;stroke:#ff0000;stroke-width:1.5;"/>
    <path clip-path="url(#p81f06d2e02)" d="M 138.997542 380.846409 
L 139.926874 386.593485 
L 140.17507 388.444115 
" style="fill:none;stroke:#ff0000;stroke-width:1.5;"/>
    <path clip-path="url(#p81f06d2e02)" d="M 137.195908 370.553883 
L 138.54613 378.442357 
L 138.997542 380.846409 
" style="fill:none;stroke:#ff0000;stroke-width:1.5;"/>
    <path clip-path="url(#p81f06d2e02)" d="M 202.788874 1033.287664 
L 203.306151 1033.02501 
L 203.56479 1032.5246 
L 205.01943 1028.681168 
L 205.96081 1026.049803 
L 206.170452 1025.463449 
L 207.56967 1021.809578 
L 209.777736 1017.216737 
L 212.482998 1011.982922 
L 213.434016 1010.145143 
L 214.64046 1007.9925 
L 219.846965 998.477496 
" style="fill:none;stroke:#ff0000;stroke-width:1.5;"/>
    <path clip-path="url(#p81f06d2e02)" d="M 219.846965 998.477496 
L 220.65019 997.184304 
L 223.257459 992.385034 
" style="fill:none;stroke:#ff0000;stroke-width:1.5;"/>
    <path clip-path="url(#p81f06d2e02)" d="M 137.387879 378.247173 
L 135.94368 370.464725 
" style="fill:none;stroke:#ff0000;stroke-width:1.5;"/>
    <path clip-path="url(#p81f06d2e02)" d="M 135.806329 362.924852 
L 137.195908 370.553883 
" style="fill:none;stroke:#ff0000;stroke-width:1.5;"/>
    <path clip-path="url(#p81f06d2e02)" d="M 135.94368 370.464725 
L 135.623194 369.096833 
L 133.22878 355.725545 
" style="fill:none;stroke:#ff0000;stroke-width:1.5;"/>
    <path clip-path="url(#p81f06d2e02)" d="M 134.518759 355.657271 
L 135.806329 362.924852 
" style="fill:none;stroke:#ff0000;stroke-width:1.5;"/>
    <path clip-path="url(#p81f06d2e02)" d="M 187.750895 1025.668271 
L 188.544481 1026.047393 
L 189.435258 1026.214464 
L 190.182257 1026.428925 
L 198.81291 1031.816959 
L 201.162344 1033.24911 
L 201.704521 1033.563171 
" style="fill:none;stroke:#ff0000;stroke-width:1.5;"/>
    <path clip-path="url(#p81f06d2e02)" d="M 202.232239 1034.613789 
L 202.422604 1035.726256 
L 202.109346 1036.798561 
L 200.490044 1039.511855 
L 199.8563 1040.380945 
L 199.449065 1040.829145 
L 198.684394 1041.592208 
L 197.966311 1042.226756 
L 197.155054 1042.808291 
L 196.46428 1043.279784 
L 195.532539 1043.868548 
L 194.593569 1044.291848 
L 193.706005 1044.581009 
L 192.754184 1044.825993 
L 192.073852 1044.928805 
L 191.366211 1044.981818 
L 189.696306 1044.968967 
L 188.915571 1044.903905 
L 188.135639 1044.736031 
" style="fill:none;stroke:#ff0000;stroke-width:1.5;"/>
    <path clip-path="url(#p81f06d2e02)" d="M 133.22878 355.725545 
L 132.636803 353.013857 
L 131.730765 348.966406 
" style="fill:none;stroke:#ff0000;stroke-width:1.5;"/>
    <path clip-path="url(#p81f06d2e02)" d="M 133.096248 349.163196 
L 134.518759 355.657271 
" style="fill:none;stroke:#ff0000;stroke-width:1.5;"/>
    <path clip-path="url(#p81f06d2e02)" d="M 127.597369 326.623094 
L 133.096248 349.163196 
" style="fill:none;stroke:#ff0000;stroke-width:1.5;"/>
    <path clip-path="url(#p81f06d2e02)" d="M 131.730765 348.966406 
L 130.222308 342.322932 
L 128.593368 335.470618 
" style="fill:none;stroke:#ff0000;stroke-width:1.5;"/>
    <path clip-path="url(#p81f06d2e02)" d="M 188.135639 1044.736031 
L 186.391035 1044.073371 
L 184.84081 1043.192233 
L 180.619059 1040.429942 
L 177.288085 1038.335131 
L 173.870362 1036.048349 
L 173.153082 1035.477256 
L 172.491225 1034.691702 
L 172.003667 1033.381642 
L 172.003667 1032.215359 
L 172.376363 1031.095663 
L 173.015731 1030.295651 
L 174.157113 1029.405678 
L 175.449503 1028.857075 
L 179.986921 1027.643402 
L 184.725949 1026.095587 
L 185.933196 1025.4514 
" style="fill:none;stroke:#ff0000;stroke-width:1.5;"/>
    <path clip-path="url(#p81f06d2e02)" d="M 120.119343 310.063003 
L 121.654306 311.492744 
L 124.265591 313.955432 
L 124.828652 314.801228 
L 125.144319 315.312882 
L 125.533883 316.872745 
L 126.114615 319.343465 
L 126.825469 322.45034 
L 127.597369 326.623094 
" style="fill:none;stroke:#ff0000;stroke-width:1.5;"/>
    <path clip-path="url(#p81f06d2e02)" d="M 128.593368 335.470618 
L 126.577273 326.606227 
" style="fill:none;stroke:#ff0000;stroke-width:1.5;"/>
    <path clip-path="url(#p81f06d2e02)" d="M 124.647926 317.626973 
L 124.366797 316.568323 
L 123.556343 314.903237 
L 122.373996 313.634945 
L 119.816527 311.383505 
" style="fill:none;stroke:#ff0000;stroke-width:1.5;"/>
    <path clip-path="url(#p81f06d2e02)" d="M 126.577273 326.606227 
L 124.647926 317.626973 
" style="fill:none;stroke:#ff0000;stroke-width:1.5;"/>
    <path clip-path="url(#p81f06d2e02)" d="M 107.22999 297.079673 
L 107.983416 298.46363 
L 110.127223 300.899811 
L 112.121631 302.708674 
L 114.932919 305.369759 
L 117.666294 307.843692 
L 120.119343 310.063003 
" style="fill:none;stroke:#ff0000;stroke-width:1.5;"/>
    <path clip-path="url(#p81f06d2e02)" d="M 119.816527 311.383505 
L 116.944194 308.607559 
L 108.832424 301.087766 
L 107.186616 299.279706 
L 106.201059 297.951172 
L 105.82515 297.506185 
L 104.896622 295.733468 
L 104.287777 293.892476 
L 103.86769 291.269143 
L 103.791384 289.947034 
L 103.841987 288.656251 
L 104.3183 284.400765 
L 104.626738 282.427241 
L 104.954454 280.109133 
" style="fill:none;stroke:#ff0000;stroke-width:1.5;"/>
    <path clip-path="url(#p81f06d2e02)" d="M 107.1328 280.37982 
L 106.029972 288.825732 
L 105.871737 290.095631 
L 105.764105 291.800074 
L 105.854066 293.127805 
L 106.153669 294.502927 
L 106.929584 296.564805 
L 107.22999 297.079673 
" style="fill:none;stroke:#ff0000;stroke-width:1.5;"/>
    <path clip-path="url(#p81f06d2e02)" d="M 104.954454 280.109133 
L 105.102247 279.238437 
L 106.266924 270.680074 
L 106.424356 269.635078 
L 107.410716 262.516095 
L 108.006709 260.060635 
" style="fill:none;stroke:#ff0000;stroke-width:1.5;"/>
    <path clip-path="url(#p81f06d2e02)" d="M 108.468563 270.270429 
L 107.261316 279.547679 
L 107.1328 280.37982 
" style="fill:none;stroke:#ff0000;stroke-width:1.5;"/>
    <path clip-path="url(#p81f06d2e02)" d="M 113.66061 227.481023 
L 113.876678 228.652929 
L 113.900775 229.038477 
L 113.999571 230.59593 
L 113.724868 234.384743 
L 113.275866 237.077153 
L 113.178675 237.955881 
L 111.85496 245.90299 
L 110.923219 251.773762 
L 110.593897 253.862148 
L 109.754527 260.306422 
L 108.611538 268.855147 
L 108.507922 269.906568 
L 108.468563 270.270429 
" style="fill:none;stroke:#ff0000;stroke-width:1.5;"/>
    <path clip-path="url(#p81f06d2e02)" d="M 108.006709 260.060635 
L 108.608325 257.318425 
L 109.43163 253.663751 
L 109.586653 252.861329 
L 110.413171 248.586565 
L 110.897516 245.16322 
" style="fill:none;stroke:#ff0000;stroke-width:1.5;"/>
    <path clip-path="url(#p81f06d2e02)" d="M 112.15376 223.115495 
L 112.940921 225.036006 
L 113.275062 226.016744 
L 113.557798 226.999088 
L 113.66061 227.481023 
" style="fill:none;stroke:#ff0000;stroke-width:1.5;"/>
    <path clip-path="url(#p81f06d2e02)" d="M 112.503966 234.912462 
L 112.64694 234.112449 
L 112.74895 232.186316 
L 112.703166 229.664992 
L 112.49995 228.081032 
" style="fill:none;stroke:#ff0000;stroke-width:1.5;"/>
    <path clip-path="url(#p81f06d2e02)" d="M 109.521592 218.131483 
L 112.15376 223.115495 
" style="fill:none;stroke:#ff0000;stroke-width:1.5;"/>
    <path clip-path="url(#p81f06d2e02)" d="M 110.920006 223.661688 
L 109.299901 220.65361 
L 106.890226 215.537066 
L 101.400183 204.972247 
" style="fill:none;stroke:#ff0000;stroke-width:1.5;"/>
    <path clip-path="url(#p81f06d2e02)" d="M 110.897516 245.16322 
L 111.279851 242.549526 
L 112.026851 237.806482 
" style="fill:none;stroke:#ff0000;stroke-width:1.5;"/>
    <path clip-path="url(#p81f06d2e02)" d="M 112.026851 237.806482 
L 112.109583 237.243421 
L 112.503966 234.912462 
" style="fill:none;stroke:#ff0000;stroke-width:1.5;"/>
    <path clip-path="url(#p81f06d2e02)" d="M 112.49995 228.081032 
L 112.390712 227.652913 
L 112.147334 226.784627 
" style="fill:none;stroke:#ff0000;stroke-width:1.5;"/>
    <path clip-path="url(#p81f06d2e02)" d="M 112.147334 226.784627 
L 111.68548 225.35087 
L 110.920006 223.661688 
" style="fill:none;stroke:#ff0000;stroke-width:1.5;"/>
    <path clip-path="url(#p81f06d2e02)" d="M 100.836319 199.467745 
L 101.200983 200.560132 
L 102.65723 203.95697 
L 104.406654 207.361841 
L 105.661292 209.782762 
L 107.3569 213.476794 
L 109.521592 218.131483 
" style="fill:none;stroke:#ff0000;stroke-width:1.5;"/>
    <path clip-path="url(#p81f06d2e02)" d="M 100.55519 198.37295 
L 100.836319 199.467745 
" style="fill:none;stroke:#ff0000;stroke-width:1.5;"/>
    <path clip-path="url(#p81f06d2e02)" d="M 98.855566 198.084592 
L 98.028244 193.230703 
L 97.692496 190.62745 
L 96.988871 185.159094 
L 96.675613 183.016089 
L 93.154274 162.014967 
L 90.838576 148.98264 
" style="fill:none;stroke:#ff0000;stroke-width:1.5;"/>
    <path clip-path="url(#p81f06d2e02)" d="M 100.033094 194.669279 
L 100.276471 196.251632 
L 100.45559 197.646031 
L 100.55519 198.37295 
" style="fill:none;stroke:#ff0000;stroke-width:1.5;"/>
    <path clip-path="url(#p81f06d2e02)" d="M 98.97605 199.251678 
L 98.855566 198.084592 
" style="fill:none;stroke:#ff0000;stroke-width:1.5;"/>
    <path clip-path="url(#p81f06d2e02)" d="M 101.400183 204.972247 
L 100.073255 201.964972 
L 99.452362 200.545673 
L 98.97605 199.251678 
" style="fill:none;stroke:#ff0000;stroke-width:1.5;"/>
    <path clip-path="url(#p81f06d2e02)" d="M 99.229869 189.63868 
L 100.033094 194.669279 
" style="fill:none;stroke:#ff0000;stroke-width:1.5;"/>
    <path clip-path="url(#p81f06d2e02)" d="M 98.233066 183.657063 
L 99.035488 188.469988 
L 99.229869 189.63868 
" style="fill:none;stroke:#ff0000;stroke-width:1.5;"/>
    <path clip-path="url(#p81f06d2e02)" d="M 90.46588 138.928671 
L 90.614476 139.616232 
L 90.806447 140.596167 
L 91.104444 141.827511 
L 91.775137 145.276559 
L 98.074028 182.796006 
L 98.233066 183.657063 
" style="fill:none;stroke:#ff0000;stroke-width:1.5;"/>
    <path clip-path="url(#p81f06d2e02)" d="M 89.644984 142.130327 
L 89.157426 139.65318 
L 89.020878 138.879675 
L 88.796778 137.608169 
" style="fill:none;stroke:#ff0000;stroke-width:1.5;"/>
    <path clip-path="url(#p81f06d2e02)" d="M 90.838576 148.98264 
L 90.350215 146.03882 
" style="fill:none;stroke:#ff0000;stroke-width:1.5;"/>
    <path clip-path="url(#p81f06d2e02)" d="M 90.350215 146.03882 
L 89.644984 142.130327 
" style="fill:none;stroke:#ff0000;stroke-width:1.5;"/>
    <path clip-path="url(#p81f06d2e02)" d="M 82.05531 96.012356 
L 84.929249 105.553866 
L 86.341319 116.048805 
L 86.413609 116.536363 
L 86.790322 119.088209 
L 89.163852 132.393632 
" style="fill:none;stroke:#ff0000;stroke-width:1.5;"/>
    <path clip-path="url(#p81f06d2e02)" d="M 89.163852 132.393632 
L 89.968684 136.632251 
L 90.205635 137.724637 
" style="fill:none;stroke:#ff0000;stroke-width:1.5;"/>
    <path clip-path="url(#p81f06d2e02)" d="M 90.205635 137.724637 
L 90.46588 138.928671 
" style="fill:none;stroke:#ff0000;stroke-width:1.5;"/>
    <path clip-path="url(#p81f06d2e02)" d="M 88.796778 137.608169 
L 88.622478 136.615383 
L 88.38392 134.980017 
L 88.265043 134.254705 
L 87.966243 132.429777 
" style="fill:none;stroke:#ff0000;stroke-width:1.5;"/>
    <path clip-path="url(#p81f06d2e02)" d="M 87.966243 132.429777 
L 87.497963 129.624915 
" style="fill:none;stroke:#ff0000;stroke-width:1.5;"/>
    <path clip-path="url(#p81f06d2e02)" d="M 87.497963 129.624915 
L 87.20318 127.774285 
L 86.338909 122.492277 
L 86.080271 120.914743 
L 85.277046 116.668092 
L 83.201512 105.689611 
L 80.594244 96.385052 
" style="fill:none;stroke:#ff0000;stroke-width:1.5;"/>
    <path clip-path="url(#p81f06d2e02)" d="M 80.594244 96.385052 
L 80.158896 94.834024 
L 77.033547 86.436306 
L 75.075284 81.172772 
" style="fill:none;stroke:#ff0000;stroke-width:1.5;"/>
    <path clip-path="url(#p81f06d2e02)" d="M 76.449602 80.871563 
L 81.309917 93.536816 
L 82.05531 96.012356 
" style="fill:none;stroke:#ff0000;stroke-width:1.5;"/>
    <path clip-path="url(#p81f06d2e02)" d="M 65.892815 56.85192 
L 66.74584 58.153145 
L 68.217348 60.745955 
L 72.371629 69.828825 
L 76.449602 80.871563 
" style="fill:none;stroke:#ff0000;stroke-width:1.5;"/>
    <path clip-path="url(#p81f06d2e02)" d="M 75.075284 81.172772 
L 72.893725 75.32931 
L 68.859125 65.678561 
" style="fill:none;stroke:#ff0000;stroke-width:1.5;"/>
    <path clip-path="url(#p81f06d2e02)" d="M 68.859125 65.678561 
L 65.133767 57.826232 
L 64.601229 56.618182 
" style="fill:none;stroke:#ff0000;stroke-width:1.5;"/>
   </g>
   <g id="patch_3">
    <path d="M 51.207813 1094.4 
L 51.207813 7.2 
" style="fill:none;stroke:#000000;stroke-linecap:square;stroke-linejoin:miter;stroke-width:0.8;"/>
   </g>
   <g id="patch_4">
    <path d="M 345.86298 1094.4 
L 345.86298 7.2 
" style="fill:none;stroke:#000000;stroke-linecap:square;stroke-linejoin:miter;stroke-width:0.8;"/>
   </g>
   <g id="patch_5">
    <path d="M 51.207812 1094.4 
L 345.86298 1094.4 
" style="fill:none;stroke:#000000;stroke-linecap:square;stroke-linejoin:miter;stroke-width:0.8;"/>
   </g>
   <g id="patch_6">
    <path d="M 51.207812 7.2 
L 345.86298 7.2 
" style="fill:none;stroke:#000000;stroke-linecap:square;stroke-linejoin:miter;stroke-width:0.8;"/>
   </g>
  </g>
 </g>
 <defs>
  <clipPath id="p81f06d2e02">
   <rect height="1087.2" width="294.655167" x="51.207813" y="7.2"/>
  </clipPath>
 </defs>
</svg>
