<?xml version="1.0" encoding="utf-8" standalone="no"?>
<!DOCTYPE svg PUBLIC "-//W3C//DTD SVG 1.1//EN"
  "http://www.w3.org/Graphics/SVG/1.1/DTD/svg11.dtd">
<!-- Created with matplotlib (https://matplotlib.org/) -->
<svg height="277.314375pt" version="1.1" viewBox="0 0 141.283642 277.314375" width="141.283642pt" xmlns="http://www.w3.org/2000/svg" xmlns:xlink="http://www.w3.org/1999/xlink">
 <defs>
  <style type="text/css">
*{stroke-linecap:butt;stroke-linejoin:round;}
  </style>
 </defs>
 <g id="figure_1">
  <g id="patch_1">
   <path d="M 0 277.314375 
L 141.283642 277.314375 
L 141.283642 0 
L 0 0 
z
" style="fill:none;"/>
  </g>
  <g id="axes_1">
   <g id="patch_2">
    <path d="M 64.885938 239.758125 
L 123.816971 239.758125 
L 123.816971 22.318125 
L 64.885938 22.318125 
z
" style="fill:#ffffff;"/>
   </g>
   <g id="matplotlib.axis_1">
    <g id="xtick_1">
     <g id="line2d_1">
      <defs>
       <path d="M 0 0 
L 0 3.5 
" id="m3aa0c597b0" style="stroke:#000000;stroke-width:0.8;"/>
      </defs>
      <g>
       <use style="stroke:#000000;stroke-width:0.8;" x="69.555604" xlink:href="#m3aa0c597b0" y="239.758125"/>
      </g>
     </g>
     <g id="text_1">
      <!-- 151.22 -->
      <defs>
       <path d="M 12.40625 8.296875 
L 28.515625 8.296875 
L 28.515625 63.921875 
L 10.984375 60.40625 
L 10.984375 69.390625 
L 28.421875 72.90625 
L 38.28125 72.90625 
L 38.28125 8.296875 
L 54.390625 8.296875 
L 54.390625 0 
L 12.40625 0 
z
" id="DejaVuSans-49"/>
       <path d="M 10.796875 72.90625 
L 49.515625 72.90625 
L 49.515625 64.59375 
L 19.828125 64.59375 
L 19.828125 46.734375 
Q 21.96875 47.46875 24.109375 47.828125 
Q 26.265625 48.1875 28.421875 48.1875 
Q 40.625 48.1875 47.75 41.5 
Q 54.890625 34.8125 54.890625 23.390625 
Q 54.890625 11.625 47.5625 5.09375 
Q 40.234375 -1.421875 26.90625 -1.421875 
Q 22.3125 -1.421875 17.546875 -0.640625 
Q 12.796875 0.140625 7.71875 1.703125 
L 7.71875 11.625 
Q 12.109375 9.234375 16.796875 8.0625 
Q 21.484375 6.890625 26.703125 6.890625 
Q 35.15625 6.890625 40.078125 11.328125 
Q 45.015625 15.765625 45.015625 23.390625 
Q 45.015625 31 40.078125 35.4375 
Q 35.15625 39.890625 26.703125 39.890625 
Q 22.75 39.890625 18.8125 39.015625 
Q 14.890625 38.140625 10.796875 36.28125 
z
" id="DejaVuSans-53"/>
       <path d="M 10.6875 12.40625 
L 21 12.40625 
L 21 0 
L 10.6875 0 
z
" id="DejaVuSans-46"/>
       <path d="M 19.1875 8.296875 
L 53.609375 8.296875 
L 53.609375 0 
L 7.328125 0 
L 7.328125 8.296875 
Q 12.9375 14.109375 22.625 23.890625 
Q 32.328125 33.6875 34.8125 36.53125 
Q 39.546875 41.84375 41.421875 45.53125 
Q 43.3125 49.21875 43.3125 52.78125 
Q 43.3125 58.59375 39.234375 62.25 
Q 35.15625 65.921875 28.609375 65.921875 
Q 23.96875 65.921875 18.8125 64.3125 
Q 13.671875 62.703125 7.8125 59.421875 
L 7.8125 69.390625 
Q 13.765625 71.78125 18.9375 73 
Q 24.125 74.21875 28.421875 74.21875 
Q 39.75 74.21875 46.484375 68.546875 
Q 53.21875 62.890625 53.21875 53.421875 
Q 53.21875 48.921875 51.53125 44.890625 
Q 49.859375 40.875 45.40625 35.40625 
Q 44.1875 33.984375 37.640625 27.21875 
Q 31.109375 20.453125 19.1875 8.296875 
z
" id="DejaVuSans-50"/>
      </defs>
      <g transform="translate(52.060292 254.356562)scale(0.1 -0.1)">
       <use xlink:href="#DejaVuSans-49"/>
       <use x="63.623047" xlink:href="#DejaVuSans-53"/>
       <use x="127.246094" xlink:href="#DejaVuSans-49"/>
       <use x="190.869141" xlink:href="#DejaVuSans-46"/>
       <use x="222.65625" xlink:href="#DejaVuSans-50"/>
       <use x="286.279297" xlink:href="#DejaVuSans-50"/>
      </g>
     </g>
    </g>
    <g id="xtick_2">
     <g id="line2d_2">
      <g>
       <use style="stroke:#000000;stroke-width:0.8;" x="107.886998" xlink:href="#m3aa0c597b0" y="239.758125"/>
      </g>
     </g>
     <g id="text_2">
      <!-- 151.24 -->
      <defs>
       <path d="M 37.796875 64.3125 
L 12.890625 25.390625 
L 37.796875 25.390625 
z
M 35.203125 72.90625 
L 47.609375 72.90625 
L 47.609375 25.390625 
L 58.015625 25.390625 
L 58.015625 17.1875 
L 47.609375 17.1875 
L 47.609375 0 
L 37.796875 0 
L 37.796875 17.1875 
L 4.890625 17.1875 
L 4.890625 26.703125 
z
" id="DejaVuSans-52"/>
      </defs>
      <g transform="translate(90.391685 254.356562)scale(0.1 -0.1)">
       <use xlink:href="#DejaVuSans-49"/>
       <use x="63.623047" xlink:href="#DejaVuSans-53"/>
       <use x="127.246094" xlink:href="#DejaVuSans-49"/>
       <use x="190.869141" xlink:href="#DejaVuSans-46"/>
       <use x="222.65625" xlink:href="#DejaVuSans-50"/>
       <use x="286.279297" xlink:href="#DejaVuSans-52"/>
      </g>
     </g>
    </g>
    <g id="text_3">
     <!-- Longitude -->
     <defs>
      <path d="M 9.8125 72.90625 
L 19.671875 72.90625 
L 19.671875 8.296875 
L 55.171875 8.296875 
L 55.171875 0 
L 9.8125 0 
z
" id="DejaVuSans-76"/>
      <path d="M 30.609375 48.390625 
Q 23.390625 48.390625 19.1875 42.75 
Q 14.984375 37.109375 14.984375 27.296875 
Q 14.984375 17.484375 19.15625 11.84375 
Q 23.34375 6.203125 30.609375 6.203125 
Q 37.796875 6.203125 41.984375 11.859375 
Q 46.1875 17.53125 46.1875 27.296875 
Q 46.1875 37.015625 41.984375 42.703125 
Q 37.796875 48.390625 30.609375 48.390625 
z
M 30.609375 56 
Q 42.328125 56 49.015625 48.375 
Q 55.71875 40.765625 55.71875 27.296875 
Q 55.71875 13.875 49.015625 6.21875 
Q 42.328125 -1.421875 30.609375 -1.421875 
Q 18.84375 -1.421875 12.171875 6.21875 
Q 5.515625 13.875 5.515625 27.296875 
Q 5.515625 40.765625 12.171875 48.375 
Q 18.84375 56 30.609375 56 
z
" id="DejaVuSans-111"/>
      <path d="M 54.890625 33.015625 
L 54.890625 0 
L 45.90625 0 
L 45.90625 32.71875 
Q 45.90625 40.484375 42.875 44.328125 
Q 39.84375 48.1875 33.796875 48.1875 
Q 26.515625 48.1875 22.3125 43.546875 
Q 18.109375 38.921875 18.109375 30.90625 
L 18.109375 0 
L 9.078125 0 
L 9.078125 54.6875 
L 18.109375 54.6875 
L 18.109375 46.1875 
Q 21.34375 51.125 25.703125 53.5625 
Q 30.078125 56 35.796875 56 
Q 45.21875 56 50.046875 50.171875 
Q 54.890625 44.34375 54.890625 33.015625 
z
" id="DejaVuSans-110"/>
      <path d="M 45.40625 27.984375 
Q 45.40625 37.75 41.375 43.109375 
Q 37.359375 48.484375 30.078125 48.484375 
Q 22.859375 48.484375 18.828125 43.109375 
Q 14.796875 37.75 14.796875 27.984375 
Q 14.796875 18.265625 18.828125 12.890625 
Q 22.859375 7.515625 30.078125 7.515625 
Q 37.359375 7.515625 41.375 12.890625 
Q 45.40625 18.265625 45.40625 27.984375 
z
M 54.390625 6.78125 
Q 54.390625 -7.171875 48.1875 -13.984375 
Q 42 -20.796875 29.203125 -20.796875 
Q 24.46875 -20.796875 20.265625 -20.09375 
Q 16.0625 -19.390625 12.109375 -17.921875 
L 12.109375 -9.1875 
Q 16.0625 -11.328125 19.921875 -12.34375 
Q 23.78125 -13.375 27.78125 -13.375 
Q 36.625 -13.375 41.015625 -8.765625 
Q 45.40625 -4.15625 45.40625 5.171875 
L 45.40625 9.625 
Q 42.625 4.78125 38.28125 2.390625 
Q 33.9375 0 27.875 0 
Q 17.828125 0 11.671875 7.65625 
Q 5.515625 15.328125 5.515625 27.984375 
Q 5.515625 40.671875 11.671875 48.328125 
Q 17.828125 56 27.875 56 
Q 33.9375 56 38.28125 53.609375 
Q 42.625 51.21875 45.40625 46.390625 
L 45.40625 54.6875 
L 54.390625 54.6875 
z
" id="DejaVuSans-103"/>
      <path d="M 9.421875 54.6875 
L 18.40625 54.6875 
L 18.40625 0 
L 9.421875 0 
z
M 9.421875 75.984375 
L 18.40625 75.984375 
L 18.40625 64.59375 
L 9.421875 64.59375 
z
" id="DejaVuSans-105"/>
      <path d="M 18.3125 70.21875 
L 18.3125 54.6875 
L 36.8125 54.6875 
L 36.8125 47.703125 
L 18.3125 47.703125 
L 18.3125 18.015625 
Q 18.3125 11.328125 20.140625 9.421875 
Q 21.96875 7.515625 27.59375 7.515625 
L 36.8125 7.515625 
L 36.8125 0 
L 27.59375 0 
Q 17.1875 0 13.234375 3.875 
Q 9.28125 7.765625 9.28125 18.015625 
L 9.28125 47.703125 
L 2.6875 47.703125 
L 2.6875 54.6875 
L 9.28125 54.6875 
L 9.28125 70.21875 
z
" id="DejaVuSans-116"/>
      <path d="M 8.5 21.578125 
L 8.5 54.6875 
L 17.484375 54.6875 
L 17.484375 21.921875 
Q 17.484375 14.15625 20.5 10.265625 
Q 23.53125 6.390625 29.59375 6.390625 
Q 36.859375 6.390625 41.078125 11.03125 
Q 45.3125 15.671875 45.3125 23.6875 
L 45.3125 54.6875 
L 54.296875 54.6875 
L 54.296875 0 
L 45.3125 0 
L 45.3125 8.40625 
Q 42.046875 3.421875 37.71875 1 
Q 33.40625 -1.421875 27.6875 -1.421875 
Q 18.265625 -1.421875 13.375 4.4375 
Q 8.5 10.296875 8.5 21.578125 
z
M 31.109375 56 
z
" id="DejaVuSans-117"/>
      <path d="M 45.40625 46.390625 
L 45.40625 75.984375 
L 54.390625 75.984375 
L 54.390625 0 
L 45.40625 0 
L 45.40625 8.203125 
Q 42.578125 3.328125 38.25 0.953125 
Q 33.9375 -1.421875 27.875 -1.421875 
Q 17.96875 -1.421875 11.734375 6.484375 
Q 5.515625 14.40625 5.515625 27.296875 
Q 5.515625 40.1875 11.734375 48.09375 
Q 17.96875 56 27.875 56 
Q 33.9375 56 38.25 53.625 
Q 42.578125 51.265625 45.40625 46.390625 
z
M 14.796875 27.296875 
Q 14.796875 17.390625 18.875 11.75 
Q 22.953125 6.109375 30.078125 6.109375 
Q 37.203125 6.109375 41.296875 11.75 
Q 45.40625 17.390625 45.40625 27.296875 
Q 45.40625 37.203125 41.296875 42.84375 
Q 37.203125 48.484375 30.078125 48.484375 
Q 22.953125 48.484375 18.875 42.84375 
Q 14.796875 37.203125 14.796875 27.296875 
z
" id="DejaVuSans-100"/>
      <path d="M 56.203125 29.59375 
L 56.203125 25.203125 
L 14.890625 25.203125 
Q 15.484375 15.921875 20.484375 11.0625 
Q 25.484375 6.203125 34.421875 6.203125 
Q 39.59375 6.203125 44.453125 7.46875 
Q 49.3125 8.734375 54.109375 11.28125 
L 54.109375 2.78125 
Q 49.265625 0.734375 44.1875 -0.34375 
Q 39.109375 -1.421875 33.890625 -1.421875 
Q 20.796875 -1.421875 13.15625 6.1875 
Q 5.515625 13.8125 5.515625 26.8125 
Q 5.515625 40.234375 12.765625 48.109375 
Q 20.015625 56 32.328125 56 
Q 43.359375 56 49.78125 48.890625 
Q 56.203125 41.796875 56.203125 29.59375 
z
M 47.21875 32.234375 
Q 47.125 39.59375 43.09375 43.984375 
Q 39.0625 48.390625 32.421875 48.390625 
Q 24.90625 48.390625 20.390625 44.140625 
Q 15.875 39.890625 15.1875 32.171875 
z
" id="DejaVuSans-101"/>
     </defs>
     <g transform="translate(69.481923 268.034687)scale(0.1 -0.1)">
      <use xlink:href="#DejaVuSans-76"/>
      <use x="53.962891" xlink:href="#DejaVuSans-111"/>
      <use x="115.144531" xlink:href="#DejaVuSans-110"/>
      <use x="178.523438" xlink:href="#DejaVuSans-103"/>
      <use x="242" xlink:href="#DejaVuSans-105"/>
      <use x="269.783203" xlink:href="#DejaVuSans-116"/>
      <use x="308.992188" xlink:href="#DejaVuSans-117"/>
      <use x="372.371094" xlink:href="#DejaVuSans-100"/>
      <use x="435.847656" xlink:href="#DejaVuSans-101"/>
     </g>
    </g>
   </g>
   <g id="matplotlib.axis_2">
    <g id="ytick_1">
     <g id="line2d_3">
      <defs>
       <path d="M 0 0 
L -3.5 0 
" id="md01dd14c77" style="stroke:#000000;stroke-width:0.8;"/>
      </defs>
      <g>
       <use style="stroke:#000000;stroke-width:0.8;" x="64.885938" xlink:href="#md01dd14c77" y="211.065896"/>
      </g>
     </g>
     <g id="text_4">
      <!-- −33.98 -->
      <defs>
       <path d="M 10.59375 35.5 
L 73.1875 35.5 
L 73.1875 27.203125 
L 10.59375 27.203125 
z
" id="DejaVuSans-8722"/>
       <path d="M 40.578125 39.3125 
Q 47.65625 37.796875 51.625 33 
Q 55.609375 28.21875 55.609375 21.1875 
Q 55.609375 10.40625 48.1875 4.484375 
Q 40.765625 -1.421875 27.09375 -1.421875 
Q 22.515625 -1.421875 17.65625 -0.515625 
Q 12.796875 0.390625 7.625 2.203125 
L 7.625 11.71875 
Q 11.71875 9.328125 16.59375 8.109375 
Q 21.484375 6.890625 26.8125 6.890625 
Q 36.078125 6.890625 40.9375 10.546875 
Q 45.796875 14.203125 45.796875 21.1875 
Q 45.796875 27.640625 41.28125 31.265625 
Q 36.765625 34.90625 28.71875 34.90625 
L 20.21875 34.90625 
L 20.21875 43.015625 
L 29.109375 43.015625 
Q 36.375 43.015625 40.234375 45.921875 
Q 44.09375 48.828125 44.09375 54.296875 
Q 44.09375 59.90625 40.109375 62.90625 
Q 36.140625 65.921875 28.71875 65.921875 
Q 24.65625 65.921875 20.015625 65.03125 
Q 15.375 64.15625 9.8125 62.3125 
L 9.8125 71.09375 
Q 15.4375 72.65625 20.34375 73.4375 
Q 25.25 74.21875 29.59375 74.21875 
Q 40.828125 74.21875 47.359375 69.109375 
Q 53.90625 64.015625 53.90625 55.328125 
Q 53.90625 49.265625 50.4375 45.09375 
Q 46.96875 40.921875 40.578125 39.3125 
z
" id="DejaVuSans-51"/>
       <path d="M 10.984375 1.515625 
L 10.984375 10.5 
Q 14.703125 8.734375 18.5 7.8125 
Q 22.3125 6.890625 25.984375 6.890625 
Q 35.75 6.890625 40.890625 13.453125 
Q 46.046875 20.015625 46.78125 33.40625 
Q 43.953125 29.203125 39.59375 26.953125 
Q 35.25 24.703125 29.984375 24.703125 
Q 19.046875 24.703125 12.671875 31.3125 
Q 6.296875 37.9375 6.296875 49.421875 
Q 6.296875 60.640625 12.9375 67.421875 
Q 19.578125 74.21875 30.609375 74.21875 
Q 43.265625 74.21875 49.921875 64.515625 
Q 56.59375 54.828125 56.59375 36.375 
Q 56.59375 19.140625 48.40625 8.859375 
Q 40.234375 -1.421875 26.421875 -1.421875 
Q 22.703125 -1.421875 18.890625 -0.6875 
Q 15.09375 0.046875 10.984375 1.515625 
z
M 30.609375 32.421875 
Q 37.25 32.421875 41.125 36.953125 
Q 45.015625 41.5 45.015625 49.421875 
Q 45.015625 57.28125 41.125 61.84375 
Q 37.25 66.40625 30.609375 66.40625 
Q 23.96875 66.40625 20.09375 61.84375 
Q 16.21875 57.28125 16.21875 49.421875 
Q 16.21875 41.5 20.09375 36.953125 
Q 23.96875 32.421875 30.609375 32.421875 
z
" id="DejaVuSans-57"/>
       <path d="M 31.78125 34.625 
Q 24.75 34.625 20.71875 30.859375 
Q 16.703125 27.09375 16.703125 20.515625 
Q 16.703125 13.921875 20.71875 10.15625 
Q 24.75 6.390625 31.78125 6.390625 
Q 38.8125 6.390625 42.859375 10.171875 
Q 46.921875 13.96875 46.921875 20.515625 
Q 46.921875 27.09375 42.890625 30.859375 
Q 38.875 34.625 31.78125 34.625 
z
M 21.921875 38.8125 
Q 15.578125 40.375 12.03125 44.71875 
Q 8.5 49.078125 8.5 55.328125 
Q 8.5 64.0625 14.71875 69.140625 
Q 20.953125 74.21875 31.78125 74.21875 
Q 42.671875 74.21875 48.875 69.140625 
Q 55.078125 64.0625 55.078125 55.328125 
Q 55.078125 49.078125 51.53125 44.71875 
Q 48 40.375 41.703125 38.8125 
Q 48.828125 37.15625 52.796875 32.3125 
Q 56.78125 27.484375 56.78125 20.515625 
Q 56.78125 9.90625 50.3125 4.234375 
Q 43.84375 -1.421875 31.78125 -1.421875 
Q 19.734375 -1.421875 13.25 4.234375 
Q 6.78125 9.90625 6.78125 20.515625 
Q 6.78125 27.484375 10.78125 32.3125 
Q 14.796875 37.15625 21.921875 38.8125 
z
M 18.3125 54.390625 
Q 18.3125 48.734375 21.84375 45.5625 
Q 25.390625 42.390625 31.78125 42.390625 
Q 38.140625 42.390625 41.71875 45.5625 
Q 45.3125 48.734375 45.3125 54.390625 
Q 45.3125 60.0625 41.71875 63.234375 
Q 38.140625 66.40625 31.78125 66.40625 
Q 25.390625 66.40625 21.84375 63.234375 
Q 18.3125 60.0625 18.3125 54.390625 
z
" id="DejaVuSans-56"/>
      </defs>
      <g transform="translate(20.878125 214.865115)scale(0.1 -0.1)">
       <use xlink:href="#DejaVuSans-8722"/>
       <use x="83.789062" xlink:href="#DejaVuSans-51"/>
       <use x="147.412109" xlink:href="#DejaVuSans-51"/>
       <use x="211.035156" xlink:href="#DejaVuSans-46"/>
       <use x="242.822266" xlink:href="#DejaVuSans-57"/>
       <use x="306.445312" xlink:href="#DejaVuSans-56"/>
      </g>
     </g>
    </g>
    <g id="ytick_2">
     <g id="line2d_4">
      <g>
       <use style="stroke:#000000;stroke-width:0.8;" x="64.885938" xlink:href="#md01dd14c77" y="172.734503"/>
      </g>
     </g>
     <g id="text_5">
      <!-- −33.96 -->
      <defs>
       <path d="M 33.015625 40.375 
Q 26.375 40.375 22.484375 35.828125 
Q 18.609375 31.296875 18.609375 23.390625 
Q 18.609375 15.53125 22.484375 10.953125 
Q 26.375 6.390625 33.015625 6.390625 
Q 39.65625 6.390625 43.53125 10.953125 
Q 47.40625 15.53125 47.40625 23.390625 
Q 47.40625 31.296875 43.53125 35.828125 
Q 39.65625 40.375 33.015625 40.375 
z
M 52.59375 71.296875 
L 52.59375 62.3125 
Q 48.875 64.0625 45.09375 64.984375 
Q 41.3125 65.921875 37.59375 65.921875 
Q 27.828125 65.921875 22.671875 59.328125 
Q 17.53125 52.734375 16.796875 39.40625 
Q 19.671875 43.65625 24.015625 45.921875 
Q 28.375 48.1875 33.59375 48.1875 
Q 44.578125 48.1875 50.953125 41.515625 
Q 57.328125 34.859375 57.328125 23.390625 
Q 57.328125 12.15625 50.6875 5.359375 
Q 44.046875 -1.421875 33.015625 -1.421875 
Q 20.359375 -1.421875 13.671875 8.265625 
Q 6.984375 17.96875 6.984375 36.375 
Q 6.984375 53.65625 15.1875 63.9375 
Q 23.390625 74.21875 37.203125 74.21875 
Q 40.921875 74.21875 44.703125 73.484375 
Q 48.484375 72.75 52.59375 71.296875 
z
" id="DejaVuSans-54"/>
      </defs>
      <g transform="translate(20.878125 176.533721)scale(0.1 -0.1)">
       <use xlink:href="#DejaVuSans-8722"/>
       <use x="83.789062" xlink:href="#DejaVuSans-51"/>
       <use x="147.412109" xlink:href="#DejaVuSans-51"/>
       <use x="211.035156" xlink:href="#DejaVuSans-46"/>
       <use x="242.822266" xlink:href="#DejaVuSans-57"/>
       <use x="306.445312" xlink:href="#DejaVuSans-54"/>
      </g>
     </g>
    </g>
    <g id="ytick_3">
     <g id="line2d_5">
      <g>
       <use style="stroke:#000000;stroke-width:0.8;" x="64.885938" xlink:href="#md01dd14c77" y="134.403109"/>
      </g>
     </g>
     <g id="text_6">
      <!-- −33.94 -->
      <g transform="translate(20.878125 138.202328)scale(0.1 -0.1)">
       <use xlink:href="#DejaVuSans-8722"/>
       <use x="83.789062" xlink:href="#DejaVuSans-51"/>
       <use x="147.412109" xlink:href="#DejaVuSans-51"/>
       <use x="211.035156" xlink:href="#DejaVuSans-46"/>
       <use x="242.822266" xlink:href="#DejaVuSans-57"/>
       <use x="306.445312" xlink:href="#DejaVuSans-52"/>
      </g>
     </g>
    </g>
    <g id="ytick_4">
     <g id="line2d_6">
      <g>
       <use style="stroke:#000000;stroke-width:0.8;" x="64.885938" xlink:href="#md01dd14c77" y="96.071715"/>
      </g>
     </g>
     <g id="text_7">
      <!-- −33.92 -->
      <g transform="translate(20.878125 99.870934)scale(0.1 -0.1)">
       <use xlink:href="#DejaVuSans-8722"/>
       <use x="83.789062" xlink:href="#DejaVuSans-51"/>
       <use x="147.412109" xlink:href="#DejaVuSans-51"/>
       <use x="211.035156" xlink:href="#DejaVuSans-46"/>
       <use x="242.822266" xlink:href="#DejaVuSans-57"/>
       <use x="306.445312" xlink:href="#DejaVuSans-50"/>
      </g>
     </g>
    </g>
    <g id="ytick_5">
     <g id="line2d_7">
      <g>
       <use style="stroke:#000000;stroke-width:0.8;" x="64.885938" xlink:href="#md01dd14c77" y="57.740322"/>
      </g>
     </g>
     <g id="text_8">
      <!-- −33.90 -->
      <defs>
       <path d="M 31.78125 66.40625 
Q 24.171875 66.40625 20.328125 58.90625 
Q 16.5 51.421875 16.5 36.375 
Q 16.5 21.390625 20.328125 13.890625 
Q 24.171875 6.390625 31.78125 6.390625 
Q 39.453125 6.390625 43.28125 13.890625 
Q 47.125 21.390625 47.125 36.375 
Q 47.125 51.421875 43.28125 58.90625 
Q 39.453125 66.40625 31.78125 66.40625 
z
M 31.78125 74.21875 
Q 44.046875 74.21875 50.515625 64.515625 
Q 56.984375 54.828125 56.984375 36.375 
Q 56.984375 17.96875 50.515625 8.265625 
Q 44.046875 -1.421875 31.78125 -1.421875 
Q 19.53125 -1.421875 13.0625 8.265625 
Q 6.59375 17.96875 6.59375 36.375 
Q 6.59375 54.828125 13.0625 64.515625 
Q 19.53125 74.21875 31.78125 74.21875 
z
" id="DejaVuSans-48"/>
      </defs>
      <g transform="translate(20.878125 61.53954)scale(0.1 -0.1)">
       <use xlink:href="#DejaVuSans-8722"/>
       <use x="83.789062" xlink:href="#DejaVuSans-51"/>
       <use x="147.412109" xlink:href="#DejaVuSans-51"/>
       <use x="211.035156" xlink:href="#DejaVuSans-46"/>
       <use x="242.822266" xlink:href="#DejaVuSans-57"/>
       <use x="306.445312" xlink:href="#DejaVuSans-48"/>
      </g>
     </g>
    </g>
    <g id="text_9">
     <!-- Latiude -->
     <defs>
      <path d="M 34.28125 27.484375 
Q 23.390625 27.484375 19.1875 25 
Q 14.984375 22.515625 14.984375 16.5 
Q 14.984375 11.71875 18.140625 8.90625 
Q 21.296875 6.109375 26.703125 6.109375 
Q 34.1875 6.109375 38.703125 11.40625 
Q 43.21875 16.703125 43.21875 25.484375 
L 43.21875 27.484375 
z
M 52.203125 31.203125 
L 52.203125 0 
L 43.21875 0 
L 43.21875 8.296875 
Q 40.140625 3.328125 35.546875 0.953125 
Q 30.953125 -1.421875 24.3125 -1.421875 
Q 15.921875 -1.421875 10.953125 3.296875 
Q 6 8.015625 6 15.921875 
Q 6 25.140625 12.171875 29.828125 
Q 18.359375 34.515625 30.609375 34.515625 
L 43.21875 34.515625 
L 43.21875 35.40625 
Q 43.21875 41.609375 39.140625 45 
Q 35.0625 48.390625 27.6875 48.390625 
Q 23 48.390625 18.546875 47.265625 
Q 14.109375 46.140625 10.015625 43.890625 
L 10.015625 52.203125 
Q 14.9375 54.109375 19.578125 55.046875 
Q 24.21875 56 28.609375 56 
Q 40.484375 56 46.34375 49.84375 
Q 52.203125 43.703125 52.203125 31.203125 
z
" id="DejaVuSans-97"/>
     </defs>
     <g transform="translate(14.798438 149.656875)rotate(-90)scale(0.1 -0.1)">
      <use xlink:href="#DejaVuSans-76"/>
      <use x="55.712891" xlink:href="#DejaVuSans-97"/>
      <use x="116.992188" xlink:href="#DejaVuSans-116"/>
      <use x="156.201172" xlink:href="#DejaVuSans-105"/>
      <use x="183.984375" xlink:href="#DejaVuSans-117"/>
      <use x="247.363281" xlink:href="#DejaVuSans-100"/>
      <use x="310.839844" xlink:href="#DejaVuSans-101"/>
     </g>
    </g>
   </g>
   <g id="LineCollection_1">
    <path clip-path="url(#p86035e8f09)" d="M 112.402894 160.440982 
L 112.50908 160.981392 
L 112.590366 161.39441 
L 112.696553 161.700278 
" style="fill:none;stroke:#1f77b4;"/>
    <path clip-path="url(#p86035e8f09)" d="M 106.1681 137.444166 
L 105.824159 135.953541 
L 105.509295 134.48139 
L 105.432988 134.210703 
L 105.185916 133.037513 
L 104.781733 131.548816 
L 104.745106 131.396685 
L 104.375141 129.855778 
L 104.114093 128.772388 
L 104.029754 128.41672 
" style="fill:none;stroke:#ff7f0e;"/>
    <path clip-path="url(#p86035e8f09)" d="M 104.581248 213.437933 
L 105.774841 213.28018 
L 106.465775 213.288051 
L 107.773586 213.385563 
L 108.611511 213.465082 
L 109.9439 213.601631 
L 113.312787 213.358253 
L 113.734159 213.303313 
L 114.182519 213.245159 
L 114.681482 213.055919 
L 115.487599 212.592137 
L 115.72198 212.317916 
L 115.767282 212.264743 
L 116.250502 211.729313 
L 116.567134 211.177176 
L 116.805692 210.889782 
L 116.88505 210.534917 
" style="fill:none;stroke:#2ca02c;"/>
    <path clip-path="url(#p86035e8f09)" d="M 95.20215 227.535658 
L 95.305605 227.483127 
L 95.357333 227.383045 
L 95.648261 226.614359 
L 95.836537 226.088086 
L 95.878465 225.970815 
L 96.158309 225.240041 
L 96.599922 224.321472 
L 97.140975 223.274709 
L 97.331178 222.907154 
L 97.572467 222.476625 
L 98.613768 220.573624 
" style="fill:none;stroke:#d62728;"/>
    <path clip-path="url(#p86035e8f09)" d="M 92.271503 229.825331 
L 91.922582 229.692799 
L 91.612537 229.516572 
L 90.768187 228.964113 
L 90.101992 228.545151 
L 89.418447 228.087795 
L 89.274991 227.973576 
L 89.14262 227.816465 
L 89.045108 227.554453 
L 89.045108 227.321197 
L 89.119648 227.097258 
L 89.247521 226.937255 
L 89.475798 226.759261 
L 89.734276 226.64954 
L 90.641759 226.406805 
L 91.589565 226.097242 
L 91.831014 225.968405 
" style="fill:none;stroke:#9467bd;"/>
    <path clip-path="url(#p86035e8f09)" d="M 116.604082 208.435608 
L 116.343034 207.981465 
L 116.201988 207.797687 
L 113.957777 204.73499 
L 113.283389 203.643407 
L 112.839205 202.59327 
L 112.577354 201.536547 
L 112.497835 201.214615 
L 112.44434 197.631588 
" style="fill:none;stroke:#8c564b;"/>
    <path clip-path="url(#p86035e8f09)" d="M 85.112358 104.467279 
L 84.715243 104.1288 
L 84.289534 103.457304 
" style="fill:none;stroke:#e377c2;"/>
    <path clip-path="url(#p86035e8f09)" d="M 77.075127 65.501224 
L 77.232559 65.885326 
L 77.299387 66.081474 
L 77.355935 66.277943 
L 77.376497 66.37433 
" style="fill:none;stroke:#7f7f7f;"/>
    <path clip-path="url(#p86035e8f09)" d="M 77.145168 67.860617 
L 77.173763 67.700615 
L 77.194165 67.315388 
L 77.185008 66.811123 
L 77.144365 66.494331 
" style="fill:none;stroke:#bcbd22;"/>
    <path clip-path="url(#p86035e8f09)" d="M 67.822938 32.248509 
L 67.993543 32.508754 
L 68.287845 33.027316 
L 69.118701 34.84389 
L 69.934295 37.052438 
" style="fill:none;stroke:#17becf;"/>
    <path clip-path="url(#p86035e8f09)" d="M 74.755413 60.552715 
L 74.811639 60.771674 
" style="fill:none;stroke:#1f77b4;"/>
    <path clip-path="url(#p86035e8f09)" d="M 74.415488 60.495043 
L 74.250024 59.524266 
L 74.182874 59.003615 
L 74.042149 57.909944 
L 73.979498 57.481343 
L 73.27523 53.281118 
L 72.81209 50.674653 
" style="fill:none;stroke:#ff7f0e;"/>
    <path clip-path="url(#p86035e8f09)" d="M 75.635266 76.899952 
L 75.664824 76.725812 
L 75.89776 75.01414 
L 75.929246 74.805141 
L 76.126518 73.381344 
L 76.245717 72.890252 
" style="fill:none;stroke:#2ca02c;"/>
    <path clip-path="url(#p86035e8f09)" d="M 104.029754 128.41672 
L 103.970637 128.161455 
L 103.765493 127.257827 
L 103.489023 126.024394 
L 103.065241 124.190149 
" style="fill:none;stroke:#d62728;"/>
    <path clip-path="url(#p86035e8f09)" d="M 104.995713 128.629092 
L 105.456442 130.639565 
L 105.674598 131.529056 
L 106.040226 133.068035 
L 106.255973 134.060661 
L 106.404891 134.6083 
L 106.469952 134.876577 
L 106.660477 135.875468 
L 106.700799 136.011213 
L 107.063053 137.555815 
" style="fill:none;stroke:#9467bd;"/>
    <path clip-path="url(#p86035e8f09)" d="M 103.065241 124.190149 
L 102.949416 123.599618 
L 102.604833 122.057747 
L 102.339608 121.021266 
L 102.154224 120.252579 
L 101.737992 118.526288 
L 101.524174 117.77961 
L 101.477908 117.618483 
" style="fill:none;stroke:#8c564b;"/>
    <path clip-path="url(#p86035e8f09)" d="M 115.580773 186.614714 
L 115.142212 186.999941 
L 113.458331 189.145355 
L 112.031804 191.096067 
L 111.737181 191.747643 
L 111.549869 192.269418 
L 111.621998 193.057382 
L 111.809632 193.54253 
L 112.380564 194.61837 
L 112.687235 195.202154 
L 113.051578 195.962326 
L 113.147644 196.304339 
" style="fill:none;stroke:#e377c2;"/>
    <path clip-path="url(#p86035e8f09)" d="M 114.719877 186.189808 
L 115.175627 185.690362 
L 116.359741 184.689544 
L 117.182243 183.835716 
L 117.732935 183.197152 
L 118.053903 182.655778 
L 118.14515 182.502041 
L 118.22242 182.291596 
L 118.843313 180.601289 
L 119.038818 179.950837 
L 119.056489 179.892041 
L 119.230789 179.392435 
" style="fill:none;stroke:#7f7f7f;"/>
    <path clip-path="url(#p86035e8f09)" d="M 112.696553 161.700278 
L 112.847398 161.913454 
L 113.324996 162.588967 
L 113.840506 163.056122 
L 114.278906 163.411308 
L 115.149923 164.058869 
L 115.797483 164.728919 
L 115.909614 164.832535 
L 115.964715 164.883299 
L 116.311226 165.309651 
L 116.795571 166.113036 
L 117.331322 167.021163 
L 117.363451 167.075139 
L 117.775345 167.57844 
" style="fill:none;stroke:#bcbd22;"/>
    <path clip-path="url(#p86035e8f09)" d="M 117.775345 167.57844 
L 118.109165 167.925273 
L 118.343546 168.101018 
L 118.968777 168.547612 
L 119.594168 169.016695 
L 120.076424 169.575579 
L 120.356107 170.102013 
L 120.448639 170.327398 
L 120.655549 170.830056 
L 120.892179 171.498018 
L 121.110335 172.33032 
L 121.118528 172.452731 
L 121.130095 172.623818 
L 121.138288 173.008402 
" style="fill:none;stroke:#17becf;"/>
    <path clip-path="url(#p86035e8f09)" d="M 120.303576 178.886243 
L 120.169116 179.771718 
L 120.145662 179.890113 
" style="fill:none;stroke:#1f77b4;"/>
    <path clip-path="url(#p86035e8f09)" d="M 86.030283 104.495231 
L 86.601376 104.966564 
L 87.900995 105.828745 
L 88.33313 106.112766 
L 90.055566 107.303788 
L 90.349546 107.508771 
L 91.194699 108.134805 
L 91.328677 108.24822 
L 91.885312 108.743167 
L 93.488068 110.055798 
L 94.823188 111.149308 
L 94.974195 111.269792 
L 95.868345 111.997835 
L 96.146743 112.174866 
L 96.903702 112.530213 
L 97.283627 112.697444 
L 98.234325 113.098575 
L 98.901483 113.485569 
L 99.171528 113.660511 
L 99.512738 113.885575 
L 99.650892 113.973769 
L 99.916439 114.17827 
L 100.762716 114.925591 
L 101.364493 115.645923 
L 101.692369 116.097014 
L 101.95165 116.570917 
L 102.245952 117.156789 
L 102.409328 117.610933 
L 102.413505 117.62266 
L 102.517603 117.929492 
L 102.734634 118.782356 
L 102.894315 119.418028 
L 103.063635 120.238443 
L 103.187171 120.804395 
L 103.241308 121.038937 
L 103.287895 121.230426 
L 103.326772 121.427858 
L 103.655933 122.779043 
L 103.68999 122.940492 
L 104.042445 124.350152 
L 104.170479 124.902128 
" style="fill:none;stroke:#ff7f0e;"/>
    <path clip-path="url(#p86035e8f09)" d="M 119.945016 177.183084 
L 120.011523 176.17343 
L 120.150642 174.834133 
L 120.164779 173.172903 
L 120.17747 172.589922 
L 120.125742 172.128068 
L 120.120762 172.084051 
L 120.105019 172.011279 
L 119.973772 171.406129 
L 119.326212 170.043859 
L 118.589012 169.240152 
L 117.658877 168.629862 
L 116.970353 167.970735 
L 116.59107 167.439803 
L 116.536611 167.363818 
L 116.392513 167.161888 
L 116.063993 166.584048 
L 115.238278 165.347563 
L 114.569192 164.6396 
L 113.742994 164.036539 
L 113.194552 163.61581 
L 112.898002 163.388176 
L 112.365303 162.781901 
L 112.229558 162.585914 
L 111.920798 162.040685 
L 111.807864 161.665258 
L 111.759028 161.502685 
L 111.659428 161.171596 
L 111.587299 160.931592 
" style="fill:none;stroke:#2ca02c;"/>
    <path clip-path="url(#p86035e8f09)" d="M 71.055437 40.080596 
L 71.630225 41.988898 
L 71.912639 44.087886 
L 71.927097 44.185398 
L 72.002439 44.695767 
L 72.477145 47.356851 
" style="fill:none;stroke:#d62728;"/>
    <path clip-path="url(#p86035e8f09)" d="M 72.477145 47.356851 
L 72.638112 48.204575 
L 72.685502 48.423052 
" style="fill:none;stroke:#9467bd;"/>
    <path clip-path="url(#p86035e8f09)" d="M 70.763224 40.155135 
L 70.676154 39.84493 
L 70.051084 38.165386 
L 69.659432 37.112679 
" style="fill:none;stroke:#8c564b;"/>
    <path clip-path="url(#p86035e8f09)" d="M 72.143968 46.803108 
L 72.085011 46.432982 
L 71.912157 45.37658 
L 71.860429 45.061074 
L 71.699784 44.211743 
L 71.284677 42.016047 
L 70.763224 40.155135 
" style="fill:none;stroke:#e377c2;"/>
    <path clip-path="url(#p86035e8f09)" d="M 84.289534 103.457304 
L 83.853543 102.69922 
" style="fill:none;stroke:#7f7f7f;"/>
    <path clip-path="url(#p86035e8f09)" d="M 121.138288 173.008402 
L 120.743422 175.743866 
L 120.535387 177.274331 
" style="fill:none;stroke:#bcbd22;"/>
    <path clip-path="url(#p86035e8f09)" d="M 120.145662 179.890113 
L 120.09779 180.062807 
L 120.044456 180.254938 
L 119.719471 181.426683 
L 119.139864 182.651923 
L 119.057453 182.826222 
L 118.931507 183.004378 
L 118.527485 183.574828 
L 115.580773 186.614714 
" style="fill:none;stroke:#17becf;"/>
    <path clip-path="url(#p86035e8f09)" d="M 76.548693 64.504422 
L 77.075127 65.501224 
" style="fill:none;stroke:#1f77b4;"/>
    <path clip-path="url(#p86035e8f09)" d="M 74.650994 59.811981 
L 74.699669 60.128451 
L 74.735493 60.407331 
L 74.755413 60.552715 
" style="fill:none;stroke:#ff7f0e;"/>
    <path clip-path="url(#p86035e8f09)" d="M 69.659432 37.112679 
L 69.22312 35.943987 
L 68.4162 34.013837 
" style="fill:none;stroke:#2ca02c;"/>
    <path clip-path="url(#p86035e8f09)" d="M 69.934295 37.052438 
L 70.906358 39.585488 
L 71.055437 40.080596 
" style="fill:none;stroke:#d62728;"/>
    <path clip-path="url(#p86035e8f09)" d="M 76.090373 80.29406 
L 76.241058 80.570851 
L 76.66982 81.058087 
L 77.068701 81.41986 
L 77.630959 81.952077 
L 78.177634 82.446863 
L 78.668244 82.890726 
" style="fill:none;stroke:#9467bd;"/>
    <path clip-path="url(#p86035e8f09)" d="M 76.828376 65.610463 
L 76.504355 65.008847 
L 76.02242 63.985538 
L 74.924412 61.872574 
" style="fill:none;stroke:#8c564b;"/>
    <path clip-path="url(#p86035e8f09)" d="M 72.737551 48.663859 
L 72.76727 48.801371 
L 72.805664 48.997358 
L 72.865264 49.243627 
L 72.999402 49.933437 
L 74.259181 57.437326 
L 74.290988 57.609538 
" style="fill:none;stroke:#e377c2;"/>
    <path clip-path="url(#p86035e8f09)" d="M 77.376497 66.37433 
L 77.419711 66.608711 
L 77.42453 66.68582 
L 77.444289 66.997311 
L 77.389349 67.755074 
L 77.299548 68.293556 
L 77.28011 68.469301 
L 77.015367 70.058723 
L 76.829019 71.232877 
L 76.763154 71.650555 
L 76.59528 72.939409 
L 76.366683 74.649154 
L 76.345959 74.859439 
L 76.338088 74.932211 
" style="fill:none;stroke:#7f7f7f;"/>
    <path clip-path="url(#p86035e8f09)" d="M 104.170479 124.902128 
L 104.679724 127.153729 
L 104.995713 128.629092 
" style="fill:none;stroke:#bcbd22;"/>
    <path clip-path="url(#p86035e8f09)" d="M 102.949416 123.599618 
L 103.022831 123.410378 
L 103.007731 123.217926 
L 102.684834 121.843286 
L 102.639211 121.502879 
" style="fill:none;stroke:#17becf;"/>
    <path clip-path="url(#p86035e8f09)" d="M 81.548127 92.009579 
L 81.805641 93.463095 
" style="fill:none;stroke:#1f77b4;"/>
    <path clip-path="url(#p86035e8f09)" d="M 111.587299 160.931592 
L 111.299102 159.565788 
L 111.260386 159.389079 
" style="fill:none;stroke:#ff7f0e;"/>
    <path clip-path="url(#p86035e8f09)" d="M 108.54661 143.875108 
L 108.716251 144.600741 
L 108.811835 145.014402 
L 108.938102 145.567021 
" style="fill:none;stroke:#2ca02c;"/>
    <path clip-path="url(#p86035e8f09)" d="M 100.744242 214.835224 
L 101.004166 214.757632 
L 101.209952 214.663173 
L 101.662168 214.433611 
L 101.795664 214.373851 
L 102.376717 214.113927 
L 102.88066 213.939146 
L 103.173516 213.832477 
L 103.664929 213.689825 
L 104.581248 213.437933 
" style="fill:none;stroke:#d62728;"/>
    <path clip-path="url(#p86035e8f09)" d="M 117.142082 210.633071 
L 116.996698 211.014925 
L 116.809547 211.426336 
L 116.521671 211.869556 
L 116.136284 212.406592 
L 115.685032 212.878728 
L 115.341412 213.1507 
L 114.76566 213.53416 
L 114.102518 213.841152 
L 113.881149 213.911193 
L 113.23889 214.113927 
L 112.67342 214.19923 
L 111.506494 214.284532 
L 110.273062 214.351682 
L 109.815224 214.356983 
L 108.524923 214.245496 
L 107.383701 214.135133 
L 106.785619 214.079068 
L 106.489229 214.062682 
L 105.805524 214.062682 
L 105.188647 214.139631 
L 104.321967 214.334814 
L 103.893206 214.446463 
L 103.223959 214.660442 
L 102.294627 215.030407 
L 101.900244 215.239728 
L 101.559355 215.324548 
L 101.070994 215.418365 
L 100.615566 215.456438 
" style="fill:none;stroke:#9467bd;"/>
    <path clip-path="url(#p86035e8f09)" d="M 116.888906 210.226961 
L 116.919749 210.025833 
L 116.876375 209.516428 
L 116.721995 208.750633 
" style="fill:none;stroke:#8c564b;"/>
    <path clip-path="url(#p86035e8f09)" d="M 116.960071 208.691676 
L 116.991718 208.815212 
L 117.108668 209.61153 
L 117.217907 210.14455 
" style="fill:none;stroke:#e377c2;"/>
    <path clip-path="url(#p86035e8f09)" d="M 119.230789 179.392435 
L 119.570071 178.276274 
L 119.757383 177.697791 
L 119.945016 177.183084 
" style="fill:none;stroke:#7f7f7f;"/>
    <path clip-path="url(#p86035e8f09)" d="M 81.290131 92.023234 
L 81.171736 91.480896 
L 80.990528 90.671406 
" style="fill:none;stroke:#bcbd22;"/>
    <path clip-path="url(#p86035e8f09)" d="M 80.163849 86.202744 
L 81.263625 90.710764 
" style="fill:none;stroke:#17becf;"/>
    <path clip-path="url(#p86035e8f09)" d="M 92.194554 226.011779 
L 92.353271 226.087604 
L 92.531427 226.121018 
L 92.680826 226.16391 
L 94.406957 227.241517 
L 94.876844 227.527947 
L 94.985279 227.590759 
" style="fill:none;stroke:#1f77b4;"/>
    <path clip-path="url(#p86035e8f09)" d="M 95.090823 227.800883 
L 95.128896 228.023376 
L 95.066244 228.237837 
L 94.742384 228.780496 
L 94.615635 228.954314 
L 94.534188 229.043954 
L 94.381254 229.196567 
L 94.237637 229.323476 
L 94.075386 229.439783 
L 93.937231 229.534082 
L 93.750883 229.651835 
L 93.563089 229.736495 
L 93.385576 229.794327 
L 93.195212 229.843324 
L 93.059145 229.863886 
L 92.917617 229.874489 
L 92.583636 229.871918 
L 92.427489 229.858906 
L 92.271503 229.825331 
" style="fill:none;stroke:#ff7f0e;"/>
    <path clip-path="url(#p86035e8f09)" d="M 111.260386 159.389079 
L 110.761262 157.013781 
L 110.290733 155.042346 
L 109.239472 150.639066 
L 108.266606 146.373459 
L 108.234798 146.23418 
" style="fill:none;stroke:#2ca02c;"/>
    <path clip-path="url(#p86035e8f09)" d="M 112.113893 159.248514 
L 112.402894 160.440982 
" style="fill:none;stroke:#d62728;"/>
    <path clip-path="url(#p86035e8f09)" d="M 98.613768 220.573624 
L 98.774413 220.314986 
L 99.295867 219.355132 
" style="fill:none;stroke:#9467bd;"/>
    <path clip-path="url(#p86035e8f09)" d="M 99.295867 219.355132 
L 99.665832 218.605883 
L 99.96913 217.838964 
L 100.211704 217.127467 
L 100.363835 216.549467 
L 100.534119 215.78062 
L 100.615566 215.456438 
" style="fill:none;stroke:#8c564b;"/>
    <path clip-path="url(#p86035e8f09)" d="M 74.490349 58.805861 
L 74.650994 59.811981 
" style="fill:none;stroke:#e377c2;"/>
    <path clip-path="url(#p86035e8f09)" d="M 78.60768 83.154826 
L 78.033214 82.599637 
L 76.41086 81.095678 
L 76.081698 80.734066 
L 75.884587 80.468359 
L 75.809405 80.379362 
L 75.623699 80.024819 
L 75.50193 79.65662 
L 75.417913 79.131954 
L 75.402652 78.867532 
L 75.412772 78.609375 
L 75.508035 77.758278 
L 75.569723 77.363573 
L 75.635266 76.899952 
" style="fill:none;stroke:#7f7f7f;"/>
    <path clip-path="url(#p86035e8f09)" d="M 76.070935 76.954089 
L 75.850369 78.643271 
L 75.818722 78.897251 
L 75.797196 79.23814 
L 75.815188 79.503686 
L 75.875109 79.77871 
L 76.030292 80.191086 
L 76.090373 80.29406 
" style="fill:none;stroke:#bcbd22;"/>
    <path clip-path="url(#p86035e8f09)" d="M 78.668244 82.890726 
L 78.975236 83.176674 
L 79.497493 83.669211 
L 79.610105 83.838371 
L 79.673239 83.940701 
L 79.751152 84.252674 
L 79.867298 84.746818 
L 80.009469 85.368193 
L 80.163849 86.202744 
" style="fill:none;stroke:#17becf;"/>
    <path clip-path="url(#p86035e8f09)" d="M 83.350403 101.420164 
L 84.510903 103.37425 
" style="fill:none;stroke:#1f77b4;"/>
    <path clip-path="url(#p86035e8f09)" d="M 82.712803 100.083919 
L 82.569347 99.207118 
L 82.53529 99.000047 
L 82.464767 98.593294 
" style="fill:none;stroke:#ff7f0e;"/>
    <path clip-path="url(#p86035e8f09)" d="M 108.234798 146.23418 
L 107.90146 144.773434 
L 107.522498 143.111883 
L 107.386914 142.544646 
L 107.313338 142.236368 
L 107.232534 141.898531 
L 107.19928 141.759252 
L 107.159922 141.594912 
L 107.101287 141.349286 
L 106.919597 140.589114 
L 106.423044 138.510849 
L 106.1681 137.444166 
" style="fill:none;stroke:#2ca02c;"/>
    <path clip-path="url(#p86035e8f09)" d="M 108.938102 145.567021 
L 109.087341 146.222452 
L 109.124129 146.404303 
L 109.332164 147.293312 
L 110.066633 150.489345 
L 110.535556 152.531785 
L 110.675317 153.142397 
L 111.083355 154.93134 
L 111.835174 158.219101 
L 112.113893 159.248514 
" style="fill:none;stroke:#d62728;"/>
    <path clip-path="url(#p86035e8f09)" d="M 72.573372 49.30419 
L 72.47586 48.808761 
L 72.448551 48.65406 
L 72.403731 48.399759 
" style="fill:none;stroke:#9467bd;"/>
    <path clip-path="url(#p86035e8f09)" d="M 120.535387 177.274331 
L 120.505989 177.480438 
L 120.42149 178.072736 
L 120.382131 178.343423 
L 120.303576 178.886243 
" style="fill:none;stroke:#8c564b;"/>
    <path clip-path="url(#p86035e8f09)" d="M 112.44434 197.631588 
L 112.233092 196.579524 
L 111.868588 195.567621 
L 111.567379 195.006327 
L 110.875963 193.717633 
L 110.705197 193.248068 
L 110.651381 192.729988 
L 110.652184 192.062347 
L 110.819898 191.540893 
L 110.879818 191.354706 
L 111.09187 190.903293 
L 112.1155 189.428411 
L 114.336578 186.509009 
L 114.719877 186.189808 
" style="fill:none;stroke:#e377c2;"/>
    <path clip-path="url(#p86035e8f09)" d="M 107.063053 137.555815 
L 107.255185 138.384903 
L 107.354463 138.812701 
L 107.904673 141.178038 
L 107.972143 141.467842 
L 108.010538 141.631218 
L 108.040096 141.754754 
L 108.118812 142.082149 
L 108.429179 143.378554 
L 108.54661 143.875108 
" style="fill:none;stroke:#7f7f7f;"/>
    <path clip-path="url(#p86035e8f09)" d="M 113.434395 198.173605 
L 113.414315 200.571392 
L 113.375278 201.4302 
L 113.340097 202.018 
L 113.551184 203.23071 
L 113.905888 204.01273 
L 114.137378 204.52342 
L 115.018034 205.739824 
L 115.378843 206.238145 
L 115.898529 206.988839 
L 116.438296 207.768289 
L 116.859508 208.376973 
" style="fill:none;stroke:#bcbd22;"/>
    <path clip-path="url(#p86035e8f09)" d="M 81.263625 90.710764 
L 81.548127 92.009579 
" style="fill:none;stroke:#17becf;"/>
    <path clip-path="url(#p86035e8f09)" d="M 80.990528 90.671406 
L 80.688837 89.342711 
L 80.363049 87.972249 
" style="fill:none;stroke:#1f77b4;"/>
    <path clip-path="url(#p86035e8f09)" d="M 74.290988 57.609538 
L 74.451473 58.572123 
L 74.490349 58.805861 
" style="fill:none;stroke:#ff7f0e;"/>
    <path clip-path="url(#p86035e8f09)" d="M 74.439585 60.728461 
L 74.415488 60.495043 
" style="fill:none;stroke:#2ca02c;"/>
    <path clip-path="url(#p86035e8f09)" d="M 72.685502 48.423052 
L 72.737551 48.663859 
" style="fill:none;stroke:#d62728;"/>
    <path clip-path="url(#p86035e8f09)" d="M 74.811639 60.771674 
L 74.884572 60.990151 
L 75.175821 61.669519 
L 75.525706 62.350493 
L 75.776633 62.834677 
L 76.115755 63.573484 
L 76.548693 64.504422 
" style="fill:none;stroke:#9467bd;"/>
    <path clip-path="url(#p86035e8f09)" d="M 72.403731 48.399759 
L 72.368871 48.201202 
L 72.321159 47.874128 
L 72.297384 47.729066 
L 72.237624 47.36408 
" style="fill:none;stroke:#8c564b;"/>
    <path clip-path="url(#p86035e8f09)" d="M 100.615566 215.456438 
L 100.645928 215.322621 
L 100.680306 215.164546 
L 100.744242 214.835224 
" style="fill:none;stroke:#e377c2;"/>
    <path clip-path="url(#p86035e8f09)" d="M 82.868147 99.726484 
L 83.04582 100.784974 
L 83.103974 101.015178 
L 83.222209 101.243294 
L 83.350403 101.420164 
" style="fill:none;stroke:#7f7f7f;"/>
    <path clip-path="url(#p86035e8f09)" d="M 83.853543 102.69922 
L 83.11795 101.461771 
" style="fill:none;stroke:#bcbd22;"/>
    <path clip-path="url(#p86035e8f09)" d="M 84.510903 103.37425 
L 84.7244 103.643331 
L 84.855165 103.816345 
L 85.053401 103.943737 
L 85.49646 104.031128 
" style="fill:none;stroke:#17becf;"/>
    <path clip-path="url(#p86035e8f09)" d="M 101.477908 117.618483 
L 101.336219 117.245787 
L 101.152281 116.900721 
L 100.700226 116.222157 
L 100.554199 116.044162 
L 99.780372 115.101336 
L 98.928793 114.484781 
L 98.047173 113.925736 
L 96.865147 113.388378 
L 96.81599 113.356892 
L 95.846979 112.900018 
L 95.722318 112.843631 
L 94.581257 112.01888 
L 94.460773 111.888918 
L 92.84613 110.541106 
L 92.643557 110.370019 
L 91.071163 109.041485 
L 90.164001 108.283722 
L 89.598691 107.884198 
L 87.666453 106.555182 
L 86.174864 105.5285 
L 86.016307 105.343276 
L 85.886667 105.102309 
L 85.753653 104.931061 
L 85.600879 104.799493 
" style="fill:none;stroke:#1f77b4;"/>
    <path clip-path="url(#p86035e8f09)" d="M 113.421062 197.53488 
L 113.439215 197.590624 
L 113.434395 198.173605 
" style="fill:none;stroke:#ff7f0e;"/>
    <path clip-path="url(#p86035e8f09)" d="M 113.147644 196.304339 
L 113.221701 196.567154 
L 113.381222 197.307246 
L 113.421062 197.53488 
" style="fill:none;stroke:#2ca02c;"/>
    <path clip-path="url(#p86035e8f09)" d="M 82.121951 96.52756 
L 81.833111 94.97107 
" style="fill:none;stroke:#d62728;"/>
    <path clip-path="url(#p86035e8f09)" d="M 82.679389 98.566948 
L 82.868147 99.726484 
" style="fill:none;stroke:#9467bd;"/>
    <path clip-path="url(#p86035e8f09)" d="M 81.805641 93.463095 
L 82.083557 94.988902 
" style="fill:none;stroke:#8c564b;"/>
    <path clip-path="url(#p86035e8f09)" d="M 80.363049 87.972249 
L 79.95983 86.19937 
" style="fill:none;stroke:#e377c2;"/>
    <path clip-path="url(#p86035e8f09)" d="M 76.823878 69.910769 
L 76.900345 69.38803 
L 77.049745 68.439421 
" style="fill:none;stroke:#7f7f7f;"/>
    <path clip-path="url(#p86035e8f09)" d="M 82.464767 98.593294 
L 82.121951 96.52756 
" style="fill:none;stroke:#bcbd22;"/>
    <path clip-path="url(#p86035e8f09)" d="M 82.443883 97.047407 
L 82.62975 98.196822 
L 82.679389 98.566948 
" style="fill:none;stroke:#17becf;"/>
    <path clip-path="url(#p86035e8f09)" d="M 82.083557 94.988902 
L 82.353601 96.566596 
L 82.443883 97.047407 
" style="fill:none;stroke:#1f77b4;"/>
    <path clip-path="url(#p86035e8f09)" d="M 76.338088 74.932211 
L 76.096638 76.787661 
L 76.070935 76.954089 
" style="fill:none;stroke:#ff7f0e;"/>
    <path clip-path="url(#p86035e8f09)" d="M 77.049745 68.439421 
L 77.066292 68.326809 
L 77.145168 67.860617 
" style="fill:none;stroke:#2ca02c;"/>
    <path clip-path="url(#p86035e8f09)" d="M 77.144365 66.494331 
L 77.122517 66.408708 
L 77.073842 66.23505 
" style="fill:none;stroke:#d62728;"/>
    <path clip-path="url(#p86035e8f09)" d="M 77.073842 66.23505 
L 76.981471 65.948299 
L 76.828376 65.610463 
" style="fill:none;stroke:#9467bd;"/>
    <path clip-path="url(#p86035e8f09)" d="M 74.924412 61.872574 
L 74.659026 61.271119 
L 74.534847 60.98726 
L 74.439585 60.728461 
" style="fill:none;stroke:#8c564b;"/>
    <path clip-path="url(#p86035e8f09)" d="M 83.11795 101.461771 
L 82.9263 101.151084 
L 82.832484 100.845216 
L 82.712803 100.083919 
" style="fill:none;stroke:#e377c2;"/>
    <path clip-path="url(#p86035e8f09)" d="M 79.57396 84.40352 
L 79.517734 84.19179 
L 79.355644 83.858772 
L 79.119174 83.605114 
L 78.60768 83.154826 
" style="fill:none;stroke:#7f7f7f;"/>
    <path clip-path="url(#p86035e8f09)" d="M 76.245717 72.890252 
L 76.36604 72.34181 
L 76.530701 71.610875 
L 76.561706 71.450391 
L 76.727009 70.595438 
L 76.823878 69.910769 
" style="fill:none;stroke:#bcbd22;"/>
    <path clip-path="url(#p86035e8f09)" d="M 72.81209 50.674653 
L 72.714418 50.085889 
" style="fill:none;stroke:#17becf;"/>
    <path clip-path="url(#p86035e8f09)" d="M 72.714418 50.085889 
L 72.573372 49.30419 
" style="fill:none;stroke:#1f77b4;"/>
    <path clip-path="url(#p86035e8f09)" d="M 79.95983 86.19937 
L 79.57396 84.40352 
" style="fill:none;stroke:#ff7f0e;"/>
    <path clip-path="url(#p86035e8f09)" d="M 81.833111 94.97107 
L 81.769014 94.697492 
L 81.290131 92.023234 
" style="fill:none;stroke:#2ca02c;"/>
    <path clip-path="url(#p86035e8f09)" d="M 72.237624 47.36408 
L 72.143968 46.803108 
" style="fill:none;stroke:#d62728;"/>
    <path clip-path="url(#p86035e8f09)" d="M 68.4162 34.013837 
L 67.671128 32.443371 
L 67.564621 32.201761 
" style="fill:none;stroke:#9467bd;"/>
   </g>
   <g id="patch_3">
    <path d="M 64.885938 239.758125 
L 64.885938 22.318125 
" style="fill:none;stroke:#000000;stroke-linecap:square;stroke-linejoin:miter;stroke-width:0.8;"/>
   </g>
   <g id="patch_4">
    <path d="M 123.816971 239.758125 
L 123.816971 22.318125 
" style="fill:none;stroke:#000000;stroke-linecap:square;stroke-linejoin:miter;stroke-width:0.8;"/>
   </g>
   <g id="patch_5">
    <path d="M 64.885937 239.758125 
L 123.816971 239.758125 
" style="fill:none;stroke:#000000;stroke-linecap:square;stroke-linejoin:miter;stroke-width:0.8;"/>
   </g>
   <g id="patch_6">
    <path d="M 64.885937 22.318125 
L 123.816971 22.318125 
" style="fill:none;stroke:#000000;stroke-linecap:square;stroke-linejoin:miter;stroke-width:0.8;"/>
   </g>
   <g id="text_10">
    <!-- Victoria Road -->
    <defs>
     <path d="M 28.609375 0 
L 0.78125 72.90625 
L 11.078125 72.90625 
L 34.1875 11.53125 
L 57.328125 72.90625 
L 67.578125 72.90625 
L 39.796875 0 
z
" id="DejaVuSans-86"/>
     <path d="M 48.78125 52.59375 
L 48.78125 44.1875 
Q 44.96875 46.296875 41.140625 47.34375 
Q 37.3125 48.390625 33.40625 48.390625 
Q 24.65625 48.390625 19.8125 42.84375 
Q 14.984375 37.3125 14.984375 27.296875 
Q 14.984375 17.28125 19.8125 11.734375 
Q 24.65625 6.203125 33.40625 6.203125 
Q 37.3125 6.203125 41.140625 7.25 
Q 44.96875 8.296875 48.78125 10.40625 
L 48.78125 2.09375 
Q 45.015625 0.34375 40.984375 -0.53125 
Q 36.96875 -1.421875 32.421875 -1.421875 
Q 20.0625 -1.421875 12.78125 6.34375 
Q 5.515625 14.109375 5.515625 27.296875 
Q 5.515625 40.671875 12.859375 48.328125 
Q 20.21875 56 33.015625 56 
Q 37.15625 56 41.109375 55.140625 
Q 45.0625 54.296875 48.78125 52.59375 
z
" id="DejaVuSans-99"/>
     <path d="M 41.109375 46.296875 
Q 39.59375 47.171875 37.8125 47.578125 
Q 36.03125 48 33.890625 48 
Q 26.265625 48 22.1875 43.046875 
Q 18.109375 38.09375 18.109375 28.8125 
L 18.109375 0 
L 9.078125 0 
L 9.078125 54.6875 
L 18.109375 54.6875 
L 18.109375 46.1875 
Q 20.953125 51.171875 25.484375 53.578125 
Q 30.03125 56 36.53125 56 
Q 37.453125 56 38.578125 55.875 
Q 39.703125 55.765625 41.0625 55.515625 
z
" id="DejaVuSans-114"/>
     <path id="DejaVuSans-32"/>
     <path d="M 44.390625 34.1875 
Q 47.5625 33.109375 50.5625 29.59375 
Q 53.5625 26.078125 56.59375 19.921875 
L 66.609375 0 
L 56 0 
L 46.6875 18.703125 
Q 43.0625 26.03125 39.671875 28.421875 
Q 36.28125 30.8125 30.421875 30.8125 
L 19.671875 30.8125 
L 19.671875 0 
L 9.8125 0 
L 9.8125 72.90625 
L 32.078125 72.90625 
Q 44.578125 72.90625 50.734375 67.671875 
Q 56.890625 62.453125 56.890625 51.90625 
Q 56.890625 45.015625 53.6875 40.46875 
Q 50.484375 35.9375 44.390625 34.1875 
z
M 19.671875 64.796875 
L 19.671875 38.921875 
L 32.078125 38.921875 
Q 39.203125 38.921875 42.84375 42.21875 
Q 46.484375 45.515625 46.484375 51.90625 
Q 46.484375 58.296875 42.84375 61.546875 
Q 39.203125 64.796875 32.078125 64.796875 
z
" id="DejaVuSans-82"/>
    </defs>
    <g transform="translate(54.619267 16.318125)scale(0.12 -0.12)">
     <use xlink:href="#DejaVuSans-86"/>
     <use x="66.158203" xlink:href="#DejaVuSans-105"/>
     <use x="93.941406" xlink:href="#DejaVuSans-99"/>
     <use x="148.921875" xlink:href="#DejaVuSans-116"/>
     <use x="188.130859" xlink:href="#DejaVuSans-111"/>
     <use x="249.3125" xlink:href="#DejaVuSans-114"/>
     <use x="290.425781" xlink:href="#DejaVuSans-105"/>
     <use x="318.208984" xlink:href="#DejaVuSans-97"/>
     <use x="379.488281" xlink:href="#DejaVuSans-32"/>
     <use x="411.275391" xlink:href="#DejaVuSans-82"/>
     <use x="476.257812" xlink:href="#DejaVuSans-111"/>
     <use x="537.439453" xlink:href="#DejaVuSans-97"/>
     <use x="598.71875" xlink:href="#DejaVuSans-100"/>
    </g>
   </g>
  </g>
 </g>
 <defs>
  <clipPath id="p86035e8f09">
   <rect height="217.44" width="58.931033" x="64.885938" y="22.318125"/>
  </clipPath>
 </defs>
</svg>
