<?xml version="1.0" encoding="utf-8" standalone="no"?>
<!DOCTYPE svg PUBLIC "-//W3C//DTD SVG 1.1//EN"
  "http://www.w3.org/Graphics/SVG/1.1/DTD/svg11.dtd">
<!-- Created with matplotlib (https://matplotlib.org/) -->
<svg height="331.674375pt" version="1.1" viewBox="0 0 149.525646 331.674375" width="149.525646pt" xmlns="http://www.w3.org/2000/svg" xmlns:xlink="http://www.w3.org/1999/xlink">
 <defs>
  <style type="text/css">
*{stroke-linecap:butt;stroke-linejoin:round;}
  </style>
 </defs>
 <g id="figure_1">
  <g id="patch_1">
   <path d="M 0 331.674375 
L 149.525646 331.674375 
L 149.525646 0 
L 0 0 
z
" style="fill:none;"/>
  </g>
  <g id="axes_1">
   <g id="patch_2">
    <path d="M 64.885938 294.118125 
L 138.549729 294.118125 
L 138.549729 22.318125 
L 64.885938 22.318125 
z
" style="fill:#ffffff;"/>
   </g>
   <g id="matplotlib.axis_1">
    <g id="xtick_1">
     <g id="line2d_1">
      <defs>
       <path d="M 0 0 
L 0 3.5 
" id="m97a87f17a0" style="stroke:#000000;stroke-width:0.8;"/>
      </defs>
      <g>
       <use style="stroke:#000000;stroke-width:0.8;" x="70.723021" xlink:href="#m97a87f17a0" y="294.118125"/>
      </g>
     </g>
     <g id="text_1">
      <!-- 151.22 -->
      <defs>
       <path d="M 12.40625 8.296875 
L 28.515625 8.296875 
L 28.515625 63.921875 
L 10.984375 60.40625 
L 10.984375 69.390625 
L 28.421875 72.90625 
L 38.28125 72.90625 
L 38.28125 8.296875 
L 54.390625 8.296875 
L 54.390625 0 
L 12.40625 0 
z
" id="DejaVuSans-49"/>
       <path d="M 10.796875 72.90625 
L 49.515625 72.90625 
L 49.515625 64.59375 
L 19.828125 64.59375 
L 19.828125 46.734375 
Q 21.96875 47.46875 24.109375 47.828125 
Q 26.265625 48.1875 28.421875 48.1875 
Q 40.625 48.1875 47.75 41.5 
Q 54.890625 34.8125 54.890625 23.390625 
Q 54.890625 11.625 47.5625 5.09375 
Q 40.234375 -1.421875 26.90625 -1.421875 
Q 22.3125 -1.421875 17.546875 -0.640625 
Q 12.796875 0.140625 7.71875 1.703125 
L 7.71875 11.625 
Q 12.109375 9.234375 16.796875 8.0625 
Q 21.484375 6.890625 26.703125 6.890625 
Q 35.15625 6.890625 40.078125 11.328125 
Q 45.015625 15.765625 45.015625 23.390625 
Q 45.015625 31 40.078125 35.4375 
Q 35.15625 39.890625 26.703125 39.890625 
Q 22.75 39.890625 18.8125 39.015625 
Q 14.890625 38.140625 10.796875 36.28125 
z
" id="DejaVuSans-53"/>
       <path d="M 10.6875 12.40625 
L 21 12.40625 
L 21 0 
L 10.6875 0 
z
" id="DejaVuSans-46"/>
       <path d="M 19.1875 8.296875 
L 53.609375 8.296875 
L 53.609375 0 
L 7.328125 0 
L 7.328125 8.296875 
Q 12.9375 14.109375 22.625 23.890625 
Q 32.328125 33.6875 34.8125 36.53125 
Q 39.546875 41.84375 41.421875 45.53125 
Q 43.3125 49.21875 43.3125 52.78125 
Q 43.3125 58.59375 39.234375 62.25 
Q 35.15625 65.921875 28.609375 65.921875 
Q 23.96875 65.921875 18.8125 64.3125 
Q 13.671875 62.703125 7.8125 59.421875 
L 7.8125 69.390625 
Q 13.765625 71.78125 18.9375 73 
Q 24.125 74.21875 28.421875 74.21875 
Q 39.75 74.21875 46.484375 68.546875 
Q 53.21875 62.890625 53.21875 53.421875 
Q 53.21875 48.921875 51.53125 44.890625 
Q 49.859375 40.875 45.40625 35.40625 
Q 44.1875 33.984375 37.640625 27.21875 
Q 31.109375 20.453125 19.1875 8.296875 
z
" id="DejaVuSans-50"/>
      </defs>
      <g transform="translate(53.227708 308.716563)scale(0.1 -0.1)">
       <use xlink:href="#DejaVuSans-49"/>
       <use x="63.623047" xlink:href="#DejaVuSans-53"/>
       <use x="127.246094" xlink:href="#DejaVuSans-49"/>
       <use x="190.869141" xlink:href="#DejaVuSans-46"/>
       <use x="222.65625" xlink:href="#DejaVuSans-50"/>
       <use x="286.279297" xlink:href="#DejaVuSans-50"/>
      </g>
     </g>
    </g>
    <g id="xtick_2">
     <g id="line2d_2">
      <g>
       <use style="stroke:#000000;stroke-width:0.8;" x="118.637263" xlink:href="#m97a87f17a0" y="294.118125"/>
      </g>
     </g>
     <g id="text_2">
      <!-- 151.24 -->
      <defs>
       <path d="M 37.796875 64.3125 
L 12.890625 25.390625 
L 37.796875 25.390625 
z
M 35.203125 72.90625 
L 47.609375 72.90625 
L 47.609375 25.390625 
L 58.015625 25.390625 
L 58.015625 17.1875 
L 47.609375 17.1875 
L 47.609375 0 
L 37.796875 0 
L 37.796875 17.1875 
L 4.890625 17.1875 
L 4.890625 26.703125 
z
" id="DejaVuSans-52"/>
      </defs>
      <g transform="translate(101.141951 308.716563)scale(0.1 -0.1)">
       <use xlink:href="#DejaVuSans-49"/>
       <use x="63.623047" xlink:href="#DejaVuSans-53"/>
       <use x="127.246094" xlink:href="#DejaVuSans-49"/>
       <use x="190.869141" xlink:href="#DejaVuSans-46"/>
       <use x="222.65625" xlink:href="#DejaVuSans-50"/>
       <use x="286.279297" xlink:href="#DejaVuSans-52"/>
      </g>
     </g>
    </g>
    <g id="text_3">
     <!-- Longitude -->
     <defs>
      <path d="M 9.8125 72.90625 
L 19.671875 72.90625 
L 19.671875 8.296875 
L 55.171875 8.296875 
L 55.171875 0 
L 9.8125 0 
z
" id="DejaVuSans-76"/>
      <path d="M 30.609375 48.390625 
Q 23.390625 48.390625 19.1875 42.75 
Q 14.984375 37.109375 14.984375 27.296875 
Q 14.984375 17.484375 19.15625 11.84375 
Q 23.34375 6.203125 30.609375 6.203125 
Q 37.796875 6.203125 41.984375 11.859375 
Q 46.1875 17.53125 46.1875 27.296875 
Q 46.1875 37.015625 41.984375 42.703125 
Q 37.796875 48.390625 30.609375 48.390625 
z
M 30.609375 56 
Q 42.328125 56 49.015625 48.375 
Q 55.71875 40.765625 55.71875 27.296875 
Q 55.71875 13.875 49.015625 6.21875 
Q 42.328125 -1.421875 30.609375 -1.421875 
Q 18.84375 -1.421875 12.171875 6.21875 
Q 5.515625 13.875 5.515625 27.296875 
Q 5.515625 40.765625 12.171875 48.375 
Q 18.84375 56 30.609375 56 
z
" id="DejaVuSans-111"/>
      <path d="M 54.890625 33.015625 
L 54.890625 0 
L 45.90625 0 
L 45.90625 32.71875 
Q 45.90625 40.484375 42.875 44.328125 
Q 39.84375 48.1875 33.796875 48.1875 
Q 26.515625 48.1875 22.3125 43.546875 
Q 18.109375 38.921875 18.109375 30.90625 
L 18.109375 0 
L 9.078125 0 
L 9.078125 54.6875 
L 18.109375 54.6875 
L 18.109375 46.1875 
Q 21.34375 51.125 25.703125 53.5625 
Q 30.078125 56 35.796875 56 
Q 45.21875 56 50.046875 50.171875 
Q 54.890625 44.34375 54.890625 33.015625 
z
" id="DejaVuSans-110"/>
      <path d="M 45.40625 27.984375 
Q 45.40625 37.75 41.375 43.109375 
Q 37.359375 48.484375 30.078125 48.484375 
Q 22.859375 48.484375 18.828125 43.109375 
Q 14.796875 37.75 14.796875 27.984375 
Q 14.796875 18.265625 18.828125 12.890625 
Q 22.859375 7.515625 30.078125 7.515625 
Q 37.359375 7.515625 41.375 12.890625 
Q 45.40625 18.265625 45.40625 27.984375 
z
M 54.390625 6.78125 
Q 54.390625 -7.171875 48.1875 -13.984375 
Q 42 -20.796875 29.203125 -20.796875 
Q 24.46875 -20.796875 20.265625 -20.09375 
Q 16.0625 -19.390625 12.109375 -17.921875 
L 12.109375 -9.1875 
Q 16.0625 -11.328125 19.921875 -12.34375 
Q 23.78125 -13.375 27.78125 -13.375 
Q 36.625 -13.375 41.015625 -8.765625 
Q 45.40625 -4.15625 45.40625 5.171875 
L 45.40625 9.625 
Q 42.625 4.78125 38.28125 2.390625 
Q 33.9375 0 27.875 0 
Q 17.828125 0 11.671875 7.65625 
Q 5.515625 15.328125 5.515625 27.984375 
Q 5.515625 40.671875 11.671875 48.328125 
Q 17.828125 56 27.875 56 
Q 33.9375 56 38.28125 53.609375 
Q 42.625 51.21875 45.40625 46.390625 
L 45.40625 54.6875 
L 54.390625 54.6875 
z
" id="DejaVuSans-103"/>
      <path d="M 9.421875 54.6875 
L 18.40625 54.6875 
L 18.40625 0 
L 9.421875 0 
z
M 9.421875 75.984375 
L 18.40625 75.984375 
L 18.40625 64.59375 
L 9.421875 64.59375 
z
" id="DejaVuSans-105"/>
      <path d="M 18.3125 70.21875 
L 18.3125 54.6875 
L 36.8125 54.6875 
L 36.8125 47.703125 
L 18.3125 47.703125 
L 18.3125 18.015625 
Q 18.3125 11.328125 20.140625 9.421875 
Q 21.96875 7.515625 27.59375 7.515625 
L 36.8125 7.515625 
L 36.8125 0 
L 27.59375 0 
Q 17.1875 0 13.234375 3.875 
Q 9.28125 7.765625 9.28125 18.015625 
L 9.28125 47.703125 
L 2.6875 47.703125 
L 2.6875 54.6875 
L 9.28125 54.6875 
L 9.28125 70.21875 
z
" id="DejaVuSans-116"/>
      <path d="M 8.5 21.578125 
L 8.5 54.6875 
L 17.484375 54.6875 
L 17.484375 21.921875 
Q 17.484375 14.15625 20.5 10.265625 
Q 23.53125 6.390625 29.59375 6.390625 
Q 36.859375 6.390625 41.078125 11.03125 
Q 45.3125 15.671875 45.3125 23.6875 
L 45.3125 54.6875 
L 54.296875 54.6875 
L 54.296875 0 
L 45.3125 0 
L 45.3125 8.40625 
Q 42.046875 3.421875 37.71875 1 
Q 33.40625 -1.421875 27.6875 -1.421875 
Q 18.265625 -1.421875 13.375 4.4375 
Q 8.5 10.296875 8.5 21.578125 
z
M 31.109375 56 
z
" id="DejaVuSans-117"/>
      <path d="M 45.40625 46.390625 
L 45.40625 75.984375 
L 54.390625 75.984375 
L 54.390625 0 
L 45.40625 0 
L 45.40625 8.203125 
Q 42.578125 3.328125 38.25 0.953125 
Q 33.9375 -1.421875 27.875 -1.421875 
Q 17.96875 -1.421875 11.734375 6.484375 
Q 5.515625 14.40625 5.515625 27.296875 
Q 5.515625 40.1875 11.734375 48.09375 
Q 17.96875 56 27.875 56 
Q 33.9375 56 38.25 53.625 
Q 42.578125 51.265625 45.40625 46.390625 
z
M 14.796875 27.296875 
Q 14.796875 17.390625 18.875 11.75 
Q 22.953125 6.109375 30.078125 6.109375 
Q 37.203125 6.109375 41.296875 11.75 
Q 45.40625 17.390625 45.40625 27.296875 
Q 45.40625 37.203125 41.296875 42.84375 
Q 37.203125 48.484375 30.078125 48.484375 
Q 22.953125 48.484375 18.875 42.84375 
Q 14.796875 37.203125 14.796875 27.296875 
z
" id="DejaVuSans-100"/>
      <path d="M 56.203125 29.59375 
L 56.203125 25.203125 
L 14.890625 25.203125 
Q 15.484375 15.921875 20.484375 11.0625 
Q 25.484375 6.203125 34.421875 6.203125 
Q 39.59375 6.203125 44.453125 7.46875 
Q 49.3125 8.734375 54.109375 11.28125 
L 54.109375 2.78125 
Q 49.265625 0.734375 44.1875 -0.34375 
Q 39.109375 -1.421875 33.890625 -1.421875 
Q 20.796875 -1.421875 13.15625 6.1875 
Q 5.515625 13.8125 5.515625 26.8125 
Q 5.515625 40.234375 12.765625 48.109375 
Q 20.015625 56 32.328125 56 
Q 43.359375 56 49.78125 48.890625 
Q 56.203125 41.796875 56.203125 29.59375 
z
M 47.21875 32.234375 
Q 47.125 39.59375 43.09375 43.984375 
Q 39.0625 48.390625 32.421875 48.390625 
Q 24.90625 48.390625 20.390625 44.140625 
Q 15.875 39.890625 15.1875 32.171875 
z
" id="DejaVuSans-101"/>
     </defs>
     <g transform="translate(76.848302 322.394687)scale(0.1 -0.1)">
      <use xlink:href="#DejaVuSans-76"/>
      <use x="53.962891" xlink:href="#DejaVuSans-111"/>
      <use x="115.144531" xlink:href="#DejaVuSans-110"/>
      <use x="178.523438" xlink:href="#DejaVuSans-103"/>
      <use x="242" xlink:href="#DejaVuSans-105"/>
      <use x="269.783203" xlink:href="#DejaVuSans-116"/>
      <use x="308.992188" xlink:href="#DejaVuSans-117"/>
      <use x="372.371094" xlink:href="#DejaVuSans-100"/>
      <use x="435.847656" xlink:href="#DejaVuSans-101"/>
     </g>
    </g>
   </g>
   <g id="matplotlib.axis_2">
    <g id="ytick_1">
     <g id="line2d_3">
      <defs>
       <path d="M 0 0 
L -3.5 0 
" id="ma3d95e24ee" style="stroke:#000000;stroke-width:0.8;"/>
      </defs>
      <g>
       <use style="stroke:#000000;stroke-width:0.8;" x="64.885938" xlink:href="#ma3d95e24ee" y="258.252839"/>
      </g>
     </g>
     <g id="text_4">
      <!-- −33.98 -->
      <defs>
       <path d="M 10.59375 35.5 
L 73.1875 35.5 
L 73.1875 27.203125 
L 10.59375 27.203125 
z
" id="DejaVuSans-8722"/>
       <path d="M 40.578125 39.3125 
Q 47.65625 37.796875 51.625 33 
Q 55.609375 28.21875 55.609375 21.1875 
Q 55.609375 10.40625 48.1875 4.484375 
Q 40.765625 -1.421875 27.09375 -1.421875 
Q 22.515625 -1.421875 17.65625 -0.515625 
Q 12.796875 0.390625 7.625 2.203125 
L 7.625 11.71875 
Q 11.71875 9.328125 16.59375 8.109375 
Q 21.484375 6.890625 26.8125 6.890625 
Q 36.078125 6.890625 40.9375 10.546875 
Q 45.796875 14.203125 45.796875 21.1875 
Q 45.796875 27.640625 41.28125 31.265625 
Q 36.765625 34.90625 28.71875 34.90625 
L 20.21875 34.90625 
L 20.21875 43.015625 
L 29.109375 43.015625 
Q 36.375 43.015625 40.234375 45.921875 
Q 44.09375 48.828125 44.09375 54.296875 
Q 44.09375 59.90625 40.109375 62.90625 
Q 36.140625 65.921875 28.71875 65.921875 
Q 24.65625 65.921875 20.015625 65.03125 
Q 15.375 64.15625 9.8125 62.3125 
L 9.8125 71.09375 
Q 15.4375 72.65625 20.34375 73.4375 
Q 25.25 74.21875 29.59375 74.21875 
Q 40.828125 74.21875 47.359375 69.109375 
Q 53.90625 64.015625 53.90625 55.328125 
Q 53.90625 49.265625 50.4375 45.09375 
Q 46.96875 40.921875 40.578125 39.3125 
z
" id="DejaVuSans-51"/>
       <path d="M 10.984375 1.515625 
L 10.984375 10.5 
Q 14.703125 8.734375 18.5 7.8125 
Q 22.3125 6.890625 25.984375 6.890625 
Q 35.75 6.890625 40.890625 13.453125 
Q 46.046875 20.015625 46.78125 33.40625 
Q 43.953125 29.203125 39.59375 26.953125 
Q 35.25 24.703125 29.984375 24.703125 
Q 19.046875 24.703125 12.671875 31.3125 
Q 6.296875 37.9375 6.296875 49.421875 
Q 6.296875 60.640625 12.9375 67.421875 
Q 19.578125 74.21875 30.609375 74.21875 
Q 43.265625 74.21875 49.921875 64.515625 
Q 56.59375 54.828125 56.59375 36.375 
Q 56.59375 19.140625 48.40625 8.859375 
Q 40.234375 -1.421875 26.421875 -1.421875 
Q 22.703125 -1.421875 18.890625 -0.6875 
Q 15.09375 0.046875 10.984375 1.515625 
z
M 30.609375 32.421875 
Q 37.25 32.421875 41.125 36.953125 
Q 45.015625 41.5 45.015625 49.421875 
Q 45.015625 57.28125 41.125 61.84375 
Q 37.25 66.40625 30.609375 66.40625 
Q 23.96875 66.40625 20.09375 61.84375 
Q 16.21875 57.28125 16.21875 49.421875 
Q 16.21875 41.5 20.09375 36.953125 
Q 23.96875 32.421875 30.609375 32.421875 
z
" id="DejaVuSans-57"/>
       <path d="M 31.78125 34.625 
Q 24.75 34.625 20.71875 30.859375 
Q 16.703125 27.09375 16.703125 20.515625 
Q 16.703125 13.921875 20.71875 10.15625 
Q 24.75 6.390625 31.78125 6.390625 
Q 38.8125 6.390625 42.859375 10.171875 
Q 46.921875 13.96875 46.921875 20.515625 
Q 46.921875 27.09375 42.890625 30.859375 
Q 38.875 34.625 31.78125 34.625 
z
M 21.921875 38.8125 
Q 15.578125 40.375 12.03125 44.71875 
Q 8.5 49.078125 8.5 55.328125 
Q 8.5 64.0625 14.71875 69.140625 
Q 20.953125 74.21875 31.78125 74.21875 
Q 42.671875 74.21875 48.875 69.140625 
Q 55.078125 64.0625 55.078125 55.328125 
Q 55.078125 49.078125 51.53125 44.71875 
Q 48 40.375 41.703125 38.8125 
Q 48.828125 37.15625 52.796875 32.3125 
Q 56.78125 27.484375 56.78125 20.515625 
Q 56.78125 9.90625 50.3125 4.234375 
Q 43.84375 -1.421875 31.78125 -1.421875 
Q 19.734375 -1.421875 13.25 4.234375 
Q 6.78125 9.90625 6.78125 20.515625 
Q 6.78125 27.484375 10.78125 32.3125 
Q 14.796875 37.15625 21.921875 38.8125 
z
M 18.3125 54.390625 
Q 18.3125 48.734375 21.84375 45.5625 
Q 25.390625 42.390625 31.78125 42.390625 
Q 38.140625 42.390625 41.71875 45.5625 
Q 45.3125 48.734375 45.3125 54.390625 
Q 45.3125 60.0625 41.71875 63.234375 
Q 38.140625 66.40625 31.78125 66.40625 
Q 25.390625 66.40625 21.84375 63.234375 
Q 18.3125 60.0625 18.3125 54.390625 
z
" id="DejaVuSans-56"/>
      </defs>
      <g transform="translate(20.878125 262.052058)scale(0.1 -0.1)">
       <use xlink:href="#DejaVuSans-8722"/>
       <use x="83.789062" xlink:href="#DejaVuSans-51"/>
       <use x="147.412109" xlink:href="#DejaVuSans-51"/>
       <use x="211.035156" xlink:href="#DejaVuSans-46"/>
       <use x="242.822266" xlink:href="#DejaVuSans-57"/>
       <use x="306.445312" xlink:href="#DejaVuSans-56"/>
      </g>
     </g>
    </g>
    <g id="ytick_2">
     <g id="line2d_4">
      <g>
       <use style="stroke:#000000;stroke-width:0.8;" x="64.885938" xlink:href="#ma3d95e24ee" y="210.338597"/>
      </g>
     </g>
     <g id="text_5">
      <!-- −33.96 -->
      <defs>
       <path d="M 33.015625 40.375 
Q 26.375 40.375 22.484375 35.828125 
Q 18.609375 31.296875 18.609375 23.390625 
Q 18.609375 15.53125 22.484375 10.953125 
Q 26.375 6.390625 33.015625 6.390625 
Q 39.65625 6.390625 43.53125 10.953125 
Q 47.40625 15.53125 47.40625 23.390625 
Q 47.40625 31.296875 43.53125 35.828125 
Q 39.65625 40.375 33.015625 40.375 
z
M 52.59375 71.296875 
L 52.59375 62.3125 
Q 48.875 64.0625 45.09375 64.984375 
Q 41.3125 65.921875 37.59375 65.921875 
Q 27.828125 65.921875 22.671875 59.328125 
Q 17.53125 52.734375 16.796875 39.40625 
Q 19.671875 43.65625 24.015625 45.921875 
Q 28.375 48.1875 33.59375 48.1875 
Q 44.578125 48.1875 50.953125 41.515625 
Q 57.328125 34.859375 57.328125 23.390625 
Q 57.328125 12.15625 50.6875 5.359375 
Q 44.046875 -1.421875 33.015625 -1.421875 
Q 20.359375 -1.421875 13.671875 8.265625 
Q 6.984375 17.96875 6.984375 36.375 
Q 6.984375 53.65625 15.1875 63.9375 
Q 23.390625 74.21875 37.203125 74.21875 
Q 40.921875 74.21875 44.703125 73.484375 
Q 48.484375 72.75 52.59375 71.296875 
z
" id="DejaVuSans-54"/>
      </defs>
      <g transform="translate(20.878125 214.137816)scale(0.1 -0.1)">
       <use xlink:href="#DejaVuSans-8722"/>
       <use x="83.789062" xlink:href="#DejaVuSans-51"/>
       <use x="147.412109" xlink:href="#DejaVuSans-51"/>
       <use x="211.035156" xlink:href="#DejaVuSans-46"/>
       <use x="242.822266" xlink:href="#DejaVuSans-57"/>
       <use x="306.445312" xlink:href="#DejaVuSans-54"/>
      </g>
     </g>
    </g>
    <g id="ytick_3">
     <g id="line2d_5">
      <g>
       <use style="stroke:#000000;stroke-width:0.8;" x="64.885938" xlink:href="#ma3d95e24ee" y="162.424355"/>
      </g>
     </g>
     <g id="text_6">
      <!-- −33.94 -->
      <g transform="translate(20.878125 166.223574)scale(0.1 -0.1)">
       <use xlink:href="#DejaVuSans-8722"/>
       <use x="83.789062" xlink:href="#DejaVuSans-51"/>
       <use x="147.412109" xlink:href="#DejaVuSans-51"/>
       <use x="211.035156" xlink:href="#DejaVuSans-46"/>
       <use x="242.822266" xlink:href="#DejaVuSans-57"/>
       <use x="306.445312" xlink:href="#DejaVuSans-52"/>
      </g>
     </g>
    </g>
    <g id="ytick_4">
     <g id="line2d_6">
      <g>
       <use style="stroke:#000000;stroke-width:0.8;" x="64.885938" xlink:href="#ma3d95e24ee" y="114.510113"/>
      </g>
     </g>
     <g id="text_7">
      <!-- −33.92 -->
      <g transform="translate(20.878125 118.309331)scale(0.1 -0.1)">
       <use xlink:href="#DejaVuSans-8722"/>
       <use x="83.789062" xlink:href="#DejaVuSans-51"/>
       <use x="147.412109" xlink:href="#DejaVuSans-51"/>
       <use x="211.035156" xlink:href="#DejaVuSans-46"/>
       <use x="242.822266" xlink:href="#DejaVuSans-57"/>
       <use x="306.445312" xlink:href="#DejaVuSans-50"/>
      </g>
     </g>
    </g>
    <g id="ytick_5">
     <g id="line2d_7">
      <g>
       <use style="stroke:#000000;stroke-width:0.8;" x="64.885938" xlink:href="#ma3d95e24ee" y="66.595871"/>
      </g>
     </g>
     <g id="text_8">
      <!-- −33.90 -->
      <defs>
       <path d="M 31.78125 66.40625 
Q 24.171875 66.40625 20.328125 58.90625 
Q 16.5 51.421875 16.5 36.375 
Q 16.5 21.390625 20.328125 13.890625 
Q 24.171875 6.390625 31.78125 6.390625 
Q 39.453125 6.390625 43.28125 13.890625 
Q 47.125 21.390625 47.125 36.375 
Q 47.125 51.421875 43.28125 58.90625 
Q 39.453125 66.40625 31.78125 66.40625 
z
M 31.78125 74.21875 
Q 44.046875 74.21875 50.515625 64.515625 
Q 56.984375 54.828125 56.984375 36.375 
Q 56.984375 17.96875 50.515625 8.265625 
Q 44.046875 -1.421875 31.78125 -1.421875 
Q 19.53125 -1.421875 13.0625 8.265625 
Q 6.59375 17.96875 6.59375 36.375 
Q 6.59375 54.828125 13.0625 64.515625 
Q 19.53125 74.21875 31.78125 74.21875 
z
" id="DejaVuSans-48"/>
      </defs>
      <g transform="translate(20.878125 70.395089)scale(0.1 -0.1)">
       <use xlink:href="#DejaVuSans-8722"/>
       <use x="83.789062" xlink:href="#DejaVuSans-51"/>
       <use x="147.412109" xlink:href="#DejaVuSans-51"/>
       <use x="211.035156" xlink:href="#DejaVuSans-46"/>
       <use x="242.822266" xlink:href="#DejaVuSans-57"/>
       <use x="306.445312" xlink:href="#DejaVuSans-48"/>
      </g>
     </g>
    </g>
    <g id="text_9">
     <!-- Latiude -->
     <defs>
      <path d="M 34.28125 27.484375 
Q 23.390625 27.484375 19.1875 25 
Q 14.984375 22.515625 14.984375 16.5 
Q 14.984375 11.71875 18.140625 8.90625 
Q 21.296875 6.109375 26.703125 6.109375 
Q 34.1875 6.109375 38.703125 11.40625 
Q 43.21875 16.703125 43.21875 25.484375 
L 43.21875 27.484375 
z
M 52.203125 31.203125 
L 52.203125 0 
L 43.21875 0 
L 43.21875 8.296875 
Q 40.140625 3.328125 35.546875 0.953125 
Q 30.953125 -1.421875 24.3125 -1.421875 
Q 15.921875 -1.421875 10.953125 3.296875 
Q 6 8.015625 6 15.921875 
Q 6 25.140625 12.171875 29.828125 
Q 18.359375 34.515625 30.609375 34.515625 
L 43.21875 34.515625 
L 43.21875 35.40625 
Q 43.21875 41.609375 39.140625 45 
Q 35.0625 48.390625 27.6875 48.390625 
Q 23 48.390625 18.546875 47.265625 
Q 14.109375 46.140625 10.015625 43.890625 
L 10.015625 52.203125 
Q 14.9375 54.109375 19.578125 55.046875 
Q 24.21875 56 28.609375 56 
Q 40.484375 56 46.34375 49.84375 
Q 52.203125 43.703125 52.203125 31.203125 
z
" id="DejaVuSans-97"/>
     </defs>
     <g transform="translate(14.798438 176.836875)rotate(-90)scale(0.1 -0.1)">
      <use xlink:href="#DejaVuSans-76"/>
      <use x="55.712891" xlink:href="#DejaVuSans-97"/>
      <use x="116.992188" xlink:href="#DejaVuSans-116"/>
      <use x="156.201172" xlink:href="#DejaVuSans-105"/>
      <use x="183.984375" xlink:href="#DejaVuSans-117"/>
      <use x="247.363281" xlink:href="#DejaVuSans-100"/>
      <use x="310.839844" xlink:href="#DejaVuSans-101"/>
     </g>
    </g>
   </g>
   <g id="LineCollection_1">
    <path clip-path="url(#pdc7869a03d)" d="M 90.168963 125.004567 
L 89.67257 124.581469 
L 89.140433 123.742098 
L 88.595445 122.794494 
L 87.675953 121.247683 
L 87.436391 120.859324 
L 87.31912 120.476988 
L 87.16952 119.525367 
L 86.9902 118.429367 
L 86.947629 118.170528 
L 86.859475 117.662086 
L 86.430954 115.079918 
L 86.069904 113.134306 
L 85.989783 112.792333 
L 85.391179 109.449511 
L 85.243185 108.771589 
L 85.016676 107.759727 
L 84.639561 106.098858 
L 84.232326 104.38578 
L 83.728303 102.169682 
L 83.245966 99.924868 
L 83.175684 99.660206 
L 82.97307 99.243934 
L 82.677483 98.926861 
L 82.038116 98.364001 
L 81.320033 97.670015 
L 79.29209 95.790066 
L 78.880638 95.338052 
L 78.634249 95.005918 
L 78.540272 94.894671 
L 78.30814 94.451492 
L 78.155929 93.991244 
L 78.050907 93.335411 
L 78.03183 93.004884 
L 78.044481 92.682188 
L 78.163559 91.618316 
L 78.240669 91.124935 
L 78.322598 90.545408 
L 78.359546 90.327734 
L 78.650715 88.188144 
L 78.690073 87.926895 
L 78.936663 86.147149 
L 79.085662 85.533284 
L 79.236066 84.847731 
L 79.441892 83.934063 
L 79.480648 83.733457 
L 79.687277 82.664766 
L 79.808363 81.80893 
L 79.903947 81.155506 
L 80.090697 79.969745 
L 80.11138 79.82898 
L 80.209976 79.24624 
L 80.245719 79.046237 
L 80.271222 78.564704 
L 80.259776 77.934373 
L 80.208972 77.538383 
L 80.181662 77.431353 
L 80.120818 77.214282 
L 80.005354 76.855843 
L 79.813986 76.433547 
L 79.40896 75.681528 
L 78.806541 74.402392 
L 77.43403 71.761187 
L 77.102298 71.009368 
L 76.947075 70.654543 
L 76.827997 70.331044 
L 76.797876 70.039273 
L 76.591045 68.825801 
L 76.507108 68.174988 
L 76.331202 66.807898 
L 76.252888 66.272147 
L 75.372553 61.021867 
L 74.793628 57.763785 
L 74.671538 57.02783 
L 74.49523 56.050707 
L 74.373341 55.43142 
L 74.339204 55.238044 
L 74.283179 54.920167 
L 74.239604 54.671971 
L 74.179964 54.263129 
L 74.150245 54.081801 
L 74.075545 53.625569 
L 73.958475 52.924354 
L 73.884779 52.461696 
L 73.668712 51.141194 
L 73.604052 50.746811 
L 73.403246 49.685148 
L 72.884362 46.940528 
L 72.232545 44.614388 
L 72.123708 44.226631 
L 71.342371 42.127202 
L 70.852805 40.811318 
L 70.307416 39.350452 
L 69.298766 36.937765 
L 68.367426 34.974683 
L 68.234292 34.67267 
" style="fill:none;stroke:#1f77b4;stroke-width:1.5;"/>
   </g>
   <g id="LineCollection_2">
    <path clip-path="url(#pdc7869a03d)" d="M 68.557188 34.731105 
L 68.770444 35.056411 
L 69.138321 35.704614 
L 70.176892 37.975331 
L 71.196385 40.736016 
L 72.411464 43.902329 
L 72.597812 44.521214 
L 73.316297 46.906592 
L 73.669314 49.530326 
L 73.687387 49.652216 
L 73.781565 50.290177 
L 74.374947 53.616533 
L 74.576155 54.676188 
L 74.635393 54.949284 
L 74.700454 55.250293 
L 74.737603 55.422183 
L 74.785596 55.667167 
L 74.860095 55.975003 
L 75.027769 56.837265 
L 76.602491 66.217126 
L 76.642251 66.432391 
L 76.842856 67.635622 
L 76.891452 67.927795 
L 77.092258 69.185445 
L 77.153102 69.581033 
L 77.197882 69.929633 
L 77.222782 70.111362 
L 77.293064 70.385061 
L 77.38423 70.658158 
L 77.748292 71.507368 
L 78.185648 72.358585 
L 78.499307 72.963815 
L 78.923209 73.887323 
L 79.464382 75.050996 
L 80.122424 76.296999 
L 80.319215 76.777127 
L 80.40275 77.022311 
L 80.473434 77.267897 
L 80.499137 77.388381 
L 80.553154 77.681357 
L 80.559178 77.777744 
L 80.583877 78.167108 
L 80.515201 79.114311 
L 80.402951 79.787413 
L 80.378653 80.007095 
L 80.047724 81.993873 
L 79.814789 83.461566 
L 79.732459 83.983662 
L 79.522616 85.594731 
L 79.236869 87.731912 
L 79.210965 87.994767 
L 79.201125 88.085732 
L 78.899313 90.405045 
L 78.867184 90.61308 
L 78.591477 92.724558 
L 78.551919 93.042033 
L 78.525011 93.468144 
L 78.547501 93.800076 
L 78.622402 94.143857 
L 78.81638 94.659326 
L 78.891482 94.788043 
L 79.079838 95.134032 
L 79.61579 95.743078 
L 80.114392 96.195294 
L 80.817214 96.860565 
L 81.500558 97.479048 
L 82.11382 98.033876 
L 82.497561 98.391311 
L 83.150382 99.006983 
L 83.291147 99.218432 
L 83.370064 99.346345 
L 83.467455 99.736311 
L 83.612638 100.353991 
L 83.790352 101.13071 
L 83.983327 102.173899 
L 85.358046 107.808924 
L 85.713674 109.432443 
L 86.035567 111.249338 
L 86.382961 113.156596 
L 86.720517 115.128714 
L 86.83337 115.729727 
L 87.065703 117.166496 
L 87.127752 117.629154 
L 87.363699 119.078574 
L 87.585791 120.401686 
L 87.658483 120.689441 
L 87.806276 120.974586 
L 87.96652 121.195674 
L 89.417144 123.638281 
L 89.684016 123.974632 
L 89.847472 124.1909 
L 90.095267 124.35014 
L 90.649091 124.459378 
" style="fill:none;stroke:#ff7f0e;stroke-width:1.5;"/>
   </g>
   <g id="LineCollection_3">
    <path clip-path="url(#pdc7869a03d)" d="M 129.533618 254.964979 
L 129.207308 254.3973 
L 129.031 254.167577 
L 126.225736 250.339206 
L 125.382752 248.974727 
L 124.827522 247.662057 
L 124.500208 246.341153 
L 124.400809 245.938737 
L 124.333941 241.459954 
L 124.06988 240.144874 
L 123.614251 238.879995 
L 123.237739 238.178378 
L 122.373469 236.56751 
L 122.160012 235.980553 
L 122.092742 235.332953 
L 122.093746 234.498402 
L 122.303388 233.846585 
L 122.378288 233.613851 
L 122.643353 233.049585 
L 123.92289 231.205983 
L 126.699238 227.55673 
L 127.178361 227.157728 
L 127.748049 226.533422 
L 129.228192 225.282399 
L 130.25632 224.215113 
L 130.944684 223.416908 
L 131.345895 222.740191 
L 131.459953 222.54802 
L 131.556541 222.284963 
L 132.332657 220.17208 
L 132.577038 219.359015 
L 132.599127 219.28552 
L 132.817001 218.661013 
L 133.241104 217.265811 
L 133.475244 216.542707 
L 133.709786 215.899324 
L 133.79292 214.637257 
L 133.966818 212.963135 
L 133.984489 210.886597 
L 134.000353 210.157871 
L 133.935693 209.580553 
L 133.929468 209.525532 
L 133.909789 209.434567 
L 133.74573 208.67813 
L 132.93628 206.975293 
L 132.01478 205.970659 
L 130.852112 205.207796 
L 129.991456 204.383888 
L 129.517353 203.720223 
L 129.44928 203.625242 
L 129.269156 203.372828 
L 128.858507 202.650528 
L 127.826363 201.104922 
L 126.990005 200.219969 
L 125.957259 199.466142 
L 125.271706 198.940231 
L 124.901018 198.655688 
L 124.235144 197.897845 
L 124.065463 197.652862 
L 123.679513 196.971325 
L 123.538346 196.502041 
L 123.477301 196.298825 
L 123.352801 195.884963 
L 123.262639 195.584959 
L 122.902393 193.877704 
L 122.853998 193.656817 
L 122.230093 190.687695 
L 121.641932 188.223401 
L 120.327856 182.719301 
L 119.111773 177.387292 
L 119.072013 177.213193 
L 118.65534 175.387262 
L 118.181638 173.310323 
L 118.012158 172.601276 
L 117.920188 172.215928 
L 117.819183 171.793633 
L 117.777616 171.619534 
L 117.728418 171.414109 
L 117.655124 171.107076 
L 117.428012 170.156861 
L 116.80732 167.55903 
L 116.488641 166.225677 
L 116.058714 164.362395 
L 115.665134 162.522207 
L 115.569751 162.183848 
L 115.260911 160.71736 
L 114.755682 158.856488 
L 114.709899 158.666325 
L 114.247442 156.740191 
L 113.921132 155.385953 
L 113.815708 154.941368 
L 113.741812 154.622287 
L 113.485382 153.492752 
L 113.139794 151.950961 
L 112.610067 149.658155 
L 112.465286 148.919992 
L 112.034557 146.992653 
L 111.703026 145.697051 
L 111.471295 144.736193 
L 110.951006 142.578329 
L 110.683733 141.644981 
L 110.625901 141.443573 
L 110.44879 140.977702 
L 110.218866 140.54637 
L 109.653798 139.698164 
L 109.471265 139.475671 
L 108.503981 138.297139 
L 107.439507 137.526445 
L 106.337482 136.827639 
L 104.859949 136.155942 
L 104.798503 136.116584 
L 103.587239 135.545491 
L 103.431414 135.475008 
L 102.005087 134.444068 
L 101.854482 134.281616 
L 99.836178 132.596852 
L 99.582962 132.382993 
L 97.61747 130.722325 
L 96.483517 129.775122 
L 95.77688 129.275717 
L 93.361582 127.614446 
L 91.497096 126.331094 
L 91.2989 126.099564 
L 91.136849 125.798354 
L 90.970581 125.584295 
L 90.779615 125.419835 
" style="fill:none;stroke:#2ca02c;stroke-width:1.5;"/>
   </g>
   <g id="LineCollection_4">
    <path clip-path="url(#pdc7869a03d)" d="M 91.31637 125.039508 
L 92.030236 125.628673 
L 96.715448 128.806432 
L 98.635156 130.349428 
L 103.961944 134.639051 
L 107.742925 136.496108 
L 108.674064 137.143306 
L 109.731911 138.077457 
L 110.893977 139.541736 
L 111.585955 140.866455 
L 111.925519 141.832333 
L 112.93698 146.205292 
L 115.023156 155.206834 
L 123.572483 192.194345 
L 124.414866 195.647209 
L 124.649206 196.545817 
L 125.434761 197.656677 
L 126.627148 198.684604 
L 127.71592 199.494054 
L 129.167548 201.057532 
L 130.997697 203.893519 
L 131.707948 204.546742 
L 133.271225 205.691337 
L 133.874046 206.389942 
L 134.597952 207.958039 
L 135.166435 209.833368 
L 135.201375 210.680972 
L 133.834085 219.739142 
L 133.427854 221.203823 
L 132.442899 223.175941 
L 131.937872 223.889004 
L 127.706281 228.170394 
L 123.81827 233.290553 
L 123.215851 234.757242 
L 123.306013 235.742196 
L 123.540555 236.348631 
L 125.092988 239.373376 
L 125.577534 241.408749 
L 125.453636 246.942969 
L 125.717496 248.458856 
L 126.450238 250.074744 
L 129.8529 254.891685 
L 129.8529 254.891685 
" style="fill:none;stroke:#d62728;stroke-width:1.5;"/>
   </g>
   <g id="LineCollection_5">
    <path clip-path="url(#pdc7869a03d)" d="M 102.642044 279.171572 
L 102.689635 279.449689 
L 102.611321 279.717765 
L 102.206495 280.396089 
L 102.048059 280.613361 
L 101.946251 280.725411 
L 101.755083 280.916177 
L 101.575562 281.074814 
L 101.372748 281.220198 
L 101.200054 281.338071 
L 100.967119 281.485262 
L 100.732377 281.591087 
L 100.510486 281.663377 
L 100.27253 281.724623 
L 100.102447 281.750326 
L 99.925537 281.76358 
L 99.508061 281.760367 
L 99.312877 281.744101 
L 99.117894 281.702133 
L 98.681743 281.536468 
L 98.294187 281.316183 
L 97.238749 280.62561 
L 96.406006 280.101908 
L 95.551575 279.530212 
L 95.372255 279.387439 
L 95.206791 279.19105 
L 95.084901 278.863535 
L 95.084901 278.571965 
L 95.178075 278.292041 
L 95.337917 278.092038 
L 95.623263 277.869544 
L 95.94636 277.732394 
L 97.080715 277.428975 
L 98.265472 277.042022 
L 98.567283 276.880975 
" style="fill:none;stroke:#9467bd;stroke-width:1.5;"/>
   </g>
   <g id="LineCollection_6">
    <path clip-path="url(#pdc7869a03d)" d="M 99.021708 276.935193 
L 99.220105 277.029973 
L 99.442799 277.071741 
L 99.629549 277.125356 
L 101.787212 278.472365 
L 102.37457 278.830402 
L 102.510115 278.908918 
" style="fill:none;stroke:#8c564b;stroke-width:1.5;"/>
   </g>
   <g id="LineCollection_7">
    <path clip-path="url(#pdc7869a03d)" d="M 102.781203 278.840041 
L 102.910522 278.774377 
L 102.975182 278.649275 
L 103.338842 277.688417 
L 103.574187 277.030576 
L 103.626597 276.883987 
L 103.976402 275.970519 
L 104.528418 274.822309 
L 105.204734 273.513856 
L 105.442488 273.054411 
L 105.744099 272.51625 
L 107.045726 270.137499 
L 107.246532 269.814201 
L 107.898349 268.614383 
L 108.360806 267.677823 
L 108.739928 266.719174 
L 109.043146 265.829803 
L 109.233309 265.107302 
L 109.446164 264.146243 
L 109.547973 263.741016 
" style="fill:none;stroke:#e377c2;stroke-width:1.5;"/>
   </g>
   <g id="LineCollection_8">
    <path clip-path="url(#pdc7869a03d)" d="M 130.206118 257.711808 
L 130.024389 258.189124 
L 129.790449 258.703389 
L 129.430605 259.257414 
L 128.94887 259.928709 
L 128.384806 260.518879 
L 127.955281 260.858844 
L 127.235591 261.338168 
L 126.406663 261.721909 
L 126.129952 261.809461 
L 125.327128 262.062878 
L 124.62029 262.169506 
L 123.161634 262.276134 
L 121.619843 262.360071 
L 121.047545 262.366698 
L 119.434669 262.227338 
L 118.008142 262.089385 
L 117.26054 262.019303 
L 116.890052 261.998821 
L 116.035421 261.998821 
L 115.264325 262.095007 
L 114.180975 262.338987 
L 113.645023 262.478547 
L 112.808464 262.746021 
L 111.6468 263.208478 
L 111.15382 263.470128 
L 110.727709 263.576154 
L 110.117258 263.693425 
L 109.547973 263.741016 
" style="fill:none;stroke:#7f7f7f;stroke-width:1.5;"/>
   </g>
   <g id="LineCollection_9">
    <path clip-path="url(#pdc7869a03d)" d="M 109.547973 263.741016 
L 109.585925 263.573744 
L 109.628898 263.376151 
L 109.708818 262.964498 
L 110.033723 262.867509 
L 110.290956 262.749435 
L 110.856225 262.462483 
L 111.023095 262.387783 
L 111.749412 262.062878 
L 112.379341 261.844401 
L 112.745411 261.711066 
L 113.359677 261.53275 
L 114.505076 261.217885 
L 115.997067 261.020694 
L 116.860735 261.030533 
L 118.495498 261.152422 
L 119.542904 261.251822 
L 121.208391 261.422507 
L 125.419499 261.118285 
L 125.946214 261.04961 
L 126.506664 260.976918 
L 127.130369 260.740368 
L 128.138015 260.16064 
L 128.430991 259.817864 
L 128.487618 259.751397 
L 129.091644 259.08211 
L 129.487433 258.391939 
L 129.78563 258.032696 
L 129.884828 257.589115 
" style="fill:none;stroke:#bcbd22;stroke-width:1.5;"/>
   </g>
   <g id="LineCollection_10">
    <path clip-path="url(#pdc7869a03d)" d="M 112.465286 148.919992 
L 112.557055 148.683442 
L 112.538179 148.442876 
L 112.134558 146.724577 
L 112.077529 146.299068 
" style="fill:none;stroke:#1f77b4;stroke-width:1.5;"/>
   </g>
   <g id="LineCollection_11">
    <path clip-path="url(#pdc7869a03d)" d="M 129.889648 257.20417 
L 129.928202 256.95276 
L 129.873985 256.316004 
L 129.68101 255.35876 
" style="fill:none;stroke:#ff7f0e;stroke-width:1.5;"/>
   </g>
   <g id="LineCollection_12">
    <path clip-path="url(#pdc7869a03d)" d="M 129.978605 255.285064 
L 130.018164 255.439484 
L 130.164351 256.434881 
L 130.300899 257.101156 
" style="fill:none;stroke:#2ca02c;stroke-width:1.5;"/>
   </g>
   <g id="patch_3">
    <path d="M 64.885938 294.118125 
L 64.885938 22.318125 
" style="fill:none;stroke:#000000;stroke-linecap:square;stroke-linejoin:miter;stroke-width:0.8;"/>
   </g>
   <g id="patch_4">
    <path d="M 138.549729 294.118125 
L 138.549729 22.318125 
" style="fill:none;stroke:#000000;stroke-linecap:square;stroke-linejoin:miter;stroke-width:0.8;"/>
   </g>
   <g id="patch_5">
    <path d="M 64.885938 294.118125 
L 138.549729 294.118125 
" style="fill:none;stroke:#000000;stroke-linecap:square;stroke-linejoin:miter;stroke-width:0.8;"/>
   </g>
   <g id="patch_6">
    <path d="M 64.885938 22.318125 
L 138.549729 22.318125 
" style="fill:none;stroke:#000000;stroke-linecap:square;stroke-linejoin:miter;stroke-width:0.8;"/>
   </g>
   <g id="text_10">
    <!-- Anzac Parade -->
    <defs>
     <path d="M 34.1875 63.1875 
L 20.796875 26.90625 
L 47.609375 26.90625 
z
M 28.609375 72.90625 
L 39.796875 72.90625 
L 67.578125 0 
L 57.328125 0 
L 50.6875 18.703125 
L 17.828125 18.703125 
L 11.1875 0 
L 0.78125 0 
z
" id="DejaVuSans-65"/>
     <path d="M 5.515625 54.6875 
L 48.1875 54.6875 
L 48.1875 46.484375 
L 14.40625 7.171875 
L 48.1875 7.171875 
L 48.1875 0 
L 4.296875 0 
L 4.296875 8.203125 
L 38.09375 47.515625 
L 5.515625 47.515625 
z
" id="DejaVuSans-122"/>
     <path d="M 48.78125 52.59375 
L 48.78125 44.1875 
Q 44.96875 46.296875 41.140625 47.34375 
Q 37.3125 48.390625 33.40625 48.390625 
Q 24.65625 48.390625 19.8125 42.84375 
Q 14.984375 37.3125 14.984375 27.296875 
Q 14.984375 17.28125 19.8125 11.734375 
Q 24.65625 6.203125 33.40625 6.203125 
Q 37.3125 6.203125 41.140625 7.25 
Q 44.96875 8.296875 48.78125 10.40625 
L 48.78125 2.09375 
Q 45.015625 0.34375 40.984375 -0.53125 
Q 36.96875 -1.421875 32.421875 -1.421875 
Q 20.0625 -1.421875 12.78125 6.34375 
Q 5.515625 14.109375 5.515625 27.296875 
Q 5.515625 40.671875 12.859375 48.328125 
Q 20.21875 56 33.015625 56 
Q 37.15625 56 41.109375 55.140625 
Q 45.0625 54.296875 48.78125 52.59375 
z
" id="DejaVuSans-99"/>
     <path id="DejaVuSans-32"/>
     <path d="M 19.671875 64.796875 
L 19.671875 37.40625 
L 32.078125 37.40625 
Q 38.96875 37.40625 42.71875 40.96875 
Q 46.484375 44.53125 46.484375 51.125 
Q 46.484375 57.671875 42.71875 61.234375 
Q 38.96875 64.796875 32.078125 64.796875 
z
M 9.8125 72.90625 
L 32.078125 72.90625 
Q 44.34375 72.90625 50.609375 67.359375 
Q 56.890625 61.8125 56.890625 51.125 
Q 56.890625 40.328125 50.609375 34.8125 
Q 44.34375 29.296875 32.078125 29.296875 
L 19.671875 29.296875 
L 19.671875 0 
L 9.8125 0 
z
" id="DejaVuSans-80"/>
     <path d="M 41.109375 46.296875 
Q 39.59375 47.171875 37.8125 47.578125 
Q 36.03125 48 33.890625 48 
Q 26.265625 48 22.1875 43.046875 
Q 18.109375 38.09375 18.109375 28.8125 
L 18.109375 0 
L 9.078125 0 
L 9.078125 54.6875 
L 18.109375 54.6875 
L 18.109375 46.1875 
Q 20.953125 51.171875 25.484375 53.578125 
Q 30.03125 56 36.53125 56 
Q 37.453125 56 38.578125 55.875 
Q 39.703125 55.765625 41.0625 55.515625 
z
" id="DejaVuSans-114"/>
    </defs>
    <g transform="translate(61.110021 16.318125)scale(0.12 -0.12)">
     <use xlink:href="#DejaVuSans-65"/>
     <use x="68.408203" xlink:href="#DejaVuSans-110"/>
     <use x="131.787109" xlink:href="#DejaVuSans-122"/>
     <use x="184.277344" xlink:href="#DejaVuSans-97"/>
     <use x="245.556641" xlink:href="#DejaVuSans-99"/>
     <use x="300.537109" xlink:href="#DejaVuSans-32"/>
     <use x="332.324219" xlink:href="#DejaVuSans-80"/>
     <use x="388.126953" xlink:href="#DejaVuSans-97"/>
     <use x="449.40625" xlink:href="#DejaVuSans-114"/>
     <use x="490.519531" xlink:href="#DejaVuSans-97"/>
     <use x="551.798828" xlink:href="#DejaVuSans-100"/>
     <use x="615.275391" xlink:href="#DejaVuSans-101"/>
    </g>
   </g>
  </g>
 </g>
 <defs>
  <clipPath id="pdc7869a03d">
   <rect height="271.8" width="73.663792" x="64.885938" y="22.318125"/>
  </clipPath>
 </defs>
</svg>
