<?xml version="1.0" encoding="utf-8" standalone="no"?>
<!DOCTYPE svg PUBLIC "-//W3C//DTD SVG 1.1//EN"
  "http://www.w3.org/Graphics/SVG/1.1/DTD/svg11.dtd">
<!-- Created with matplotlib (https://matplotlib.org/) -->
<svg height="331.674375pt" version="1.1" viewBox="0 0 418.33991 331.674375" width="418.33991pt" xmlns="http://www.w3.org/2000/svg" xmlns:xlink="http://www.w3.org/1999/xlink">
 <defs>
  <style type="text/css">
*{stroke-linecap:butt;stroke-linejoin:round;}
  </style>
 </defs>
 <g id="figure_1">
  <g id="patch_1">
   <path d="M 0 331.674375 
L 418.33991 331.674375 
L 418.33991 0 
L 0 0 
z
" style="fill:none;"/>
  </g>
  <g id="axes_1">
   <g id="patch_2">
    <path d="M 58.523437 294.118125 
L 403.139418 294.118125 
L 403.139418 22.318125 
L 58.523437 22.318125 
z
" style="fill:#ffffff;"/>
   </g>
   <g id="matplotlib.axis_1">
    <g id="xtick_1">
     <g id="line2d_1">
      <defs>
       <path d="M 0 0 
L 0 3.5 
" id="m2e8b3a94eb" style="stroke:#000000;stroke-width:0.8;"/>
      </defs>
      <g>
       <use style="stroke:#000000;stroke-width:0.8;" x="113.389594" xlink:href="#m2e8b3a94eb" y="294.118125"/>
      </g>
     </g>
     <g id="text_1">
      <!-- 150.8 -->
      <defs>
       <path d="M 12.40625 8.296875 
L 28.515625 8.296875 
L 28.515625 63.921875 
L 10.984375 60.40625 
L 10.984375 69.390625 
L 28.421875 72.90625 
L 38.28125 72.90625 
L 38.28125 8.296875 
L 54.390625 8.296875 
L 54.390625 0 
L 12.40625 0 
z
" id="DejaVuSans-49"/>
       <path d="M 10.796875 72.90625 
L 49.515625 72.90625 
L 49.515625 64.59375 
L 19.828125 64.59375 
L 19.828125 46.734375 
Q 21.96875 47.46875 24.109375 47.828125 
Q 26.265625 48.1875 28.421875 48.1875 
Q 40.625 48.1875 47.75 41.5 
Q 54.890625 34.8125 54.890625 23.390625 
Q 54.890625 11.625 47.5625 5.09375 
Q 40.234375 -1.421875 26.90625 -1.421875 
Q 22.3125 -1.421875 17.546875 -0.640625 
Q 12.796875 0.140625 7.71875 1.703125 
L 7.71875 11.625 
Q 12.109375 9.234375 16.796875 8.0625 
Q 21.484375 6.890625 26.703125 6.890625 
Q 35.15625 6.890625 40.078125 11.328125 
Q 45.015625 15.765625 45.015625 23.390625 
Q 45.015625 31 40.078125 35.4375 
Q 35.15625 39.890625 26.703125 39.890625 
Q 22.75 39.890625 18.8125 39.015625 
Q 14.890625 38.140625 10.796875 36.28125 
z
" id="DejaVuSans-53"/>
       <path d="M 31.78125 66.40625 
Q 24.171875 66.40625 20.328125 58.90625 
Q 16.5 51.421875 16.5 36.375 
Q 16.5 21.390625 20.328125 13.890625 
Q 24.171875 6.390625 31.78125 6.390625 
Q 39.453125 6.390625 43.28125 13.890625 
Q 47.125 21.390625 47.125 36.375 
Q 47.125 51.421875 43.28125 58.90625 
Q 39.453125 66.40625 31.78125 66.40625 
z
M 31.78125 74.21875 
Q 44.046875 74.21875 50.515625 64.515625 
Q 56.984375 54.828125 56.984375 36.375 
Q 56.984375 17.96875 50.515625 8.265625 
Q 44.046875 -1.421875 31.78125 -1.421875 
Q 19.53125 -1.421875 13.0625 8.265625 
Q 6.59375 17.96875 6.59375 36.375 
Q 6.59375 54.828125 13.0625 64.515625 
Q 19.53125 74.21875 31.78125 74.21875 
z
" id="DejaVuSans-48"/>
       <path d="M 10.6875 12.40625 
L 21 12.40625 
L 21 0 
L 10.6875 0 
z
" id="DejaVuSans-46"/>
       <path d="M 31.78125 34.625 
Q 24.75 34.625 20.71875 30.859375 
Q 16.703125 27.09375 16.703125 20.515625 
Q 16.703125 13.921875 20.71875 10.15625 
Q 24.75 6.390625 31.78125 6.390625 
Q 38.8125 6.390625 42.859375 10.171875 
Q 46.921875 13.96875 46.921875 20.515625 
Q 46.921875 27.09375 42.890625 30.859375 
Q 38.875 34.625 31.78125 34.625 
z
M 21.921875 38.8125 
Q 15.578125 40.375 12.03125 44.71875 
Q 8.5 49.078125 8.5 55.328125 
Q 8.5 64.0625 14.71875 69.140625 
Q 20.953125 74.21875 31.78125 74.21875 
Q 42.671875 74.21875 48.875 69.140625 
Q 55.078125 64.0625 55.078125 55.328125 
Q 55.078125 49.078125 51.53125 44.71875 
Q 48 40.375 41.703125 38.8125 
Q 48.828125 37.15625 52.796875 32.3125 
Q 56.78125 27.484375 56.78125 20.515625 
Q 56.78125 9.90625 50.3125 4.234375 
Q 43.84375 -1.421875 31.78125 -1.421875 
Q 19.734375 -1.421875 13.25 4.234375 
Q 6.78125 9.90625 6.78125 20.515625 
Q 6.78125 27.484375 10.78125 32.3125 
Q 14.796875 37.15625 21.921875 38.8125 
z
M 18.3125 54.390625 
Q 18.3125 48.734375 21.84375 45.5625 
Q 25.390625 42.390625 31.78125 42.390625 
Q 38.140625 42.390625 41.71875 45.5625 
Q 45.3125 48.734375 45.3125 54.390625 
Q 45.3125 60.0625 41.71875 63.234375 
Q 38.140625 66.40625 31.78125 66.40625 
Q 25.390625 66.40625 21.84375 63.234375 
Q 18.3125 60.0625 18.3125 54.390625 
z
" id="DejaVuSans-56"/>
      </defs>
      <g transform="translate(99.075531 308.716563)scale(0.1 -0.1)">
       <use xlink:href="#DejaVuSans-49"/>
       <use x="63.623047" xlink:href="#DejaVuSans-53"/>
       <use x="127.246094" xlink:href="#DejaVuSans-48"/>
       <use x="190.869141" xlink:href="#DejaVuSans-46"/>
       <use x="222.65625" xlink:href="#DejaVuSans-56"/>
      </g>
     </g>
    </g>
    <g id="xtick_2">
     <g id="line2d_2">
      <g>
       <use style="stroke:#000000;stroke-width:0.8;" x="170.076845" xlink:href="#m2e8b3a94eb" y="294.118125"/>
      </g>
     </g>
     <g id="text_2">
      <!-- 150.9 -->
      <defs>
       <path d="M 10.984375 1.515625 
L 10.984375 10.5 
Q 14.703125 8.734375 18.5 7.8125 
Q 22.3125 6.890625 25.984375 6.890625 
Q 35.75 6.890625 40.890625 13.453125 
Q 46.046875 20.015625 46.78125 33.40625 
Q 43.953125 29.203125 39.59375 26.953125 
Q 35.25 24.703125 29.984375 24.703125 
Q 19.046875 24.703125 12.671875 31.3125 
Q 6.296875 37.9375 6.296875 49.421875 
Q 6.296875 60.640625 12.9375 67.421875 
Q 19.578125 74.21875 30.609375 74.21875 
Q 43.265625 74.21875 49.921875 64.515625 
Q 56.59375 54.828125 56.59375 36.375 
Q 56.59375 19.140625 48.40625 8.859375 
Q 40.234375 -1.421875 26.421875 -1.421875 
Q 22.703125 -1.421875 18.890625 -0.6875 
Q 15.09375 0.046875 10.984375 1.515625 
z
M 30.609375 32.421875 
Q 37.25 32.421875 41.125 36.953125 
Q 45.015625 41.5 45.015625 49.421875 
Q 45.015625 57.28125 41.125 61.84375 
Q 37.25 66.40625 30.609375 66.40625 
Q 23.96875 66.40625 20.09375 61.84375 
Q 16.21875 57.28125 16.21875 49.421875 
Q 16.21875 41.5 20.09375 36.953125 
Q 23.96875 32.421875 30.609375 32.421875 
z
" id="DejaVuSans-57"/>
      </defs>
      <g transform="translate(155.762782 308.716563)scale(0.1 -0.1)">
       <use xlink:href="#DejaVuSans-49"/>
       <use x="63.623047" xlink:href="#DejaVuSans-53"/>
       <use x="127.246094" xlink:href="#DejaVuSans-48"/>
       <use x="190.869141" xlink:href="#DejaVuSans-46"/>
       <use x="222.65625" xlink:href="#DejaVuSans-57"/>
      </g>
     </g>
    </g>
    <g id="xtick_3">
     <g id="line2d_3">
      <g>
       <use style="stroke:#000000;stroke-width:0.8;" x="226.764095" xlink:href="#m2e8b3a94eb" y="294.118125"/>
      </g>
     </g>
     <g id="text_3">
      <!-- 151.0 -->
      <g transform="translate(212.450033 308.716563)scale(0.1 -0.1)">
       <use xlink:href="#DejaVuSans-49"/>
       <use x="63.623047" xlink:href="#DejaVuSans-53"/>
       <use x="127.246094" xlink:href="#DejaVuSans-49"/>
       <use x="190.869141" xlink:href="#DejaVuSans-46"/>
       <use x="222.65625" xlink:href="#DejaVuSans-48"/>
      </g>
     </g>
    </g>
    <g id="xtick_4">
     <g id="line2d_4">
      <g>
       <use style="stroke:#000000;stroke-width:0.8;" x="283.451346" xlink:href="#m2e8b3a94eb" y="294.118125"/>
      </g>
     </g>
     <g id="text_4">
      <!-- 151.1 -->
      <g transform="translate(269.137284 308.716563)scale(0.1 -0.1)">
       <use xlink:href="#DejaVuSans-49"/>
       <use x="63.623047" xlink:href="#DejaVuSans-53"/>
       <use x="127.246094" xlink:href="#DejaVuSans-49"/>
       <use x="190.869141" xlink:href="#DejaVuSans-46"/>
       <use x="222.65625" xlink:href="#DejaVuSans-49"/>
      </g>
     </g>
    </g>
    <g id="xtick_5">
     <g id="line2d_5">
      <g>
       <use style="stroke:#000000;stroke-width:0.8;" x="340.138597" xlink:href="#m2e8b3a94eb" y="294.118125"/>
      </g>
     </g>
     <g id="text_5">
      <!-- 151.2 -->
      <defs>
       <path d="M 19.1875 8.296875 
L 53.609375 8.296875 
L 53.609375 0 
L 7.328125 0 
L 7.328125 8.296875 
Q 12.9375 14.109375 22.625 23.890625 
Q 32.328125 33.6875 34.8125 36.53125 
Q 39.546875 41.84375 41.421875 45.53125 
Q 43.3125 49.21875 43.3125 52.78125 
Q 43.3125 58.59375 39.234375 62.25 
Q 35.15625 65.921875 28.609375 65.921875 
Q 23.96875 65.921875 18.8125 64.3125 
Q 13.671875 62.703125 7.8125 59.421875 
L 7.8125 69.390625 
Q 13.765625 71.78125 18.9375 73 
Q 24.125 74.21875 28.421875 74.21875 
Q 39.75 74.21875 46.484375 68.546875 
Q 53.21875 62.890625 53.21875 53.421875 
Q 53.21875 48.921875 51.53125 44.890625 
Q 49.859375 40.875 45.40625 35.40625 
Q 44.1875 33.984375 37.640625 27.21875 
Q 31.109375 20.453125 19.1875 8.296875 
z
" id="DejaVuSans-50"/>
      </defs>
      <g transform="translate(325.824535 308.716563)scale(0.1 -0.1)">
       <use xlink:href="#DejaVuSans-49"/>
       <use x="63.623047" xlink:href="#DejaVuSans-53"/>
       <use x="127.246094" xlink:href="#DejaVuSans-49"/>
       <use x="190.869141" xlink:href="#DejaVuSans-46"/>
       <use x="222.65625" xlink:href="#DejaVuSans-50"/>
      </g>
     </g>
    </g>
    <g id="xtick_6">
     <g id="line2d_6">
      <g>
       <use style="stroke:#000000;stroke-width:0.8;" x="396.825848" xlink:href="#m2e8b3a94eb" y="294.118125"/>
      </g>
     </g>
     <g id="text_6">
      <!-- 151.3 -->
      <defs>
       <path d="M 40.578125 39.3125 
Q 47.65625 37.796875 51.625 33 
Q 55.609375 28.21875 55.609375 21.1875 
Q 55.609375 10.40625 48.1875 4.484375 
Q 40.765625 -1.421875 27.09375 -1.421875 
Q 22.515625 -1.421875 17.65625 -0.515625 
Q 12.796875 0.390625 7.625 2.203125 
L 7.625 11.71875 
Q 11.71875 9.328125 16.59375 8.109375 
Q 21.484375 6.890625 26.8125 6.890625 
Q 36.078125 6.890625 40.9375 10.546875 
Q 45.796875 14.203125 45.796875 21.1875 
Q 45.796875 27.640625 41.28125 31.265625 
Q 36.765625 34.90625 28.71875 34.90625 
L 20.21875 34.90625 
L 20.21875 43.015625 
L 29.109375 43.015625 
Q 36.375 43.015625 40.234375 45.921875 
Q 44.09375 48.828125 44.09375 54.296875 
Q 44.09375 59.90625 40.109375 62.90625 
Q 36.140625 65.921875 28.71875 65.921875 
Q 24.65625 65.921875 20.015625 65.03125 
Q 15.375 64.15625 9.8125 62.3125 
L 9.8125 71.09375 
Q 15.4375 72.65625 20.34375 73.4375 
Q 25.25 74.21875 29.59375 74.21875 
Q 40.828125 74.21875 47.359375 69.109375 
Q 53.90625 64.015625 53.90625 55.328125 
Q 53.90625 49.265625 50.4375 45.09375 
Q 46.96875 40.921875 40.578125 39.3125 
z
" id="DejaVuSans-51"/>
      </defs>
      <g transform="translate(382.511785 308.716563)scale(0.1 -0.1)">
       <use xlink:href="#DejaVuSans-49"/>
       <use x="63.623047" xlink:href="#DejaVuSans-53"/>
       <use x="127.246094" xlink:href="#DejaVuSans-49"/>
       <use x="190.869141" xlink:href="#DejaVuSans-46"/>
       <use x="222.65625" xlink:href="#DejaVuSans-51"/>
      </g>
     </g>
    </g>
    <g id="text_7">
     <!-- Longitude -->
     <defs>
      <path d="M 9.8125 72.90625 
L 19.671875 72.90625 
L 19.671875 8.296875 
L 55.171875 8.296875 
L 55.171875 0 
L 9.8125 0 
z
" id="DejaVuSans-76"/>
      <path d="M 30.609375 48.390625 
Q 23.390625 48.390625 19.1875 42.75 
Q 14.984375 37.109375 14.984375 27.296875 
Q 14.984375 17.484375 19.15625 11.84375 
Q 23.34375 6.203125 30.609375 6.203125 
Q 37.796875 6.203125 41.984375 11.859375 
Q 46.1875 17.53125 46.1875 27.296875 
Q 46.1875 37.015625 41.984375 42.703125 
Q 37.796875 48.390625 30.609375 48.390625 
z
M 30.609375 56 
Q 42.328125 56 49.015625 48.375 
Q 55.71875 40.765625 55.71875 27.296875 
Q 55.71875 13.875 49.015625 6.21875 
Q 42.328125 -1.421875 30.609375 -1.421875 
Q 18.84375 -1.421875 12.171875 6.21875 
Q 5.515625 13.875 5.515625 27.296875 
Q 5.515625 40.765625 12.171875 48.375 
Q 18.84375 56 30.609375 56 
z
" id="DejaVuSans-111"/>
      <path d="M 54.890625 33.015625 
L 54.890625 0 
L 45.90625 0 
L 45.90625 32.71875 
Q 45.90625 40.484375 42.875 44.328125 
Q 39.84375 48.1875 33.796875 48.1875 
Q 26.515625 48.1875 22.3125 43.546875 
Q 18.109375 38.921875 18.109375 30.90625 
L 18.109375 0 
L 9.078125 0 
L 9.078125 54.6875 
L 18.109375 54.6875 
L 18.109375 46.1875 
Q 21.34375 51.125 25.703125 53.5625 
Q 30.078125 56 35.796875 56 
Q 45.21875 56 50.046875 50.171875 
Q 54.890625 44.34375 54.890625 33.015625 
z
" id="DejaVuSans-110"/>
      <path d="M 45.40625 27.984375 
Q 45.40625 37.75 41.375 43.109375 
Q 37.359375 48.484375 30.078125 48.484375 
Q 22.859375 48.484375 18.828125 43.109375 
Q 14.796875 37.75 14.796875 27.984375 
Q 14.796875 18.265625 18.828125 12.890625 
Q 22.859375 7.515625 30.078125 7.515625 
Q 37.359375 7.515625 41.375 12.890625 
Q 45.40625 18.265625 45.40625 27.984375 
z
M 54.390625 6.78125 
Q 54.390625 -7.171875 48.1875 -13.984375 
Q 42 -20.796875 29.203125 -20.796875 
Q 24.46875 -20.796875 20.265625 -20.09375 
Q 16.0625 -19.390625 12.109375 -17.921875 
L 12.109375 -9.1875 
Q 16.0625 -11.328125 19.921875 -12.34375 
Q 23.78125 -13.375 27.78125 -13.375 
Q 36.625 -13.375 41.015625 -8.765625 
Q 45.40625 -4.15625 45.40625 5.171875 
L 45.40625 9.625 
Q 42.625 4.78125 38.28125 2.390625 
Q 33.9375 0 27.875 0 
Q 17.828125 0 11.671875 7.65625 
Q 5.515625 15.328125 5.515625 27.984375 
Q 5.515625 40.671875 11.671875 48.328125 
Q 17.828125 56 27.875 56 
Q 33.9375 56 38.28125 53.609375 
Q 42.625 51.21875 45.40625 46.390625 
L 45.40625 54.6875 
L 54.390625 54.6875 
z
" id="DejaVuSans-103"/>
      <path d="M 9.421875 54.6875 
L 18.40625 54.6875 
L 18.40625 0 
L 9.421875 0 
z
M 9.421875 75.984375 
L 18.40625 75.984375 
L 18.40625 64.59375 
L 9.421875 64.59375 
z
" id="DejaVuSans-105"/>
      <path d="M 18.3125 70.21875 
L 18.3125 54.6875 
L 36.8125 54.6875 
L 36.8125 47.703125 
L 18.3125 47.703125 
L 18.3125 18.015625 
Q 18.3125 11.328125 20.140625 9.421875 
Q 21.96875 7.515625 27.59375 7.515625 
L 36.8125 7.515625 
L 36.8125 0 
L 27.59375 0 
Q 17.1875 0 13.234375 3.875 
Q 9.28125 7.765625 9.28125 18.015625 
L 9.28125 47.703125 
L 2.6875 47.703125 
L 2.6875 54.6875 
L 9.28125 54.6875 
L 9.28125 70.21875 
z
" id="DejaVuSans-116"/>
      <path d="M 8.5 21.578125 
L 8.5 54.6875 
L 17.484375 54.6875 
L 17.484375 21.921875 
Q 17.484375 14.15625 20.5 10.265625 
Q 23.53125 6.390625 29.59375 6.390625 
Q 36.859375 6.390625 41.078125 11.03125 
Q 45.3125 15.671875 45.3125 23.6875 
L 45.3125 54.6875 
L 54.296875 54.6875 
L 54.296875 0 
L 45.3125 0 
L 45.3125 8.40625 
Q 42.046875 3.421875 37.71875 1 
Q 33.40625 -1.421875 27.6875 -1.421875 
Q 18.265625 -1.421875 13.375 4.4375 
Q 8.5 10.296875 8.5 21.578125 
z
M 31.109375 56 
z
" id="DejaVuSans-117"/>
      <path d="M 45.40625 46.390625 
L 45.40625 75.984375 
L 54.390625 75.984375 
L 54.390625 0 
L 45.40625 0 
L 45.40625 8.203125 
Q 42.578125 3.328125 38.25 0.953125 
Q 33.9375 -1.421875 27.875 -1.421875 
Q 17.96875 -1.421875 11.734375 6.484375 
Q 5.515625 14.40625 5.515625 27.296875 
Q 5.515625 40.1875 11.734375 48.09375 
Q 17.96875 56 27.875 56 
Q 33.9375 56 38.25 53.625 
Q 42.578125 51.265625 45.40625 46.390625 
z
M 14.796875 27.296875 
Q 14.796875 17.390625 18.875 11.75 
Q 22.953125 6.109375 30.078125 6.109375 
Q 37.203125 6.109375 41.296875 11.75 
Q 45.40625 17.390625 45.40625 27.296875 
Q 45.40625 37.203125 41.296875 42.84375 
Q 37.203125 48.484375 30.078125 48.484375 
Q 22.953125 48.484375 18.875 42.84375 
Q 14.796875 37.203125 14.796875 27.296875 
z
" id="DejaVuSans-100"/>
      <path d="M 56.203125 29.59375 
L 56.203125 25.203125 
L 14.890625 25.203125 
Q 15.484375 15.921875 20.484375 11.0625 
Q 25.484375 6.203125 34.421875 6.203125 
Q 39.59375 6.203125 44.453125 7.46875 
Q 49.3125 8.734375 54.109375 11.28125 
L 54.109375 2.78125 
Q 49.265625 0.734375 44.1875 -0.34375 
Q 39.109375 -1.421875 33.890625 -1.421875 
Q 20.796875 -1.421875 13.15625 6.1875 
Q 5.515625 13.8125 5.515625 26.8125 
Q 5.515625 40.234375 12.765625 48.109375 
Q 20.015625 56 32.328125 56 
Q 43.359375 56 49.78125 48.890625 
Q 56.203125 41.796875 56.203125 29.59375 
z
M 47.21875 32.234375 
Q 47.125 39.59375 43.09375 43.984375 
Q 39.0625 48.390625 32.421875 48.390625 
Q 24.90625 48.390625 20.390625 44.140625 
Q 15.875 39.890625 15.1875 32.171875 
z
" id="DejaVuSans-101"/>
     </defs>
     <g transform="translate(205.961897 322.394687)scale(0.1 -0.1)">
      <use xlink:href="#DejaVuSans-76"/>
      <use x="53.962891" xlink:href="#DejaVuSans-111"/>
      <use x="115.144531" xlink:href="#DejaVuSans-110"/>
      <use x="178.523438" xlink:href="#DejaVuSans-103"/>
      <use x="242" xlink:href="#DejaVuSans-105"/>
      <use x="269.783203" xlink:href="#DejaVuSans-116"/>
      <use x="308.992188" xlink:href="#DejaVuSans-117"/>
      <use x="372.371094" xlink:href="#DejaVuSans-100"/>
      <use x="435.847656" xlink:href="#DejaVuSans-101"/>
     </g>
    </g>
   </g>
   <g id="matplotlib.axis_2">
    <g id="ytick_1">
     <g id="line2d_7">
      <defs>
       <path d="M 0 0 
L -3.5 0 
" id="m0d96d9f387" style="stroke:#000000;stroke-width:0.8;"/>
      </defs>
      <g>
       <use style="stroke:#000000;stroke-width:0.8;" x="58.523437" xlink:href="#m0d96d9f387" y="238.799766"/>
      </g>
     </g>
     <g id="text_8">
      <!-- −34.0 -->
      <defs>
       <path d="M 10.59375 35.5 
L 73.1875 35.5 
L 73.1875 27.203125 
L 10.59375 27.203125 
z
" id="DejaVuSans-8722"/>
       <path d="M 37.796875 64.3125 
L 12.890625 25.390625 
L 37.796875 25.390625 
z
M 35.203125 72.90625 
L 47.609375 72.90625 
L 47.609375 25.390625 
L 58.015625 25.390625 
L 58.015625 17.1875 
L 47.609375 17.1875 
L 47.609375 0 
L 37.796875 0 
L 37.796875 17.1875 
L 4.890625 17.1875 
L 4.890625 26.703125 
z
" id="DejaVuSans-52"/>
      </defs>
      <g transform="translate(20.878125 242.598985)scale(0.1 -0.1)">
       <use xlink:href="#DejaVuSans-8722"/>
       <use x="83.789062" xlink:href="#DejaVuSans-51"/>
       <use x="147.412109" xlink:href="#DejaVuSans-52"/>
       <use x="211.035156" xlink:href="#DejaVuSans-46"/>
       <use x="242.822266" xlink:href="#DejaVuSans-48"/>
      </g>
     </g>
    </g>
    <g id="ytick_2">
     <g id="line2d_8">
      <g>
       <use style="stroke:#000000;stroke-width:0.8;" x="58.523437" xlink:href="#m0d96d9f387" y="182.112515"/>
      </g>
     </g>
     <g id="text_9">
      <!-- −33.9 -->
      <g transform="translate(20.878125 185.911734)scale(0.1 -0.1)">
       <use xlink:href="#DejaVuSans-8722"/>
       <use x="83.789062" xlink:href="#DejaVuSans-51"/>
       <use x="147.412109" xlink:href="#DejaVuSans-51"/>
       <use x="211.035156" xlink:href="#DejaVuSans-46"/>
       <use x="242.822266" xlink:href="#DejaVuSans-57"/>
      </g>
     </g>
    </g>
    <g id="ytick_3">
     <g id="line2d_9">
      <g>
       <use style="stroke:#000000;stroke-width:0.8;" x="58.523437" xlink:href="#m0d96d9f387" y="125.425265"/>
      </g>
     </g>
     <g id="text_10">
      <!-- −33.8 -->
      <g transform="translate(20.878125 129.224483)scale(0.1 -0.1)">
       <use xlink:href="#DejaVuSans-8722"/>
       <use x="83.789062" xlink:href="#DejaVuSans-51"/>
       <use x="147.412109" xlink:href="#DejaVuSans-51"/>
       <use x="211.035156" xlink:href="#DejaVuSans-46"/>
       <use x="242.822266" xlink:href="#DejaVuSans-56"/>
      </g>
     </g>
    </g>
    <g id="ytick_4">
     <g id="line2d_10">
      <g>
       <use style="stroke:#000000;stroke-width:0.8;" x="58.523437" xlink:href="#m0d96d9f387" y="68.738014"/>
      </g>
     </g>
     <g id="text_11">
      <!-- −33.7 -->
      <defs>
       <path d="M 8.203125 72.90625 
L 55.078125 72.90625 
L 55.078125 68.703125 
L 28.609375 0 
L 18.3125 0 
L 43.21875 64.59375 
L 8.203125 64.59375 
z
" id="DejaVuSans-55"/>
      </defs>
      <g transform="translate(20.878125 72.537233)scale(0.1 -0.1)">
       <use xlink:href="#DejaVuSans-8722"/>
       <use x="83.789062" xlink:href="#DejaVuSans-51"/>
       <use x="147.412109" xlink:href="#DejaVuSans-51"/>
       <use x="211.035156" xlink:href="#DejaVuSans-46"/>
       <use x="242.822266" xlink:href="#DejaVuSans-55"/>
      </g>
     </g>
    </g>
    <g id="text_12">
     <!-- Latiude -->
     <defs>
      <path d="M 34.28125 27.484375 
Q 23.390625 27.484375 19.1875 25 
Q 14.984375 22.515625 14.984375 16.5 
Q 14.984375 11.71875 18.140625 8.90625 
Q 21.296875 6.109375 26.703125 6.109375 
Q 34.1875 6.109375 38.703125 11.40625 
Q 43.21875 16.703125 43.21875 25.484375 
L 43.21875 27.484375 
z
M 52.203125 31.203125 
L 52.203125 0 
L 43.21875 0 
L 43.21875 8.296875 
Q 40.140625 3.328125 35.546875 0.953125 
Q 30.953125 -1.421875 24.3125 -1.421875 
Q 15.921875 -1.421875 10.953125 3.296875 
Q 6 8.015625 6 15.921875 
Q 6 25.140625 12.171875 29.828125 
Q 18.359375 34.515625 30.609375 34.515625 
L 43.21875 34.515625 
L 43.21875 35.40625 
Q 43.21875 41.609375 39.140625 45 
Q 35.0625 48.390625 27.6875 48.390625 
Q 23 48.390625 18.546875 47.265625 
Q 14.109375 46.140625 10.015625 43.890625 
L 10.015625 52.203125 
Q 14.9375 54.109375 19.578125 55.046875 
Q 24.21875 56 28.609375 56 
Q 40.484375 56 46.34375 49.84375 
Q 52.203125 43.703125 52.203125 31.203125 
z
" id="DejaVuSans-97"/>
     </defs>
     <g transform="translate(14.798437 176.836875)rotate(-90)scale(0.1 -0.1)">
      <use xlink:href="#DejaVuSans-76"/>
      <use x="55.712891" xlink:href="#DejaVuSans-97"/>
      <use x="116.992188" xlink:href="#DejaVuSans-116"/>
      <use x="156.201172" xlink:href="#DejaVuSans-105"/>
      <use x="183.984375" xlink:href="#DejaVuSans-117"/>
      <use x="247.363281" xlink:href="#DejaVuSans-100"/>
      <use x="310.839844" xlink:href="#DejaVuSans-101"/>
     </g>
    </g>
   </g>
   <g id="LineCollection_1">
    <path clip-path="url(#pad2b8bbfbc)" d="M 341.740109 176.005825 
L 341.719915 176.072108 
L 341.668885 176.371878 
L 341.665606 176.392405 
L 341.658526 176.427755 
L 341.63648 176.535756 
L 341.566015 176.898199 
L 341.516172 177.152972 
L 341.456541 177.458017 
L 341.447989 177.501873 
L 341.37073 177.887122 
" style="fill:none;stroke:#1f77b4;stroke-width:4;"/>
    <path clip-path="url(#pad2b8bbfbc)" d="M 341.37073 177.887122 
L 341.29846 178.271849 
L 341.284016 178.344831 
L 341.217257 178.682233 
L 341.159717 178.948363 
" style="fill:none;stroke:#1f77b4;stroke-width:4;"/>
    <path clip-path="url(#pad2b8bbfbc)" d="M 341.159717 178.948363 
L 341.045207 179.538876 
L 341.042736 179.57551 
" style="fill:none;stroke:#1f77b4;stroke-width:4;"/>
   </g>
   <g id="LineCollection_2">
    <path clip-path="url(#pad2b8bbfbc)" d="M 226.911845 132.685623 
L 226.95974 132.694651 
L 228.022169 132.933365 
L 228.427184 133.02255 
L 228.69797 133.096198 
" style="fill:none;stroke:#ff7f0e;stroke-width:4;"/>
    <path clip-path="url(#pad2b8bbfbc)" d="M 228.69797 133.096198 
L 229.13463 133.212466 
L 229.47208 133.302317 
L 229.75636 133.366652 
L 230.035367 133.430796 
L 230.109062 133.444671 
L 230.350484 133.502924 
" style="fill:none;stroke:#ff7f0e;stroke-width:4;"/>
    <path clip-path="url(#pad2b8bbfbc)" d="M 230.350484 133.502924 
L 230.673394 133.576381 
L 230.824253 133.610687 
L 231.04838 133.662763 
L 231.434865 133.752518 
L 231.537924 133.776466 
L 232.030367 133.890834 
L 232.528986 134.03984 
L 232.849663 134.13563 
L 233.128859 134.225907 
L 233.62344 134.406653 
" style="fill:none;stroke:#ff7f0e;stroke-width:4;"/>
    <path clip-path="url(#pad2b8bbfbc)" d="M 233.62344 134.406653 
L 233.651948 134.415966 
L 234.257808 134.613675 
L 234.61911 134.735598 
L 234.880536 134.82388 
L 235.21656 134.98657 
L 235.28997 135.019736 
L 235.770724 135.260825 
L 235.83924 135.288146 
L 235.905761 135.304301 
L 236.603277 135.436012 
" style="fill:none;stroke:#ff7f0e;stroke-width:4;"/>
    <path clip-path="url(#pad2b8bbfbc)" d="M 236.603277 135.436012 
L 237.835476 135.639945 
" style="fill:none;stroke:#ff7f0e;stroke-width:4;"/>
   </g>
   <g id="LineCollection_3">
    <path clip-path="url(#pad2b8bbfbc)" d="M 341.231749 180.281958 
L 341.454641 181.204931 
" style="fill:none;stroke:#2ca02c;stroke-width:4;"/>
    <path clip-path="url(#pad2b8bbfbc)" d="M 341.454641 181.204931 
L 341.593051 181.748832 
L 341.651732 182.008405 
" style="fill:none;stroke:#2ca02c;stroke-width:4;"/>
    <path clip-path="url(#pad2b8bbfbc)" d="M 341.651732 182.008405 
L 341.660094 182.041855 
L 341.813282 182.600343 
" style="fill:none;stroke:#2ca02c;stroke-width:4;"/>
    <path clip-path="url(#pad2b8bbfbc)" d="M 341.851199 182.704353 
L 341.990892 183.111839 
L 342.116378 183.457841 
" style="fill:none;stroke:#2ca02c;stroke-width:4;"/>
    <path clip-path="url(#pad2b8bbfbc)" d="M 342.116378 183.457841 
L 342.138615 183.505878 
L 342.169927 183.569073 
L 342.429215 184.05914 
L 342.536028 184.5283 
L 342.654767 184.685621 
L 342.682136 184.750384 
" style="fill:none;stroke:#2ca02c;stroke-width:4;"/>
   </g>
   <g id="LineCollection_4">
    <path clip-path="url(#pad2b8bbfbc)" d="M 265.416716 111.147683 
L 267.131807 110.702803 
" style="fill:none;stroke:#d62728;stroke-width:4;"/>
   </g>
   <g id="LineCollection_5">
    <path clip-path="url(#pad2b8bbfbc)" d="M 277.109705 162.386115 
L 277.10961 162.347058 
L 277.097066 162.253501 
L 277.066087 162.15125 
L 277.047366 162.101027 
L 276.895509 161.69316 
" style="fill:none;stroke:#9467bd;stroke-width:4;"/>
    <path clip-path="url(#pad2b8bbfbc)" d="M 276.877073 161.628873 
L 276.816064 161.4429 
L 276.714098 161.136953 
" style="fill:none;stroke:#9467bd;stroke-width:4;"/>
    <path clip-path="url(#pad2b8bbfbc)" d="M 276.707588 161.115857 
L 276.629284 160.885268 
L 276.512398 160.525629 
" style="fill:none;stroke:#9467bd;stroke-width:4;"/>
    <path clip-path="url(#pad2b8bbfbc)" d="M 276.501232 160.482391 
L 276.279481 159.839944 
L 276.225551 159.687612 
L 276.146867 159.446998 
L 276.106242 159.314764 
L 275.989546 158.981639 
L 275.93172 158.818568 
L 275.720328 158.164956 
" style="fill:none;stroke:#9467bd;stroke-width:4;"/>
    <path clip-path="url(#pad2b8bbfbc)" d="M 275.680558 158.044316 
L 275.720328 158.164956 
" style="fill:none;stroke:#9467bd;stroke-width:4;"/>
    <path clip-path="url(#pad2b8bbfbc)" d="M 275.680558 158.044316 
L 275.571844 157.673987 
L 275.540009 157.579195 
L 275.395992 157.15047 
L 275.368909 157.06442 
L 275.232399 156.631039 
L 275.07427 156.104338 
L 274.906163 155.582104 
L 274.84867 155.370616 
L 274.797449 155.18165 
L 274.75939 154.975627 
" style="fill:none;stroke:#9467bd;stroke-width:4;"/>
    <path clip-path="url(#pad2b8bbfbc)" d="M 274.748177 154.930963 
L 274.612522 154.325768 
L 274.588717 154.288279 
" style="fill:none;stroke:#9467bd;stroke-width:4;"/>
    <path clip-path="url(#pad2b8bbfbc)" d="M 274.401367 154.257489 
L 274.308951 153.933249 
L 274.284243 153.544056 
L 274.286001 153.480909 
L 274.309046 153.445748 
L 274.368772 153.421325 
L 274.45924 153.405075 
L 274.49079 153.375236 
L 274.494733 153.332188 
L 274.419327 152.514697 
" style="fill:none;stroke:#9467bd;stroke-width:4;"/>
    <path clip-path="url(#pad2b8bbfbc)" d="M 274.588717 154.288279 
L 274.562869 154.278253 
L 274.531985 154.280344 
L 274.45924 154.289657 
" style="fill:none;stroke:#9467bd;stroke-width:4;"/>
    <path clip-path="url(#pad2b8bbfbc)" d="M 274.419327 152.514697 
L 274.373808 151.961721 
" style="fill:none;stroke:#9467bd;stroke-width:4;"/>
   </g>
   <g id="LineCollection_6">
    <path clip-path="url(#pad2b8bbfbc)" d="M 298.587112 204.839696 
L 298.567868 204.851765 
L 298.257122 205.034126 
L 298.22562 205.052609 
L 297.666609 205.378893 
L 297.433122 205.503096 
L 297.23109 205.620172 
" style="fill:none;stroke:#8c564b;stroke-width:4;"/>
    <path clip-path="url(#pad2b8bbfbc)" d="M 298.779499 204.747327 
L 298.723241 204.764528 
L 298.587112 204.839696 
" style="fill:none;stroke:#8c564b;stroke-width:4;"/>
    <path clip-path="url(#pad2b8bbfbc)" d="M 297.23109 205.620172 
L 297.19935 205.643882 
L 297.187851 205.671773 
" style="fill:none;stroke:#8c564b;stroke-width:4;"/>
   </g>
   <g id="LineCollection_7">
    <path clip-path="url(#pad2b8bbfbc)" d="M 271.340612 91.260688 
L 271.22729 91.222296 
L 270.286308 90.854628 
L 269.258375 90.460255 
L 268.817676 90.294002 
" style="fill:none;stroke:#e377c2;stroke-width:4;"/>
   </g>
   <g id="LineCollection_8">
    <path clip-path="url(#pad2b8bbfbc)" d="M 282.960571 70.467921 
L 282.939332 70.543802 
L 282.877705 70.76389 
L 282.872051 70.783133 
L 282.8539 70.844807 
L 282.838173 70.898261 
" style="fill:none;stroke:#7f7f7f;stroke-width:4;"/>
    <path clip-path="url(#pad2b8bbfbc)" d="M 282.960571 70.467921 
L 283.067051 70.078015 
" style="fill:none;stroke:#7f7f7f;stroke-width:4;"/>
    <path clip-path="url(#pad2b8bbfbc)" d="M 282.711499 71.36899 
L 282.766711 71.143675 
L 282.780252 71.092169 
L 282.785764 71.074113 
L 282.801444 71.02142 
L 282.834752 70.90995 
L 282.838173 70.898261 
" style="fill:none;stroke:#7f7f7f;stroke-width:4;"/>
    <path clip-path="url(#pad2b8bbfbc)" d="M 283.067051 70.078015 
L 283.102735 69.972057 
" style="fill:none;stroke:#7f7f7f;stroke-width:4;"/>
    <path clip-path="url(#pad2b8bbfbc)" d="M 283.102735 69.972057 
L 283.143787 69.843673 
" style="fill:none;stroke:#7f7f7f;stroke-width:4;"/>
    <path clip-path="url(#pad2b8bbfbc)" d="M 283.143787 69.843673 
L 283.421606 68.823769 
L 283.606818 68.151531 
L 283.678375 67.864067 
L 283.691965 67.741384 
L 283.688163 67.631008 
L 283.676047 67.474779 
L 283.657707 67.405598 
L 283.623686 67.33176 
" style="fill:none;stroke:#7f7f7f;stroke-width:4;"/>
   </g>
   <g id="LineCollection_9">
    <path clip-path="url(#pad2b8bbfbc)" d="M 311.330176 174.621246 
L 311.45932 174.044133 
" style="fill:none;stroke:#bcbd22;stroke-width:4;"/>
    <path clip-path="url(#pad2b8bbfbc)" d="M 311.246692 175.081854 
L 311.014915 175.972802 
L 310.9722 176.136965 
L 310.923402 176.324649 
L 310.89209 176.444956 
" style="fill:none;stroke:#bcbd22;stroke-width:4;"/>
   </g>
   <g id="LineCollection_10">
    <path clip-path="url(#pad2b8bbfbc)" d="M 343.593848 197.579829 
L 344.822721 197.766419 
" style="fill:none;stroke:#1f77b4;stroke-width:4;"/>
    <path clip-path="url(#pad2b8bbfbc)" d="M 344.881164 197.779628 
L 346.090033 197.980426 
" style="fill:none;stroke:#1f77b4;stroke-width:4;"/>
   </g>
   <g id="LineCollection_11">
    <path clip-path="url(#pad2b8bbfbc)" d="M 384.195021 163.396658 
L 385.502245 163.589662 
L 386.562013 163.759765 
L 387.475056 163.900979 
" style="fill:none;stroke:#ff7f0e;stroke-width:4;"/>
   </g>
   <g id="LineCollection_12">
    <path clip-path="url(#pad2b8bbfbc)" d="M 189.650909 171.5393 
L 189.627056 171.526424 
L 189.617838 171.521482 
L 188.957574 171.436288 
L 188.27531 171.338455 
L 188.243903 171.333466 
L 187.558646 171.235919 
L 186.862936 171.136756 
" style="fill:none;stroke:#2ca02c;stroke-width:4;"/>
   </g>
   <g id="LineCollection_13">
    <path clip-path="url(#pad2b8bbfbc)" d="M 326.101642 159.974316 
L 325.981477 160.483056 
L 325.933392 160.701196 
" style="fill:none;stroke:#d62728;stroke-width:4;"/>
   </g>
   <g id="LineCollection_14">
    <path clip-path="url(#pad2b8bbfbc)" d="M 284.581155 175.673317 
L 284.584623 177.042596 
L 284.59769 177.422001 
" style="fill:none;stroke:#9467bd;stroke-width:4;"/>
   </g>
   <g id="LineCollection_15">
    <path clip-path="url(#pad2b8bbfbc)" d="M 290.491699 226.209767 
L 290.079176 225.73538 
" style="fill:none;stroke:#8c564b;stroke-width:4;"/>
    <path clip-path="url(#pad2b8bbfbc)" d="M 287.860857 223.147587 
L 288.325789 223.712489 
L 289.143612 224.632659 
L 289.168367 224.660455 
L 289.474932 225.015532 
L 289.724622 225.321384 
L 289.878759 225.491677 
" style="fill:none;stroke:#8c564b;stroke-width:4;"/>
    <path clip-path="url(#pad2b8bbfbc)" d="M 287.606701 222.86725 
L 287.560089 222.816932 
L 287.539373 222.794552 
L 287.517231 222.771175 
L 287.507253 222.763525 
L 287.503214 222.760484 
L 287.496277 222.755543 
L 287.488247 222.752644 
L 287.477366 222.751647 
L 287.468813 222.7535 
L 287.443868 222.758821 
L 287.406949 222.766756 
L 287.352592 222.77911 
L 287.317669 222.783529 
" style="fill:none;stroke:#8c564b;stroke-width:4;"/>
    <path clip-path="url(#pad2b8bbfbc)" d="M 287.690232 222.959714 
L 287.647896 222.914385 
L 287.606701 222.86725 
" style="fill:none;stroke:#8c564b;stroke-width:4;"/>
    <path clip-path="url(#pad2b8bbfbc)" d="M 287.690232 222.959714 
L 287.860857 223.147587 
" style="fill:none;stroke:#8c564b;stroke-width:4;"/>
   </g>
   <g id="LineCollection_16">
    <path clip-path="url(#pad2b8bbfbc)" d="M 276.013351 214.227556 
L 275.748836 214.392242 
" style="fill:none;stroke:#e377c2;stroke-width:4;"/>
    <path clip-path="url(#pad2b8bbfbc)" d="M 275.748836 214.392242 
L 275.334936 214.630623 
" style="fill:none;stroke:#e377c2;stroke-width:4;"/>
    <path clip-path="url(#pad2b8bbfbc)" d="M 275.247984 214.690587 
L 274.936097 214.872711 
L 274.566338 215.082678 
L 273.795174 215.553692 
" style="fill:none;stroke:#e377c2;stroke-width:4;"/>
    <path clip-path="url(#pad2b8bbfbc)" d="M 273.679286 215.60477 
L 272.708513 216.177892 
L 272.371016 216.377882 
L 271.945759 216.668244 
L 271.776322 216.784037 
L 271.718402 216.817488 
L 271.671552 216.845521 
L 271.57619 216.909429 
L 271.486957 216.956658 
" style="fill:none;stroke:#e377c2;stroke-width:4;"/>
   </g>
   <g id="LineCollection_17">
    <path clip-path="url(#pad2b8bbfbc)" d="M 270.503118 224.196569 
L 271.659008 223.526136 
L 272.138432 223.260102 
" style="fill:none;stroke:#7f7f7f;stroke-width:4;"/>
   </g>
   <g id="LineCollection_18">
    <path clip-path="url(#pad2b8bbfbc)" d="M 358.000069 175.388561 
L 358.028198 175.360955 
" style="fill:none;stroke:#bcbd22;stroke-width:4;"/>
    <path clip-path="url(#pad2b8bbfbc)" d="M 358.028198 175.360955 
L 358.246147 175.147662 
L 358.358662 175.037475 
L 358.381517 175.015143 
L 358.496122 174.890227 
L 358.595808 174.781704 
" style="fill:none;stroke:#bcbd22;stroke-width:4;"/>
   </g>
   <g id="LineCollection_19">
    <path clip-path="url(#pad2b8bbfbc)" d="M 286.550924 264.207989 
L 286.560665 264.099133 
L 285.572977 262.619525 
L 285.514581 262.571155 
" style="fill:none;stroke:#1f77b4;stroke-width:4;"/>
   </g>
   <g id="LineCollection_20">
    <path clip-path="url(#pad2b8bbfbc)" d="M 184.876821 191.203593 
L 184.67802 192.322184 
" style="fill:none;stroke:#ff7f0e;stroke-width:4;"/>
    <path clip-path="url(#pad2b8bbfbc)" d="M 185.074815 190.252254 
L 184.957881 190.851652 
L 184.927709 190.992438 
L 184.876821 191.203593 
" style="fill:none;stroke:#ff7f0e;stroke-width:4;"/>
    <path clip-path="url(#pad2b8bbfbc)" d="M 184.67802 192.322184 
L 184.421583 193.641525 
" style="fill:none;stroke:#ff7f0e;stroke-width:4;"/>
    <path clip-path="url(#pad2b8bbfbc)" d="M 184.421583 193.641525 
L 184.167189 194.9822 
" style="fill:none;stroke:#ff7f0e;stroke-width:4;"/>
    <path clip-path="url(#pad2b8bbfbc)" d="M 184.167189 194.9822 
L 184.014572 195.781493 
L 183.916976 196.310426 
" style="fill:none;stroke:#ff7f0e;stroke-width:4;"/>
   </g>
   <g id="LineCollection_21">
    <path clip-path="url(#pad2b8bbfbc)" d="M 123.563608 281.74752 
L 123.70563 281.76358 
L 123.774289 281.744764 
L 123.846891 281.709365 
L 123.860955 281.701478 
L 123.971047 281.640136 
L 124.088456 281.564065 
L 124.326505 281.416532 
L 124.870263 281.036462 
L 125.083889 280.911308 
L 125.294189 280.790288 
L 125.365556 280.741491 
L 125.421148 280.713837 
" style="fill:none;stroke:#2ca02c;stroke-width:4;"/>
    <path clip-path="url(#pad2b8bbfbc)" d="M 125.421148 280.713837 
L 125.741255 280.515653 
L 125.79927 280.492799 
L 125.841511 280.49603 
" style="fill:none;stroke:#2ca02c;stroke-width:4;"/>
    <path clip-path="url(#pad2b8bbfbc)" d="M 125.909647 280.44115 
L 126.005247 280.394681 
L 126.712503 279.929322 
L 126.917529 279.811153 
L 127.01731 279.75499 
L 127.114667 279.69631 
L 127.151444 279.67355 
L 127.201572 279.63934 
" style="fill:none;stroke:#2ca02c;stroke-width:4;"/>
   </g>
   <g id="LineCollection_22">
    <path clip-path="url(#pad2b8bbfbc)" d="M 247.303446 185.023071 
L 246.98752 184.975033 
L 246.838894 184.956835 
L 246.778076 184.951798 
L 246.708134 184.961872 
L 246.593671 185.009054 
" style="fill:none;stroke:#d62728;stroke-width:4;"/>
    <path clip-path="url(#pad2b8bbfbc)" d="M 246.593671 185.009054 
L 246.428652 185.069302 
L 246.243725 185.137296 
L 246.053666 185.196594 
" style="fill:none;stroke:#d62728;stroke-width:4;"/>
    <path clip-path="url(#pad2b8bbfbc)" d="M 246.053666 185.196594 
L 245.722822 185.272285 
L 245.273808 185.433217 
" style="fill:none;stroke:#d62728;stroke-width:4;"/>
    <path clip-path="url(#pad2b8bbfbc)" d="M 245.273808 185.433217 
L 244.518609 185.703861 
" style="fill:none;stroke:#d62728;stroke-width:4;"/>
   </g>
   <g id="LineCollection_23">
    <path clip-path="url(#pad2b8bbfbc)" d="M 344.08667 166.754617 
L 344.086623 166.747062 
" style="fill:none;stroke:#9467bd;stroke-width:4;"/>
   </g>
   <g id="LineCollection_24">
    <path clip-path="url(#pad2b8bbfbc)" d="M 345.251256 158.292105 
L 345.184403 158.181776 
L 345.156084 158.127705 
" style="fill:none;stroke:#8c564b;stroke-width:4;"/>
    <path clip-path="url(#pad2b8bbfbc)" d="M 345.156084 158.127705 
L 344.890904 157.689191 
L 344.846288 157.637115 
L 344.809749 157.599721 
L 344.778104 157.574206 
L 344.746792 157.55425 
" style="fill:none;stroke:#8c564b;stroke-width:4;"/>
    <path clip-path="url(#pad2b8bbfbc)" d="M 344.862015 160.186659 
L 344.892377 160.112109 
L 344.940177 159.981111 
L 344.976051 159.797751 
L 345.002564 159.691461 
L 345.010784 159.64675 
L 345.043569 159.467952 
L 345.08562 159.238551 
L 345.091274 159.214461 
L 345.111848 159.074435 
L 345.121873 159.018605 
L 345.240945 158.723872 
L 345.302097 158.562179 
L 345.305518 158.504354 
L 345.306135 158.485633 
L 345.292404 158.40367 
L 345.273113 158.359861 
L 345.251256 158.292105 
" style="fill:none;stroke:#8c564b;stroke-width:4;"/>
    <path clip-path="url(#pad2b8bbfbc)" d="M 344.746792 157.55425 
L 344.606671 157.479842 
L 344.518864 157.433182 
" style="fill:none;stroke:#8c564b;stroke-width:4;"/>
    <path clip-path="url(#pad2b8bbfbc)" d="M 344.518864 157.433182 
L 344.378316 157.359154 
" style="fill:none;stroke:#8c564b;stroke-width:4;"/>
    <path clip-path="url(#pad2b8bbfbc)" d="M 344.536635 160.701814 
L 344.554263 160.672782 
L 344.650765 160.505625 
L 344.686496 160.451696 
L 344.812077 160.262065 
L 344.824051 160.244009 
L 344.862015 160.186659 
" style="fill:none;stroke:#8c564b;stroke-width:4;"/>
    <path clip-path="url(#pad2b8bbfbc)" d="M 344.391145 161.436153 
L 344.398699 161.301924 
L 344.431627 161.035319 
L 344.443981 160.929884 
L 344.466265 160.872201 
L 344.483371 160.822121 
L 344.536635 160.701814 
" style="fill:none;stroke:#8c564b;stroke-width:4;"/>
    <path clip-path="url(#pad2b8bbfbc)" d="M 344.379076 161.536932 
L 344.391145 161.436153 
" style="fill:none;stroke:#8c564b;stroke-width:4;"/>
    <path clip-path="url(#pad2b8bbfbc)" d="M 344.323674 162.060972 
L 344.34268 161.910445 
L 344.351327 161.82145 
L 344.360355 161.728892 
L 344.379076 161.536932 
" style="fill:none;stroke:#8c564b;stroke-width:4;"/>
    <path clip-path="url(#pad2b8bbfbc)" d="M 344.30329 162.353615 
L 344.310845 162.24989 
L 344.323674 162.060972 
" style="fill:none;stroke:#8c564b;stroke-width:4;"/>
    <path clip-path="url(#pad2b8bbfbc)" d="M 344.275874 162.558166 
L 344.30329 162.353615 
" style="fill:none;stroke:#8c564b;stroke-width:4;"/>
   </g>
   <g id="LineCollection_25">
    <path clip-path="url(#pad2b8bbfbc)" d="M 296.077338 144.067248 
L 296.564506 144.536408 
L 296.573914 144.545436 
L 297.38727 145.323727 
" style="fill:none;stroke:#e377c2;stroke-width:4;"/>
   </g>
   <g id="LineCollection_26">
    <path clip-path="url(#pad2b8bbfbc)" d="M 342.285673 172.490497 
L 342.395242 172.423691 
L 342.496021 172.406729 
" style="fill:none;stroke:#7f7f7f;stroke-width:4;"/>
    <path clip-path="url(#pad2b8bbfbc)" d="M 342.285673 172.490497 
L 342.386879 172.391191 
L 342.443232 172.353417 
" style="fill:none;stroke:#7f7f7f;stroke-width:4;"/>
    <path clip-path="url(#pad2b8bbfbc)" d="M 342.496021 172.406729 
L 342.406408 172.47496 
L 342.239726 172.612657 
L 342.173158 172.667204 
L 341.97564 172.831415 
L 341.838702 172.925969 
L 341.66304 172.994771 
L 341.411355 173.06476 
" style="fill:none;stroke:#7f7f7f;stroke-width:4;"/>
    <path clip-path="url(#pad2b8bbfbc)" d="M 341.386315 173.016485 
L 341.657861 172.946306 
L 341.800643 172.883063 
L 341.975545 172.763184 
L 342.285673 172.490497 
" style="fill:none;stroke:#7f7f7f;stroke-width:4;"/>
    <path clip-path="url(#pad2b8bbfbc)" d="M 342.496021 172.406729 
L 342.530469 172.304714 
" style="fill:none;stroke:#7f7f7f;stroke-width:4;"/>
    <path clip-path="url(#pad2b8bbfbc)" d="M 342.530469 172.304714 
L 342.538546 172.28262 
L 342.677384 171.899652 
L 342.710312 171.808376 
L 342.851383 171.428543 
" style="fill:none;stroke:#7f7f7f;stroke-width:4;"/>
    <path clip-path="url(#pad2b8bbfbc)" d="M 342.443232 172.353417 
L 342.530469 172.304714 
" style="fill:none;stroke:#7f7f7f;stroke-width:4;"/>
    <path clip-path="url(#pad2b8bbfbc)" d="M 342.919614 171.238294 
L 342.998441 171.020012 
L 343.110291 170.686079 
L 343.138562 170.615044 
" style="fill:none;stroke:#7f7f7f;stroke-width:4;"/>
    <path clip-path="url(#pad2b8bbfbc)" d="M 342.851383 171.428543 
L 342.919614 171.238294 
" style="fill:none;stroke:#7f7f7f;stroke-width:4;"/>
    <path clip-path="url(#pad2b8bbfbc)" d="M 343.138562 170.615044 
L 343.141698 170.600505 
" style="fill:none;stroke:#7f7f7f;stroke-width:4;"/>
    <path clip-path="url(#pad2b8bbfbc)" d="M 343.141698 170.600505 
L 343.143599 170.5939 
L 343.23858 170.27061 
L 343.379081 169.518072 
" style="fill:none;stroke:#7f7f7f;stroke-width:4;"/>
    <path clip-path="url(#pad2b8bbfbc)" d="M 343.379081 169.518072 
L 343.528468 169.100038 
L 343.646257 168.740827 
" style="fill:none;stroke:#7f7f7f;stroke-width:4;"/>
    <path clip-path="url(#pad2b8bbfbc)" d="M 343.646257 168.740827 
L 343.650628 168.72852 
" style="fill:none;stroke:#7f7f7f;stroke-width:4;"/>
    <path clip-path="url(#pad2b8bbfbc)" d="M 343.650628 168.72852 
L 343.733209 168.458304 
L 343.775734 168.319799 
L 343.787233 168.282547 
L 343.854941 168.063219 
" style="fill:none;stroke:#7f7f7f;stroke-width:4;"/>
    <path clip-path="url(#pad2b8bbfbc)" d="M 343.854941 168.063219 
L 343.970925 167.600806 
" style="fill:none;stroke:#7f7f7f;stroke-width:4;"/>
   </g>
   <g id="LineCollection_27">
    <path clip-path="url(#pad2b8bbfbc)" d="M 365.028586 189.745937 
L 364.930326 190.205737 
" style="fill:none;stroke:#bcbd22;stroke-width:4;"/>
   </g>
   <g id="LineCollection_28">
    <path clip-path="url(#pad2b8bbfbc)" d="M 74.1878 102.681798 
L 74.213173 102.674053 
L 74.240399 102.675383 
L 74.276558 102.681133 
L 75.43891 102.851615 
L 76.12564 102.951729 
L 76.600359 103.023001 
" style="fill:none;stroke:#1f77b4;stroke-width:4;"/>
   </g>
   <g id="LineCollection_29">
    <path clip-path="url(#pad2b8bbfbc)" d="M 308.17881 145.530178 
L 308.115568 145.493687 
L 308.058741 145.427262 
L 308.000678 145.345774 
L 307.929691 145.295408 
L 307.858704 145.279301 
L 307.772702 145.281534 
L 307.643462 145.310946 
L 307.499873 145.360788 
L 307.355333 145.409016 
L 307.235311 145.443321 
L 306.960201 145.529988 
L 306.885317 145.534217 
L 306.857331 145.534502 
" style="fill:none;stroke:#ff7f0e;stroke-width:4;"/>
   </g>
   <g id="LineCollection_30">
    <path clip-path="url(#pad2b8bbfbc)" d="M 331.073771 184.249579 
L 331.16191 183.782699 
L 331.212751 183.547881 
L 331.222682 183.502125 
" style="fill:none;stroke:#2ca02c;stroke-width:4;"/>
    <path clip-path="url(#pad2b8bbfbc)" d="M 331.568826 182.035251 
L 331.511334 182.268215 
L 331.420818 182.655223 
L 331.246677 183.399683 
L 331.222682 183.502125 
" style="fill:none;stroke:#2ca02c;stroke-width:4;"/>
   </g>
   <g id="LineCollection_31">
    <path clip-path="url(#pad2b8bbfbc)" d="M 310.580489 184.826787 
L 310.649432 184.869313 
L 310.705642 184.87682 
L 311.295442 184.899865 
L 311.973762 184.93992 
L 313.581707 185.009719 
" style="fill:none;stroke:#d62728;stroke-width:4;"/>
   </g>
   <g id="LineCollection_32">
    <path clip-path="url(#pad2b8bbfbc)" d="M 306.726381 211.056805 
L 306.766958 210.828592 
L 306.986049 209.68534 
" style="fill:none;stroke:#9467bd;stroke-width:4;"/>
    <path clip-path="url(#pad2b8bbfbc)" d="M 306.803735 211.068874 
L 306.669363 211.374441 
L 306.507671 211.617906 
L 306.374059 211.687563 
L 306.333339 211.765059 
L 306.286537 211.854292 
L 306.213507 211.966616 
L 306.101372 212.139095 
L 306.079325 212.172973 
L 306.052575 212.214168 
L 305.834102 212.556987 
" style="fill:none;stroke:#9467bd;stroke-width:4;"/>
   </g>
   <g id="LineCollection_33">
    <path clip-path="url(#pad2b8bbfbc)" d="M 249.615796 162.146926 
L 249.729261 161.544154 
" style="fill:none;stroke:#8c564b;stroke-width:4;"/>
   </g>
   <g id="LineCollection_34">
    <path clip-path="url(#pad2b8bbfbc)" d="M 237.400526 143.372631 
L 236.869026 144.160377 
" style="fill:none;stroke:#e377c2;stroke-width:4;"/>
    <path clip-path="url(#pad2b8bbfbc)" d="M 237.400526 143.372631 
L 237.46315 143.360419 
L 237.758834 143.493223 
L 237.799032 143.511231 
" style="fill:none;stroke:#e377c2;stroke-width:4;"/>
    <path clip-path="url(#pad2b8bbfbc)" d="M 236.840138 144.20143 
L 236.648226 144.456679 
L 236.138108 145.10036 
" style="fill:none;stroke:#e377c2;stroke-width:4;"/>
   </g>
   <g id="LineCollection_35">
    <path clip-path="url(#pad2b8bbfbc)" d="M 323.530194 192.365518 
L 323.386652 192.217557 
L 322.756132 191.567556 
" style="fill:none;stroke:#7f7f7f;stroke-width:4;"/>
    <path clip-path="url(#pad2b8bbfbc)" d="M 322.013334 190.834404 
L 322.045359 190.866001 
L 322.756132 191.567556 
" style="fill:none;stroke:#7f7f7f;stroke-width:4;"/>
    <path clip-path="url(#pad2b8bbfbc)" d="M 322.013334 190.834404 
L 321.972804 190.79606 
L 321.692657 190.531213 
L 321.556955 190.395511 
L 321.52284 190.361395 
" style="fill:none;stroke:#7f7f7f;stroke-width:4;"/>
   </g>
   <g id="LineCollection_36">
    <path clip-path="url(#pad2b8bbfbc)" d="M 283.860357 168.342986 
L 284.397225 168.428132 
L 285.04276 168.505629 
L 285.338777 168.540885 
L 285.68055 168.584503 
" style="fill:none;stroke:#bcbd22;stroke-width:4;"/>
    <path clip-path="url(#pad2b8bbfbc)" d="M 285.68055 168.584503 
L 286.114359 168.639003 
" style="fill:none;stroke:#bcbd22;stroke-width:4;"/>
    <path clip-path="url(#pad2b8bbfbc)" d="M 286.114359 168.639003 
L 286.796148 168.733747 
" style="fill:none;stroke:#bcbd22;stroke-width:4;"/>
    <path clip-path="url(#pad2b8bbfbc)" d="M 286.796148 168.733747 
L 287.559899 168.843886 
" style="fill:none;stroke:#bcbd22;stroke-width:4;"/>
   </g>
   <g id="LineCollection_37">
    <path clip-path="url(#pad2b8bbfbc)" d="M 213.406075 153.746231 
L 213.419949 153.787616 
L 213.421232 153.824583 
L 213.212358 154.539299 
" style="fill:none;stroke:#1f77b4;stroke-width:4;"/>
   </g>
   <g id="LineCollection_38">
    <path clip-path="url(#pad2b8bbfbc)" d="M 149.571067 55.568972 
L 149.217653 55.090262 
L 148.824611 54.572732 
L 148.441785 54.05791 
L 148.047461 53.527598 
L 147.838396 53.246359 
L 147.655844 52.997524 
L 147.408911 52.661025 
L 147.263658 52.478283 
L 146.78452 51.857219 
" style="fill:none;stroke:#ff7f0e;stroke-width:4;"/>
    <path clip-path="url(#pad2b8bbfbc)" d="M 149.632219 55.643666 
L 150.000743 56.145326 
" style="fill:none;stroke:#ff7f0e;stroke-width:4;"/>
   </g>
   <g id="LineCollection_39">
    <path clip-path="url(#pad2b8bbfbc)" d="M 385.519208 123.187624 
L 385.426127 123.664719 
L 385.34977 124.056193 
L 385.313042 124.22544 
" style="fill:none;stroke:#2ca02c;stroke-width:4;"/>
   </g>
   <g id="LineCollection_40">
    <path clip-path="url(#pad2b8bbfbc)" d="M 128.321969 108.953834 
L 128.193631 109.574851 
L 128.06748 110.188313 
L 128.057359 110.237824 
L 127.943324 110.794601 
L 127.823112 111.38193 
L 127.707841 111.944837 
L 127.693919 112.012973 
L 127.662702 112.165638 
L 127.566485 112.635416 
L 127.53427 112.792832 
L 127.456963 113.226641 
L 127.322687 113.831551 
L 127.188648 114.434988 
L 127.109868 114.690664 
L 126.961385 114.916026 
L 126.915438 114.976988 
" style="fill:none;stroke:#d62728;stroke-width:4;"/>
   </g>
   <g id="LineCollection_41">
    <path clip-path="url(#pad2b8bbfbc)" d="M 330.975273 148.411185 
L 331.537514 148.485118 
L 331.550913 148.512344 
" style="fill:none;stroke:#9467bd;stroke-width:4;"/>
    <path clip-path="url(#pad2b8bbfbc)" d="M 330.320473 148.32295 
L 330.805883 148.38833 
L 330.975273 148.411185 
" style="fill:none;stroke:#9467bd;stroke-width:4;"/>
    <path clip-path="url(#pad2b8bbfbc)" d="M 329.581571 148.223407 
L 330.320473 148.32295 
" style="fill:none;stroke:#9467bd;stroke-width:4;"/>
    <path clip-path="url(#pad2b8bbfbc)" d="M 329.0524 148.130421 
L 329.581571 148.223407 
" style="fill:none;stroke:#9467bd;stroke-width:4;"/>
   </g>
   <g id="LineCollection_42">
    <path clip-path="url(#pad2b8bbfbc)" d="M 190.748403 112.212772 
L 190.568132 112.362681 
L 189.846432 113.021615 
L 189.818825 113.037533 
L 189.795781 113.042712 
L 189.763281 113.045135 
L 189.73634 113.042522 
L 189.716051 113.037485 
L 189.673003 113.009641 
" style="fill:none;stroke:#8c564b;stroke-width:4;"/>
   </g>
   <g id="LineCollection_43">
    <path clip-path="url(#pad2b8bbfbc)" d="M 93.900844 108.877953 
L 93.779681 109.596565 
" style="fill:none;stroke:#e377c2;stroke-width:4;"/>
   </g>
   <g id="LineCollection_44">
    <path clip-path="url(#pad2b8bbfbc)" d="M 104.601583 34.67267 
L 104.627146 34.7677 
L 104.676323 34.847952 
L 104.756005 34.95277 
L 104.843955 35.071937 
" style="fill:none;stroke:#7f7f7f;stroke-width:4;"/>
   </g>
   <g id="LineCollection_45">
    <path clip-path="url(#pad2b8bbfbc)" d="M 175.241647 38.576051 
L 175.149943 38.598906 
L 174.236473 38.957261 
L 173.84709 39.111589 
L 173.772207 39.12095 
L 173.704879 39.124038 
L 173.607473 39.103749 
L 173.401592 39.044593 
L 172.813788 38.86532 
L 172.48261 38.762499 
L 172.289938 38.660485 
L 172.115227 38.557188 
L 171.983041 38.513664 
L 170.838934 38.390459 
L 170.764621 38.396635 
L 170.618846 38.430181 
L 170.284913 38.54108 
" style="fill:none;stroke:#bcbd22;stroke-width:4;"/>
   </g>
   <g id="patch_3">
    <path d="M 58.523437 294.118125 
L 58.523437 22.318125 
" style="fill:none;stroke:#000000;stroke-linecap:square;stroke-linejoin:miter;stroke-width:0.8;"/>
   </g>
   <g id="patch_4">
    <path d="M 403.139418 294.118125 
L 403.139418 22.318125 
" style="fill:none;stroke:#000000;stroke-linecap:square;stroke-linejoin:miter;stroke-width:0.8;"/>
   </g>
   <g id="patch_5">
    <path d="M 58.523438 294.118125 
L 403.139418 294.118125 
" style="fill:none;stroke:#000000;stroke-linecap:square;stroke-linejoin:miter;stroke-width:0.8;"/>
   </g>
   <g id="patch_6">
    <path d="M 58.523438 22.318125 
L 403.139418 22.318125 
" style="fill:none;stroke:#000000;stroke-linecap:square;stroke-linejoin:miter;stroke-width:0.8;"/>
   </g>
   <g id="text_13">
    <!-- George Street -->
    <defs>
     <path d="M 59.515625 10.40625 
L 59.515625 29.984375 
L 43.40625 29.984375 
L 43.40625 38.09375 
L 69.28125 38.09375 
L 69.28125 6.78125 
Q 63.578125 2.734375 56.6875 0.65625 
Q 49.8125 -1.421875 42 -1.421875 
Q 24.90625 -1.421875 15.25 8.5625 
Q 5.609375 18.5625 5.609375 36.375 
Q 5.609375 54.25 15.25 64.234375 
Q 24.90625 74.21875 42 74.21875 
Q 49.125 74.21875 55.546875 72.453125 
Q 61.96875 70.703125 67.390625 67.28125 
L 67.390625 56.78125 
Q 61.921875 61.421875 55.765625 63.765625 
Q 49.609375 66.109375 42.828125 66.109375 
Q 29.4375 66.109375 22.71875 58.640625 
Q 16.015625 51.171875 16.015625 36.375 
Q 16.015625 21.625 22.71875 14.15625 
Q 29.4375 6.6875 42.828125 6.6875 
Q 48.046875 6.6875 52.140625 7.59375 
Q 56.25 8.5 59.515625 10.40625 
z
" id="DejaVuSans-71"/>
     <path d="M 41.109375 46.296875 
Q 39.59375 47.171875 37.8125 47.578125 
Q 36.03125 48 33.890625 48 
Q 26.265625 48 22.1875 43.046875 
Q 18.109375 38.09375 18.109375 28.8125 
L 18.109375 0 
L 9.078125 0 
L 9.078125 54.6875 
L 18.109375 54.6875 
L 18.109375 46.1875 
Q 20.953125 51.171875 25.484375 53.578125 
Q 30.03125 56 36.53125 56 
Q 37.453125 56 38.578125 55.875 
Q 39.703125 55.765625 41.0625 55.515625 
z
" id="DejaVuSans-114"/>
     <path id="DejaVuSans-32"/>
     <path d="M 53.515625 70.515625 
L 53.515625 60.890625 
Q 47.90625 63.578125 42.921875 64.890625 
Q 37.9375 66.21875 33.296875 66.21875 
Q 25.25 66.21875 20.875 63.09375 
Q 16.5 59.96875 16.5 54.203125 
Q 16.5 49.359375 19.40625 46.890625 
Q 22.3125 44.4375 30.421875 42.921875 
L 36.375 41.703125 
Q 47.40625 39.59375 52.65625 34.296875 
Q 57.90625 29 57.90625 20.125 
Q 57.90625 9.515625 50.796875 4.046875 
Q 43.703125 -1.421875 29.984375 -1.421875 
Q 24.8125 -1.421875 18.96875 -0.25 
Q 13.140625 0.921875 6.890625 3.21875 
L 6.890625 13.375 
Q 12.890625 10.015625 18.65625 8.296875 
Q 24.421875 6.59375 29.984375 6.59375 
Q 38.421875 6.59375 43.015625 9.90625 
Q 47.609375 13.234375 47.609375 19.390625 
Q 47.609375 24.75 44.3125 27.78125 
Q 41.015625 30.8125 33.5 32.328125 
L 27.484375 33.5 
Q 16.453125 35.6875 11.515625 40.375 
Q 6.59375 45.0625 6.59375 53.421875 
Q 6.59375 63.09375 13.40625 68.65625 
Q 20.21875 74.21875 32.171875 74.21875 
Q 37.3125 74.21875 42.625 73.28125 
Q 47.953125 72.359375 53.515625 70.515625 
z
" id="DejaVuSans-83"/>
    </defs>
    <g transform="translate(188.821115 16.318125)scale(0.12 -0.12)">
     <use xlink:href="#DejaVuSans-71"/>
     <use x="77.490234" xlink:href="#DejaVuSans-101"/>
     <use x="139.013672" xlink:href="#DejaVuSans-111"/>
     <use x="200.195312" xlink:href="#DejaVuSans-114"/>
     <use x="239.558594" xlink:href="#DejaVuSans-103"/>
     <use x="303.035156" xlink:href="#DejaVuSans-101"/>
     <use x="364.558594" xlink:href="#DejaVuSans-32"/>
     <use x="396.345703" xlink:href="#DejaVuSans-83"/>
     <use x="459.822266" xlink:href="#DejaVuSans-116"/>
     <use x="499.03125" xlink:href="#DejaVuSans-114"/>
     <use x="537.894531" xlink:href="#DejaVuSans-101"/>
     <use x="599.417969" xlink:href="#DejaVuSans-101"/>
     <use x="660.941406" xlink:href="#DejaVuSans-116"/>
    </g>
   </g>
  </g>
 </g>
 <defs>
  <clipPath id="pad2b8bbfbc">
   <rect height="271.8" width="344.615981" x="58.523437" y="22.318125"/>
  </clipPath>
 </defs>
</svg>
