<?xml version="1.0" encoding="utf-8" standalone="no"?>
<!DOCTYPE svg PUBLIC "-//W3C//DTD SVG 1.1//EN"
  "http://www.w3.org/Graphics/SVG/1.1/DTD/svg11.dtd">
<!-- Created with matplotlib (https://matplotlib.org/) -->
<svg height="331.674375pt" version="1.1" viewBox="0 0 470.21107 331.674375" width="470.21107pt" xmlns="http://www.w3.org/2000/svg" xmlns:xlink="http://www.w3.org/1999/xlink">
 <defs>
  <style type="text/css">
*{stroke-linecap:butt;stroke-linejoin:round;}
  </style>
 </defs>
 <g id="figure_1">
  <g id="patch_1">
   <path d="M 0 331.674375 
L 470.21107 331.674375 
L 470.21107 0 
L 0 0 
z
" style="fill:none;"/>
  </g>
  <g id="axes_1">
   <g id="patch_2">
    <path d="M 64.885938 294.118125 
L 463.01107 294.118125 
L 463.01107 22.318125 
L 64.885938 22.318125 
z
" style="fill:#ffffff;"/>
   </g>
   <g id="matplotlib.axis_1">
    <g id="xtick_1">
     <g id="line2d_1">
      <defs>
       <path d="M 0 0 
L 0 3.5 
" id="m52ae1af569" style="stroke:#000000;stroke-width:0.8;"/>
      </defs>
      <g>
       <use style="stroke:#000000;stroke-width:0.8;" x="66.013736" xlink:href="#m52ae1af569" y="294.118125"/>
      </g>
     </g>
     <g id="text_1">
      <!-- 150.7 -->
      <defs>
       <path d="M 12.40625 8.296875 
L 28.515625 8.296875 
L 28.515625 63.921875 
L 10.984375 60.40625 
L 10.984375 69.390625 
L 28.421875 72.90625 
L 38.28125 72.90625 
L 38.28125 8.296875 
L 54.390625 8.296875 
L 54.390625 0 
L 12.40625 0 
z
" id="DejaVuSans-49"/>
       <path d="M 10.796875 72.90625 
L 49.515625 72.90625 
L 49.515625 64.59375 
L 19.828125 64.59375 
L 19.828125 46.734375 
Q 21.96875 47.46875 24.109375 47.828125 
Q 26.265625 48.1875 28.421875 48.1875 
Q 40.625 48.1875 47.75 41.5 
Q 54.890625 34.8125 54.890625 23.390625 
Q 54.890625 11.625 47.5625 5.09375 
Q 40.234375 -1.421875 26.90625 -1.421875 
Q 22.3125 -1.421875 17.546875 -0.640625 
Q 12.796875 0.140625 7.71875 1.703125 
L 7.71875 11.625 
Q 12.109375 9.234375 16.796875 8.0625 
Q 21.484375 6.890625 26.703125 6.890625 
Q 35.15625 6.890625 40.078125 11.328125 
Q 45.015625 15.765625 45.015625 23.390625 
Q 45.015625 31 40.078125 35.4375 
Q 35.15625 39.890625 26.703125 39.890625 
Q 22.75 39.890625 18.8125 39.015625 
Q 14.890625 38.140625 10.796875 36.28125 
z
" id="DejaVuSans-53"/>
       <path d="M 31.78125 66.40625 
Q 24.171875 66.40625 20.328125 58.90625 
Q 16.5 51.421875 16.5 36.375 
Q 16.5 21.390625 20.328125 13.890625 
Q 24.171875 6.390625 31.78125 6.390625 
Q 39.453125 6.390625 43.28125 13.890625 
Q 47.125 21.390625 47.125 36.375 
Q 47.125 51.421875 43.28125 58.90625 
Q 39.453125 66.40625 31.78125 66.40625 
z
M 31.78125 74.21875 
Q 44.046875 74.21875 50.515625 64.515625 
Q 56.984375 54.828125 56.984375 36.375 
Q 56.984375 17.96875 50.515625 8.265625 
Q 44.046875 -1.421875 31.78125 -1.421875 
Q 19.53125 -1.421875 13.0625 8.265625 
Q 6.59375 17.96875 6.59375 36.375 
Q 6.59375 54.828125 13.0625 64.515625 
Q 19.53125 74.21875 31.78125 74.21875 
z
" id="DejaVuSans-48"/>
       <path d="M 10.6875 12.40625 
L 21 12.40625 
L 21 0 
L 10.6875 0 
z
" id="DejaVuSans-46"/>
       <path d="M 8.203125 72.90625 
L 55.078125 72.90625 
L 55.078125 68.703125 
L 28.609375 0 
L 18.3125 0 
L 43.21875 64.59375 
L 8.203125 64.59375 
z
" id="DejaVuSans-55"/>
      </defs>
      <g transform="translate(51.699674 308.716563)scale(0.1 -0.1)">
       <use xlink:href="#DejaVuSans-49"/>
       <use x="63.623047" xlink:href="#DejaVuSans-53"/>
       <use x="127.246094" xlink:href="#DejaVuSans-48"/>
       <use x="190.869141" xlink:href="#DejaVuSans-46"/>
       <use x="222.65625" xlink:href="#DejaVuSans-55"/>
      </g>
     </g>
    </g>
    <g id="xtick_2">
     <g id="line2d_2">
      <g>
       <use style="stroke:#000000;stroke-width:0.8;" x="133.029421" xlink:href="#m52ae1af569" y="294.118125"/>
      </g>
     </g>
     <g id="text_2">
      <!-- 150.8 -->
      <defs>
       <path d="M 31.78125 34.625 
Q 24.75 34.625 20.71875 30.859375 
Q 16.703125 27.09375 16.703125 20.515625 
Q 16.703125 13.921875 20.71875 10.15625 
Q 24.75 6.390625 31.78125 6.390625 
Q 38.8125 6.390625 42.859375 10.171875 
Q 46.921875 13.96875 46.921875 20.515625 
Q 46.921875 27.09375 42.890625 30.859375 
Q 38.875 34.625 31.78125 34.625 
z
M 21.921875 38.8125 
Q 15.578125 40.375 12.03125 44.71875 
Q 8.5 49.078125 8.5 55.328125 
Q 8.5 64.0625 14.71875 69.140625 
Q 20.953125 74.21875 31.78125 74.21875 
Q 42.671875 74.21875 48.875 69.140625 
Q 55.078125 64.0625 55.078125 55.328125 
Q 55.078125 49.078125 51.53125 44.71875 
Q 48 40.375 41.703125 38.8125 
Q 48.828125 37.15625 52.796875 32.3125 
Q 56.78125 27.484375 56.78125 20.515625 
Q 56.78125 9.90625 50.3125 4.234375 
Q 43.84375 -1.421875 31.78125 -1.421875 
Q 19.734375 -1.421875 13.25 4.234375 
Q 6.78125 9.90625 6.78125 20.515625 
Q 6.78125 27.484375 10.78125 32.3125 
Q 14.796875 37.15625 21.921875 38.8125 
z
M 18.3125 54.390625 
Q 18.3125 48.734375 21.84375 45.5625 
Q 25.390625 42.390625 31.78125 42.390625 
Q 38.140625 42.390625 41.71875 45.5625 
Q 45.3125 48.734375 45.3125 54.390625 
Q 45.3125 60.0625 41.71875 63.234375 
Q 38.140625 66.40625 31.78125 66.40625 
Q 25.390625 66.40625 21.84375 63.234375 
Q 18.3125 60.0625 18.3125 54.390625 
z
" id="DejaVuSans-56"/>
      </defs>
      <g transform="translate(118.715358 308.716563)scale(0.1 -0.1)">
       <use xlink:href="#DejaVuSans-49"/>
       <use x="63.623047" xlink:href="#DejaVuSans-53"/>
       <use x="127.246094" xlink:href="#DejaVuSans-48"/>
       <use x="190.869141" xlink:href="#DejaVuSans-46"/>
       <use x="222.65625" xlink:href="#DejaVuSans-56"/>
      </g>
     </g>
    </g>
    <g id="xtick_3">
     <g id="line2d_3">
      <g>
       <use style="stroke:#000000;stroke-width:0.8;" x="200.045105" xlink:href="#m52ae1af569" y="294.118125"/>
      </g>
     </g>
     <g id="text_3">
      <!-- 150.9 -->
      <defs>
       <path d="M 10.984375 1.515625 
L 10.984375 10.5 
Q 14.703125 8.734375 18.5 7.8125 
Q 22.3125 6.890625 25.984375 6.890625 
Q 35.75 6.890625 40.890625 13.453125 
Q 46.046875 20.015625 46.78125 33.40625 
Q 43.953125 29.203125 39.59375 26.953125 
Q 35.25 24.703125 29.984375 24.703125 
Q 19.046875 24.703125 12.671875 31.3125 
Q 6.296875 37.9375 6.296875 49.421875 
Q 6.296875 60.640625 12.9375 67.421875 
Q 19.578125 74.21875 30.609375 74.21875 
Q 43.265625 74.21875 49.921875 64.515625 
Q 56.59375 54.828125 56.59375 36.375 
Q 56.59375 19.140625 48.40625 8.859375 
Q 40.234375 -1.421875 26.421875 -1.421875 
Q 22.703125 -1.421875 18.890625 -0.6875 
Q 15.09375 0.046875 10.984375 1.515625 
z
M 30.609375 32.421875 
Q 37.25 32.421875 41.125 36.953125 
Q 45.015625 41.5 45.015625 49.421875 
Q 45.015625 57.28125 41.125 61.84375 
Q 37.25 66.40625 30.609375 66.40625 
Q 23.96875 66.40625 20.09375 61.84375 
Q 16.21875 57.28125 16.21875 49.421875 
Q 16.21875 41.5 20.09375 36.953125 
Q 23.96875 32.421875 30.609375 32.421875 
z
" id="DejaVuSans-57"/>
      </defs>
      <g transform="translate(185.731042 308.716563)scale(0.1 -0.1)">
       <use xlink:href="#DejaVuSans-49"/>
       <use x="63.623047" xlink:href="#DejaVuSans-53"/>
       <use x="127.246094" xlink:href="#DejaVuSans-48"/>
       <use x="190.869141" xlink:href="#DejaVuSans-46"/>
       <use x="222.65625" xlink:href="#DejaVuSans-57"/>
      </g>
     </g>
    </g>
    <g id="xtick_4">
     <g id="line2d_4">
      <g>
       <use style="stroke:#000000;stroke-width:0.8;" x="267.060789" xlink:href="#m52ae1af569" y="294.118125"/>
      </g>
     </g>
     <g id="text_4">
      <!-- 151.0 -->
      <g transform="translate(252.746726 308.716563)scale(0.1 -0.1)">
       <use xlink:href="#DejaVuSans-49"/>
       <use x="63.623047" xlink:href="#DejaVuSans-53"/>
       <use x="127.246094" xlink:href="#DejaVuSans-49"/>
       <use x="190.869141" xlink:href="#DejaVuSans-46"/>
       <use x="222.65625" xlink:href="#DejaVuSans-48"/>
      </g>
     </g>
    </g>
    <g id="xtick_5">
     <g id="line2d_5">
      <g>
       <use style="stroke:#000000;stroke-width:0.8;" x="334.076473" xlink:href="#m52ae1af569" y="294.118125"/>
      </g>
     </g>
     <g id="text_5">
      <!-- 151.1 -->
      <g transform="translate(319.762411 308.716563)scale(0.1 -0.1)">
       <use xlink:href="#DejaVuSans-49"/>
       <use x="63.623047" xlink:href="#DejaVuSans-53"/>
       <use x="127.246094" xlink:href="#DejaVuSans-49"/>
       <use x="190.869141" xlink:href="#DejaVuSans-46"/>
       <use x="222.65625" xlink:href="#DejaVuSans-49"/>
      </g>
     </g>
    </g>
    <g id="xtick_6">
     <g id="line2d_6">
      <g>
       <use style="stroke:#000000;stroke-width:0.8;" x="401.092157" xlink:href="#m52ae1af569" y="294.118125"/>
      </g>
     </g>
     <g id="text_6">
      <!-- 151.2 -->
      <defs>
       <path d="M 19.1875 8.296875 
L 53.609375 8.296875 
L 53.609375 0 
L 7.328125 0 
L 7.328125 8.296875 
Q 12.9375 14.109375 22.625 23.890625 
Q 32.328125 33.6875 34.8125 36.53125 
Q 39.546875 41.84375 41.421875 45.53125 
Q 43.3125 49.21875 43.3125 52.78125 
Q 43.3125 58.59375 39.234375 62.25 
Q 35.15625 65.921875 28.609375 65.921875 
Q 23.96875 65.921875 18.8125 64.3125 
Q 13.671875 62.703125 7.8125 59.421875 
L 7.8125 69.390625 
Q 13.765625 71.78125 18.9375 73 
Q 24.125 74.21875 28.421875 74.21875 
Q 39.75 74.21875 46.484375 68.546875 
Q 53.21875 62.890625 53.21875 53.421875 
Q 53.21875 48.921875 51.53125 44.890625 
Q 49.859375 40.875 45.40625 35.40625 
Q 44.1875 33.984375 37.640625 27.21875 
Q 31.109375 20.453125 19.1875 8.296875 
z
" id="DejaVuSans-50"/>
      </defs>
      <g transform="translate(386.778095 308.716563)scale(0.1 -0.1)">
       <use xlink:href="#DejaVuSans-49"/>
       <use x="63.623047" xlink:href="#DejaVuSans-53"/>
       <use x="127.246094" xlink:href="#DejaVuSans-49"/>
       <use x="190.869141" xlink:href="#DejaVuSans-46"/>
       <use x="222.65625" xlink:href="#DejaVuSans-50"/>
      </g>
     </g>
    </g>
    <g id="text_7">
     <!-- Longitude -->
     <defs>
      <path d="M 9.8125 72.90625 
L 19.671875 72.90625 
L 19.671875 8.296875 
L 55.171875 8.296875 
L 55.171875 0 
L 9.8125 0 
z
" id="DejaVuSans-76"/>
      <path d="M 30.609375 48.390625 
Q 23.390625 48.390625 19.1875 42.75 
Q 14.984375 37.109375 14.984375 27.296875 
Q 14.984375 17.484375 19.15625 11.84375 
Q 23.34375 6.203125 30.609375 6.203125 
Q 37.796875 6.203125 41.984375 11.859375 
Q 46.1875 17.53125 46.1875 27.296875 
Q 46.1875 37.015625 41.984375 42.703125 
Q 37.796875 48.390625 30.609375 48.390625 
z
M 30.609375 56 
Q 42.328125 56 49.015625 48.375 
Q 55.71875 40.765625 55.71875 27.296875 
Q 55.71875 13.875 49.015625 6.21875 
Q 42.328125 -1.421875 30.609375 -1.421875 
Q 18.84375 -1.421875 12.171875 6.21875 
Q 5.515625 13.875 5.515625 27.296875 
Q 5.515625 40.765625 12.171875 48.375 
Q 18.84375 56 30.609375 56 
z
" id="DejaVuSans-111"/>
      <path d="M 54.890625 33.015625 
L 54.890625 0 
L 45.90625 0 
L 45.90625 32.71875 
Q 45.90625 40.484375 42.875 44.328125 
Q 39.84375 48.1875 33.796875 48.1875 
Q 26.515625 48.1875 22.3125 43.546875 
Q 18.109375 38.921875 18.109375 30.90625 
L 18.109375 0 
L 9.078125 0 
L 9.078125 54.6875 
L 18.109375 54.6875 
L 18.109375 46.1875 
Q 21.34375 51.125 25.703125 53.5625 
Q 30.078125 56 35.796875 56 
Q 45.21875 56 50.046875 50.171875 
Q 54.890625 44.34375 54.890625 33.015625 
z
" id="DejaVuSans-110"/>
      <path d="M 45.40625 27.984375 
Q 45.40625 37.75 41.375 43.109375 
Q 37.359375 48.484375 30.078125 48.484375 
Q 22.859375 48.484375 18.828125 43.109375 
Q 14.796875 37.75 14.796875 27.984375 
Q 14.796875 18.265625 18.828125 12.890625 
Q 22.859375 7.515625 30.078125 7.515625 
Q 37.359375 7.515625 41.375 12.890625 
Q 45.40625 18.265625 45.40625 27.984375 
z
M 54.390625 6.78125 
Q 54.390625 -7.171875 48.1875 -13.984375 
Q 42 -20.796875 29.203125 -20.796875 
Q 24.46875 -20.796875 20.265625 -20.09375 
Q 16.0625 -19.390625 12.109375 -17.921875 
L 12.109375 -9.1875 
Q 16.0625 -11.328125 19.921875 -12.34375 
Q 23.78125 -13.375 27.78125 -13.375 
Q 36.625 -13.375 41.015625 -8.765625 
Q 45.40625 -4.15625 45.40625 5.171875 
L 45.40625 9.625 
Q 42.625 4.78125 38.28125 2.390625 
Q 33.9375 0 27.875 0 
Q 17.828125 0 11.671875 7.65625 
Q 5.515625 15.328125 5.515625 27.984375 
Q 5.515625 40.671875 11.671875 48.328125 
Q 17.828125 56 27.875 56 
Q 33.9375 56 38.28125 53.609375 
Q 42.625 51.21875 45.40625 46.390625 
L 45.40625 54.6875 
L 54.390625 54.6875 
z
" id="DejaVuSans-103"/>
      <path d="M 9.421875 54.6875 
L 18.40625 54.6875 
L 18.40625 0 
L 9.421875 0 
z
M 9.421875 75.984375 
L 18.40625 75.984375 
L 18.40625 64.59375 
L 9.421875 64.59375 
z
" id="DejaVuSans-105"/>
      <path d="M 18.3125 70.21875 
L 18.3125 54.6875 
L 36.8125 54.6875 
L 36.8125 47.703125 
L 18.3125 47.703125 
L 18.3125 18.015625 
Q 18.3125 11.328125 20.140625 9.421875 
Q 21.96875 7.515625 27.59375 7.515625 
L 36.8125 7.515625 
L 36.8125 0 
L 27.59375 0 
Q 17.1875 0 13.234375 3.875 
Q 9.28125 7.765625 9.28125 18.015625 
L 9.28125 47.703125 
L 2.6875 47.703125 
L 2.6875 54.6875 
L 9.28125 54.6875 
L 9.28125 70.21875 
z
" id="DejaVuSans-116"/>
      <path d="M 8.5 21.578125 
L 8.5 54.6875 
L 17.484375 54.6875 
L 17.484375 21.921875 
Q 17.484375 14.15625 20.5 10.265625 
Q 23.53125 6.390625 29.59375 6.390625 
Q 36.859375 6.390625 41.078125 11.03125 
Q 45.3125 15.671875 45.3125 23.6875 
L 45.3125 54.6875 
L 54.296875 54.6875 
L 54.296875 0 
L 45.3125 0 
L 45.3125 8.40625 
Q 42.046875 3.421875 37.71875 1 
Q 33.40625 -1.421875 27.6875 -1.421875 
Q 18.265625 -1.421875 13.375 4.4375 
Q 8.5 10.296875 8.5 21.578125 
z
M 31.109375 56 
z
" id="DejaVuSans-117"/>
      <path d="M 45.40625 46.390625 
L 45.40625 75.984375 
L 54.390625 75.984375 
L 54.390625 0 
L 45.40625 0 
L 45.40625 8.203125 
Q 42.578125 3.328125 38.25 0.953125 
Q 33.9375 -1.421875 27.875 -1.421875 
Q 17.96875 -1.421875 11.734375 6.484375 
Q 5.515625 14.40625 5.515625 27.296875 
Q 5.515625 40.1875 11.734375 48.09375 
Q 17.96875 56 27.875 56 
Q 33.9375 56 38.25 53.625 
Q 42.578125 51.265625 45.40625 46.390625 
z
M 14.796875 27.296875 
Q 14.796875 17.390625 18.875 11.75 
Q 22.953125 6.109375 30.078125 6.109375 
Q 37.203125 6.109375 41.296875 11.75 
Q 45.40625 17.390625 45.40625 27.296875 
Q 45.40625 37.203125 41.296875 42.84375 
Q 37.203125 48.484375 30.078125 48.484375 
Q 22.953125 48.484375 18.875 42.84375 
Q 14.796875 37.203125 14.796875 27.296875 
z
" id="DejaVuSans-100"/>
      <path d="M 56.203125 29.59375 
L 56.203125 25.203125 
L 14.890625 25.203125 
Q 15.484375 15.921875 20.484375 11.0625 
Q 25.484375 6.203125 34.421875 6.203125 
Q 39.59375 6.203125 44.453125 7.46875 
Q 49.3125 8.734375 54.109375 11.28125 
L 54.109375 2.78125 
Q 49.265625 0.734375 44.1875 -0.34375 
Q 39.109375 -1.421875 33.890625 -1.421875 
Q 20.796875 -1.421875 13.15625 6.1875 
Q 5.515625 13.8125 5.515625 26.8125 
Q 5.515625 40.234375 12.765625 48.109375 
Q 20.015625 56 32.328125 56 
Q 43.359375 56 49.78125 48.890625 
Q 56.203125 41.796875 56.203125 29.59375 
z
M 47.21875 32.234375 
Q 47.125 39.59375 43.09375 43.984375 
Q 39.0625 48.390625 32.421875 48.390625 
Q 24.90625 48.390625 20.390625 44.140625 
Q 15.875 39.890625 15.1875 32.171875 
z
" id="DejaVuSans-101"/>
     </defs>
     <g transform="translate(239.078972 322.394687)scale(0.1 -0.1)">
      <use xlink:href="#DejaVuSans-76"/>
      <use x="53.962891" xlink:href="#DejaVuSans-111"/>
      <use x="115.144531" xlink:href="#DejaVuSans-110"/>
      <use x="178.523438" xlink:href="#DejaVuSans-103"/>
      <use x="242" xlink:href="#DejaVuSans-105"/>
      <use x="269.783203" xlink:href="#DejaVuSans-116"/>
      <use x="308.992188" xlink:href="#DejaVuSans-117"/>
      <use x="372.371094" xlink:href="#DejaVuSans-100"/>
      <use x="435.847656" xlink:href="#DejaVuSans-101"/>
     </g>
    </g>
   </g>
   <g id="matplotlib.axis_2">
    <g id="ytick_1">
     <g id="line2d_7">
      <defs>
       <path d="M 0 0 
L -3.5 0 
" id="mcd2341c1ae" style="stroke:#000000;stroke-width:0.8;"/>
      </defs>
      <g>
       <use style="stroke:#000000;stroke-width:0.8;" x="64.885938" xlink:href="#mcd2341c1ae" y="285.263135"/>
      </g>
     </g>
     <g id="text_8">
      <!-- −34.05 -->
      <defs>
       <path d="M 10.59375 35.5 
L 73.1875 35.5 
L 73.1875 27.203125 
L 10.59375 27.203125 
z
" id="DejaVuSans-8722"/>
       <path d="M 40.578125 39.3125 
Q 47.65625 37.796875 51.625 33 
Q 55.609375 28.21875 55.609375 21.1875 
Q 55.609375 10.40625 48.1875 4.484375 
Q 40.765625 -1.421875 27.09375 -1.421875 
Q 22.515625 -1.421875 17.65625 -0.515625 
Q 12.796875 0.390625 7.625 2.203125 
L 7.625 11.71875 
Q 11.71875 9.328125 16.59375 8.109375 
Q 21.484375 6.890625 26.8125 6.890625 
Q 36.078125 6.890625 40.9375 10.546875 
Q 45.796875 14.203125 45.796875 21.1875 
Q 45.796875 27.640625 41.28125 31.265625 
Q 36.765625 34.90625 28.71875 34.90625 
L 20.21875 34.90625 
L 20.21875 43.015625 
L 29.109375 43.015625 
Q 36.375 43.015625 40.234375 45.921875 
Q 44.09375 48.828125 44.09375 54.296875 
Q 44.09375 59.90625 40.109375 62.90625 
Q 36.140625 65.921875 28.71875 65.921875 
Q 24.65625 65.921875 20.015625 65.03125 
Q 15.375 64.15625 9.8125 62.3125 
L 9.8125 71.09375 
Q 15.4375 72.65625 20.34375 73.4375 
Q 25.25 74.21875 29.59375 74.21875 
Q 40.828125 74.21875 47.359375 69.109375 
Q 53.90625 64.015625 53.90625 55.328125 
Q 53.90625 49.265625 50.4375 45.09375 
Q 46.96875 40.921875 40.578125 39.3125 
z
" id="DejaVuSans-51"/>
       <path d="M 37.796875 64.3125 
L 12.890625 25.390625 
L 37.796875 25.390625 
z
M 35.203125 72.90625 
L 47.609375 72.90625 
L 47.609375 25.390625 
L 58.015625 25.390625 
L 58.015625 17.1875 
L 47.609375 17.1875 
L 47.609375 0 
L 37.796875 0 
L 37.796875 17.1875 
L 4.890625 17.1875 
L 4.890625 26.703125 
z
" id="DejaVuSans-52"/>
      </defs>
      <g transform="translate(20.878125 289.062354)scale(0.1 -0.1)">
       <use xlink:href="#DejaVuSans-8722"/>
       <use x="83.789062" xlink:href="#DejaVuSans-51"/>
       <use x="147.412109" xlink:href="#DejaVuSans-52"/>
       <use x="211.035156" xlink:href="#DejaVuSans-46"/>
       <use x="242.822266" xlink:href="#DejaVuSans-48"/>
       <use x="306.445312" xlink:href="#DejaVuSans-53"/>
      </g>
     </g>
    </g>
    <g id="ytick_2">
     <g id="line2d_8">
      <g>
       <use style="stroke:#000000;stroke-width:0.8;" x="64.885938" xlink:href="#mcd2341c1ae" y="251.755293"/>
      </g>
     </g>
     <g id="text_9">
      <!-- −34.00 -->
      <g transform="translate(20.878125 255.554512)scale(0.1 -0.1)">
       <use xlink:href="#DejaVuSans-8722"/>
       <use x="83.789062" xlink:href="#DejaVuSans-51"/>
       <use x="147.412109" xlink:href="#DejaVuSans-52"/>
       <use x="211.035156" xlink:href="#DejaVuSans-46"/>
       <use x="242.822266" xlink:href="#DejaVuSans-48"/>
       <use x="306.445312" xlink:href="#DejaVuSans-48"/>
      </g>
     </g>
    </g>
    <g id="ytick_3">
     <g id="line2d_9">
      <g>
       <use style="stroke:#000000;stroke-width:0.8;" x="64.885938" xlink:href="#mcd2341c1ae" y="218.247451"/>
      </g>
     </g>
     <g id="text_10">
      <!-- −33.95 -->
      <g transform="translate(20.878125 222.04667)scale(0.1 -0.1)">
       <use xlink:href="#DejaVuSans-8722"/>
       <use x="83.789062" xlink:href="#DejaVuSans-51"/>
       <use x="147.412109" xlink:href="#DejaVuSans-51"/>
       <use x="211.035156" xlink:href="#DejaVuSans-46"/>
       <use x="242.822266" xlink:href="#DejaVuSans-57"/>
       <use x="306.445312" xlink:href="#DejaVuSans-53"/>
      </g>
     </g>
    </g>
    <g id="ytick_4">
     <g id="line2d_10">
      <g>
       <use style="stroke:#000000;stroke-width:0.8;" x="64.885938" xlink:href="#mcd2341c1ae" y="184.739609"/>
      </g>
     </g>
     <g id="text_11">
      <!-- −33.90 -->
      <g transform="translate(20.878125 188.538828)scale(0.1 -0.1)">
       <use xlink:href="#DejaVuSans-8722"/>
       <use x="83.789062" xlink:href="#DejaVuSans-51"/>
       <use x="147.412109" xlink:href="#DejaVuSans-51"/>
       <use x="211.035156" xlink:href="#DejaVuSans-46"/>
       <use x="242.822266" xlink:href="#DejaVuSans-57"/>
       <use x="306.445312" xlink:href="#DejaVuSans-48"/>
      </g>
     </g>
    </g>
    <g id="ytick_5">
     <g id="line2d_11">
      <g>
       <use style="stroke:#000000;stroke-width:0.8;" x="64.885938" xlink:href="#mcd2341c1ae" y="151.231767"/>
      </g>
     </g>
     <g id="text_12">
      <!-- −33.85 -->
      <g transform="translate(20.878125 155.030985)scale(0.1 -0.1)">
       <use xlink:href="#DejaVuSans-8722"/>
       <use x="83.789062" xlink:href="#DejaVuSans-51"/>
       <use x="147.412109" xlink:href="#DejaVuSans-51"/>
       <use x="211.035156" xlink:href="#DejaVuSans-46"/>
       <use x="242.822266" xlink:href="#DejaVuSans-56"/>
       <use x="306.445312" xlink:href="#DejaVuSans-53"/>
      </g>
     </g>
    </g>
    <g id="ytick_6">
     <g id="line2d_12">
      <g>
       <use style="stroke:#000000;stroke-width:0.8;" x="64.885938" xlink:href="#mcd2341c1ae" y="117.723925"/>
      </g>
     </g>
     <g id="text_13">
      <!-- −33.80 -->
      <g transform="translate(20.878125 121.523143)scale(0.1 -0.1)">
       <use xlink:href="#DejaVuSans-8722"/>
       <use x="83.789062" xlink:href="#DejaVuSans-51"/>
       <use x="147.412109" xlink:href="#DejaVuSans-51"/>
       <use x="211.035156" xlink:href="#DejaVuSans-46"/>
       <use x="242.822266" xlink:href="#DejaVuSans-56"/>
       <use x="306.445312" xlink:href="#DejaVuSans-48"/>
      </g>
     </g>
    </g>
    <g id="ytick_7">
     <g id="line2d_13">
      <g>
       <use style="stroke:#000000;stroke-width:0.8;" x="64.885938" xlink:href="#mcd2341c1ae" y="84.216083"/>
      </g>
     </g>
     <g id="text_14">
      <!-- −33.75 -->
      <g transform="translate(20.878125 88.015301)scale(0.1 -0.1)">
       <use xlink:href="#DejaVuSans-8722"/>
       <use x="83.789062" xlink:href="#DejaVuSans-51"/>
       <use x="147.412109" xlink:href="#DejaVuSans-51"/>
       <use x="211.035156" xlink:href="#DejaVuSans-46"/>
       <use x="242.822266" xlink:href="#DejaVuSans-55"/>
       <use x="306.445312" xlink:href="#DejaVuSans-53"/>
      </g>
     </g>
    </g>
    <g id="ytick_8">
     <g id="line2d_14">
      <g>
       <use style="stroke:#000000;stroke-width:0.8;" x="64.885938" xlink:href="#mcd2341c1ae" y="50.70824"/>
      </g>
     </g>
     <g id="text_15">
      <!-- −33.70 -->
      <g transform="translate(20.878125 54.507459)scale(0.1 -0.1)">
       <use xlink:href="#DejaVuSans-8722"/>
       <use x="83.789062" xlink:href="#DejaVuSans-51"/>
       <use x="147.412109" xlink:href="#DejaVuSans-51"/>
       <use x="211.035156" xlink:href="#DejaVuSans-46"/>
       <use x="242.822266" xlink:href="#DejaVuSans-55"/>
       <use x="306.445312" xlink:href="#DejaVuSans-48"/>
      </g>
     </g>
    </g>
    <g id="text_16">
     <!-- Latiude -->
     <defs>
      <path d="M 34.28125 27.484375 
Q 23.390625 27.484375 19.1875 25 
Q 14.984375 22.515625 14.984375 16.5 
Q 14.984375 11.71875 18.140625 8.90625 
Q 21.296875 6.109375 26.703125 6.109375 
Q 34.1875 6.109375 38.703125 11.40625 
Q 43.21875 16.703125 43.21875 25.484375 
L 43.21875 27.484375 
z
M 52.203125 31.203125 
L 52.203125 0 
L 43.21875 0 
L 43.21875 8.296875 
Q 40.140625 3.328125 35.546875 0.953125 
Q 30.953125 -1.421875 24.3125 -1.421875 
Q 15.921875 -1.421875 10.953125 3.296875 
Q 6 8.015625 6 15.921875 
Q 6 25.140625 12.171875 29.828125 
Q 18.359375 34.515625 30.609375 34.515625 
L 43.21875 34.515625 
L 43.21875 35.40625 
Q 43.21875 41.609375 39.140625 45 
Q 35.0625 48.390625 27.6875 48.390625 
Q 23 48.390625 18.546875 47.265625 
Q 14.109375 46.140625 10.015625 43.890625 
L 10.015625 52.203125 
Q 14.9375 54.109375 19.578125 55.046875 
Q 24.21875 56 28.609375 56 
Q 40.484375 56 46.34375 49.84375 
Q 52.203125 43.703125 52.203125 31.203125 
z
" id="DejaVuSans-97"/>
     </defs>
     <g transform="translate(14.798438 176.836875)rotate(-90)scale(0.1 -0.1)">
      <use xlink:href="#DejaVuSans-76"/>
      <use x="55.712891" xlink:href="#DejaVuSans-97"/>
      <use x="116.992188" xlink:href="#DejaVuSans-116"/>
      <use x="156.201172" xlink:href="#DejaVuSans-105"/>
      <use x="183.984375" xlink:href="#DejaVuSans-117"/>
      <use x="247.363281" xlink:href="#DejaVuSans-100"/>
      <use x="310.839844" xlink:href="#DejaVuSans-101"/>
     </g>
    </g>
   </g>
   <g id="LineCollection_1">
    <path clip-path="url(#pf57ca7648c)" d="M 404.027398 185.220995 
L 404.046103 185.27537 
L 404.37645 186.240459 
L 404.451552 186.46481 
L 404.438688 186.53171 
" style="fill:none;stroke:#1f77b4;stroke-width:4;"/>
    <path clip-path="url(#pf57ca7648c)" d="M 404.135922 184.998667 
L 404.04043 184.574738 
L 404.027285 184.497501 
L 404.001278 184.406278 
L 403.918593 184.11997 
L 403.902809 184.071381 
L 403.88635 184.009648 
L 403.777995 183.642228 
" style="fill:none;stroke:#1f77b4;stroke-width:4;"/>
    <path clip-path="url(#pf57ca7648c)" d="M 403.543028 182.681127 
L 403.653405 183.133816 
L 403.756144 183.554881 
" style="fill:none;stroke:#1f77b4;stroke-width:4;"/>
    <path clip-path="url(#pf57ca7648c)" d="M 403.616669 180.396503 
L 403.586898 180.530305 
L 403.584819 180.614338 
L 403.577686 180.632088 
L 403.548701 180.789145 
L 403.52685 180.845485 
L 403.505336 180.905645 
L 403.431021 181.324744 
L 403.399171 181.546567 
L 403.333956 181.825685 
L 403.324968 181.878262 
L 403.454557 182.364542 
L 403.470397 182.420714 
L 403.519997 182.596532 
" style="fill:none;stroke:#1f77b4;stroke-width:4;"/>
    <path clip-path="url(#pf57ca7648c)" d="M 403.667392 180.134967 
L 403.628297 180.342185 
L 403.616669 180.396503 
" style="fill:none;stroke:#1f77b4;stroke-width:4;"/>
    <path clip-path="url(#pf57ca7648c)" d="M 403.793779 179.461635 
L 403.714071 179.897135 
L 403.667392 180.134967 
" style="fill:none;stroke:#1f77b4;stroke-width:4;"/>
    <path clip-path="url(#pf57ca7648c)" d="M 404.142831 177.682333 
L 404.110925 177.842704 
L 404.056102 178.11789 
L 403.989875 178.45026 
L 403.84894 179.165159 
L 403.793779 179.461635 
" style="fill:none;stroke:#1f77b4;stroke-width:4;"/>
   </g>
   <g id="LineCollection_2">
    <path clip-path="url(#pf57ca7648c)" d="M 261.22456 142.367286 
L 261.302863 142.102773 
L 261.417173 141.71631 
" style="fill:none;stroke:#ff7f0e;stroke-width:4;"/>
    <path clip-path="url(#pf57ca7648c)" d="M 261.52918 141.360854 
L 261.577544 141.21447 
L 261.60181 141.122236 
" style="fill:none;stroke:#ff7f0e;stroke-width:4;"/>
    <path clip-path="url(#pf57ca7648c)" d="M 261.60181 141.122236 
L 261.711121 140.753018 
L 261.818634 140.399304 
" style="fill:none;stroke:#ff7f0e;stroke-width:4;"/>
    <path clip-path="url(#pf57ca7648c)" d="M 261.417173 141.71631 
L 261.506824 141.426238 
" style="fill:none;stroke:#ff7f0e;stroke-width:4;"/>
    <path clip-path="url(#pf57ca7648c)" d="M 261.506824 141.426238 
L 261.52918 141.360854 
" style="fill:none;stroke:#ff7f0e;stroke-width:4;"/>
    <path clip-path="url(#pf57ca7648c)" d="M 261.818634 140.399304 
L 261.906936 140.078113 
L 262.003495 139.753102 
L 262.171955 139.164533 
L 262.346256 138.57911 
L 262.51657 137.986665 
L 262.5983 137.718331 
L 262.79198 137.045224 
L 262.950947 136.511197 
L 263.063459 136.139115 
" style="fill:none;stroke:#ff7f0e;stroke-width:4;"/>
    <path clip-path="url(#pf57ca7648c)" d="M 263.063459 136.139115 
L 263.093792 136.030141 
" style="fill:none;stroke:#ff7f0e;stroke-width:4;"/>
    <path clip-path="url(#pf57ca7648c)" d="M 263.178387 135.731419 
L 263.224055 135.57762 
L 263.405434 134.949731 
L 263.497387 134.632135 
L 263.704998 133.911506 
" style="fill:none;stroke:#ff7f0e;stroke-width:4;"/>
    <path clip-path="url(#pf57ca7648c)" d="M 263.093792 136.030141 
L 263.140134 135.866512 
" style="fill:none;stroke:#ff7f0e;stroke-width:4;"/>
    <path clip-path="url(#pf57ca7648c)" d="M 263.140134 135.866512 
L 263.178387 135.731419 
" style="fill:none;stroke:#ff7f0e;stroke-width:4;"/>
    <path clip-path="url(#pf57ca7648c)" d="M 263.704998 133.911506 
L 263.853742 133.338609 
" style="fill:none;stroke:#ff7f0e;stroke-width:4;"/>
    <path clip-path="url(#pf57ca7648c)" d="M 263.853742 133.338609 
L 263.866212 133.292772 
L 263.953053 132.897772 
L 264.12112 132.273814 
L 264.154149 132.161526 
" style="fill:none;stroke:#ff7f0e;stroke-width:4;"/>
    <path clip-path="url(#pf57ca7648c)" d="M 264.154149 132.161526 
L 264.250877 131.760796 
L 264.311486 131.509595 
L 264.298117 131.424383 
L 264.37732 131.118358 
L 264.459668 130.821433 
L 264.473711 130.777563 
L 264.566057 130.504175 
L 264.605827 130.346669 
" style="fill:none;stroke:#ff7f0e;stroke-width:4;"/>
    <path clip-path="url(#pf57ca7648c)" d="M 264.644361 130.197532 
L 264.652731 130.141754 
" style="fill:none;stroke:#ff7f0e;stroke-width:4;"/>
    <path clip-path="url(#pf57ca7648c)" d="M 264.605827 130.346669 
L 264.644361 130.197532 
" style="fill:none;stroke:#ff7f0e;stroke-width:4;"/>
    <path clip-path="url(#pf57ca7648c)" d="M 264.652731 130.141754 
L 264.891798 129.432134 
L 264.945499 129.23806 
L 265.010265 129.003767 
L 265.152548 128.570401 
" style="fill:none;stroke:#ff7f0e;stroke-width:4;"/>
    <path clip-path="url(#pf57ca7648c)" d="M 265.152548 128.570401 
L 265.250175 128.295552 
L 265.312189 128.161806 
" style="fill:none;stroke:#ff7f0e;stroke-width:4;"/>
    <path clip-path="url(#pf57ca7648c)" d="M 265.312189 128.161806 
L 265.320615 128.084289 
L 265.453349 127.595088 
L 265.590577 127.157565 
L 265.635009 127.078251 
" style="fill:none;stroke:#ff7f0e;stroke-width:4;"/>
   </g>
   <g id="LineCollection_3">
    <path clip-path="url(#pf57ca7648c)" d="M 407.097024 160.35701 
L 407.029224 160.765717 
L 406.983051 161.089492 
L 406.964963 161.210093 
" style="fill:none;stroke:#2ca02c;stroke-width:4;"/>
    <path clip-path="url(#pf57ca7648c)" d="M 407.330137 158.893901 
L 407.315925 158.965689 
L 407.27947 159.216159 
L 407.212738 159.447475 
L 407.211951 159.494716 
L 407.198358 159.568413 
L 407.140838 160.026944 
L 407.097024 160.35701 
" style="fill:none;stroke:#2ca02c;stroke-width:4;"/>
    <path clip-path="url(#pf57ca7648c)" d="M 406.897613 161.737379 
L 406.85481 162.188383 
L 406.820939 162.54176 
L 406.815658 162.596921 
L 406.812738 162.627816 
L 406.783697 162.972823 
L 406.777181 163.027703 
" style="fill:none;stroke:#2ca02c;stroke-width:4;"/>
    <path clip-path="url(#pf57ca7648c)" d="M 406.964963 161.210093 
L 406.931653 161.466855 
L 406.897613 161.737379 
" style="fill:none;stroke:#2ca02c;stroke-width:4;"/>
    <path clip-path="url(#pf57ca7648c)" d="M 406.777181 163.027703 
L 406.770159 163.087751 
L 406.713482 163.496514 
L 406.671971 163.895615 
" style="fill:none;stroke:#2ca02c;stroke-width:4;"/>
   </g>
   <g id="LineCollection_4">
    <path clip-path="url(#pf57ca7648c)" d="M 444.368257 109.80073 
L 444.454537 109.394438 
L 444.598281 108.706052 
L 444.650128 108.6487 
L 444.719163 108.619997 
L 444.805387 108.605673 
L 444.914473 108.563431 
" style="fill:none;stroke:#d62728;stroke-width:4;"/>
    <path clip-path="url(#pf57ca7648c)" d="M 444.184238 110.44137 
L 444.093745 110.964836 
L 444.082342 111.015054 
" style="fill:none;stroke:#d62728;stroke-width:4;"/>
   </g>
   <g id="LineCollection_5">
    <path clip-path="url(#pf57ca7648c)" d="M 409.894496 150.041659 
L 409.992123 150.030481 
L 410.310449 149.991048 
" style="fill:none;stroke:#9467bd;stroke-width:4;"/>
   </g>
   <g id="LineCollection_6">
    <path clip-path="url(#pf57ca7648c)" d="M 406.067842 170.060706 
L 405.924098 170.569455 
L 405.835627 170.950581 
L 405.729743 171.356254 
L 405.724182 171.378667 
" style="fill:none;stroke:#8c564b;stroke-width:4;"/>
    <path clip-path="url(#pf57ca7648c)" d="M 406.067842 170.060706 
L 406.21372 169.55836 
L 406.341062 169.086236 
L 406.34359 169.072642 
L 406.39392 168.471097 
L 406.417793 168.220514 
L 406.482896 167.669693 
L 406.543562 166.724657 
" style="fill:none;stroke:#8c564b;stroke-width:4;"/>
    <path clip-path="url(#pf57ca7648c)" d="M 405.724182 171.378667 
L 405.72334 171.386025 
L 405.643632 171.772657 
L 405.58145 171.932016 
L 405.371423 172.130865 
" style="fill:none;stroke:#8c564b;stroke-width:4;"/>
    <path clip-path="url(#pf57ca7648c)" d="M 406.543562 166.724657 
L 406.600913 165.151507 
" style="fill:none;stroke:#8c564b;stroke-width:4;"/>
    <path clip-path="url(#pf57ca7648c)" d="M 404.768418 172.66916 
L 404.960132 172.509183 
L 404.981253 172.491601 
L 405.00653 172.469132 
L 405.046131 172.427003 
" style="fill:none;stroke:#8c564b;stroke-width:4;"/>
    <path clip-path="url(#pf57ca7648c)" d="M 405.046131 172.427003 
L 405.096237 172.38729 
L 405.25144 172.240737 
L 405.371423 172.130865 
" style="fill:none;stroke:#8c564b;stroke-width:4;"/>
    <path clip-path="url(#pf57ca7648c)" d="M 405.25144 172.240737 
L 405.230375 172.373022 
L 405.240205 172.420993 
L 405.258236 172.480029 
" style="fill:none;stroke:#8c564b;stroke-width:4;"/>
    <path clip-path="url(#pf57ca7648c)" d="M 404.593386 172.814814 
L 404.316009 173.042872 
L 404.192656 173.132129 
L 404.040149 173.210039 
L 404.018298 173.218746 
L 403.879104 173.265425 
" style="fill:none;stroke:#8c564b;stroke-width:4;"/>
    <path clip-path="url(#pf57ca7648c)" d="M 404.768418 172.66916 
L 404.593386 172.814814 
" style="fill:none;stroke:#8c564b;stroke-width:4;"/>
   </g>
   <g id="LineCollection_7">
    <path clip-path="url(#pf57ca7648c)" d="M 430.820944 194.368308 
L 430.607996 194.876102 
" style="fill:none;stroke:#e377c2;stroke-width:4;"/>
    <path clip-path="url(#pf57ca7648c)" d="M 430.919806 194.384317 
L 430.942724 194.270232 
L 431.037936 193.796029 
" style="fill:none;stroke:#e377c2;stroke-width:4;"/>
   </g>
   <g id="LineCollection_8">
    <path clip-path="url(#pf57ca7648c)" d="M 362.690892 220.477343 
L 363.419329 220.567948 
" style="fill:none;stroke:#7f7f7f;stroke-width:4;"/>
    <path clip-path="url(#pf57ca7648c)" d="M 362.690892 220.477343 
L 362.578098 220.460491 
L 362.396944 220.375672 
" style="fill:none;stroke:#7f7f7f;stroke-width:4;"/>
    <path clip-path="url(#pf57ca7648c)" d="M 361.127572 219.794854 
L 361.869658 220.108912 
" style="fill:none;stroke:#7f7f7f;stroke-width:4;"/>
   </g>
   <g id="LineCollection_9">
    <path clip-path="url(#pf57ca7648c)" d="M 101.946785 174.859527 
L 101.439272 174.745779 
L 93.744508 173.586166 
" style="fill:none;stroke:#bcbd22;stroke-width:4;"/>
    <path clip-path="url(#pf57ca7648c)" d="M 104.822337 175.265425 
L 103.424331 175.066633 
L 102.096652 174.888624 
" style="fill:none;stroke:#bcbd22;stroke-width:4;"/>
    <path clip-path="url(#pf57ca7648c)" d="M 102.096652 174.888624 
L 101.946785 174.859527 
" style="fill:none;stroke:#bcbd22;stroke-width:4;"/>
   </g>
   <g id="LineCollection_10">
    <path clip-path="url(#pf57ca7648c)" d="M 332.129447 158.63068 
L 332.775817 158.495081 
L 333.761803 158.282133 
L 333.988232 158.233207 
" style="fill:none;stroke:#1f77b4;stroke-width:4;"/>
   </g>
   <g id="LineCollection_11">
    <path clip-path="url(#pf57ca7648c)" d="M 174.958287 36.539263 
L 174.498183 35.899746 
L 174.031451 35.274552 
L 174.005668 35.237367 
L 173.57629 34.67267 
" style="fill:none;stroke:#ff7f0e;stroke-width:4;"/>
   </g>
   <g id="LineCollection_12">
    <path clip-path="url(#pf57ca7648c)" d="M 321.152672 232.458247 
L 320.938432 232.587499 
L 319.7436 233.255214 
L 318.369972 234.044485 
" style="fill:none;stroke:#2ca02c;stroke-width:4;"/>
   </g>
   <g id="LineCollection_13">
    <path clip-path="url(#pf57ca7648c)" d="M 363.425676 141.001354 
L 363.309288 141.491959 
" style="fill:none;stroke:#d62728;stroke-width:4;"/>
   </g>
   <g id="LineCollection_14">
    <path clip-path="url(#pf57ca7648c)" d="M 82.982534 68.249366 
L 82.986298 67.81336 
L 82.99023 67.357244 
" style="fill:none;stroke:#9467bd;stroke-width:4;"/>
   </g>
   <g id="LineCollection_15">
    <path clip-path="url(#pf57ca7648c)" d="M 302.4335 281.760939 
L 302.37862 281.76358 
L 302.332334 281.760771 
L 302.213418 281.741616 
L 302.202914 281.739819 
L 302.1905 281.736392 
L 301.591258 281.68859 
" style="fill:none;stroke:#8c564b;stroke-width:4;"/>
   </g>
   <g id="patch_3">
    <path d="M 64.885938 294.118125 
L 64.885938 22.318125 
" style="fill:none;stroke:#000000;stroke-linecap:square;stroke-linejoin:miter;stroke-width:0.8;"/>
   </g>
   <g id="patch_4">
    <path d="M 463.01107 294.118125 
L 463.01107 22.318125 
" style="fill:none;stroke:#000000;stroke-linecap:square;stroke-linejoin:miter;stroke-width:0.8;"/>
   </g>
   <g id="patch_5">
    <path d="M 64.885937 294.118125 
L 463.01107 294.118125 
" style="fill:none;stroke:#000000;stroke-linecap:square;stroke-linejoin:miter;stroke-width:0.8;"/>
   </g>
   <g id="patch_6">
    <path d="M 64.885937 22.318125 
L 463.01107 22.318125 
" style="fill:none;stroke:#000000;stroke-linecap:square;stroke-linejoin:miter;stroke-width:0.8;"/>
   </g>
   <g id="text_17">
    <!-- Pitt Street -->
    <defs>
     <path d="M 19.671875 64.796875 
L 19.671875 37.40625 
L 32.078125 37.40625 
Q 38.96875 37.40625 42.71875 40.96875 
Q 46.484375 44.53125 46.484375 51.125 
Q 46.484375 57.671875 42.71875 61.234375 
Q 38.96875 64.796875 32.078125 64.796875 
z
M 9.8125 72.90625 
L 32.078125 72.90625 
Q 44.34375 72.90625 50.609375 67.359375 
Q 56.890625 61.8125 56.890625 51.125 
Q 56.890625 40.328125 50.609375 34.8125 
Q 44.34375 29.296875 32.078125 29.296875 
L 19.671875 29.296875 
L 19.671875 0 
L 9.8125 0 
z
" id="DejaVuSans-80"/>
     <path id="DejaVuSans-32"/>
     <path d="M 53.515625 70.515625 
L 53.515625 60.890625 
Q 47.90625 63.578125 42.921875 64.890625 
Q 37.9375 66.21875 33.296875 66.21875 
Q 25.25 66.21875 20.875 63.09375 
Q 16.5 59.96875 16.5 54.203125 
Q 16.5 49.359375 19.40625 46.890625 
Q 22.3125 44.4375 30.421875 42.921875 
L 36.375 41.703125 
Q 47.40625 39.59375 52.65625 34.296875 
Q 57.90625 29 57.90625 20.125 
Q 57.90625 9.515625 50.796875 4.046875 
Q 43.703125 -1.421875 29.984375 -1.421875 
Q 24.8125 -1.421875 18.96875 -0.25 
Q 13.140625 0.921875 6.890625 3.21875 
L 6.890625 13.375 
Q 12.890625 10.015625 18.65625 8.296875 
Q 24.421875 6.59375 29.984375 6.59375 
Q 38.421875 6.59375 43.015625 9.90625 
Q 47.609375 13.234375 47.609375 19.390625 
Q 47.609375 24.75 44.3125 27.78125 
Q 41.015625 30.8125 33.5 32.328125 
L 27.484375 33.5 
Q 16.453125 35.6875 11.515625 40.375 
Q 6.59375 45.0625 6.59375 53.421875 
Q 6.59375 63.09375 13.40625 68.65625 
Q 20.21875 74.21875 32.171875 74.21875 
Q 37.3125 74.21875 42.625 73.28125 
Q 47.953125 72.359375 53.515625 70.515625 
z
" id="DejaVuSans-83"/>
     <path d="M 41.109375 46.296875 
Q 39.59375 47.171875 37.8125 47.578125 
Q 36.03125 48 33.890625 48 
Q 26.265625 48 22.1875 43.046875 
Q 18.109375 38.09375 18.109375 28.8125 
L 18.109375 0 
L 9.078125 0 
L 9.078125 54.6875 
L 18.109375 54.6875 
L 18.109375 46.1875 
Q 20.953125 51.171875 25.484375 53.578125 
Q 30.03125 56 36.53125 56 
Q 37.453125 56 38.578125 55.875 
Q 39.703125 55.765625 41.0625 55.515625 
z
" id="DejaVuSans-114"/>
    </defs>
    <g transform="translate(233.958816 16.318125)scale(0.12 -0.12)">
     <use xlink:href="#DejaVuSans-80"/>
     <use x="58.052734" xlink:href="#DejaVuSans-105"/>
     <use x="85.835938" xlink:href="#DejaVuSans-116"/>
     <use x="125.044922" xlink:href="#DejaVuSans-116"/>
     <use x="164.253906" xlink:href="#DejaVuSans-32"/>
     <use x="196.041016" xlink:href="#DejaVuSans-83"/>
     <use x="259.517578" xlink:href="#DejaVuSans-116"/>
     <use x="298.726562" xlink:href="#DejaVuSans-114"/>
     <use x="337.589844" xlink:href="#DejaVuSans-101"/>
     <use x="399.113281" xlink:href="#DejaVuSans-101"/>
     <use x="460.636719" xlink:href="#DejaVuSans-116"/>
    </g>
   </g>
  </g>
 </g>
 <defs>
  <clipPath id="pf57ca7648c">
   <rect height="271.8" width="398.125132" x="64.885938" y="22.318125"/>
  </clipPath>
 </defs>
</svg>
