<?xml version="1.0" encoding="utf-8" standalone="no"?>
<!DOCTYPE svg PUBLIC "-//W3C//DTD SVG 1.1//EN"
  "http://www.w3.org/Graphics/SVG/1.1/DTD/svg11.dtd">
<!-- Created with matplotlib (https://matplotlib.org/) -->
<svg height="331.674375pt" version="1.1" viewBox="0 0 609.035977 331.674375" width="609.035977pt" xmlns="http://www.w3.org/2000/svg" xmlns:xlink="http://www.w3.org/1999/xlink">
 <defs>
  <style type="text/css">
*{stroke-linecap:butt;stroke-linejoin:round;}
  </style>
 </defs>
 <g id="figure_1">
  <g id="patch_1">
   <path d="M 0 331.674375 
L 609.035977 331.674375 
L 609.035977 0 
L 0 0 
z
" style="fill:none;"/>
  </g>
  <g id="axes_1">
   <g id="patch_2">
    <path d="M 64.885937 294.118125 
L 595.223408 294.118125 
L 595.223408 22.318125 
L 64.885937 22.318125 
z
" style="fill:#ffffff;"/>
   </g>
   <g id="matplotlib.axis_1">
    <g id="xtick_1">
     <g id="line2d_1">
      <defs>
       <path d="M 0 0 
L 0 3.5 
" id="med06a2e910" style="stroke:#000000;stroke-width:0.8;"/>
      </defs>
      <g>
       <use style="stroke:#000000;stroke-width:0.8;" x="121.857403" xlink:href="#med06a2e910" y="294.118125"/>
      </g>
     </g>
     <g id="text_1">
      <!-- 150.7 -->
      <defs>
       <path d="M 12.40625 8.296875 
L 28.515625 8.296875 
L 28.515625 63.921875 
L 10.984375 60.40625 
L 10.984375 69.390625 
L 28.421875 72.90625 
L 38.28125 72.90625 
L 38.28125 8.296875 
L 54.390625 8.296875 
L 54.390625 0 
L 12.40625 0 
z
" id="DejaVuSans-49"/>
       <path d="M 10.796875 72.90625 
L 49.515625 72.90625 
L 49.515625 64.59375 
L 19.828125 64.59375 
L 19.828125 46.734375 
Q 21.96875 47.46875 24.109375 47.828125 
Q 26.265625 48.1875 28.421875 48.1875 
Q 40.625 48.1875 47.75 41.5 
Q 54.890625 34.8125 54.890625 23.390625 
Q 54.890625 11.625 47.5625 5.09375 
Q 40.234375 -1.421875 26.90625 -1.421875 
Q 22.3125 -1.421875 17.546875 -0.640625 
Q 12.796875 0.140625 7.71875 1.703125 
L 7.71875 11.625 
Q 12.109375 9.234375 16.796875 8.0625 
Q 21.484375 6.890625 26.703125 6.890625 
Q 35.15625 6.890625 40.078125 11.328125 
Q 45.015625 15.765625 45.015625 23.390625 
Q 45.015625 31 40.078125 35.4375 
Q 35.15625 39.890625 26.703125 39.890625 
Q 22.75 39.890625 18.8125 39.015625 
Q 14.890625 38.140625 10.796875 36.28125 
z
" id="DejaVuSans-53"/>
       <path d="M 31.78125 66.40625 
Q 24.171875 66.40625 20.328125 58.90625 
Q 16.5 51.421875 16.5 36.375 
Q 16.5 21.390625 20.328125 13.890625 
Q 24.171875 6.390625 31.78125 6.390625 
Q 39.453125 6.390625 43.28125 13.890625 
Q 47.125 21.390625 47.125 36.375 
Q 47.125 51.421875 43.28125 58.90625 
Q 39.453125 66.40625 31.78125 66.40625 
z
M 31.78125 74.21875 
Q 44.046875 74.21875 50.515625 64.515625 
Q 56.984375 54.828125 56.984375 36.375 
Q 56.984375 17.96875 50.515625 8.265625 
Q 44.046875 -1.421875 31.78125 -1.421875 
Q 19.53125 -1.421875 13.0625 8.265625 
Q 6.59375 17.96875 6.59375 36.375 
Q 6.59375 54.828125 13.0625 64.515625 
Q 19.53125 74.21875 31.78125 74.21875 
z
" id="DejaVuSans-48"/>
       <path d="M 10.6875 12.40625 
L 21 12.40625 
L 21 0 
L 10.6875 0 
z
" id="DejaVuSans-46"/>
       <path d="M 8.203125 72.90625 
L 55.078125 72.90625 
L 55.078125 68.703125 
L 28.609375 0 
L 18.3125 0 
L 43.21875 64.59375 
L 8.203125 64.59375 
z
" id="DejaVuSans-55"/>
      </defs>
      <g transform="translate(107.54334 308.716563)scale(0.1 -0.1)">
       <use xlink:href="#DejaVuSans-49"/>
       <use x="63.623047" xlink:href="#DejaVuSans-53"/>
       <use x="127.246094" xlink:href="#DejaVuSans-48"/>
       <use x="190.869141" xlink:href="#DejaVuSans-46"/>
       <use x="222.65625" xlink:href="#DejaVuSans-55"/>
      </g>
     </g>
    </g>
    <g id="xtick_2">
     <g id="line2d_2">
      <g>
       <use style="stroke:#000000;stroke-width:0.8;" x="199.468155" xlink:href="#med06a2e910" y="294.118125"/>
      </g>
     </g>
     <g id="text_2">
      <!-- 150.8 -->
      <defs>
       <path d="M 31.78125 34.625 
Q 24.75 34.625 20.71875 30.859375 
Q 16.703125 27.09375 16.703125 20.515625 
Q 16.703125 13.921875 20.71875 10.15625 
Q 24.75 6.390625 31.78125 6.390625 
Q 38.8125 6.390625 42.859375 10.171875 
Q 46.921875 13.96875 46.921875 20.515625 
Q 46.921875 27.09375 42.890625 30.859375 
Q 38.875 34.625 31.78125 34.625 
z
M 21.921875 38.8125 
Q 15.578125 40.375 12.03125 44.71875 
Q 8.5 49.078125 8.5 55.328125 
Q 8.5 64.0625 14.71875 69.140625 
Q 20.953125 74.21875 31.78125 74.21875 
Q 42.671875 74.21875 48.875 69.140625 
Q 55.078125 64.0625 55.078125 55.328125 
Q 55.078125 49.078125 51.53125 44.71875 
Q 48 40.375 41.703125 38.8125 
Q 48.828125 37.15625 52.796875 32.3125 
Q 56.78125 27.484375 56.78125 20.515625 
Q 56.78125 9.90625 50.3125 4.234375 
Q 43.84375 -1.421875 31.78125 -1.421875 
Q 19.734375 -1.421875 13.25 4.234375 
Q 6.78125 9.90625 6.78125 20.515625 
Q 6.78125 27.484375 10.78125 32.3125 
Q 14.796875 37.15625 21.921875 38.8125 
z
M 18.3125 54.390625 
Q 18.3125 48.734375 21.84375 45.5625 
Q 25.390625 42.390625 31.78125 42.390625 
Q 38.140625 42.390625 41.71875 45.5625 
Q 45.3125 48.734375 45.3125 54.390625 
Q 45.3125 60.0625 41.71875 63.234375 
Q 38.140625 66.40625 31.78125 66.40625 
Q 25.390625 66.40625 21.84375 63.234375 
Q 18.3125 60.0625 18.3125 54.390625 
z
" id="DejaVuSans-56"/>
      </defs>
      <g transform="translate(185.154092 308.716563)scale(0.1 -0.1)">
       <use xlink:href="#DejaVuSans-49"/>
       <use x="63.623047" xlink:href="#DejaVuSans-53"/>
       <use x="127.246094" xlink:href="#DejaVuSans-48"/>
       <use x="190.869141" xlink:href="#DejaVuSans-46"/>
       <use x="222.65625" xlink:href="#DejaVuSans-56"/>
      </g>
     </g>
    </g>
    <g id="xtick_3">
     <g id="line2d_3">
      <g>
       <use style="stroke:#000000;stroke-width:0.8;" x="277.078907" xlink:href="#med06a2e910" y="294.118125"/>
      </g>
     </g>
     <g id="text_3">
      <!-- 150.9 -->
      <defs>
       <path d="M 10.984375 1.515625 
L 10.984375 10.5 
Q 14.703125 8.734375 18.5 7.8125 
Q 22.3125 6.890625 25.984375 6.890625 
Q 35.75 6.890625 40.890625 13.453125 
Q 46.046875 20.015625 46.78125 33.40625 
Q 43.953125 29.203125 39.59375 26.953125 
Q 35.25 24.703125 29.984375 24.703125 
Q 19.046875 24.703125 12.671875 31.3125 
Q 6.296875 37.9375 6.296875 49.421875 
Q 6.296875 60.640625 12.9375 67.421875 
Q 19.578125 74.21875 30.609375 74.21875 
Q 43.265625 74.21875 49.921875 64.515625 
Q 56.59375 54.828125 56.59375 36.375 
Q 56.59375 19.140625 48.40625 8.859375 
Q 40.234375 -1.421875 26.421875 -1.421875 
Q 22.703125 -1.421875 18.890625 -0.6875 
Q 15.09375 0.046875 10.984375 1.515625 
z
M 30.609375 32.421875 
Q 37.25 32.421875 41.125 36.953125 
Q 45.015625 41.5 45.015625 49.421875 
Q 45.015625 57.28125 41.125 61.84375 
Q 37.25 66.40625 30.609375 66.40625 
Q 23.96875 66.40625 20.09375 61.84375 
Q 16.21875 57.28125 16.21875 49.421875 
Q 16.21875 41.5 20.09375 36.953125 
Q 23.96875 32.421875 30.609375 32.421875 
z
" id="DejaVuSans-57"/>
      </defs>
      <g transform="translate(262.764844 308.716563)scale(0.1 -0.1)">
       <use xlink:href="#DejaVuSans-49"/>
       <use x="63.623047" xlink:href="#DejaVuSans-53"/>
       <use x="127.246094" xlink:href="#DejaVuSans-48"/>
       <use x="190.869141" xlink:href="#DejaVuSans-46"/>
       <use x="222.65625" xlink:href="#DejaVuSans-57"/>
      </g>
     </g>
    </g>
    <g id="xtick_4">
     <g id="line2d_4">
      <g>
       <use style="stroke:#000000;stroke-width:0.8;" x="354.689659" xlink:href="#med06a2e910" y="294.118125"/>
      </g>
     </g>
     <g id="text_4">
      <!-- 151.0 -->
      <g transform="translate(340.375596 308.716563)scale(0.1 -0.1)">
       <use xlink:href="#DejaVuSans-49"/>
       <use x="63.623047" xlink:href="#DejaVuSans-53"/>
       <use x="127.246094" xlink:href="#DejaVuSans-49"/>
       <use x="190.869141" xlink:href="#DejaVuSans-46"/>
       <use x="222.65625" xlink:href="#DejaVuSans-48"/>
      </g>
     </g>
    </g>
    <g id="xtick_5">
     <g id="line2d_5">
      <g>
       <use style="stroke:#000000;stroke-width:0.8;" x="432.300411" xlink:href="#med06a2e910" y="294.118125"/>
      </g>
     </g>
     <g id="text_5">
      <!-- 151.1 -->
      <g transform="translate(417.986348 308.716563)scale(0.1 -0.1)">
       <use xlink:href="#DejaVuSans-49"/>
       <use x="63.623047" xlink:href="#DejaVuSans-53"/>
       <use x="127.246094" xlink:href="#DejaVuSans-49"/>
       <use x="190.869141" xlink:href="#DejaVuSans-46"/>
       <use x="222.65625" xlink:href="#DejaVuSans-49"/>
      </g>
     </g>
    </g>
    <g id="xtick_6">
     <g id="line2d_6">
      <g>
       <use style="stroke:#000000;stroke-width:0.8;" x="509.911163" xlink:href="#med06a2e910" y="294.118125"/>
      </g>
     </g>
     <g id="text_6">
      <!-- 151.2 -->
      <defs>
       <path d="M 19.1875 8.296875 
L 53.609375 8.296875 
L 53.609375 0 
L 7.328125 0 
L 7.328125 8.296875 
Q 12.9375 14.109375 22.625 23.890625 
Q 32.328125 33.6875 34.8125 36.53125 
Q 39.546875 41.84375 41.421875 45.53125 
Q 43.3125 49.21875 43.3125 52.78125 
Q 43.3125 58.59375 39.234375 62.25 
Q 35.15625 65.921875 28.609375 65.921875 
Q 23.96875 65.921875 18.8125 64.3125 
Q 13.671875 62.703125 7.8125 59.421875 
L 7.8125 69.390625 
Q 13.765625 71.78125 18.9375 73 
Q 24.125 74.21875 28.421875 74.21875 
Q 39.75 74.21875 46.484375 68.546875 
Q 53.21875 62.890625 53.21875 53.421875 
Q 53.21875 48.921875 51.53125 44.890625 
Q 49.859375 40.875 45.40625 35.40625 
Q 44.1875 33.984375 37.640625 27.21875 
Q 31.109375 20.453125 19.1875 8.296875 
z
" id="DejaVuSans-50"/>
      </defs>
      <g transform="translate(495.5971 308.716563)scale(0.1 -0.1)">
       <use xlink:href="#DejaVuSans-49"/>
       <use x="63.623047" xlink:href="#DejaVuSans-53"/>
       <use x="127.246094" xlink:href="#DejaVuSans-49"/>
       <use x="190.869141" xlink:href="#DejaVuSans-46"/>
       <use x="222.65625" xlink:href="#DejaVuSans-50"/>
      </g>
     </g>
    </g>
    <g id="xtick_7">
     <g id="line2d_7">
      <g>
       <use style="stroke:#000000;stroke-width:0.8;" x="587.521915" xlink:href="#med06a2e910" y="294.118125"/>
      </g>
     </g>
     <g id="text_7">
      <!-- 151.3 -->
      <defs>
       <path d="M 40.578125 39.3125 
Q 47.65625 37.796875 51.625 33 
Q 55.609375 28.21875 55.609375 21.1875 
Q 55.609375 10.40625 48.1875 4.484375 
Q 40.765625 -1.421875 27.09375 -1.421875 
Q 22.515625 -1.421875 17.65625 -0.515625 
Q 12.796875 0.390625 7.625 2.203125 
L 7.625 11.71875 
Q 11.71875 9.328125 16.59375 8.109375 
Q 21.484375 6.890625 26.8125 6.890625 
Q 36.078125 6.890625 40.9375 10.546875 
Q 45.796875 14.203125 45.796875 21.1875 
Q 45.796875 27.640625 41.28125 31.265625 
Q 36.765625 34.90625 28.71875 34.90625 
L 20.21875 34.90625 
L 20.21875 43.015625 
L 29.109375 43.015625 
Q 36.375 43.015625 40.234375 45.921875 
Q 44.09375 48.828125 44.09375 54.296875 
Q 44.09375 59.90625 40.109375 62.90625 
Q 36.140625 65.921875 28.71875 65.921875 
Q 24.65625 65.921875 20.015625 65.03125 
Q 15.375 64.15625 9.8125 62.3125 
L 9.8125 71.09375 
Q 15.4375 72.65625 20.34375 73.4375 
Q 25.25 74.21875 29.59375 74.21875 
Q 40.828125 74.21875 47.359375 69.109375 
Q 53.90625 64.015625 53.90625 55.328125 
Q 53.90625 49.265625 50.4375 45.09375 
Q 46.96875 40.921875 40.578125 39.3125 
z
" id="DejaVuSans-51"/>
      </defs>
      <g transform="translate(573.207852 308.716563)scale(0.1 -0.1)">
       <use xlink:href="#DejaVuSans-49"/>
       <use x="63.623047" xlink:href="#DejaVuSans-53"/>
       <use x="127.246094" xlink:href="#DejaVuSans-49"/>
       <use x="190.869141" xlink:href="#DejaVuSans-46"/>
       <use x="222.65625" xlink:href="#DejaVuSans-51"/>
      </g>
     </g>
    </g>
    <g id="text_8">
     <!-- Longitude -->
     <defs>
      <path d="M 9.8125 72.90625 
L 19.671875 72.90625 
L 19.671875 8.296875 
L 55.171875 8.296875 
L 55.171875 0 
L 9.8125 0 
z
" id="DejaVuSans-76"/>
      <path d="M 30.609375 48.390625 
Q 23.390625 48.390625 19.1875 42.75 
Q 14.984375 37.109375 14.984375 27.296875 
Q 14.984375 17.484375 19.15625 11.84375 
Q 23.34375 6.203125 30.609375 6.203125 
Q 37.796875 6.203125 41.984375 11.859375 
Q 46.1875 17.53125 46.1875 27.296875 
Q 46.1875 37.015625 41.984375 42.703125 
Q 37.796875 48.390625 30.609375 48.390625 
z
M 30.609375 56 
Q 42.328125 56 49.015625 48.375 
Q 55.71875 40.765625 55.71875 27.296875 
Q 55.71875 13.875 49.015625 6.21875 
Q 42.328125 -1.421875 30.609375 -1.421875 
Q 18.84375 -1.421875 12.171875 6.21875 
Q 5.515625 13.875 5.515625 27.296875 
Q 5.515625 40.765625 12.171875 48.375 
Q 18.84375 56 30.609375 56 
z
" id="DejaVuSans-111"/>
      <path d="M 54.890625 33.015625 
L 54.890625 0 
L 45.90625 0 
L 45.90625 32.71875 
Q 45.90625 40.484375 42.875 44.328125 
Q 39.84375 48.1875 33.796875 48.1875 
Q 26.515625 48.1875 22.3125 43.546875 
Q 18.109375 38.921875 18.109375 30.90625 
L 18.109375 0 
L 9.078125 0 
L 9.078125 54.6875 
L 18.109375 54.6875 
L 18.109375 46.1875 
Q 21.34375 51.125 25.703125 53.5625 
Q 30.078125 56 35.796875 56 
Q 45.21875 56 50.046875 50.171875 
Q 54.890625 44.34375 54.890625 33.015625 
z
" id="DejaVuSans-110"/>
      <path d="M 45.40625 27.984375 
Q 45.40625 37.75 41.375 43.109375 
Q 37.359375 48.484375 30.078125 48.484375 
Q 22.859375 48.484375 18.828125 43.109375 
Q 14.796875 37.75 14.796875 27.984375 
Q 14.796875 18.265625 18.828125 12.890625 
Q 22.859375 7.515625 30.078125 7.515625 
Q 37.359375 7.515625 41.375 12.890625 
Q 45.40625 18.265625 45.40625 27.984375 
z
M 54.390625 6.78125 
Q 54.390625 -7.171875 48.1875 -13.984375 
Q 42 -20.796875 29.203125 -20.796875 
Q 24.46875 -20.796875 20.265625 -20.09375 
Q 16.0625 -19.390625 12.109375 -17.921875 
L 12.109375 -9.1875 
Q 16.0625 -11.328125 19.921875 -12.34375 
Q 23.78125 -13.375 27.78125 -13.375 
Q 36.625 -13.375 41.015625 -8.765625 
Q 45.40625 -4.15625 45.40625 5.171875 
L 45.40625 9.625 
Q 42.625 4.78125 38.28125 2.390625 
Q 33.9375 0 27.875 0 
Q 17.828125 0 11.671875 7.65625 
Q 5.515625 15.328125 5.515625 27.984375 
Q 5.515625 40.671875 11.671875 48.328125 
Q 17.828125 56 27.875 56 
Q 33.9375 56 38.28125 53.609375 
Q 42.625 51.21875 45.40625 46.390625 
L 45.40625 54.6875 
L 54.390625 54.6875 
z
" id="DejaVuSans-103"/>
      <path d="M 9.421875 54.6875 
L 18.40625 54.6875 
L 18.40625 0 
L 9.421875 0 
z
M 9.421875 75.984375 
L 18.40625 75.984375 
L 18.40625 64.59375 
L 9.421875 64.59375 
z
" id="DejaVuSans-105"/>
      <path d="M 18.3125 70.21875 
L 18.3125 54.6875 
L 36.8125 54.6875 
L 36.8125 47.703125 
L 18.3125 47.703125 
L 18.3125 18.015625 
Q 18.3125 11.328125 20.140625 9.421875 
Q 21.96875 7.515625 27.59375 7.515625 
L 36.8125 7.515625 
L 36.8125 0 
L 27.59375 0 
Q 17.1875 0 13.234375 3.875 
Q 9.28125 7.765625 9.28125 18.015625 
L 9.28125 47.703125 
L 2.6875 47.703125 
L 2.6875 54.6875 
L 9.28125 54.6875 
L 9.28125 70.21875 
z
" id="DejaVuSans-116"/>
      <path d="M 8.5 21.578125 
L 8.5 54.6875 
L 17.484375 54.6875 
L 17.484375 21.921875 
Q 17.484375 14.15625 20.5 10.265625 
Q 23.53125 6.390625 29.59375 6.390625 
Q 36.859375 6.390625 41.078125 11.03125 
Q 45.3125 15.671875 45.3125 23.6875 
L 45.3125 54.6875 
L 54.296875 54.6875 
L 54.296875 0 
L 45.3125 0 
L 45.3125 8.40625 
Q 42.046875 3.421875 37.71875 1 
Q 33.40625 -1.421875 27.6875 -1.421875 
Q 18.265625 -1.421875 13.375 4.4375 
Q 8.5 10.296875 8.5 21.578125 
z
M 31.109375 56 
z
" id="DejaVuSans-117"/>
      <path d="M 45.40625 46.390625 
L 45.40625 75.984375 
L 54.390625 75.984375 
L 54.390625 0 
L 45.40625 0 
L 45.40625 8.203125 
Q 42.578125 3.328125 38.25 0.953125 
Q 33.9375 -1.421875 27.875 -1.421875 
Q 17.96875 -1.421875 11.734375 6.484375 
Q 5.515625 14.40625 5.515625 27.296875 
Q 5.515625 40.1875 11.734375 48.09375 
Q 17.96875 56 27.875 56 
Q 33.9375 56 38.25 53.625 
Q 42.578125 51.265625 45.40625 46.390625 
z
M 14.796875 27.296875 
Q 14.796875 17.390625 18.875 11.75 
Q 22.953125 6.109375 30.078125 6.109375 
Q 37.203125 6.109375 41.296875 11.75 
Q 45.40625 17.390625 45.40625 27.296875 
Q 45.40625 37.203125 41.296875 42.84375 
Q 37.203125 48.484375 30.078125 48.484375 
Q 22.953125 48.484375 18.875 42.84375 
Q 14.796875 37.203125 14.796875 27.296875 
z
" id="DejaVuSans-100"/>
      <path d="M 56.203125 29.59375 
L 56.203125 25.203125 
L 14.890625 25.203125 
Q 15.484375 15.921875 20.484375 11.0625 
Q 25.484375 6.203125 34.421875 6.203125 
Q 39.59375 6.203125 44.453125 7.46875 
Q 49.3125 8.734375 54.109375 11.28125 
L 54.109375 2.78125 
Q 49.265625 0.734375 44.1875 -0.34375 
Q 39.109375 -1.421875 33.890625 -1.421875 
Q 20.796875 -1.421875 13.15625 6.1875 
Q 5.515625 13.8125 5.515625 26.8125 
Q 5.515625 40.234375 12.765625 48.109375 
Q 20.015625 56 32.328125 56 
Q 43.359375 56 49.78125 48.890625 
Q 56.203125 41.796875 56.203125 29.59375 
z
M 47.21875 32.234375 
Q 47.125 39.59375 43.09375 43.984375 
Q 39.0625 48.390625 32.421875 48.390625 
Q 24.90625 48.390625 20.390625 44.140625 
Q 15.875 39.890625 15.1875 32.171875 
z
" id="DejaVuSans-101"/>
     </defs>
     <g transform="translate(305.185141 322.394687)scale(0.1 -0.1)">
      <use xlink:href="#DejaVuSans-76"/>
      <use x="53.962891" xlink:href="#DejaVuSans-111"/>
      <use x="115.144531" xlink:href="#DejaVuSans-110"/>
      <use x="178.523438" xlink:href="#DejaVuSans-103"/>
      <use x="242" xlink:href="#DejaVuSans-105"/>
      <use x="269.783203" xlink:href="#DejaVuSans-116"/>
      <use x="308.992188" xlink:href="#DejaVuSans-117"/>
      <use x="372.371094" xlink:href="#DejaVuSans-100"/>
      <use x="435.847656" xlink:href="#DejaVuSans-101"/>
     </g>
    </g>
   </g>
   <g id="matplotlib.axis_2">
    <g id="ytick_1">
     <g id="line2d_8">
      <defs>
       <path d="M 0 0 
L -3.5 0 
" id="m786fef01fc" style="stroke:#000000;stroke-width:0.8;"/>
      </defs>
      <g>
       <use style="stroke:#000000;stroke-width:0.8;" x="64.885937" xlink:href="#m786fef01fc" y="261.326944"/>
      </g>
     </g>
     <g id="text_9">
      <!-- −33.95 -->
      <defs>
       <path d="M 10.59375 35.5 
L 73.1875 35.5 
L 73.1875 27.203125 
L 10.59375 27.203125 
z
" id="DejaVuSans-8722"/>
      </defs>
      <g transform="translate(20.878125 265.126163)scale(0.1 -0.1)">
       <use xlink:href="#DejaVuSans-8722"/>
       <use x="83.789062" xlink:href="#DejaVuSans-51"/>
       <use x="147.412109" xlink:href="#DejaVuSans-51"/>
       <use x="211.035156" xlink:href="#DejaVuSans-46"/>
       <use x="242.822266" xlink:href="#DejaVuSans-57"/>
       <use x="306.445312" xlink:href="#DejaVuSans-53"/>
      </g>
     </g>
    </g>
    <g id="ytick_2">
     <g id="line2d_9">
      <g>
       <use style="stroke:#000000;stroke-width:0.8;" x="64.885937" xlink:href="#m786fef01fc" y="222.521568"/>
      </g>
     </g>
     <g id="text_10">
      <!-- −33.90 -->
      <g transform="translate(20.878125 226.320787)scale(0.1 -0.1)">
       <use xlink:href="#DejaVuSans-8722"/>
       <use x="83.789062" xlink:href="#DejaVuSans-51"/>
       <use x="147.412109" xlink:href="#DejaVuSans-51"/>
       <use x="211.035156" xlink:href="#DejaVuSans-46"/>
       <use x="242.822266" xlink:href="#DejaVuSans-57"/>
       <use x="306.445312" xlink:href="#DejaVuSans-48"/>
      </g>
     </g>
    </g>
    <g id="ytick_3">
     <g id="line2d_10">
      <g>
       <use style="stroke:#000000;stroke-width:0.8;" x="64.885937" xlink:href="#m786fef01fc" y="183.716192"/>
      </g>
     </g>
     <g id="text_11">
      <!-- −33.85 -->
      <g transform="translate(20.878125 187.515411)scale(0.1 -0.1)">
       <use xlink:href="#DejaVuSans-8722"/>
       <use x="83.789062" xlink:href="#DejaVuSans-51"/>
       <use x="147.412109" xlink:href="#DejaVuSans-51"/>
       <use x="211.035156" xlink:href="#DejaVuSans-46"/>
       <use x="242.822266" xlink:href="#DejaVuSans-56"/>
       <use x="306.445312" xlink:href="#DejaVuSans-53"/>
      </g>
     </g>
    </g>
    <g id="ytick_4">
     <g id="line2d_11">
      <g>
       <use style="stroke:#000000;stroke-width:0.8;" x="64.885937" xlink:href="#m786fef01fc" y="144.910816"/>
      </g>
     </g>
     <g id="text_12">
      <!-- −33.80 -->
      <g transform="translate(20.878125 148.710035)scale(0.1 -0.1)">
       <use xlink:href="#DejaVuSans-8722"/>
       <use x="83.789062" xlink:href="#DejaVuSans-51"/>
       <use x="147.412109" xlink:href="#DejaVuSans-51"/>
       <use x="211.035156" xlink:href="#DejaVuSans-46"/>
       <use x="242.822266" xlink:href="#DejaVuSans-56"/>
       <use x="306.445312" xlink:href="#DejaVuSans-48"/>
      </g>
     </g>
    </g>
    <g id="ytick_5">
     <g id="line2d_12">
      <g>
       <use style="stroke:#000000;stroke-width:0.8;" x="64.885937" xlink:href="#m786fef01fc" y="106.10544"/>
      </g>
     </g>
     <g id="text_13">
      <!-- −33.75 -->
      <g transform="translate(20.878125 109.904659)scale(0.1 -0.1)">
       <use xlink:href="#DejaVuSans-8722"/>
       <use x="83.789062" xlink:href="#DejaVuSans-51"/>
       <use x="147.412109" xlink:href="#DejaVuSans-51"/>
       <use x="211.035156" xlink:href="#DejaVuSans-46"/>
       <use x="242.822266" xlink:href="#DejaVuSans-55"/>
       <use x="306.445312" xlink:href="#DejaVuSans-53"/>
      </g>
     </g>
    </g>
    <g id="ytick_6">
     <g id="line2d_13">
      <g>
       <use style="stroke:#000000;stroke-width:0.8;" x="64.885937" xlink:href="#m786fef01fc" y="67.300064"/>
      </g>
     </g>
     <g id="text_14">
      <!-- −33.70 -->
      <g transform="translate(20.878125 71.099283)scale(0.1 -0.1)">
       <use xlink:href="#DejaVuSans-8722"/>
       <use x="83.789062" xlink:href="#DejaVuSans-51"/>
       <use x="147.412109" xlink:href="#DejaVuSans-51"/>
       <use x="211.035156" xlink:href="#DejaVuSans-46"/>
       <use x="242.822266" xlink:href="#DejaVuSans-55"/>
       <use x="306.445312" xlink:href="#DejaVuSans-48"/>
      </g>
     </g>
    </g>
    <g id="ytick_7">
     <g id="line2d_14">
      <g>
       <use style="stroke:#000000;stroke-width:0.8;" x="64.885937" xlink:href="#m786fef01fc" y="28.494688"/>
      </g>
     </g>
     <g id="text_15">
      <!-- −33.65 -->
      <defs>
       <path d="M 33.015625 40.375 
Q 26.375 40.375 22.484375 35.828125 
Q 18.609375 31.296875 18.609375 23.390625 
Q 18.609375 15.53125 22.484375 10.953125 
Q 26.375 6.390625 33.015625 6.390625 
Q 39.65625 6.390625 43.53125 10.953125 
Q 47.40625 15.53125 47.40625 23.390625 
Q 47.40625 31.296875 43.53125 35.828125 
Q 39.65625 40.375 33.015625 40.375 
z
M 52.59375 71.296875 
L 52.59375 62.3125 
Q 48.875 64.0625 45.09375 64.984375 
Q 41.3125 65.921875 37.59375 65.921875 
Q 27.828125 65.921875 22.671875 59.328125 
Q 17.53125 52.734375 16.796875 39.40625 
Q 19.671875 43.65625 24.015625 45.921875 
Q 28.375 48.1875 33.59375 48.1875 
Q 44.578125 48.1875 50.953125 41.515625 
Q 57.328125 34.859375 57.328125 23.390625 
Q 57.328125 12.15625 50.6875 5.359375 
Q 44.046875 -1.421875 33.015625 -1.421875 
Q 20.359375 -1.421875 13.671875 8.265625 
Q 6.984375 17.96875 6.984375 36.375 
Q 6.984375 53.65625 15.1875 63.9375 
Q 23.390625 74.21875 37.203125 74.21875 
Q 40.921875 74.21875 44.703125 73.484375 
Q 48.484375 72.75 52.59375 71.296875 
z
" id="DejaVuSans-54"/>
      </defs>
      <g transform="translate(20.878125 32.293907)scale(0.1 -0.1)">
       <use xlink:href="#DejaVuSans-8722"/>
       <use x="83.789062" xlink:href="#DejaVuSans-51"/>
       <use x="147.412109" xlink:href="#DejaVuSans-51"/>
       <use x="211.035156" xlink:href="#DejaVuSans-46"/>
       <use x="242.822266" xlink:href="#DejaVuSans-54"/>
       <use x="306.445312" xlink:href="#DejaVuSans-53"/>
      </g>
     </g>
    </g>
    <g id="text_16">
     <!-- Latiude -->
     <defs>
      <path d="M 34.28125 27.484375 
Q 23.390625 27.484375 19.1875 25 
Q 14.984375 22.515625 14.984375 16.5 
Q 14.984375 11.71875 18.140625 8.90625 
Q 21.296875 6.109375 26.703125 6.109375 
Q 34.1875 6.109375 38.703125 11.40625 
Q 43.21875 16.703125 43.21875 25.484375 
L 43.21875 27.484375 
z
M 52.203125 31.203125 
L 52.203125 0 
L 43.21875 0 
L 43.21875 8.296875 
Q 40.140625 3.328125 35.546875 0.953125 
Q 30.953125 -1.421875 24.3125 -1.421875 
Q 15.921875 -1.421875 10.953125 3.296875 
Q 6 8.015625 6 15.921875 
Q 6 25.140625 12.171875 29.828125 
Q 18.359375 34.515625 30.609375 34.515625 
L 43.21875 34.515625 
L 43.21875 35.40625 
Q 43.21875 41.609375 39.140625 45 
Q 35.0625 48.390625 27.6875 48.390625 
Q 23 48.390625 18.546875 47.265625 
Q 14.109375 46.140625 10.015625 43.890625 
L 10.015625 52.203125 
Q 14.9375 54.109375 19.578125 55.046875 
Q 24.21875 56 28.609375 56 
Q 40.484375 56 46.34375 49.84375 
Q 52.203125 43.703125 52.203125 31.203125 
z
" id="DejaVuSans-97"/>
     </defs>
     <g transform="translate(14.798437 176.836875)rotate(-90)scale(0.1 -0.1)">
      <use xlink:href="#DejaVuSans-76"/>
      <use x="55.712891" xlink:href="#DejaVuSans-97"/>
      <use x="116.992188" xlink:href="#DejaVuSans-116"/>
      <use x="156.201172" xlink:href="#DejaVuSans-105"/>
      <use x="183.984375" xlink:href="#DejaVuSans-117"/>
      <use x="247.363281" xlink:href="#DejaVuSans-100"/>
      <use x="310.839844" xlink:href="#DejaVuSans-101"/>
     </g>
    </g>
   </g>
   <g id="LineCollection_1">
    <path clip-path="url(#p096953eabe)" d="M 542.667974 203.045598 
L 542.653988 203.05386 
L 542.637464 203.057308 
L 542.621592 203.055811 
L 542.605133 203.048526 
L 542.594725 203.038247 
L 542.58926 203.026017 
L 542.589065 203.013202 
L 542.594269 203.000647 
L 542.600189 202.993751 
L 542.611899 202.98588 
L 542.626015 202.981521 
L 542.642018 202.981391 
L 542.659908 202.987116 
L 542.671422 202.996158 
L 542.678708 203.008063 
L 542.680594 203.021659 
L 542.676756 203.034604 
L 542.667974 203.045598 
" style="fill:none;stroke:#1f77b4;stroke-width:4;"/>
    <path clip-path="url(#p096953eabe)" d="M 543.784667 203.160676 
L 543.736918 203.157879 
L 542.921224 203.071554 
" style="fill:none;stroke:#1f77b4;stroke-width:4;"/>
    <path clip-path="url(#p096953eabe)" d="M 542.589065 203.013202 
L 542.565061 202.989718 
L 542.369318 202.918225 
" style="fill:none;stroke:#1f77b4;stroke-width:4;"/>
    <path clip-path="url(#p096953eabe)" d="M 542.921224 203.071554 
L 542.734198 203.051258 
L 542.667974 203.045598 
" style="fill:none;stroke:#1f77b4;stroke-width:4;"/>
    <path clip-path="url(#p096953eabe)" d="M 542.369318 202.918225 
L 542.049519 202.792544 
" style="fill:none;stroke:#1f77b4;stroke-width:4;"/>
    <path clip-path="url(#p096953eabe)" d="M 542.049519 202.792544 
L 541.86555 202.7204 
" style="fill:none;stroke:#1f77b4;stroke-width:4;"/>
    <path clip-path="url(#p096953eabe)" d="M 545.092028 203.288309 
L 543.941964 203.179086 
" style="fill:none;stroke:#1f77b4;stroke-width:4;"/>
    <path clip-path="url(#p096953eabe)" d="M 541.86555 202.7204 
L 541.794838 202.693989 
L 541.725102 202.666212 
" style="fill:none;stroke:#1f77b4;stroke-width:4;"/>
    <path clip-path="url(#p096953eabe)" d="M 541.725102 202.666212 
L 541.3826 202.533049 
L 541.350334 202.521014 
" style="fill:none;stroke:#1f77b4;stroke-width:4;"/>
    <path clip-path="url(#p096953eabe)" d="M 546.076274 203.299173 
L 545.983964 203.270745 
L 545.883003 203.267232 
L 545.655644 203.293318 
L 545.622077 203.295465 
L 545.443573 203.312054 
L 545.222654 203.312574 
" style="fill:none;stroke:#1f77b4;stroke-width:4;"/>
   </g>
   <g id="LineCollection_2">
    <path clip-path="url(#p096953eabe)" d="M 519.681254 202.116582 
L 519.816499 202.102271 
L 520.273818 202.176236 
L 521.072209 202.307577 
" style="fill:none;stroke:#ff7f0e;stroke-width:4;"/>
    <path clip-path="url(#p096953eabe)" d="M 521.099856 202.381607 
L 520.261588 202.246167 
" style="fill:none;stroke:#ff7f0e;stroke-width:4;"/>
    <path clip-path="url(#p096953eabe)" d="M 521.072209 202.307577 
L 521.879771 202.437226 
" style="fill:none;stroke:#ff7f0e;stroke-width:4;"/>
    <path clip-path="url(#p096953eabe)" d="M 521.86546 202.499937 
L 521.099856 202.381607 
" style="fill:none;stroke:#ff7f0e;stroke-width:4;"/>
    <path clip-path="url(#p096953eabe)" d="M 520.261588 202.246167 
L 519.80544 202.170186 
L 519.681254 202.116582 
" style="fill:none;stroke:#ff7f0e;stroke-width:4;"/>
    <path clip-path="url(#p096953eabe)" d="M 522.570825 202.612088 
L 521.86546 202.499937 
" style="fill:none;stroke:#ff7f0e;stroke-width:4;"/>
    <path clip-path="url(#p096953eabe)" d="M 522.58286 202.550873 
L 523.205673 202.647281 
L 523.304813 202.662634 
" style="fill:none;stroke:#ff7f0e;stroke-width:4;"/>
    <path clip-path="url(#p096953eabe)" d="M 523.304423 202.7379 
L 523.239175 202.724759 
L 522.570825 202.612088 
" style="fill:none;stroke:#ff7f0e;stroke-width:4;"/>
    <path clip-path="url(#p096953eabe)" d="M 521.879771 202.437226 
L 522.58286 202.550873 
" style="fill:none;stroke:#ff7f0e;stroke-width:4;"/>
    <path clip-path="url(#p096953eabe)" d="M 523.941157 202.835934 
L 523.837464 202.81902 
L 523.437846 202.757545 
L 523.304423 202.7379 
" style="fill:none;stroke:#ff7f0e;stroke-width:4;"/>
    <path clip-path="url(#p096953eabe)" d="M 523.304813 202.662634 
L 523.378127 202.678767 
L 523.852491 202.759237 
L 523.953452 202.775825 
L 524.706371 202.913476 
L 524.789573 202.926682 
L 524.873556 202.940799 
L 525.136564 202.980611 
L 525.343106 203.015739 
" style="fill:none;stroke:#ff7f0e;stroke-width:4;"/>
    <path clip-path="url(#p096953eabe)" d="M 525.208772 203.050867 
L 525.035147 203.02322 
L 524.860611 202.997589 
L 523.941157 202.835934 
" style="fill:none;stroke:#ff7f0e;stroke-width:4;"/>
    <path clip-path="url(#p096953eabe)" d="M 525.343106 203.015739 
L 525.7383 203.050607 
L 525.958633 203.08502 
L 526.097781 203.114944 
" style="fill:none;stroke:#ff7f0e;stroke-width:4;"/>
    <path clip-path="url(#p096953eabe)" d="M 526.097781 203.114944 
L 526.335483 203.171995 
L 526.482567 203.220525 
" style="fill:none;stroke:#ff7f0e;stroke-width:4;"/>
    <path clip-path="url(#p096953eabe)" d="M 526.775173 203.548715 
L 526.712593 203.515278 
L 526.570127 203.445021 
L 526.406455 203.369885 
L 526.201409 203.292473 
L 526.020433 203.228591 
L 525.800946 203.164384 
L 525.616457 203.115335 
L 525.455451 203.08528 
L 525.319882 203.063488 
L 525.208772 203.050867 
" style="fill:none;stroke:#ff7f0e;stroke-width:4;"/>
    <path clip-path="url(#p096953eabe)" d="M 525.343106 203.015739 
L 525.607609 203.061796 
L 525.790082 203.099917 
L 525.954795 203.138493 
L 526.158475 203.190535 
L 526.353698 203.255133 
L 526.5242 203.327406 
L 526.665364 203.391353 
L 526.816872 203.469481 
" style="fill:none;stroke:#ff7f0e;stroke-width:4;"/>
    <path clip-path="url(#p096953eabe)" d="M 526.482567 203.220525 
L 526.600572 203.267818 
" style="fill:none;stroke:#ff7f0e;stroke-width:4;"/>
    <path clip-path="url(#p096953eabe)" d="M 526.600572 203.267818 
L 526.988936 203.420496 
" style="fill:none;stroke:#ff7f0e;stroke-width:4;"/>
    <path clip-path="url(#p096953eabe)" d="M 526.816872 203.469481 
L 527.112536 203.629901 
L 527.391091 203.757729 
L 527.667564 203.852706 
L 528.009676 203.929077 
L 528.629757 204.0195 
L 529.274233 204.100361 
" style="fill:none;stroke:#ff7f0e;stroke-width:4;"/>
    <path clip-path="url(#p096953eabe)" d="M 529.285812 204.2049 
L 529.079075 204.178814 
L 528.638669 204.11799 
L 528.226756 204.059248 
L 527.769827 203.983917 
L 527.535313 203.916132 
L 527.267946 203.814585 
L 527.035383 203.701328 
L 526.775173 203.548715 
" style="fill:none;stroke:#ff7f0e;stroke-width:4;"/>
   </g>
   <g id="LineCollection_3">
    <path clip-path="url(#p096953eabe)" d="M 470.551854 204.826022 
L 471.190345 205.199945 
" style="fill:none;stroke:#2ca02c;stroke-width:4;"/>
    <path clip-path="url(#p096953eabe)" d="M 471.190345 205.199945 
L 471.266847 205.238 
L 471.467664 205.359193 
L 471.534928 205.372334 
L 471.686696 205.36739 
L 472.045201 205.338181 
L 472.349777 205.318796 
L 472.405657 205.296352 
" style="fill:none;stroke:#2ca02c;stroke-width:4;"/>
    <path clip-path="url(#p096953eabe)" d="M 472.406308 205.161303 
L 472.691824 205.153562 
L 472.768 205.15122 
L 473.124163 205.13216 
L 473.479805 205.116742 
L 473.856525 205.095795 
L 474.539967 205.047331 
L 474.659209 205.041737 
L 474.895024 205.02697 
L 475.228354 205.010511 
" style="fill:none;stroke:#2ca02c;stroke-width:4;"/>
    <path clip-path="url(#p096953eabe)" d="M 475.328535 205.004136 
L 475.906267 204.96556 
" style="fill:none;stroke:#2ca02c;stroke-width:4;"/>
    <path clip-path="url(#p096953eabe)" d="M 476.016401 204.975773 
L 476.13356 204.967121 
L 476.376597 204.951444 
L 476.949515 204.917161 
L 477.538631 204.893742 
" style="fill:none;stroke:#2ca02c;stroke-width:4;"/>
   </g>
   <g id="LineCollection_4">
    <path clip-path="url(#p096953eabe)" d="M 514.563503 174.953747 
L 514.588028 174.885962 
L 514.730883 174.336984 
" style="fill:none;stroke:#d62728;stroke-width:4;"/>
    <path clip-path="url(#p096953eabe)" d="M 514.027665 177.836877 
L 514.032544 177.795049 
L 514.06585 177.584799 
L 514.116591 177.279832 
L 514.140271 177.170999 
L 514.277141 176.54734 
L 514.283516 176.471229 
L 514.372443 175.988994 
L 514.563503 174.953747 
" style="fill:none;stroke:#d62728;stroke-width:4;"/>
   </g>
   <g id="LineCollection_5">
    <path clip-path="url(#p096953eabe)" d="M 533.579868 210.519749 
L 533.386142 210.719201 
L 533.080264 211.034055 
L 532.607332 211.515184 
L 532.38869 211.729858 
L 532.360263 211.766352 
" style="fill:none;stroke:#9467bd;stroke-width:4;"/>
    <path clip-path="url(#p096953eabe)" d="M 532.360263 211.766352 
L 532.25182 211.95507 
" style="fill:none;stroke:#9467bd;stroke-width:4;"/>
   </g>
   <g id="LineCollection_6">
    <path clip-path="url(#p096953eabe)" d="M 564.512696 205.505822 
L 567.047339 205.839411 
" style="fill:none;stroke:#8c564b;stroke-width:4;"/>
   </g>
   <g id="LineCollection_7">
    <path clip-path="url(#p096953eabe)" d="M 430.382406 70.275297 
L 429.986366 70.221629 
L 429.81248 70.195608 
L 429.735523 70.184354 
L 429.60223 70.165359 
L 429.465945 70.1489 
L 429.388988 70.137711 
L 428.369484 69.989652 
" style="fill:none;stroke:#e377c2;stroke-width:4;"/>
    <path clip-path="url(#p096953eabe)" d="M 428.265465 69.973388 
L 426.822989 69.776214 
L 426.326442 69.693597 
L 426.265423 69.683449 
L 426.185669 69.672195 
L 425.600846 69.590749 
L 424.96229 69.497269 
L 424.099888 69.37523 
" style="fill:none;stroke:#e377c2;stroke-width:4;"/>
   </g>
   <g id="LineCollection_8">
    <path clip-path="url(#p096953eabe)" d="M 350.395248 168.213844 
L 350.796428 166.832388 
" style="fill:none;stroke:#7f7f7f;stroke-width:4;"/>
   </g>
   <g id="LineCollection_9">
    <path clip-path="url(#p096953eabe)" d="M 358.688151 143.455027 
L 360.473389 143.450929 
L 361.672894 143.462703 
" style="fill:none;stroke:#bcbd22;stroke-width:4;"/>
   </g>
   <g id="LineCollection_10">
    <path clip-path="url(#p096953eabe)" d="M 432.367485 281.76358 
L 434.584607 281.173032 
L 434.66176 281.126129 
" style="fill:none;stroke:#1f77b4;stroke-width:4;"/>
   </g>
   <g id="LineCollection_11">
    <path clip-path="url(#p096953eabe)" d="M 438.177917 156.451362 
L 437.246884 157.279351 
L 436.740124 157.775117 
" style="fill:none;stroke:#ff7f0e;stroke-width:4;"/>
   </g>
   <g id="LineCollection_12">
    <path clip-path="url(#p096953eabe)" d="M 453.380835 91.7742 
L 453.503719 91.791634 
L 453.551858 91.822664 
L 453.611511 91.853629 
L 453.677735 91.928179 
L 454.066359 92.365788 
L 454.040793 92.570183 
L 454.270559 92.827986 
L 454.322796 92.873198 
" style="fill:none;stroke:#2ca02c;stroke-width:4;"/>
    <path clip-path="url(#p096953eabe)" d="M 454.369894 93.22227 
L 454.367617 93.119357 
L 454.380888 92.979624 
L 454.38297 92.951001 
" style="fill:none;stroke:#2ca02c;stroke-width:4;"/>
   </g>
   <g id="LineCollection_13">
    <path clip-path="url(#p096953eabe)" d="M 467.751275 217.451037 
L 467.134577 217.367184 
" style="fill:none;stroke:#d62728;stroke-width:4;"/>
   </g>
   <g id="LineCollection_14">
    <path clip-path="url(#p096953eabe)" d="M 405.306978 148.277115 
L 406.244255 151.393654 
" style="fill:none;stroke:#9467bd;stroke-width:4;"/>
   </g>
   <g id="LineCollection_15">
    <path clip-path="url(#p096953eabe)" d="M 369.979653 231.370793 
L 369.990907 231.475528 
L 369.304993 234.906986 
L 369.251325 235.006777 
" style="fill:none;stroke:#8c564b;stroke-width:4;"/>
    <path clip-path="url(#p096953eabe)" d="M 369.251325 235.006777 
L 369.236297 234.891439 
L 369.926961 231.460435 
L 369.979653 231.370793 
" style="fill:none;stroke:#8c564b;stroke-width:4;"/>
    <path clip-path="url(#p096953eabe)" d="M 369.251325 235.006777 
L 369.136637 235.500201 
L 369.092987 235.551657 
" style="fill:none;stroke:#8c564b;stroke-width:4;"/>
    <path clip-path="url(#p096953eabe)" d="M 369.979653 231.370793 
L 370.002617 231.24355 
" style="fill:none;stroke:#8c564b;stroke-width:4;"/>
    <path clip-path="url(#p096953eabe)" d="M 370.027532 231.123463 
L 370.349087 229.421427 
L 370.591343 228.238576 
" style="fill:none;stroke:#8c564b;stroke-width:4;"/>
   </g>
   <g id="LineCollection_16">
    <path clip-path="url(#p096953eabe)" d="M 351.700268 172.535613 
L 352.509978 171.88346 
L 352.947586 171.598855 
L 354.014319 171.222396 
L 354.587692 171.39368 
L 355.130361 171.55566 
L 355.716159 171.727204 
L 356.183627 171.838054 
L 356.309309 171.846641 
L 357.531842 172.008166 
L 358.814549 172.177108 
L 359.692238 172.291145 
" style="fill:none;stroke:#e377c2;stroke-width:4;"/>
    <path clip-path="url(#p096953eabe)" d="M 359.823124 172.314434 
L 360.709986 172.435822 
L 361.264169 172.512779 
L 361.962378 172.600015 
" style="fill:none;stroke:#e377c2;stroke-width:4;"/>
    <path clip-path="url(#p096953eabe)" d="M 362.07609 172.588565 
L 362.125465 172.605024 
L 362.525994 172.670792 
L 362.766948 172.695967 
L 362.856005 172.704749 
" style="fill:none;stroke:#e377c2;stroke-width:4;"/>
    <path clip-path="url(#p096953eabe)" d="M 362.85568 172.751457 
L 362.761094 172.737666 
L 362.374616 172.689202 
L 362.134767 172.655114 
L 362.062819 172.640022 
" style="fill:none;stroke:#e377c2;stroke-width:4;"/>
    <path clip-path="url(#p096953eabe)" d="M 362.990079 172.737015 
L 363.308771 172.79862 
L 363.475371 172.844807 
L 363.601768 172.880131 
" style="fill:none;stroke:#e377c2;stroke-width:4;"/>
    <path clip-path="url(#p096953eabe)" d="M 363.80213 172.949802 
L 363.936919 172.991501 
L 365.044829 173.138195 
L 366.20862 173.302582 
" style="fill:none;stroke:#e377c2;stroke-width:4;"/>
    <path clip-path="url(#p096953eabe)" d="M 366.20862 173.302582 
L 367.174391 173.445828 
" style="fill:none;stroke:#e377c2;stroke-width:4;"/>
   </g>
   <g id="LineCollection_17">
    <path clip-path="url(#p096953eabe)" d="M 281.618342 246.026099 
L 278.682454 245.672993 
" style="fill:none;stroke:#7f7f7f;stroke-width:4;"/>
   </g>
   <g id="LineCollection_18">
    <path clip-path="url(#p096953eabe)" d="M 150.468111 107.640589 
L 150.208031 107.271936 
L 149.865919 106.978679 
L 149.237511 106.652375 
L 148.93944 106.49755 
L 148.683459 106.372975 
L 148.390527 106.223223 
L 146.991701 105.58766 
L 146.663251 105.494309 
L 146.292126 105.42672 
L 145.546883 105.321985 
" style="fill:none;stroke:#bcbd22;stroke-width:4;"/>
   </g>
   <g id="LineCollection_19">
    <path clip-path="url(#p096953eabe)" d="M 152.873821 112.106904 
L 152.761605 111.117389 
" style="fill:none;stroke:#1f77b4;stroke-width:4;"/>
    <path clip-path="url(#p096953eabe)" d="M 152.761605 111.117389 
L 152.654268 110.867652 
L 152.556754 110.72291 
" style="fill:none;stroke:#1f77b4;stroke-width:4;"/>
    <path clip-path="url(#p096953eabe)" d="M 152.6624 110.671389 
L 152.615887 110.567305 
L 152.138401 109.885749 
" style="fill:none;stroke:#1f77b4;stroke-width:4;"/>
    <path clip-path="url(#p096953eabe)" d="M 152.6624 110.671389 
L 152.709953 110.784385 
L 152.762646 110.977396 
L 152.761605 111.117389 
" style="fill:none;stroke:#1f77b4;stroke-width:4;"/>
   </g>
   <g id="LineCollection_20">
    <path clip-path="url(#p096953eabe)" d="M 448.47587 196.080288 
L 448.859941 195.701032 
L 449.006569 195.504768 
L 449.074809 195.391577 
L 449.130494 195.211316 
L 449.14936 194.940502 
" style="fill:none;stroke:#ff7f0e;stroke-width:4;"/>
    <path clip-path="url(#p096953eabe)" d="M 446.909925 198.604263 
L 447.032549 198.126777 
L 447.067157 197.991793 
L 447.220421 197.308091 
L 447.296467 197.136027 
L 447.415383 197.00397 
L 447.599027 196.826572 
L 447.930469 196.568573 
L 448.47587 196.080288 
" style="fill:none;stroke:#ff7f0e;stroke-width:4;"/>
    <path clip-path="url(#p096953eabe)" d="M 446.683151 199.876367 
L 446.813517 199.14485 
L 446.909925 198.604263 
" style="fill:none;stroke:#ff7f0e;stroke-width:4;"/>
   </g>
   <g id="LineCollection_21">
    <path clip-path="url(#p096953eabe)" d="M 566.147727 121.054757 
L 566.954184 121.182845 
" style="fill:none;stroke:#2ca02c;stroke-width:4;"/>
    <path clip-path="url(#p096953eabe)" d="M 563.036458 120.163861 
L 563.256075 120.195477 
L 563.557073 120.263717 
L 564.666285 120.397725 
L 564.744738 120.408915 
L 564.800944 120.444498 
L 564.933846 120.567057 
L 565.294172 120.909949 
L 565.487639 120.961406 
L 566.147727 121.054757 
" style="fill:none;stroke:#2ca02c;stroke-width:4;"/>
    <path clip-path="url(#p096953eabe)" d="M 568.661099 121.40591 
L 567.222071 121.22025 
L 566.954184 121.182845 
" style="fill:none;stroke:#2ca02c;stroke-width:4;"/>
    <path clip-path="url(#p096953eabe)" d="M 563.036458 120.163861 
L 562.936667 120.144541 
L 562.894253 120.135433 
L 562.856067 120.1247 
" style="fill:none;stroke:#2ca02c;stroke-width:4;"/>
    <path clip-path="url(#p096953eabe)" d="M 562.714903 120.123269 
L 562.678733 120.06277 
L 562.652842 120.027706 
L 562.559622 119.950164 
L 562.485592 119.910156 
L 562.392307 119.882769 
" style="fill:none;stroke:#2ca02c;stroke-width:4;"/>
    <path clip-path="url(#p096953eabe)" d="M 570.80855 121.709901 
L 568.746773 121.421588 
" style="fill:none;stroke:#2ca02c;stroke-width:4;"/>
    <path clip-path="url(#p096953eabe)" d="M 571.117159 121.718943 
L 571.02589 121.734751 
L 570.957975 121.732474 
L 570.80855 121.709901 
" style="fill:none;stroke:#2ca02c;stroke-width:4;"/>
   </g>
   <g id="LineCollection_22">
    <path clip-path="url(#p096953eabe)" d="M 434.208408 244.796149 
L 435.022346 244.670988 
L 435.383063 244.615498 
L 435.49079 244.598975 
L 435.636182 244.577508 
L 436.700117 244.41312 
L 437.561608 244.280738 
L 437.803539 244.243528 
L 438.885428 244.081807 
" style="fill:none;stroke:#d62728;stroke-width:4;"/>
    <path clip-path="url(#p096953eabe)" d="M 434.208408 244.796149 
L 433.519436 244.902706 
L 433.359602 244.927426 
L 432.856095 245.005359 
L 432.019974 245.134748 
L 431.486218 245.21808 
" style="fill:none;stroke:#d62728;stroke-width:4;"/>
    <path clip-path="url(#p096953eabe)" d="M 439.217132 244.026317 
L 440.135804 243.867524 
L 441.047776 243.71452 
L 441.421048 243.663714 
L 442.074436 243.577584 
L 442.315326 243.539073 
L 443.03162 243.425361 
L 443.927784 243.281725 
L 444.424526 243.202621 
L 444.854198 243.141602 
L 445.204571 243.08969 
L 445.636911 243.024898 
L 445.829531 242.994518 
L 446.078683 242.993542 
" style="fill:none;stroke:#d62728;stroke-width:4;"/>
    <path clip-path="url(#p096953eabe)" d="M 438.885428 244.081807 
L 439.217132 244.026317 
" style="fill:none;stroke:#d62728;stroke-width:4;"/>
    <path clip-path="url(#p096953eabe)" d="M 431.486218 245.21808 
L 431.158028 245.268171 
" style="fill:none;stroke:#d62728;stroke-width:4;"/>
    <path clip-path="url(#p096953eabe)" d="M 446.078683 242.993542 
L 446.401734 243.085397 
L 447.007373 243.130608 
L 448.10403 243.348534 
L 448.162512 243.360179 
L 449.186375 243.507002 
L 449.683897 243.57791 
L 450.23821 243.656949 
L 451.05501 243.766953 
L 451.195589 243.77593 
L 451.340656 243.734882 
" style="fill:none;stroke:#d62728;stroke-width:4;"/>
   </g>
   <g id="LineCollection_23">
    <path clip-path="url(#p096953eabe)" d="M 454.437939 217.34383 
L 454.355583 218.240775 
L 454.363975 218.275383 
L 454.419074 218.300168 
L 454.486729 218.306413 
L 454.561734 218.318513 
L 454.584568 218.353056 
L 454.588731 218.460198 
L 454.53168 219.200821 
" style="fill:none;stroke:#9467bd;stroke-width:4;"/>
   </g>
   <g id="LineCollection_24">
    <path clip-path="url(#p096953eabe)" d="M 319.333097 201.106706 
L 319.247878 202.024988 
" style="fill:none;stroke:#8c564b;stroke-width:4;"/>
   </g>
   <g id="LineCollection_25">
    <path clip-path="url(#p096953eabe)" d="M 460.593605 177.751919 
L 460.273806 177.693241 
L 460.194767 177.699682 
" style="fill:none;stroke:#e377c2;stroke-width:4;"/>
    <path clip-path="url(#p096953eabe)" d="M 461.761624 179.411866 
L 461.69449 179.304724 
L 461.327918 178.918377 
L 461.155529 178.736815 
L 460.772044 178.321454 
L 460.710244 178.252433 
L 460.699641 178.202538 
L 460.593605 177.751919 
" style="fill:none;stroke:#e377c2;stroke-width:4;"/>
   </g>
   <g id="LineCollection_26">
    <path clip-path="url(#p096953eabe)" d="M 482.177401 237.9735 
L 481.312266 238.590458 
" style="fill:none;stroke:#7f7f7f;stroke-width:4;"/>
   </g>
   <g id="LineCollection_27">
    <path clip-path="url(#p096953eabe)" d="M 536.816429 227.731231 
L 536.678713 228.481808 
L 536.567148 229.089074 
" style="fill:none;stroke:#bcbd22;stroke-width:4;"/>
   </g>
   <g id="LineCollection_28">
    <path clip-path="url(#p096953eabe)" d="M 505.357912 190.773299 
L 506.322382 190.741618 
L 506.454894 190.73726 
L 506.812553 190.72555 
" style="fill:none;stroke:#1f77b4;stroke-width:4;"/>
   </g>
   <g id="LineCollection_29">
    <path clip-path="url(#p096953eabe)" d="M 512.6667 214.761243 
L 512.51916 215.47565 
L 512.451506 215.803255 
L 512.37676 216.320488 
" style="fill:none;stroke:#ff7f0e;stroke-width:4;"/>
   </g>
   <g id="LineCollection_30">
    <path clip-path="url(#p096953eabe)" d="M 509.913219 230.302955 
L 509.610529 230.821749 
L 509.263669 231.416395 
L 509.000922 231.866819 
L 508.340052 232.975705 
" style="fill:none;stroke:#2ca02c;stroke-width:4;"/>
   </g>
   <g id="LineCollection_31">
    <path clip-path="url(#p096953eabe)" d="M 419.073405 218.902685 
L 417.996459 218.742201 
" style="fill:none;stroke:#d62728;stroke-width:4;"/>
   </g>
   <g id="LineCollection_32">
    <path clip-path="url(#p096953eabe)" d="M 471.108314 261.24541 
L 470.773878 262.369779 
L 470.578721 263.025964 
" style="fill:none;stroke:#9467bd;stroke-width:4;"/>
   </g>
   <g id="LineCollection_33">
    <path clip-path="url(#p096953eabe)" d="M 253.683528 40.915832 
L 255.83267 43.706457 
L 256.310547 44.324587 
" style="fill:none;stroke:#8c564b;stroke-width:4;"/>
   </g>
   <g id="LineCollection_34">
    <path clip-path="url(#p096953eabe)" d="M 501.256087 134.319238 
L 500.867462 134.444724 
L 500.403182 134.59389 
L 500.006036 134.722824 
L 499.572266 134.861126 
" style="fill:none;stroke:#e377c2;stroke-width:4;"/>
    <path clip-path="url(#p096953eabe)" d="M 503.993955 133.639113 
L 502.435425 134.151142 
L 501.341826 134.512379 
" style="fill:none;stroke:#e377c2;stroke-width:4;"/>
    <path clip-path="url(#p096953eabe)" d="M 499.456667 134.897035 
L 497.828206 135.409324 
" style="fill:none;stroke:#e377c2;stroke-width:4;"/>
    <path clip-path="url(#p096953eabe)" d="M 497.71625 135.445298 
L 496.884293 135.704403 
L 496.064565 135.96071 
L 495.078628 136.269059 
L 494.569007 136.440147 
" style="fill:none;stroke:#e377c2;stroke-width:4;"/>
   </g>
   <g id="LineCollection_35">
    <path clip-path="url(#p096953eabe)" d="M 569.437241 140.30928 
L 569.382142 140.567799 
L 569.342199 140.81142 
L 569.124403 141.726385 
" style="fill:none;stroke:#7f7f7f;stroke-width:4;"/>
   </g>
   <g id="LineCollection_36">
    <path clip-path="url(#p096953eabe)" d="M 418.076864 126.006949 
L 417.086959 126.223444 
" style="fill:none;stroke:#bcbd22;stroke-width:4;"/>
    <path clip-path="url(#p096953eabe)" d="M 417.086959 126.223444 
L 416.571548 126.344507 
L 416.294163 126.540641 
L 416.502332 127.242948 
L 416.757533 128.069376 
" style="fill:none;stroke:#bcbd22;stroke-width:4;"/>
   </g>
   <g id="LineCollection_37">
    <path clip-path="url(#p096953eabe)" d="M 276.281949 114.872224 
L 276.213384 114.932658 
L 275.269145 115.76377 
L 274.661229 116.285101 
" style="fill:none;stroke:#1f77b4;stroke-width:4;"/>
    <path clip-path="url(#p096953eabe)" d="M 274.488254 116.452742 
L 273.67822 117.164157 
L 273.608743 117.225241 
L 273.296491 117.500153 
L 273.01052 117.751907 
L 272.252592 118.418956 
" style="fill:none;stroke:#1f77b4;stroke-width:4;"/>
   </g>
   <g id="LineCollection_38">
    <path clip-path="url(#p096953eabe)" d="M 183.022179 127.363361 
L 180.9511 126.883273 
" style="fill:none;stroke:#ff7f0e;stroke-width:4;"/>
   </g>
   <g id="LineCollection_39">
    <path clip-path="url(#p096953eabe)" d="M 306.115388 127.581482 
L 305.805738 127.781519 
L 304.662308 128.551221 
" style="fill:none;stroke:#2ca02c;stroke-width:4;"/>
   </g>
   <g id="LineCollection_40">
    <path clip-path="url(#p096953eabe)" d="M 478.237816 221.114408 
L 477.633218 222.667929 
" style="fill:none;stroke:#d62728;stroke-width:4;"/>
   </g>
   <g id="LineCollection_41">
    <path clip-path="url(#p096953eabe)" d="M 490.617127 204.755245 
L 490.891194 204.203534 
" style="fill:none;stroke:#9467bd;stroke-width:4;"/>
    <path clip-path="url(#p096953eabe)" d="M 490.891194 204.203534 
L 490.92333 204.09379 
" style="fill:none;stroke:#9467bd;stroke-width:4;"/>
   </g>
   <g id="LineCollection_42">
    <path clip-path="url(#p096953eabe)" d="M 89.297738 199.18193 
L 88.992186 200.700453 
" style="fill:none;stroke:#8c564b;stroke-width:4;"/>
   </g>
   <g id="LineCollection_43">
    <path clip-path="url(#p096953eabe)" d="M 249.014054 34.67267 
L 249.259042 35.023174 
L 249.71428 35.584317 
L 249.900656 35.8658 
" style="fill:none;stroke:#e377c2;stroke-width:4;"/>
   </g>
   <g id="LineCollection_44">
    <path clip-path="url(#p096953eabe)" d="M 513.717559 259.652923 
L 513.686269 259.578633 
L 513.697197 259.366301 
L 513.711249 259.093406 
L 513.711249 258.693072 
L 513.711249 257.787865 
L 513.680154 257.266599 
L 513.673779 257.159262 
L 513.571776 256.589337 
L 513.566962 256.56221 
L 513.504252 256.200778 
L 513.407128 255.640675 
" style="fill:none;stroke:#7f7f7f;stroke-width:4;"/>
   </g>
   <g id="patch_3">
    <path d="M 64.885937 294.118125 
L 64.885937 22.318125 
" style="fill:none;stroke:#000000;stroke-linecap:square;stroke-linejoin:miter;stroke-width:0.8;"/>
   </g>
   <g id="patch_4">
    <path d="M 595.223408 294.118125 
L 595.223408 22.318125 
" style="fill:none;stroke:#000000;stroke-linecap:square;stroke-linejoin:miter;stroke-width:0.8;"/>
   </g>
   <g id="patch_5">
    <path d="M 64.885938 294.118125 
L 595.223408 294.118125 
" style="fill:none;stroke:#000000;stroke-linecap:square;stroke-linejoin:miter;stroke-width:0.8;"/>
   </g>
   <g id="patch_6">
    <path d="M 64.885938 22.318125 
L 595.223408 22.318125 
" style="fill:none;stroke:#000000;stroke-linecap:square;stroke-linejoin:miter;stroke-width:0.8;"/>
   </g>
   <g id="text_17">
    <!-- William Street -->
    <defs>
     <path d="M 3.328125 72.90625 
L 13.28125 72.90625 
L 28.609375 11.28125 
L 43.890625 72.90625 
L 54.984375 72.90625 
L 70.3125 11.28125 
L 85.59375 72.90625 
L 95.609375 72.90625 
L 77.296875 0 
L 64.890625 0 
L 49.515625 63.28125 
L 33.984375 0 
L 21.578125 0 
z
" id="DejaVuSans-87"/>
     <path d="M 9.421875 75.984375 
L 18.40625 75.984375 
L 18.40625 0 
L 9.421875 0 
z
" id="DejaVuSans-108"/>
     <path d="M 52 44.1875 
Q 55.375 50.25 60.0625 53.125 
Q 64.75 56 71.09375 56 
Q 79.640625 56 84.28125 50.015625 
Q 88.921875 44.046875 88.921875 33.015625 
L 88.921875 0 
L 79.890625 0 
L 79.890625 32.71875 
Q 79.890625 40.578125 77.09375 44.375 
Q 74.3125 48.1875 68.609375 48.1875 
Q 61.625 48.1875 57.5625 43.546875 
Q 53.515625 38.921875 53.515625 30.90625 
L 53.515625 0 
L 44.484375 0 
L 44.484375 32.71875 
Q 44.484375 40.625 41.703125 44.40625 
Q 38.921875 48.1875 33.109375 48.1875 
Q 26.21875 48.1875 22.15625 43.53125 
Q 18.109375 38.875 18.109375 30.90625 
L 18.109375 0 
L 9.078125 0 
L 9.078125 54.6875 
L 18.109375 54.6875 
L 18.109375 46.1875 
Q 21.1875 51.21875 25.484375 53.609375 
Q 29.78125 56 35.6875 56 
Q 41.65625 56 45.828125 52.96875 
Q 50 49.953125 52 44.1875 
z
" id="DejaVuSans-109"/>
     <path id="DejaVuSans-32"/>
     <path d="M 53.515625 70.515625 
L 53.515625 60.890625 
Q 47.90625 63.578125 42.921875 64.890625 
Q 37.9375 66.21875 33.296875 66.21875 
Q 25.25 66.21875 20.875 63.09375 
Q 16.5 59.96875 16.5 54.203125 
Q 16.5 49.359375 19.40625 46.890625 
Q 22.3125 44.4375 30.421875 42.921875 
L 36.375 41.703125 
Q 47.40625 39.59375 52.65625 34.296875 
Q 57.90625 29 57.90625 20.125 
Q 57.90625 9.515625 50.796875 4.046875 
Q 43.703125 -1.421875 29.984375 -1.421875 
Q 24.8125 -1.421875 18.96875 -0.25 
Q 13.140625 0.921875 6.890625 3.21875 
L 6.890625 13.375 
Q 12.890625 10.015625 18.65625 8.296875 
Q 24.421875 6.59375 29.984375 6.59375 
Q 38.421875 6.59375 43.015625 9.90625 
Q 47.609375 13.234375 47.609375 19.390625 
Q 47.609375 24.75 44.3125 27.78125 
Q 41.015625 30.8125 33.5 32.328125 
L 27.484375 33.5 
Q 16.453125 35.6875 11.515625 40.375 
Q 6.59375 45.0625 6.59375 53.421875 
Q 6.59375 63.09375 13.40625 68.65625 
Q 20.21875 74.21875 32.171875 74.21875 
Q 37.3125 74.21875 42.625 73.28125 
Q 47.953125 72.359375 53.515625 70.515625 
z
" id="DejaVuSans-83"/>
     <path d="M 41.109375 46.296875 
Q 39.59375 47.171875 37.8125 47.578125 
Q 36.03125 48 33.890625 48 
Q 26.265625 48 22.1875 43.046875 
Q 18.109375 38.09375 18.109375 28.8125 
L 18.109375 0 
L 9.078125 0 
L 9.078125 54.6875 
L 18.109375 54.6875 
L 18.109375 46.1875 
Q 20.953125 51.171875 25.484375 53.578125 
Q 30.03125 56 36.53125 56 
Q 37.453125 56 38.578125 55.875 
Q 39.703125 55.765625 41.0625 55.515625 
z
" id="DejaVuSans-114"/>
    </defs>
    <g transform="translate(287.932798 16.318125)scale(0.12 -0.12)">
     <use xlink:href="#DejaVuSans-87"/>
     <use x="96.626953" xlink:href="#DejaVuSans-105"/>
     <use x="124.410156" xlink:href="#DejaVuSans-108"/>
     <use x="152.193359" xlink:href="#DejaVuSans-108"/>
     <use x="179.976562" xlink:href="#DejaVuSans-105"/>
     <use x="207.759766" xlink:href="#DejaVuSans-97"/>
     <use x="269.039062" xlink:href="#DejaVuSans-109"/>
     <use x="366.451172" xlink:href="#DejaVuSans-32"/>
     <use x="398.238281" xlink:href="#DejaVuSans-83"/>
     <use x="461.714844" xlink:href="#DejaVuSans-116"/>
     <use x="500.923828" xlink:href="#DejaVuSans-114"/>
     <use x="539.787109" xlink:href="#DejaVuSans-101"/>
     <use x="601.310547" xlink:href="#DejaVuSans-101"/>
     <use x="662.833984" xlink:href="#DejaVuSans-116"/>
    </g>
   </g>
  </g>
 </g>
 <defs>
  <clipPath id="p096953eabe">
   <rect height="271.8" width="530.33747" x="64.885937" y="22.318125"/>
  </clipPath>
 </defs>
</svg>
